<svg width="86" height="86" viewBox="0 0 86 86" fill="none" xmlns="http://www.w3.org/2000/svg">
<circle cx="43" cy="43" r="41.5" fill="white" stroke="url(#paint0_linear)" stroke-width="3"/>
<circle cx="43" cy="43" r="35" fill="url(#paint1_linear)"/>
<path d="M39 40C39 38.8956 38.1044 38 37 38H36C33.7906 38 32 39.7906 32 42V45C32 47.2094 33.7906 49 36 49H37C38.1044 49 39 48.1044 39 47V40ZM50 49C52.2094 49 54 47.2094 54 45V42C54 39.7906 52.2094 38 50 38H49C47.8956 38 47 38.8956 47 40V47C47 48.1044 47.8956 49 49 49H50ZM43 27C34.0737 27 27.2862 34.4269 27 43V44C27 44.5525 27.4475 45 28 45H29C29.5525 45 30 44.5525 30 44V43C30 35.8319 35.8319 30 43 30C50.1681 30 56 35.8319 56 43H55.9925C55.9975 43.1519 56 53.3575 56 53.3575C56 54.8169 54.8169 56 53.3575 56H47C47 54.3431 45.6569 53 44 53H42C40.3431 53 39 54.3431 39 56C39 57.6569 40.3431 59 42 59H53.3575C56.4738 59 59 56.4738 59 53.3575V43C58.7138 34.4269 51.9263 27 43 27Z" fill="white"/>
<defs>
<linearGradient id="paint0_linear" x1="5.23464" y1="3.00002" x2="84.9632" y2="5.00692" gradientUnits="userSpaceOnUse">
<stop stop-color="#C1EA4F"/>
<stop offset="0.463542" stop-color="#8BDC65"/>
<stop offset="1" stop-color="#16885F"/>
</linearGradient>
<linearGradient id="paint1_linear" x1="43" y1="8" x2="43" y2="78" gradientUnits="userSpaceOnUse">
<stop stop-color="#9FD53F"/>
<stop offset="1" stop-color="#3D8933"/>
</linearGradient>
</defs>
</svg>
