<svg xmlns="http://www.w3.org/2000/svg" xmlns:xlink="http://www.w3.org/1999/xlink" viewBox="0 0 387.4992 102.0609"><defs><style>.a{fill:url(#a);}.b{fill:url(#b);}.c{fill:#fff;}.d{fill:#ffc107;}.e{fill:#ffd54f;}.f{fill:#f44336;}</style><linearGradient id="a" x1="5.3625" y1="58.7219" x2="392.8617" y2="58.7219" gradientUnits="userSpaceOnUse"><stop offset="0" stop-color="#ebebe8"/><stop offset="1" stop-color="#bbbcbc"/></linearGradient><linearGradient id="b" x1="2.2271" y1="0.4932" x2="99.8337" y2="101.5678" gradientUnits="userSpaceOnUse"><stop offset="0" stop-color="#98bdee"/><stop offset="1" stop-color="#5291c9"/></linearGradient></defs><path class="a" d="M383.1718,7.6914H117.1133a9.69,9.69,0,0,0-9.69,9.69,9.69,9.69,0,0,0-9.69-9.69H15.0524a9.69,9.69,0,0,0-9.69,9.69v82.6808a9.69,9.69,0,0,0,9.69,9.69H97.7333a9.69,9.69,0,0,0,9.69-9.69,9.69,9.69,0,0,0,9.69,9.69H383.1718a9.69,9.69,0,0,0,9.69-9.69V17.3815A9.69,9.69,0,0,0,383.1718,7.6914Z" transform="translate(-5.3625 -7.6914)"/><path class="b" d="M4.5939,0H97.467a4.5938,4.5938,0,0,1,4.5938,4.5938V97.467a4.5939,4.5939,0,0,1-4.5939,4.5939H4.5938A4.5938,4.5938,0,0,1,0,97.4671V4.5939A4.5939,4.5939,0,0,1,4.5939,0Z"/><rect class="c" x="101.4728" y="9.5423" width="1.1762" height="1.764"/><path class="c" d="M108.0114,94.1982h-1.1762V90.78h1.1762Zm0-6.8366h-1.1762V83.9432h1.1762Zm0-6.8362h-1.1762V77.1071h1.1762Zm0-6.8365h-1.1762v-3.418h1.1762Zm0-6.8362h-1.1762V63.4343h1.1762Zm0-6.8364h-1.1762V56.5981h1.1762Zm0-6.8366h-1.1762v-3.418h1.1762Zm0-6.8362h-1.1762V42.9251h1.1762Zm0-6.8367h-1.1762V36.089h1.1762Zm0-6.8362h-1.1762V29.2524h1.1762Zm0-6.8362h-1.1762V22.4162h1.1762Z" transform="translate(-5.3625 -7.6914)"/><rect class="c" x="101.4728" y="89.9248" width="1.1762" height="1.764"/><path class="d" d="M86.1464,54.3674H26.6408a1.4877,1.4877,0,0,0-1.4877,1.4877V82.6326a7.4382,7.4382,0,0,0,7.4382,7.4382H80.1958a7.4382,7.4382,0,0,0,7.4382-7.4382V55.8551A1.4877,1.4877,0,0,0,86.1464,54.3674Z" transform="translate(-5.3625 -7.6914)"/><path class="e" d="M26.6408,39.4911H86.1464a4.463,4.463,0,0,1,4.4629,4.4629V52.88a4.4629,4.4629,0,0,1-4.4629,4.4629H26.6408A4.4629,4.4629,0,0,1,22.1779,52.88V43.954A4.463,4.463,0,0,1,26.6408,39.4911Z" transform="translate(-5.3625 -7.6914)"/><path class="f" d="M56.3935,42.4664a16.4621,16.4621,0,0,1-15.6856-11.69h0a4.4451,4.4451,0,0,1,5.48-5.4835A16.462,16.462,0,0,1,57.8812,40.9785,1.4877,1.4877,0,0,1,56.3935,42.4664ZM43.5613,29.9226A13.4721,13.4721,0,0,0,54.8107,39.39a13.4718,13.4718,0,0,0-9.47-11.2525,1.47,1.47,0,0,0-1.7851,1.7851Z" transform="translate(-5.3625 -7.6914)"/><path class="f" d="M56.3935,42.4664a1.4877,1.4877,0,0,1-1.4876-1.4877A16.4621,16.4621,0,0,1,66.5987,25.293a4.445,4.445,0,0,1,5.4834,5.4864h0A16.462,16.462,0,0,1,56.3935,42.4664ZM67.8246,28.09a1.2971,1.2971,0,0,0-.3778.0564,13.4722,13.4722,0,0,0-9.47,11.2495A13.4719,13.4719,0,0,0,69.226,29.9225h0a1.3987,1.3987,0,0,0-.3868-1.3984A1.4438,1.4438,0,0,0,67.8246,28.09Z" transform="translate(-5.3625 -7.6914)"/><path class="f" d="M47.4677,51.3922a1.4876,1.4876,0,0,1-1.0532-2.5409L55.34,39.9254a1.4877,1.4877,0,0,1,2.14,2.067l-.0365.0366L48.518,50.9548A1.4872,1.4872,0,0,1,47.4677,51.3922Z" transform="translate(-5.3625 -7.6914)"/><rect class="f" x="49.5435" y="31.7997" width="2.9752" height="50.5798"/><path class="f" d="M65.3194,51.3922a1.4871,1.4871,0,0,1-1.0533-.4345L55.34,42.0319a1.4876,1.4876,0,0,1,2.1034-2.1036L66.37,48.8542a1.4878,1.4878,0,0,1-1.05,2.538Z" transform="translate(-5.3625 -7.6914)"/></svg>