<svg id="epziiwkgazc71" xmlns="http://www.w3.org/2000/svg" xmlns:xlink="http://www.w3.org/1999/xlink" viewBox="0 0 512 512" shape-rendering="geometricPrecision" text-rendering="geometricPrecision"><style><![CDATA[#epziiwkgazc72_ts {animation: epziiwkgazc72_ts__ts 2000ms linear infinite normal forwards}@keyframes epziiwkgazc72_ts__ts { 0% {transform: translate(256px,256.002772px) skewX(180deg) skewY(0deg) scale(0.963110,0.963110)} 25% {transform: translate(256px,256.002772px) skewX(180deg) skewY(0deg) scale(-0.034065,0.963110)} 50% {transform: translate(256px,256.002772px) skewX(180deg) skewY(0deg) scale(-0.963838,0.963110)} 75% {transform: translate(256px,256.002772px) skewX(180deg) skewY(0deg) scale(-0.095460,0.963110)} 100% {transform: translate(256px,256.002772px) skewX(180deg) skewY(0deg) scale(0.963838,0.963110)} }]]></style><g id="epziiwkgazc72_ts" transform="translate(256,256.002772) skewX(180) skewY(0) scale(0.963110,0.963110)"><g id="epziiwkgazc72" transform="translate(-256,-256)"><g id="epziiwkgazc73"><path id="epziiwkgazc74" d="M256,512C187.620000,512,123.333000,485.371000,74.980000,437.020000C26.629000,388.667000,-0,324.380000,-0,256C-0,187.620000,26.629000,123.333000,74.980000,74.980000C123.333000,26.629000,187.620000,-0,256,-0C324.380000,-0,388.667000,26.629000,437.020000,74.980000C485.371000,123.333000,512,187.620000,512,256C512,324.380000,485.371000,388.667000,437.020000,437.020000C388.667000,485.371000,324.380000,512,256,512Z" fill="rgb(251,218,53)" stroke="none" stroke-width="1"/></g><path id="epziiwkgazc75" d="M437.020000,437.020000C485.371000,388.667000,512,324.380000,512,256C512,187.620000,485.371000,123.333000,437.020000,74.980000C388.667000,26.629000,324.380000,-0,256,-0L256,512C324.380000,512,388.667000,485.371000,437.020000,437.020000Z" fill="rgb(247,186,53)" stroke="none" stroke-width="1"/><g id="epziiwkgazc76"><path id="epziiwkgazc77" d="M256,451.750000C148.063000,451.750000,60.250000,363.937000,60.250000,256C60.250000,148.063000,148.063000,60.250000,256,60.250000C363.937000,60.250000,451.750000,148.063000,451.750000,256C451.750000,363.937000,363.937000,451.750000,256,451.750000ZM256,90.250000C164.605000,90.250000,90.250000,164.605000,90.250000,256C90.250000,347.395000,164.605000,421.750000,256,421.750000C347.395000,421.750000,421.750000,347.395000,421.750000,256C421.750000,164.605000,347.395000,90.250000,256,90.250000Z" fill="rgb(247,186,53)" stroke="none" stroke-width="1"/></g><path id="epziiwkgazc78" d="M316.250000,255.938000C324.534000,255.938000,331.250000,249.222000,331.250000,240.938000C331.250000,232.654000,324.534000,225.938000,316.250000,225.938000L284.028000,225.938000L328.731000,158.883000C333.326000,151.990000,331.463000,142.677000,324.570000,138.082000C317.678000,133.488000,308.364000,135.349000,303.769000,142.243000L256,213.896000L208.231000,142.242000C203.635000,135.348000,194.320000,133.486000,187.430000,138.081000C180.537000,142.677000,178.674000,151.990000,183.269000,158.882000L227.972000,225.937000L195.750000,225.937000C187.466000,225.937000,180.750000,232.653000,180.750000,240.937000C180.750000,249.221000,187.466000,255.937000,195.750000,255.937000L241,255.937000L241,286.187000L195.750000,286.187000C187.466000,286.187000,180.750000,292.903000,180.750000,301.187000C180.750000,309.471000,187.466000,316.187000,195.750000,316.187000L241,316.187000L241,361.437000C241,369.721000,247.716000,376.437000,256,376.437000C264.284000,376.437000,271,369.721000,271,361.437000L271,316.187000L316.250000,316.187000C324.534000,316.187000,331.250000,309.471000,331.250000,301.187000C331.250000,292.903000,324.534000,286.187000,316.250000,286.187000L271,286.187000L271,255.937000L316.250000,255.937000Z" fill="rgb(247,186,53)" stroke="none" stroke-width="1"/><g id="epziiwkgazc79"><path id="epziiwkgazc710" d="M421.750000,256C421.750000,347.395000,347.395000,421.750000,256,421.750000L256,451.750000C363.937000,451.750000,451.750000,363.937000,451.750000,256C451.750000,148.063000,363.937000,60.250000,256,60.250000L256,90.250000C347.395000,90.250000,421.750000,164.605000,421.750000,256Z" fill="rgb(252,150,2)" stroke="none" stroke-width="1"/><path id="epziiwkgazc711" d="M271,361.438000L271,316.188000L316.250000,316.188000C324.534000,316.188000,331.250000,309.472000,331.250000,301.188000C331.250000,292.904000,324.534000,286.188000,316.250000,286.188000L271,286.188000L271,255.938000L316.250000,255.938000C324.534000,255.938000,331.250000,249.222000,331.250000,240.938000C331.250000,232.654000,324.534000,225.938000,316.250000,225.938000L284.028000,225.938000L328.731000,158.883000C333.326000,151.990000,331.463000,142.677000,324.570000,138.082000C317.678000,133.488000,308.364000,135.349000,303.769000,142.243000L256,213.896000L256,376.438000C264.284000,376.438000,271,369.722000,271,361.438000Z" fill="rgb(252,150,2)" stroke="none" stroke-width="1"/></g></g></g></svg>