<svg xmlns="http://www.w3.org/2000/svg" viewBox="0 0 485 485"><defs><style>.a{fill:#fff;}.b{fill:#008041;}</style></defs><circle class="a" cx="242.5" cy="242.5" r="242.5"/><path class="b" d="M289.4356,415.16H122.0765l19.4016-91.9016H71c1.631-7.5072,3.1568-14.3858,4.6168-21.2782,4.0415-19.0787,8.2127-38.1324,11.96-57.269.8376-4.2779,2.5743-5.18,6.609-5.1368,20.17.2156,40.3439.0716,60.5158.1677,2.7341.013,4.2638-.4625,4.9048-3.5642,5.1361-24.854,10.451-49.671,15.7163-74.4983.7778-3.6674,1.8423-7.2974,2.2939-11.0033.37-3.034,1.872-3.4616,4.5027-3.4521,22.9286.0824,45.8585-.05,68.7856.15,3.68.0321,4.9071-1.1342,5.5814-4.586,2.6119-13.37,5.5287-26.6811,8.3389-40.0125.1264-.6.3206-1.1855.5264-1.9349H407c-1.3583,6.5317-2.6555,12.8621-3.9959,19.1833-.9857,4.6485-2.1849,9.2582-2.9861,13.937-.4773,2.7871-1.7444,3.4991-4.4822,3.493-37.5881-.0846-75.1769.0278-112.7643-.1491-4.1739-.02-5.48,1.2561-6.1731,5.2376-2.1863,12.5585-4.9191,25.0209-7.2926,37.5486-.5573,2.9412-1.684,4.0392-4.8936,4.0161-21.9253-.1576-43.8524-.0732-65.7789-.067-8.2644.0024-8.2644.0023-9.2327,9.2481,1.2953.1168,2.5907.3345,3.8861.3355,27.5648.0211,55.13-.0139,82.6942.064,3.06.0086,4.5115-.6,5.1789-4.1048,2.6652-13.9945,5.8177-27.8963,8.8377-42.0564H397.1194c-.55,3.0621-1.0024,6.0806-1.6459,9.0578-1.7162,7.9407-3.6164,15.843-5.2269,23.8044-.5808,2.8716-1.857,3.7215-4.7819,3.7084-25.81-.1161-51.6216.02-77.4311-.1454-3.9-.0251-5.3485,1.1208-6.0919,5.0075-2.6277,13.7393-5.7055,27.3926-8.6684,41.3408H288.667l-99.9849-.0058c-8.11,0-8.6169.51-8.8273,9.343h76.4745c-5.8519,28.0786-11.5768,55.5479-17.3766,83.3767h-4.5978c-22.4277.0008-44.8568.1255-67.282-.1091-4.1565-.0435-6.0355,1.0989-6.089,5.2164a34.6181,34.6181,0,0,1-.62,4.2131c1.4915,0,2.6916,0,3.8917,0,27.5648-.0006,55.13-.0562,82.694.0737,3.124.0147,4.3332-.9012,4.9653-3.9559,5.8008-28.0356,11.754-56.04,17.6641-84.0526.3074-1.4569.6274-2.9112.9764-4.5285H377.7336l-7.8984,36.4944h-4.9161c-25.8107-.0013-51.6216.0513-77.4316-.0737-3.1536-.0153-4.207.9507-4.8447,4.0531-5.8138,28.2863-11.8862,56.5195-17.7392,84.7979-.6549,3.1639-1.89,4.1815-5.1679,4.17q-50.9315-.1842-101.864-.0429c-6.2566.0109-5.2369-1.311-6.6812,5.65-.1983.956-.364,1.9187-.6382,3.3741,1.5628.1216,2.8622.3106,4.1618.3111q58.8256.0219,117.6514.06c2.9408.0055,4.33-.5916,5.0077-3.869,5.7954-28.0334,11.8906-56.0047,17.7267-84.03.7107-3.4127,1.8751-4.5826,5.5619-4.5435,20.9218.2217,41.8472.1073,62.7714.1072h4.5374c-1.2,6.1191-2.2955,11.8442-3.4514,17.5571-1.0662,5.2693-2.41,10.4932-3.2129,15.8-.42,2.7716-1.55,3.3986-4.1458,3.3792-14.6586-.11-29.3194.0318-43.9773-.1212-3.065-.032-4.3065.7926-4.9572,3.9372-5.8768,28.4006-11.9476,56.7612-17.97,85.1317C290.0494,412.987,289.7554,413.9427,289.4356,415.16ZM169.6139,285.7158a5.2,5.2,0,0,0,1.3605.5325q26.478.0542,52.9562.0215c.7276-.0017,1.9689-.5469,2.0946-1.0554.6877-2.782,1.1013-5.6317,1.6772-8.8378-18.55,0-36.19-.0234-53.8294.0757a3.1464,3.1464,0,0,0-2.3078,1.7384C170.718,280.6322,170.2362,283.2006,169.6139,285.7158Zm-18.3019-9.32c-16.6518,0-32.509-.0215-48.3655.0747a2.7391,2.7391,0,0,0-1.9184,1.7094c-.6293,2.4956-.95,5.0689-1.3848,7.59a5.5939,5.5939,0,0,0,1.3779.4908c15.2617.033,30.5237.0713,45.785-.0108a3.154,3.154,0,0,0,2.3985-1.6188C150.0549,282.1979,150.5219,279.63,151.312,276.3961Z" transform="translate(-8 -8.5)"/></svg>