<svg xmlns="http://www.w3.org/2000/svg" viewBox="0 0 485 485"><defs><style>.a{fill:#fff;}.b{fill:#2a9178;}</style></defs><circle class="a" cx="242.5" cy="242.5" r="242.5"/><path class="b" d="M294.8972,57.2864c0,4.1383,0,8.0838,0,12.0294q0,43.278-.0011,86.5561c-.0008,27.7079-.0013,27.7084-27.9981,29.1982-.8112.0431-1.94-.292-2.3863.1235-3.111,2.8942-8.5274,5.8151-8.6879,8.9582-.8631,16.8967-.4081,33.8607-.4081,50.62,16.3711,0,31.342-.3765,46.2828.1322,9.9845.34,13.7874-3.4589,13.59-13.5289-.47-23.9666-.168-47.9484-.1737-71.924-.004-16.1646-.0008-32.3292-.0008-48.7161,53.6079,10.1729,96.8971,90.6263,89.2632,163.6888-6.7263,64.3754-74.59,131.2328-133.3735,129.8868,0-27.4287-.1883-54.925.372-82.4061.0429-2.1059,5.2242-5.5653,8.2716-5.8727,8.4516-.8525,17.146.4,25.5193-.7791,3.5933-.506,9.3321-4.8319,9.4764-7.6582.8837-17.2988.4422-34.6654.4422-51.7319-16.7446,0-32.155.2319-47.5537-.089-8.876-.1851-12.4775,3.5568-12.2741,12.3678.3187,13.8085.39,27.6459-.2327,41.435-.1383,3.0612-3.6039,5.9719-5.5374,8.9519-1.7613-2.9776-4.921-5.8986-5.044-8.9424-.5577-13.7943-.2525-27.6232-.27-41.44-.01-7.7033-3.19-12.3558-11.5613-12.32-15.74.0678-31.4808.02-48.186.02,0,17.5185.0658,34.1106-.0316,50.7018-.04,6.8732,3.5044,9.28,9.9285,9.1439,8.1226-.1728,16.26.2116,24.3766-.0678,7.3582-.2533,10.086,2.9758,9.9757,10.2084-.2663,17.47-.07,34.9461-.0633,52.42q.0051,13.1169.0006,26.22C175.9951,403.7961,94.7,348.1208,93.143,257.7093c-1.14-66.2152,47.7384-145.4619,91.2521-146.1469q0,7.2053,0,14.39c-.0049,35.3539.2065,70.71-.1606,106.06-.0971,9.3581,2.9177,13.2412,12.6132,12.8972,15.573-.5523,31.18-.1481,47.3329-.1481,0-13.1951.0182-27.3824-.0045-41.57-.0282-17.5863-.5173-18.0772-17.5361-18.1531-22.75-.1012-23.3892-.701-23.408-23.1507q-.0432-51.7137-.0075-103.4163c-69.9411-.09-149.4542,96.61-152.5608,181.9716-3.9959,109.7969,77.8239,202.0621,188.024,208.704C347.4241,455.7007,442.53,371.6,449.0592,264.4054,456.4252,143.475,364.8,67.7584,294.8972,57.2864Z" transform="translate(-8 -8.5)"/><path class="b" d="M228.6,111.141c-.0023,14.5853-.0392,29.1707.0069,43.7558.0586,18.5359.5107,18.9525,19.28,18.9974,2.0256.0048,4.0512.026,6.0767.0126,14.1557-.0932,16.7617-2.5494,16.8533-17.1086.1578-25.1181.0721-50.2378.0741-75.3569.0025-32,.0073-31.6449-31.862-30.6475-8.9872.2813-10.7606,3.8674-10.5546,11.733C228.8993,78.7215,228.6027,94.9352,228.6,111.141Z" transform="translate(-8 -8.5)"/></svg>