<svg xmlns="http://www.w3.org/2000/svg" viewBox="0 0 485 485"><defs><style>.a{fill:#fff;}.b{fill:#e82525;}</style></defs><circle class="a" cx="242.5" cy="242.5" r="242.5"/><path class="b" d="M451.0512,225.73c-4.4008-36.4074-17.6923-69.5095-40.2143-98.6265q-47.169-60.981-122.9-75.9461c-9.0926-1.7895-18.3487-2.7476-27.5294-4.09h-19c-9.373,1.2812-18.8035,2.2408-28.1089,3.9015a194.495,194.495,0,0,0-89.0137,40.5554c-39.4268,31.7394-63.7794,72.7035-73.2214,122.42-1.7,8.9518-2.4613,18.082-3.656,27.13v19.0007c.3424,1.946.839,3.8791,1.0042,5.84,2.5513,30.2963,10.7313,58.9645,26.3171,85.103,34.1891,57.3378,84.3409,91.3537,150.7,100.131A193.2678,193.2678,0,0,0,339.8752,431.794c47.3825-23.8847,80.6428-60.7875,99.671-110.3371C451.4132,290.5552,455.0058,258.4454,451.0512,225.73ZM235.199,418.9674a29.8393,29.8393,0,0,1-.46,3.2936c-51.0434-5.5482-92.8285-27.855-122.661-69.24-41.065-56.9677-46.4535-118.7354-15.02-181.4238,27.519-54.8813,74.17-84.8882,135.3428-93.5088V178.11c-6.3256,0-12.4438-.0008-18.562,0-8.4994.0015-16.9993-.057-25.498.0211-12.4924.1148-21.8087,9.397-21.8241,21.8159q-.0618,49.998-.01,99.9962c.0043,12.8511,8.9477,22.16,21.7859,22.3256,14.1634.1824,28.3312.1225,42.496.0185,3.1038-.0228,4.4966.7881,4.4863,4.1836C235.182,357.303,235.2191,388.1353,235.199,418.9674ZM211.825,287.3185c-2.4566.0019-4.6144-.0034-4.5959-3.5557.12-22.98.1123-45.96.1619-68.94a6.0962,6.0962,0,0,1,.451-1.3523h85.112c.096,2.0145.2406,3.646.2415,5.2776.0113,21.15-.0811,42.3005.0746,63.4493.0282,3.8421-.9752,5.1774-5.0091,5.1533C262.7832,287.2,237.3039,287.298,211.825,287.3185Zm192.48,39.2c-27.0144,56.32-74.2184,86.9068-136.9753,95.8188v-6.8582c0-28.9987.1417-57.9987-.1312-86.9948-.05-5.2926,1.68-6.396,6.5517-6.27,12.324.3188,24.6626.1883,36.994.0781,14.32-.1278,22.9582-8.7675,22.9887-23.1064q.1046-49.2475-.0064-98.4953c-.0238-13.6646-8.9536-22.5461-22.5258-22.5718-14.9817-.0282-29.9634-.0064-45.4065-.0064V78.1384c46.2681,4.8153,85.5611,23.9173,114.9442,59.7412C427.8566,195.3258,436.4382,259.527,404.3053,326.5183Z" transform="translate(-8 -8.5)"/></svg>