<svg xmlns="http://www.w3.org/2000/svg" xmlns:xlink="http://www.w3.org/1999/xlink" viewBox="0 0 487.5385 487.5385"><defs><style>.a{fill:url(#a);}.b{fill:#fff;}</style><linearGradient id="a" x1="46.5562" y1="39.5491" x2="440.9823" y2="447.9893" gradientUnits="userSpaceOnUse"><stop offset="0" stop-color="#46aef7"/><stop offset="1" stop-color="#1dd5e6"/></linearGradient></defs><rect class="a" width="487.5385" height="487.5385" rx="146.8365"/><path class="b" d="M300.1113,173.024c.0391,8.0288.0456,16.058.0713,24.0872V170.94C300.1569,171.6335,300.1078,172.3107,300.1113,173.024Z" transform="translate(-6.0549 -6)"/><path class="b" d="M340.2723,114.0642v70.6609c.0128,2.5581-.005,5.1168,0,7.675-.001,5.7623.0272,11.5246,0,17.288-.0085,5.26.0024,10.5185,0,15.7775v15.5571h-.003q.0045,14.9174.004,29.8341c-.0159,50.92-30.4613,84.1924-81.4207,88.5592q-4.4332.38-8.808.4548c-20.3494.3482-39.6849-4.38-57.3295-15.6166-22.4157-14.276-34.6983-35.1248-35.704-61.4645-1.02-26.7469-.478-53.5636-.214-80.3457a26.3822,26.3822,0,0,1,3.7218-13.5087c3.8244-6.2988,10.2179-10.2153,17.3178-10.0226,11.68.3175,18.8127,8.9268,18.8994,23.407.1422,23.8578-.1139,47.7185.0877,71.5758.2447,28.8845,21.4037,47.9029,52.89,47.8732a69.3428,69.3428,0,0,0,10.9188-.8452c24.2046-3.8962,39.2861-20.939,39.47-46.2.0619-8.4745.054-16.95.0792-25.4247V197.1112c-.0257-8.0292-.0322-16.0584-.0713-24.0872-.0035-.7133.0456-1.3905.0713-2.0836V94.7431a163.74,163.74,0,1,0,40.09,19.3211Z" transform="translate(-6.0549 -6)"/></svg>