<svg xmlns="http://www.w3.org/2000/svg" xmlns:xlink="http://www.w3.org/1999/xlink" viewBox="0 0 487.5385 487.5385"><defs><style>.a{fill:url(#a);}.b{fill:#fff;}</style><linearGradient id="a" x1="46.5562" y1="450.4509" x2="440.9824" y2="42.0106" gradientTransform="matrix(1, 0, 0, -1, 0, 490)" gradientUnits="userSpaceOnUse"><stop offset="0" stop-color="#46aef7"/><stop offset="1" stop-color="#1dd5e6"/></linearGradient></defs><rect class="a" width="487.5385" height="487.5385" rx="146.8365"/><path class="b" d="M393.2255,269.596a188.856,188.856,0,0,0-22.2186-40.6423c-.9735-1.3463-1.9866-2.4056-1.0857-4.6331,4.3757-10.8271,2.9568-21.3276-2.6334-31.399-2.5178-4.5408-5.5043-8.8571-5.7914-14.3284-.4191-7.8968-2.4221-15.4834-4.4747-23.08-7.1609-26.5019-21.43-47.681-45.9914-60.98a120.5,120.5,0,0,0-44.6979-13.5793,151.46,151.46,0,0,0-48.3212,2.3033c-26.4656,5.6133-45.9354,21.2154-61.0129,42.8466-9.9031,14.2162-16.9518,29.6765-19.06,47.1893-.4059,3.3693.825,7.0817-1.353,10.18a21.3481,21.3481,0,0,0-3.5078,8.8274,40.35,40.35,0,0,1-4.3031,13.4407,24.2285,24.2285,0,0,0-2.5212,16.9551c.5181,2.5014-.0165,3.8049-1.7523,5.1084a110.6121,110.6121,0,0,0-25.8716,27.6305c-10.154,15.2325-16.15,31.7422-17.1235,50.0272a52.7856,52.7856,0,0,0,3.0789,21.4662c1.2507,3.366,2.9039,4.9434,6.8771,3.7884a22.1873,22.1873,0,0,0,8.7284-4.6958,47.2528,47.2528,0,0,0,12.4375-16.513c.33-.7524.2442-1.9107,1.4487-1.8513,1.0955.0528,1.1978,1.01,1.3859,1.8909,1.7094,7.9133,5.3889,15.0346,9.3356,21.9744,4.2108,7.415,10.2464,13.3846,16.5559,18.9747,2.201,1.9536,5.3261,2.8644,6.557,6.1742a38.5883,38.5883,0,0,0-12.7477,2.01c-6.8045,2.3463-12.8534,5.8211-14.4274,13.6783-1.5048,7.5074-2.0229,14.9224,4.841,20.4795a37.5789,37.5789,0,0,0,8.9627,5.3261c11.4277,4.874,23.5682,6.4547,35.7616,7.24,15.0741.97,30.2143,1.3332,44.9948-2.7653a85.4271,85.4271,0,0,0,23.928-11.1077c.7029-.4619,1.1682-1.5179,2.1713-1.2275,5.907,1.7093,12.134-.066,18.1168,2.267a145.4558,145.4558,0,0,0,29.7656,8.2532c15.1963,2.4552,30.4486,3.6068,45.7835,1.6566,10.3916-1.3233,20.5752-3.61,29.6765-9.1343,11.7016-7.1048,12.058-19.44,1.0758-27.4226A106.5587,106.5587,0,0,0,348.6365,355.86c-1.5575-.7359-3.27-1.2407-4.5011-2.9468,12.1174-11.1341,18.2256-25.8816,24.3339-40.9491,3.4781,6.4415,6.8639,12.5563,11.3551,17.9286,4.7816,5.7122,8.9462,5.5769,13.6354-.132a21.66,21.66,0,0,0,4.0886-7.6394C402.9339,304.0541,399.9937,286.5907,393.2255,269.596ZM259.4124,154.8929a35.0656,35.0656,0,0,1,4.99-19.7469c7.26-11.86,19.5588-12.1141,26.8022-.2706,6.2666,10.2595,6.4481,23.11,3.2406,34.4449-1.551,5.4779-3.8049,10.3981-9.2432,13.18-7.3886,3.7784-14.2129,2.2836-19.1793-4.3922C260.9436,171.2838,259.1121,163.486,259.4124,154.8929Zm-48.1859-22.2813c6.9134-8.9362,17.0211-8.9824,23.8817-.0561,5.1942,6.7649,6.7715,14.6353,6.9,23.6244-.2508,7.943-1.94,16.1434-7.9133,22.7664-6.8836,7.6394-16.0938,7.24-22.4957-.7623C202.36,166.6374,202.178,144.3034,211.2265,132.6116ZM180.4478,209.18c9.9164-6.8144,21.0768-10.771,32.6761-13.2889,25.5054-5.55,51.0767-6.2435,76.559.2838,10.342,2.65,20.3574,6.2369,29.36,12.1042,5.5836,3.6432,5.5209,4.9929-.0693,8.4215-5.9729,3.66-12.19,6.689-20.0076,6.6659,2.8182-3.125,6.3854-4.8806,8.57-9.6457-38.0056,26.1389-75.2125,28.2442-112.601,1.1648,1.6533,2.6664,3.3065,5.3262,5.3393,8.6-7.2434-1.815-13.7278-3.5342-19.6413-6.7319C175.96,214.2162,176.0226,212.223,180.4478,209.18Zm47.549,182.263c-4.58,4.4748-10.6621,5.9564-16.49,7.2368-22.0437,4.8674-44.2458,5.92-66.2961.1386-6.8441-1.7919-13.7245-4.1645-18.945-9.451-3.8676-3.9105-3.7983-7.2764.066-11.2892,2.3958-2.4914,5.1875-4.4846,7.7813-7.0619-1.99.3531-3.9963.6468-5.9663,1.1121-.98.2277-2.1318,1-2.7192-.1287a3.6625,3.6625,0,0,1,.0825-2.9436,11.0015,11.0015,0,0,1,4.0787-4.478,86.8166,86.8166,0,0,1,7.6955-4.1414c6.2963-2.8545,11.8271-3.0888,18.0574,1.6961,12.0019,9.21,25.9409,14.9554,40.4079,19.42a214.6192,214.6192,0,0,0,31.3067,6.8375c.8051.1254,1.9238-.3069,2.3462.66C229.9537,390.3115,228.68,390.7735,227.9968,391.4434Zm118.6564-33.742c4.1184,2.0163,8.4611,3.7652,13.2725,7.6229-3.8973.3036-7.2533.4191-10.121,2.2473-.5643.35-1.3728,1.0262-1.3365,1.4981.0924,1.2309,1.2309.8679,2.0493.8646,3.7983-.0033,7.6031-.1947,11.3915.0033,7.0124.36,10.55,5.7123,7.93,12.1835-3.4286,8.4742-11.2066,11.55-19.0176,14.0182-24.6869,7.8076-49.1759,5.3624-73.49-2.0625-2.68-.8217-5.8608-.7095-7.1576-4.3691,25.4624-4.0293,47.9582-13.9885,67.19-30.8678C340.9179,355.7181,342.6669,355.7412,346.6532,357.7014Zm9.1343-52.8817c-.858,14.6187-6.5009,27.4853-15.3514,38.9-17.0706,22.0206-39.5763,35.6263-66.6194,41.7642-10.2431,2.33-20.6445,1.1517-30.94.1485-15.81-1.5345-31.399-4.3791-46.1069-10.6226-9.1409-3.884-17.9353-8.4016-25.7826-14.7606-15.2754-12.3848-27.2114-26.9442-31.1713-46.6812-3.5838-17.8593-2.1285-35.359,5.5241-52.1095.5412-1.1814,1.2309-2.2968,1.7919-3.4716,1.3662-2.8248,2.7159-4.0358,5.9168-1.5972,3.4386,2.61,7.4744,4.4484,11.3221,6.4877,1.4751.7821,1.8579,1.4256,1.617,3.31-1.6632,13.3285-3.0953,26.6636-1.5939,40.1637.8976,8.0453,5.7123,13.1206,12.365,16.0081,9.1837,3.983,19.09,3.488,28.825,1.904,3.9732-.6434,8.4776-5.8079,8.3027-11.7082l-.6336-26.7362-.2277-5.5571c10.59,2.9666,21.4728,3.91,32.28,4.1678,25.7132.6138,49.8095-5.6165,72.8728-16.569a155.3068,155.3068,0,0,0,19.7238-11.0846c1.5609-1.04,2.1615-1.1451,3.3231.5643C350.9432,271.6947,356.827,287.2144,355.7875,304.82ZM199.5842,293.8308l-.3-10.055c.1947-1.8644-.8777-5.2667,2.1219-5.7683a6.4657,6.4657,0,0,1,7.514,5.765,216.6372,216.6372,0,0,1,1.1517,28.2212c-.1617,4.5573-2.3958,7.2962-7.5272,7.56-7.3292.3861-14.6221.6336-21.816-.9669-10.0945-2.2538-13.6618-7.1971-13.9621-18.6348-.2871-10.7743,2.28-21.1362,4.2207-31.6.31-1.6764.95-1.617,2.33-1.03,6.4019,2.7455,12.6751,5.8442,19.4532,7.6163,2.0427.5312,1.7292,1.937,1.7853,3.3824a65.4871,65.4871,0,0,0,3.4056,19.7667c.3729,1.0428.9207,2.0361,1.7325,3.8676Zm168.2151-75.3676c-2.3528,12.9622-9.8338,22.42-20.6247,29.132-23.0865,14.368-47.5754,25.5251-74.5492,30.475-15.6418,2.8677-31.277,2.7522-47.0639.7326a188.592,188.592,0,0,1-53.8355-15.5361c-14.3218-6.4548-27.9308-14.19-37.8207-26.9442-7.23-9.319-8.21-19.06-1.5675-27.7295,2.0229,12.4046,8.9561,21.3441,18.6381,28.5347-3.6728-6.29-7.4117-12.54-10.9987-18.8757-3.828-6.7517-3.4881-14.1238-3.1317-21.4926.4191-.0429.8415-.1782.9108-.0759,13.15,19.4961,31.92,31.3561,53.6176,38.9988a188.3382,188.3382,0,0,0,84.5877,9.4445c29.2178-3.3,55.4359-14.53,77.4862-34.5175,1.4058-1.27,2.9106-2.4222,4.0194-3.3461-5.0391,20.8986-19.9681,34.2238-37.999,44.9915,24.7959-8.9627,37.6294-28.5875,46.272-51.971C368.3405,204.2041,369.0236,211.7016,367.7993,218.4632Z"/><path class="b" d="M268.6721,160.47c1.7225.34,1.9469-1.34,2.28-2.5838.64-2.3727.9966-5.4714,3.9468-5.5176,2.7059-.0363,2.8181,3.0393,3.158,5.0457.2706,1.5971,1.221,3.2768,2.9733,3.0326,2.2241-.31,1.97-11.5762-3.7422-13.52-5.2634-1.9832-10.4344,3.0987-10.3024,10.25C267.0122,158.46,267.0254,160.15,268.6721,160.47Z"/><path class="b" d="M232.2142,166.5978c2.7488.2046,4.31-1.6334,5.336-3.7685a15.7912,15.7912,0,0,0-.6039-15.8c-2.2473-3.6992-5.9762-3.8708-8.55-.5214-2.0426,2.6565-2.5706,5.7848-2.498,9.0485a16.4666,16.4666,0,0,0,1.2507,6.7847C228.175,164.5486,229.5709,166.39,232.2142,166.5978Z"/></svg>