<svg xmlns="http://www.w3.org/2000/svg" viewBox="0 0 512.0048 373.6744"><defs><style>.a{fill:#dcd8d8;}</style></defs><path class="a" d="M271.0817,467.4186l234.667-234.667a21.33,21.33,0,0,0-30.165-30.165L256,422.1706,36.4157,202.5866a21.33,21.33,0,1,0-30.165,30.166L240.9177,467.42A21.3094,21.3094,0,0,0,271.0817,467.4186Z" transform="translate(0.0003 -100)"/><path class="a" d="M266.7133,292.5565,433.4,125.87a15.1508,15.1508,0,1,0-21.4265-21.4265L256,260.4164,100.0275,104.4435A15.1511,15.1511,0,1,0,78.601,125.8708L245.2875,292.5572A15.1363,15.1363,0,0,0,266.7133,292.5565Z" transform="translate(0.0003 -100)"/></svg>