<?xml version="1.0" encoding="utf-8"?>
<!-- Generator: Adobe Illustrator 24.1.3, SVG Export Plug-In . SVG Version: 6.00 Build 0)  -->
<svg version="1.1" id="Capa_1" xmlns="http://www.w3.org/2000/svg" xmlns:xlink="http://www.w3.org/1999/xlink" x="0px" y="0px"
	 viewBox="0 0 512 512" style="enable-background:new 0 0 512 512;" xml:space="preserve">
<style type="text/css">
	.st0{fill:url(#XMLID_2_);}
	.st1{fill:url(#XMLID_3_);}
	.st2{fill:url(#XMLID_4_);}
</style>
<g id="XMLID_2374_">
	<g id="XMLID_707_">
		<g id="XMLID_708_">
			<linearGradient id="XMLID_2_" gradientUnits="userSpaceOnUse" x1="482.2032" y1="504.2032" x2="29.7967" y2="51.7967">
				<stop  offset="0" style="stop-color:#46AEF7"/>
				<stop  offset="1" style="stop-color:#1DD5E6"/>
			</linearGradient>
			<path id="XMLID_713_" class="st0" d="M482,108h-14V94c0-16.5-13.5-30-30-30h-24V52c0-17.6-14.4-32-32-32s-32,14.4-32,32v12h-84
				V52c0-17.6-14.4-32-32-32s-32,14.4-32,32v12h-84V52c0-17.6-14.4-32-32-32S54,34.4,54,52v12H30C13.5,64,0,77.5,0,94v324
				c0,16.5,13.5,30,30,30h14v14c0,16.5,13.5,30,30,30h408c16.5,0,30-13.5,30-30V138C512,121.5,498.5,108,482,108z M370,52
				c0-6.6,5.4-12,12-12s12,5.4,12,12v44c0,6.6-5.4,12-12,12s-12-5.4-12-12V52z M222,52c0-6.6,5.4-12,12-12s12,5.4,12,12v44
				c0,6.6-5.4,12-12,12s-12-5.4-12-12V52z M74,52c0-6.6,5.4-12,12-12s12,5.4,12,12v44c0,6.6-5.4,12-12,12s-12-5.4-12-12V52z M30,84
				h24v12c0,17.6,14.4,32,32,32s32-14.4,32-32V84h84v12c0,17.6,14.4,32,32,32s32-14.4,32-32V84h84v12c0,17.6,14.4,32,32,32
				s32-14.4,32-32V84h24c5.5,0,10,4.5,10,10v90H20V94C20,88.5,24.5,84,30,84z M492,462c0,5.5-4.5,10-10,10H74c-5.5,0-10-4.5-10-10
				v-14h125c5.5,0,10-4.5,10-10s-4.5-10-10-10H30c-5.5,0-10-4.5-10-10V204h428v214c0,5.5-4.5,10-10,10H279c-5.5,0-10,4.5-10,10
				s4.5,10,10,10h159c16.5,0,30-13.5,30-30V128h14c5.5,0,10,4.5,10,10V462z"/>
			<linearGradient id="XMLID_3_" gradientUnits="userSpaceOnUse" x1="288.3831" y1="382.0537" x2="179.6171" y2="273.2877">
				<stop  offset="0" style="stop-color:#46AEF7"/>
				<stop  offset="1" style="stop-color:#1DD5E6"/>
			</linearGradient>
			<path id="XMLID_710_" class="st1" d="M271.2,389.3c1.5,0.8,3.1,1.1,4.7,1.1c2.1,0,4.1-0.6,5.9-1.9c3.1-2.2,4.6-6,4-9.8l-7.1-41.4
				l30.1-29.3c2.7-2.7,3.7-6.6,2.5-10.3s-4.3-6.3-8.1-6.8l-41.6-6L243,247.1c-1.7-3.4-5.2-5.6-9-5.6c-3.8,0-7.3,2.2-9,5.6
				l-18.6,37.7l-41.6,6c-3.8,0.5-6.9,3.2-8.1,6.8c-1.2,3.6-0.2,7.6,2.5,10.3l30.1,29.3l-7.1,41.4c-0.6,3.8,0.9,7.5,4,9.8
				s7.2,2.5,10.5,0.8l37.2-19.6L271.2,389.3z M205.4,362.1l4.6-26.6c0.6-3.2-0.5-6.6-2.9-8.9l-19.4-18.9l26.8-3.9
				c3.3-0.5,6.1-2.5,7.5-5.5l12-24.2l12,24.2c1.5,3,4.3,5,7.5,5.5l26.8,3.9l-19.4,18.9c-2.4,2.3-3.4,5.6-2.9,8.9l4.6,26.6
				l-23.9-12.6c-1.5-0.8-3.1-1.1-4.7-1.1c-1.6,0-3.2,0.4-4.7,1.1L205.4,362.1z"/>
			<linearGradient id="XMLID_4_" gradientUnits="userSpaceOnUse" x1="241.0698" y1="445.0692" x2="226.9302" y2="430.9297">
				<stop  offset="0" style="stop-color:#46AEF7"/>
				<stop  offset="1" style="stop-color:#1DD5E6"/>
			</linearGradient>
			<path id="XMLID_709_" class="st2" d="M234,428c-2.6,0-5.2,1.1-7.1,2.9c-1.9,1.9-2.9,4.4-2.9,7.1s1.1,5.2,2.9,7.1
				c1.9,1.9,4.4,2.9,7.1,2.9s5.2-1.1,7.1-2.9c1.9-1.9,2.9-4.4,2.9-7.1s-1.1-5.2-2.9-7.1C239.2,429.1,236.6,428,234,428z"/>
		</g>
	</g>
</g>
</svg>
