<svg id="Layer_1" data-name="Layer 1" xmlns="http://www.w3.org/2000/svg" viewBox="0 0 30 30"><defs><style>.cls-1{fill:#fff;}</style></defs><path class="cls-1" d="M20.626,11.183l-.735-.949-4.36,3.374-4.359-3.374-.735.949,3.907,3.023a1.306,1.306,0,0,0-.337.861,1.327,1.327,0,1,0,2.653,0,1.3,1.3,0,0,0-.2-.66Z"/><path class="cls-1" d="M27.087,15.067A12.127,12.127,0,1,0,8.358,25.23L6.137,27.948l.93.759L9.409,25.84a12.053,12.053,0,0,0,11.644-.3l2.436,2.98.929-.759-2.354-2.88A12.1,12.1,0,0,0,27.087,15.067Zm-23.3,0A11.179,11.179,0,1,1,14.961,26.246,11.178,11.178,0,0,1,3.782,15.067Z"/><path class="cls-1" d="M21.655,2.319a19.476,19.476,0,0,1,5.937,5.874A12.585,12.585,0,0,0,28.855,7.2a21.077,21.077,0,0,0-6.11-5.9C22.65,1.247,21.655,2.319,21.655,2.319Z"/><path class="cls-1" d="M8.345,2.7A19.476,19.476,0,0,0,2.408,8.572a12.585,12.585,0,0,1-1.263-.993,21.077,21.077,0,0,1,6.11-5.9C7.35,1.626,8.345,2.7,8.345,2.7Z"/></svg>