<svg id="Layer_1" data-name="Layer 1" xmlns="http://www.w3.org/2000/svg" xmlns:xlink="http://www.w3.org/1999/xlink" viewBox="0 0 30 30"><defs><style>.cls-1{fill:url(#linear-gradient);}.cls-2{fill:url(#linear-gradient-2);}.cls-3{fill:url(#linear-gradient-3);}.cls-4{fill:url(#linear-gradient-4);}.cls-5{fill:url(#linear-gradient-5);}.cls-6{fill:url(#linear-gradient-6);}.cls-7{fill:url(#linear-gradient-7);}.cls-8{fill:url(#linear-gradient-8);}</style><linearGradient id="linear-gradient" x1="4.146" y1="-0.122" x2="26.315" y2="30.762" gradientUnits="userSpaceOnUse"><stop offset="0" stop-color="#e4e5e3"/><stop offset="0.822" stop-color="#d7d5d6"/><stop offset="1" stop-color="#d3d1d3"/></linearGradient><linearGradient id="linear-gradient-2" x1="8.754" y1="-3.429" x2="30.923" y2="27.455" xlink:href="#linear-gradient"/><linearGradient id="linear-gradient-3" x1="7.139" y1="-2.27" x2="29.307" y2="28.614" xlink:href="#linear-gradient"/><linearGradient id="linear-gradient-4" x1="2.378" y1="1.147" x2="24.547" y2="32.031" xlink:href="#linear-gradient"/><linearGradient id="linear-gradient-5" x1="5.071" y1="-0.786" x2="27.24" y2="30.098" xlink:href="#linear-gradient"/><linearGradient id="linear-gradient-6" x1="1.765" y1="1.587" x2="23.934" y2="32.471" xlink:href="#linear-gradient"/><linearGradient id="linear-gradient-7" x1="5.412" y1="-1.03" x2="27.58" y2="29.854" xlink:href="#linear-gradient"/><linearGradient id="linear-gradient-8" x1="3.688" y1="0.207" x2="25.856" y2="31.091" xlink:href="#linear-gradient"/></defs><path class="cls-1" d="M15,1.078A13.921,13.921,0,1,0,28.921,15,13.92,13.92,0,0,0,15,1.078Zm-1.777,22.1A10.212,10.212,0,1,1,23.434,12.962,10.212,10.212,0,0,1,13.223,23.173Zm14.195-9.532c-.545.151-1.3-.856-1.683-2.249s-.254-2.643.291-2.794,1.3.856,1.683,2.249S27.963,13.491,27.418,13.641Z"/><path class="cls-2" d="M16.674,10.307c.727-.265,3.04-3.5,3.04-3.5a10.925,10.925,0,0,0-2.115,0,11.369,11.369,0,0,1-2.6,3.5A3.224,3.224,0,0,0,16.674,10.307Z"/><path class="cls-3" d="M16.956,14.657c.849-.324,3.551-4.279,3.551-4.279a12.229,12.229,0,0,0-2.471,0C17.419,12.316,15,14.657,15,14.657A3.6,3.6,0,0,0,16.956,14.657Z"/><path class="cls-4" d="M18.072,14.485a12.661,12.661,0,0,1-2.419,3.85,31.157,31.157,0,0,1-1.9-4.393h.9V12.554H12.291v-.9H9.537v.9H6.982v1.388h.782a5.983,5.983,0,0,1-1.223,3.876l-.176.265V19.1s2.688-.132,3.084-5.154H9.8v5.881h1.982v-4.73a21.764,21.764,0,0,0,3.124,4.06h0a1.088,1.088,0,0,0,.141.123c.048.042.1.088.144.127l.021-.024a1.684,1.684,0,0,0,1.644-.086c.908-.468,3.992-4.809,3.992-4.809A13.664,13.664,0,0,0,18.072,14.485Z"/><rect class="cls-5" x="6.982" y="6.584" width="7.676" height="1.278"/><polygon class="cls-6" points="9.141 11.12 7.908 8.585 6.982 8.585 7.489 11.12 9.141 11.12"/><polygon class="cls-7" points="13.796 11.12 14.302 8.585 13.377 8.585 12.144 11.12 13.796 11.12"/><rect class="cls-8" x="9.802" y="8.585" width="1.619" height="2.534"/></svg>