<svg id="Layer_1" data-name="Layer 1" xmlns="http://www.w3.org/2000/svg" viewBox="0 0 25 25"><path d="M10.479,22H3.11V2.445H6.216A3.192,3.192,0,0,0,9.408,5.637h4.017a3.192,3.192,0,0,0,3.192-3.192h3.057v7.572a7.946,7.946,0,0,1,1.774.818v-7.5A2.428,2.428,0,0,0,19.02.905H3.764A2.428,2.428,0,0,0,1.336,3.333v17.82a2.428,2.428,0,0,0,2.428,2.428H11.8A8.063,8.063,0,0,1,10.479,22ZM8.034,2.445h7.135V4.158H8.034Z"/><path d="M17.255,11.277a6.409,6.409,0,1,0,6.409,6.409A6.408,6.408,0,0,0,17.255,11.277Zm0,11.112a4.7,4.7,0,1,1,4.7-4.7A4.7,4.7,0,0,1,17.255,22.389Z"/><polygon points="17.683 17.686 17.683 14.412 16.648 14.412 16.648 17.686 16.648 18.651 16.648 18.721 20.604 18.721 20.604 17.686 17.683 17.686"/><path d="M15.617,9.813a.988.988,0,0,0-.978-.9H6.8a1,1,0,1,0,0,2h6.134A7.972,7.972,0,0,1,15.617,9.813Z"/><path d="M10.309,13.648H6.8a1,1,0,1,0,0,2H9.486A8,8,0,0,1,10.309,13.648Z"/></svg>