<?xml version="1.0" encoding="utf-8"?>
<!-- Generator: Adobe Illustrator 24.3.0, SVG Export Plug-In . SVG Version: 6.00 Build 0)  -->
<svg version="1.1" id="soccer_off" xmlns="http://www.w3.org/2000/svg" xmlns:xlink="http://www.w3.org/1999/xlink" x="0px" y="0px"
	 viewBox="0 0 31.5 31.5" style="enable-background:new 0 0 31.5 31.5;" xml:space="preserve">
<style type="text/css">
	.st0{clip-path:url(#SVGID_2_);}
	.st1{fill:#C7FFF6;}
	.st2{clip-path:url(#SVGID_4_);}
	.st3{fill:#FFFFFF;}
	.st4{clip-path:url(#SVGID_6_);}
</style>
<g>
	<g>
		
			<ellipse transform="matrix(1.546656e-02 -0.9999 0.9999 1.546656e-02 -0.2414 31.2191)" class="st1" cx="15.7" cy="15.7" rx="15.7" ry="15.7"/>
		<g>
			<defs>
				
					<ellipse id="SVGID_3_" transform="matrix(1.546656e-02 -0.9999 0.9999 1.546656e-02 -0.2396 31.221)" cx="15.7" cy="15.7" rx="15.7" ry="15.7"/>
			</defs>
			<use xlink:href="#SVGID_3_"  style="overflow:visible;fill:#4DC6D6;"/>
			<clipPath id="SVGID_2_">
				<use xlink:href="#SVGID_3_"  style="overflow:visible;"/>
			</clipPath>
			<g class="st0">
			</g>
		</g>
	</g>
</g>
<g>
	<path class="st3" d="M16.3,18.4l-5.8,6.9C10.2,25.7,9.7,26,9.1,26c-0.5,0-0.9-0.2-1.3-0.5c-0.3-0.3-0.5-0.8-0.5-1.3
		c0-0.4,0.1-0.8,0.3-1.1l6.3-7.5L8.2,8.6C7.9,8.3,7.8,8,7.8,7.6c0-0.5,0.2-0.9,0.5-1.2S9,5.8,9.5,5.8c0.6,0,1.1,0.2,1.4,0.7l5.3,6.4
		l5.5-6.4C22.1,6,22.5,5.8,23,5.8c0.4,0,0.9,0.2,1.2,0.5c0.4,0.3,0.5,0.7,0.5,1.2c0,0.5-0.1,0.8-0.2,1l-5.9,7.2l6.2,7.5
		c0.2,0.3,0.4,0.6,0.4,1c0,0.5-0.2,1-0.5,1.3c-0.4,0.4-0.8,0.5-1.2,0.5c-0.5,0-1-0.2-1.4-0.7L16.3,18.4z"/>
</g>
</svg>
