<svg id="Layer_1" data-name="Layer 1" xmlns="http://www.w3.org/2000/svg" xmlns:xlink="http://www.w3.org/1999/xlink" viewBox="0 0 37.42105 30"><defs><style>.cls-1{fill:url(#linear-gradient);}.cls-2{fill:url(#linear-gradient-2);}.cls-3{fill:url(#linear-gradient-3);}.cls-4{fill:url(#linear-gradient-4);}.cls-5{fill:url(#linear-gradient-5);}.cls-6{fill:#fff;}</style><linearGradient id="linear-gradient" x1="0.78661" y1="0.09466" x2="36.07232" y2="30.23752" gradientUnits="userSpaceOnUse"><stop offset="0" stop-color="#e4e5e3"/><stop offset="0.82167" stop-color="#d7d5d6"/><stop offset="1" stop-color="#d3d1d3"/></linearGradient><linearGradient id="linear-gradient-2" x1="5.04175" y1="-4.88648" x2="40.32746" y2="25.25638" xlink:href="#linear-gradient"/><linearGradient id="linear-gradient-3" x1="9.1273" y1="-9.66909" x2="44.41302" y2="20.47377" xlink:href="#linear-gradient"/><linearGradient id="linear-gradient-4" x1="12.1691" y1="-13.22986" x2="47.45481" y2="16.91299" xlink:href="#linear-gradient"/><linearGradient id="linear-gradient-5" x1="-0.7694" y1="1.91615" x2="34.51631" y2="32.05901" xlink:href="#linear-gradient"/></defs><polygon class="cls-1" points="0 6.035 0 1.552 10.232 1.552 7.601 6.035 0 6.035"/><polygon class="cls-2" points="10.232 6.035 12.863 1.552 20.172 1.552 17.541 6.035 10.232 6.035"/><polygon class="cls-3" points="20.172 6.035 22.584 1.552 29.601 1.552 27.408 6.035 20.172 6.035"/><path class="cls-4" d="M29.60064,6.03455l2.4119-4.48273h.92579a4.48273,4.48273,0,0,1,4.48272,4.48273H29.60064Z"/><rect class="cls-5" x="0.0002" y="8.6657" width="37.42076" height="19.78247"/><polygon class="cls-6" points="15.202 23.381 15.202 13.246 24.887 17.826 15.202 23.381"/></svg>