<svg id="Layer_1" data-name="Layer 1" xmlns="http://www.w3.org/2000/svg" xmlns:xlink="http://www.w3.org/1999/xlink" viewBox="0 0 30 30"><defs><style>.cls-1{fill:url(#linear-gradient);}.cls-2{fill:url(#linear-gradient-2);}.cls-3{fill:url(#linear-gradient-3);}</style><linearGradient id="linear-gradient" x1="-6.729" y1="-16.799" x2="46.55" y2="60.456" gradientUnits="userSpaceOnUse"><stop offset="0.196" stop-color="#b69468"/><stop offset="0.453" stop-color="#b59770"/><stop offset="0.797" stop-color="#b69468"/><stop offset="1" stop-color="#b59770"/></linearGradient><linearGradient id="linear-gradient-2" x1="1.96" y1="-22.792" x2="55.24" y2="54.464" xlink:href="#linear-gradient"/><linearGradient id="linear-gradient-3" x1="-15.342" y1="-10.859" x2="37.938" y2="66.396" xlink:href="#linear-gradient"/></defs><path class="cls-1" d="M13.854.87A14.149,14.149,0,0,0,1,13c11,1.18,15.1,12.02,16.231,15.944A14.155,14.155,0,0,0,29.084,16.535C24.768,15.172,15.157,11.022,13.854.87Z"/><path class="cls-2" d="M29.146,14.429A14.142,14.142,0,0,0,15.979.861C16.48,4.366,18.811,11.3,29.146,14.429Z"/><path class="cls-3" d="M.854,15.106A14.159,14.159,0,0,0,15.01,29.139c.049,0,.1-.007.144-.007C12,17.578,4.234,15.466.854,15.106Z"/></svg>