<svg id="Layer_1" data-name="Layer 1" xmlns="http://www.w3.org/2000/svg" xmlns:xlink="http://www.w3.org/1999/xlink" viewBox="0 0 30 30"><defs><style>.cls-1{fill:url(#linear-gradient);}.cls-2{fill:url(#linear-gradient-2);}.cls-3{fill:url(#linear-gradient-3);}.cls-4{fill:url(#linear-gradient-4);}.cls-5{fill:url(#linear-gradient-5);}</style><linearGradient id="linear-gradient" x1="8.837" y1="-6.309" x2="34.411" y2="33.118" gradientUnits="userSpaceOnUse"><stop offset="0" stop-color="#e4e5e3"/><stop offset="0.822" stop-color="#d7d5d6"/><stop offset="1" stop-color="#d3d1d3"/></linearGradient><linearGradient id="linear-gradient-2" x1="-1.741" y1="0.553" x2="23.833" y2="39.98" xlink:href="#linear-gradient"/><linearGradient id="linear-gradient-3" x1="-4.44" y1="2.304" x2="21.134" y2="41.73" xlink:href="#linear-gradient"/><linearGradient id="linear-gradient-4" x1="11.386" y1="-7.963" x2="36.961" y2="31.464" xlink:href="#linear-gradient"/><linearGradient id="linear-gradient-5" x1="3.444" y1="-2.81" x2="29.018" y2="36.616" xlink:href="#linear-gradient"/></defs><path class="cls-1" d="M12.2,6.194l3,1.776,3.4-1.865V1.422a13.833,13.833,0,0,0-6.394-.2Z"/><path class="cls-2" d="M18.2,24.042l-3-1.775-3.4,1.864V28.68a13.656,13.656,0,0,0,6.394,0Z"/><path class="cls-3" d="M8.051,15.118l-1.865-3.4H1.34A13.68,13.68,0,0,0,1.3,18.115H6.275Z"/><path class="cls-4" d="M22.347,15.118l1.865,3.4H28.6a13.819,13.819,0,0,0,.163-6.394H24.123Z"/><path class="cls-5" d="M22.7,20.424l-2.575-5.107,2.841-5.505h5.09a14.1,14.1,0,0,0-7.554-7.751V7.615L15.4,10.19l-5.5-2.842V1.911a14.087,14.087,0,0,0-7.952,7.9H7.7l2.575,5.107-2.842,5.5h-5.4a14.1,14.1,0,0,0,7.866,7.665V22.622L15,20.047l5.5,2.841v5.051a14.108,14.108,0,0,0,7.468-7.515Z"/></svg>