<svg id="Layer_1" data-name="Layer 1" xmlns="http://www.w3.org/2000/svg" viewBox="0 0 20 20"><defs><style>.cls-1{fill:#fff;}</style></defs><path class="cls-1" d="M7.409,9.2V8.28a2.26,2.26,0,1,1,2.459,0V9.2a3.07,3.07,0,1,0-2.459,0Z"/><path class="cls-1" d="M13.162,10.268H9.868v-3.8a1.276,1.276,0,0,0-1.163-1.3A1.23,1.23,0,0,0,7.409,6.4V11.6a.252.252,0,0,1-.252.253H6.516a1.641,1.641,0,0,0-1.508.925A1.6,1.6,0,0,0,5.259,14.5l1.674,1.75a1.274,1.274,0,0,0,.958.434h5.176a1.854,1.854,0,0,0,2.071-1.713V12.156A1.9,1.9,0,0,0,13.162,10.268Zm1.173,4.369a1.3,1.3,0,0,1-1.3,1.3H8.2a.928.928,0,0,1-.641-.257L5.869,14.06a.847.847,0,0,1,.056-1.1.762.762,0,0,1,1,0l.232.193a.581.581,0,0,0,1-.378V6.491a.527.527,0,0,1,1.054,0v4.567h3.83a1.3,1.3,0,0,1,1.3,1.3Z"/></svg>