<svg id="Layer_1" data-name="Layer 1" xmlns="http://www.w3.org/2000/svg" xmlns:xlink="http://www.w3.org/1999/xlink" viewBox="0 0 30 30"><defs><style>.cls-1{fill:url(#linear-gradient);}.cls-2{fill:url(#linear-gradient-2);}</style><linearGradient id="linear-gradient" x1="15.063" y1="-3.087" x2="20.943" y2="39.11" gradientUnits="userSpaceOnUse"><stop offset="0" stop-color="#e4e5e3"/><stop offset="0.822" stop-color="#d7d5d6"/><stop offset="1" stop-color="#d3d1d3"/></linearGradient><linearGradient id="linear-gradient-2" x1="4.165" y1="-1.568" x2="10.045" y2="40.629" xlink:href="#linear-gradient"/></defs><path class="cls-1" d="M17.181,1.2A11.35,11.35,0,0,0,5.767,12.488c0,.023,0,.045,0,.068l11.094,11.2c.106,0,.209.016.316.016A11.349,11.349,0,0,0,28.6,12.488,11.349,11.349,0,0,0,17.181,1.2Z"/><path class="cls-2" d="M6.805,15.9l7.371,7.371-4.518.5L5.27,28.161a2.172,2.172,0,0,1-3.07,0h0a2.172,2.172,0,0,1,0-3.07l4.346-4.345Z"/></svg>