<svg id="Layer_1" data-name="Layer 1" xmlns="http://www.w3.org/2000/svg" viewBox="0 0 225 54"><defs><style>.cls-1{fill:#4fddfd;}.cls-2{fill:none;stroke-width:5px;}.cls-2,.cls-3{stroke:#fff;}.cls-3{fill:#fff;stroke-miterlimit:10;}</style></defs><path id="Rounded_Rectangle_1_copy_2" data-name="Rounded Rectangle 1 copy 2" class="cls-1" d="M33,0H205a20.06,20.06,0,0,1,20,20V34a20.06,20.06,0,0,1-20,20H33A20.06,20.06,0,0,1,13,34V20A20.06,20.06,0,0,1,33,0Z"/><circle id="circle" class="cls-1" cx="27.01" cy="27.04" r="24.48"/><circle id="circle-2" data-name="circle" class="cls-2" cx="27.01" cy="27.04" r="24.48"/><path class="cls-3" d="M27.94,43.43h0l6.82-6.85a1.32,1.32,0,1,0-1.87-1.85l-4.57,4.61V11.57a1.31,1.31,0,1,0-2.62,0V39.34l-4.58-4.61a1.31,1.31,0,0,0-1.86,1.85l6.82,6.85h0A1.3,1.3,0,0,0,27.94,43.43Z"/></svg>