<svg id="Layer_1" data-name="Layer 1" xmlns="http://www.w3.org/2000/svg" xmlns:xlink="http://www.w3.org/1999/xlink" viewBox="0 0 30 30"><defs><style>.cls-1{fill:url(#linear-gradient);}.cls-2{fill:url(#linear-gradient-2);}.cls-3{fill:url(#linear-gradient-3);}.cls-4{fill:url(#linear-gradient-4);}.cls-5{fill:url(#linear-gradient-5);}.cls-6{fill:url(#linear-gradient-6);}.cls-7{fill:url(#linear-gradient-7);}.cls-8{fill:url(#linear-gradient-8);}.cls-9{fill:url(#linear-gradient-9);}.cls-10{fill:url(#linear-gradient-10);}.cls-11{fill:url(#linear-gradient-11);}</style><linearGradient id="linear-gradient" x1="-5.782" y1="-4.211" x2="28.583" y2="64.253" gradientUnits="userSpaceOnUse"><stop offset="0" stop-color="#e4e5e3"/><stop offset="0.822" stop-color="#d7d5d6"/><stop offset="1" stop-color="#d3d1d3"/></linearGradient><linearGradient id="linear-gradient-2" x1="2.822" y1="-8.53" x2="37.187" y2="59.935" xlink:href="#linear-gradient"/><linearGradient id="linear-gradient-3" x1="-6.088" y1="-4.057" x2="28.278" y2="64.407" xlink:href="#linear-gradient"/><linearGradient id="linear-gradient-4" x1="3.857" y1="-9.049" x2="38.222" y2="59.415" xlink:href="#linear-gradient"/><linearGradient id="linear-gradient-5" x1="-0.818" y1="-6.703" x2="33.547" y2="61.762" xlink:href="#linear-gradient"/><linearGradient id="linear-gradient-6" x1="1.639" y1="-7.936" x2="36.004" y2="60.529" xlink:href="#linear-gradient"/><linearGradient id="linear-gradient-7" x1="-7.307" y1="-3.446" x2="27.059" y2="65.019" xlink:href="#linear-gradient"/><linearGradient id="linear-gradient-8" x1="9.261" y1="-11.762" x2="43.626" y2="56.702" xlink:href="#linear-gradient"/><linearGradient id="linear-gradient-9" x1="10.936" y1="-12.602" x2="45.301" y2="55.862" xlink:href="#linear-gradient"/><linearGradient id="linear-gradient-10" x1="8.687" y1="-11.473" x2="43.052" y2="56.991" xlink:href="#linear-gradient"/><linearGradient id="linear-gradient-11" x1="15.031" y1="-14.658" x2="49.396" y2="53.806" xlink:href="#linear-gradient"/></defs><path class="cls-1" d="M3.318,10.761,2.4,9.08a14.034,14.034,0,0,0-1.132,3.913Z"/><polygon class="cls-2" points="10.91 19.968 9.112 13.774 14.906 9.046 20.367 14.041 18.769 19.968 10.91 19.968"/><path class="cls-3" d="M8.868,23.609C10.2,14.241,4.383,12.875,4.383,12.875L1.146,15.5a14.082,14.082,0,0,0,3.113,8.321C6.161,23.763,8.9,23.667,8.868,23.609Z"/><path class="cls-4" d="M19.5,28.45a14.11,14.11,0,0,0,4.785-2.6l-.189-.91H21.255Z"/><path class="cls-5" d="M19.835,24.142l-1.332-2.4H10.955L9.889,24.5l1.86,4.137a14.109,14.109,0,0,0,3.522.46,14.106,14.106,0,0,0,2.14-.179Z"/><path class="cls-6" d="M5.05,10.587l3.463,1.574,4.928-4.415v-3.9l-3.383-2.06a14.185,14.185,0,0,0-5.75,4.2Z"/><path class="cls-7" d="M8.6,25.118H5.45a14.151,14.151,0,0,0,4.663,2.992Z"/><path class="cls-8" d="M25.784,23.822A9.477,9.477,0,0,0,28.8,15.173a33.5,33.5,0,0,0-3.019-3.082s-6.216,1.661-4.884,11.34C21.167,23.7,25.784,23.822,25.784,23.822Z"/><path class="cls-9" d="M16.46,8.247l-.422-4.263L19.5,1.791s5.728.6,6.061,6.189c-.133.267-.749,2.781-.749,2.781l-4.013,1.4Z"/><path class="cls-10" d="M12.375,1.054s.866-.333,5.2,0c.2.133-2.6,1.665-2.6,1.665Z"/><path class="cls-11" d="M27.56,8.513a5.33,5.33,0,0,1,1.353,3.648c-.154.215-2.086-1.125-2.086-1.125Z"/></svg>