<svg id="Layer_1" data-name="Layer 1" xmlns="http://www.w3.org/2000/svg" viewBox="0 0 20 20"><defs><style>.cls-1{fill:#fff;}</style></defs><path class="cls-1" d="M6.048,6.58v0S6.052,6.579,6.048,6.58Z"/><path class="cls-1" d="M10.144,3.075v.008C10.154,3.073,10.156,3.071,10.144,3.075Z"/><path class="cls-1" d="M5.117,9.032a2.452,2.452,0,0,1,.993,1.924h.124S7.308,6.364,9.408,5.5a3,3,0,0,0,2.116,3.087,2.4,2.4,0,0,0,1.257-1.629,17.418,17.418,0,0,1,.852,2.777.517.517,0,0,0,.566.413l.015,0a.519.519,0,0,0,.458-.587c-.157-1.154-.64-3.867-1.8-4.928a8.436,8.436,0,0,0-1.3,2.73c.124.186-1.858-.8-1.428-4.273a9.729,9.729,0,0,0-3.781,5.2c-.075-.172-.577-1.191-.315-1.7C5.9,6.685,1.838,8.827,4.062,14A5.968,5.968,0,0,0,8.1,16.851c1.729.172,7.322,0,7.322,0V12.98l1.151,1.151a.469.469,0,1,0,.663-.663l-2.2-2.2,0,0-.011-.011-2.2,2.2a.469.469,0,0,0,.663.664L14.55,13.05v2.622H9.005a3.971,3.971,0,0,1-1.823-.3A4.65,4.65,0,0,1,5.117,9.032Z"/></svg>