<svg id="Layer_1" data-name="Layer 1" xmlns="http://www.w3.org/2000/svg" xmlns:xlink="http://www.w3.org/1999/xlink" viewBox="0 0 30 30"><defs><style>.cls-1{fill:url(#linear-gradient);}</style><linearGradient id="linear-gradient" x1="3.819" y1="4.815" x2="28.45" y2="27.678" gradientUnits="userSpaceOnUse"><stop offset="0.235" stop-color="#29bdef"/><stop offset="1" stop-color="#0080c9"/></linearGradient></defs><path class="cls-1" d="M23.093,8.887c2.1-.625,3.405-1.495,3.405-2.457,0-1.485-3.1-2.746-7.443-3.231-.2-1.3-1.643-2.318-3.417-2.318a3.287,3.287,0,0,0-3.4,2.22c-4.872.389-8.47,1.73-8.47,3.329,0,.919,1.195,1.753,3.131,2.371-3.322,2.549-5.9,6.234-5.9,9.4C.992,24.231,7.264,29.119,15,29.119S29.008,24.231,29.008,18.2C29.008,14.36,26.57,11.173,23.093,8.887ZM18.954,18.8a1.03,1.03,0,1,1,0,2.059H16.23V23.2a1.175,1.175,0,1,1-2.349,0V20.863H11.156a1.03,1.03,0,0,1,0-2.059h2.725V17.327H11.156a1.029,1.029,0,0,1,0-2.058h1.995L10.8,12.914a1.029,1.029,0,1,1,1.456-1.455l2.832,2.831,2.775-2.775a1.029,1.029,0,0,1,1.455,1.456l-2.3,2.3h1.937a1.029,1.029,0,1,1,0,2.058H16.23V18.8Z"/></svg>