<svg id="Layer_1" data-name="Layer 1" xmlns="http://www.w3.org/2000/svg" xmlns:xlink="http://www.w3.org/1999/xlink" viewBox="0 0 30 30"><defs><style>.cls-1{fill:url(#linear-gradient);}.cls-2{fill:url(#linear-gradient-2);}.cls-3{fill:url(#linear-gradient-3);}.cls-4{fill:url(#linear-gradient-4);}.cls-5{fill:url(#linear-gradient-5);}</style><linearGradient id="linear-gradient" x1="7.86" y1="-4.174" x2="5.462" y2="30.191" gradientUnits="userSpaceOnUse"><stop offset="0" stop-color="#e4e5e3"/><stop offset="0.822" stop-color="#d7d5d6"/><stop offset="1" stop-color="#d3d1d3"/></linearGradient><linearGradient id="linear-gradient-2" x1="10.469" y1="-3.992" x2="8.072" y2="30.373" xlink:href="#linear-gradient"/><linearGradient id="linear-gradient-3" x1="21.912" y1="-3.194" x2="19.515" y2="31.171" xlink:href="#linear-gradient"/><linearGradient id="linear-gradient-4" x1="19.439" y1="-3.367" x2="17.042" y2="30.999" xlink:href="#linear-gradient"/><linearGradient id="linear-gradient-5" x1="15.109" y1="-3.669" x2="12.711" y2="30.697" xlink:href="#linear-gradient"/></defs><path class="cls-1" d="M4.2,19.357l6.394,6.393-2.01,1.941a4.443,4.443,0,0,1-6.228-.055h0a4.444,4.444,0,0,1-.118-6.161Z"/><path class="cls-2" d="M4.863,18.469,8.6,2.566a1.946,1.946,0,0,1,1.894-1.5s1.344-.133,3.52,2.087C14.01,3.506,4.863,18.469,4.863,18.469Z"/><path class="cls-3" d="M11.344,24.629l16.03-3.145a1.945,1.945,0,0,0,1.57-1.838s.183-1.338-1.956-3.594C26.633,16.039,11.344,24.629,11.344,24.629Z"/><path class="cls-4" d="M10.591,23.22l-1.31-1.31L21.469,9.766a1.753,1.753,0,0,1,2.22-.444c1.332.711,4.424,3.851,2.22,4.973C23.571,15.486,10.591,23.22,10.591,23.22Z"/><path class="cls-5" d="M8.238,20.778,6.772,19.312,15.319,4.239s1.066-2.131,3.463-.367c1.7,1.366,3.63,2.964,1.1,5S8.238,20.778,8.238,20.778Z"/></svg>