<svg id="Layer_1" data-name="Layer 1" xmlns="http://www.w3.org/2000/svg" viewBox="0 0 20 20"><rect x="2.611" y="4.991" width="3.032" height="1.344"/><path d="M14.606,3.165a.672.672,0,1,0-.8,1.08l1.007.746H11.371V6.335H14.89l-.655.886a.672.672,0,1,0,1.08.8L16.586,6.3l0,0,.8-1.08Z"/><path d="M13.662,10.277H10.225V6.317A1.332,1.332,0,0,0,9.011,4.963,1.283,1.283,0,0,0,7.659,6.244v5.419a.263.263,0,0,1-.263.263H6.728a1.714,1.714,0,0,0-1.575.965,1.671,1.671,0,0,0,.262,1.8l1.748,1.826a1.329,1.329,0,0,0,1,.452h5.4a1.934,1.934,0,0,0,2.161-1.787V12.247A1.985,1.985,0,0,0,13.662,10.277Zm1.224,4.559a1.352,1.352,0,0,1-1.352,1.352H8.483a.965.965,0,0,1-.669-.269L6.052,14.233a.883.883,0,0,1,.058-1.142.794.794,0,0,1,1.045,0l.242.2A.606.606,0,0,0,8.438,12.9V6.335a.55.55,0,1,1,1.1,0V11.1h4a1.352,1.352,0,0,1,1.352,1.352Z"/></svg>