<svg id="Layer_1" data-name="Layer 1" xmlns="http://www.w3.org/2000/svg" xmlns:xlink="http://www.w3.org/1999/xlink" viewBox="0 0 30 30"><defs><style>.cls-1{fill:url(#linear-gradient);}</style><linearGradient id="linear-gradient" x1="1.227" y1="3.743" x2="47.047" y2="49.297" gradientUnits="userSpaceOnUse"><stop offset="0" stop-color="#e4e5e3"/><stop offset="0.822" stop-color="#d7d5d6"/><stop offset="1" stop-color="#d3d1d3"/></linearGradient></defs><path class="cls-1" d="M24.893,12.394c-2.53-2.131-6.393-5.861-10.656-6.727C8.576,4.8,5.313,7.133,5.313,7.133c-1.6-2.132.622-4,.622-4V1.094H2.116L1.051,4.239C-.015,8.273,3,9.619,3,9.619c-3.907,4.973-1.332,9.5-1.332,9.5s5.95,5.772,9.591,8.081,9.856,1.776,11.9,1.243a9.809,9.809,0,0,0,5.527-5.261C30.354,18.921,27.424,14.525,24.893,12.394ZM12.36,15.168a.987.987,0,0,1-1.392.107L8.426,13.1a.987.987,0,1,1,1.285-1.5l2.543,2.179A.987.987,0,0,1,12.36,15.168Z"/></svg>