<svg id="Layer_1" data-name="Layer 1" xmlns="http://www.w3.org/2000/svg" viewBox="0 0 25 25"><path d="M21.348,5.718c-1.647-1.385-.935-2.628-.5-3.146A1.026,1.026,0,0,0,21.1,1.91h0a1,1,0,0,0-1-1H3.815A1.742,1.742,0,0,0,2.073,2.646V22.354A1.742,1.742,0,0,0,3.815,24.1H21.186a1.742,1.742,0,0,0,1.741-1.741V5.694H21.3M5.1,2.581c3.9-.016,13.818-.052,13.758.007a2.756,2.756,0,0,0,.592,3.106H5.108A1.557,1.557,0,0,1,5.1,2.581ZM21.3,22.035H3.552V7.321H21.3Z"/><path d="M12.943,14.247a2.761,2.761,0,0,0-1.208,1.824v2.07h1.627a2.2,2.2,0,0,1,.838-2.268,3.885,3.885,0,0,0,2.169-3.943A3.626,3.626,0,0,0,12.6,8.873a4.131,4.131,0,0,0-3.919,4.314v.319H10.6A2.385,2.385,0,0,1,12.8,10.8s1.528-.123,1.627,1.306A3.336,3.336,0,0,1,12.943,14.247Z"/><rect x="11.735" y="18.88" width="1.614" height="1.614"/></svg>