<svg id="Layer_1" data-name="Layer 1" xmlns="http://www.w3.org/2000/svg" viewBox="0 0 20 20"><defs><style>.cls-1{fill:#fff;}</style></defs><path class="cls-1" d="M10.111,4.9a5.1,5.1,0,1,0,5.1,5.1A5.1,5.1,0,0,0,10.111,4.9Zm0,9.421A4.317,4.317,0,1,1,14.427,10,4.317,4.317,0,0,1,10.111,14.317Z"/><circle class="cls-1" cx="5.573" cy="5.462" r="0.566"/><circle class="cls-1" cx="3.626" cy="10" r="0.566"/><circle class="cls-1" cx="5.348" cy="14.538" r="0.566"/><circle class="cls-1" cx="10.111" cy="3.465" r="0.566"/><circle class="cls-1" cx="10.111" cy="16.535" r="0.566"/><circle class="cls-1" cx="5.573" cy="5.462" r="0.566"/><circle class="cls-1" cx="3.626" cy="10" r="0.566"/><circle class="cls-1" cx="5.348" cy="14.538" r="0.566"/><circle class="cls-1" cx="14.427" cy="5.462" r="0.566"/><circle class="cls-1" cx="16.374" cy="10" r="0.566"/><circle class="cls-1" cx="14.652" cy="14.538" r="0.566"/></svg>