<svg id="Layer_1" data-name="Layer 1" xmlns="http://www.w3.org/2000/svg" xmlns:xlink="http://www.w3.org/1999/xlink" viewBox="0 0 30 30"><defs><style>.cls-1{fill:url(#linear-gradient);}.cls-2{fill:url(#linear-gradient-2);}.cls-3{fill:url(#linear-gradient-3);}.cls-4{fill:url(#linear-gradient-4);}</style><linearGradient id="linear-gradient" x1="6.624" y1="1.884" x2="34.862" y2="61.024" gradientUnits="userSpaceOnUse"><stop offset="0.115" stop-color="#29bdef"/><stop offset="0.398" stop-color="#19a5e0"/><stop offset="0.777" stop-color="#078acf"/><stop offset="1" stop-color="#0080c9"/></linearGradient><linearGradient id="linear-gradient-2" x1="6.918" y1="-5.821" x2="35.156" y2="53.319" gradientUnits="userSpaceOnUse"><stop offset="0" stop-color="#29bdef"/><stop offset="0.32" stop-color="#19a5e0"/><stop offset="0.748" stop-color="#078acf"/><stop offset="1" stop-color="#0080c9"/></linearGradient><linearGradient id="linear-gradient-3" x1="15.062" y1="-9.71" x2="43.3" y2="49.43" gradientUnits="userSpaceOnUse"><stop offset="0.127" stop-color="#29bdef"/><stop offset="0.407" stop-color="#19a5e0"/><stop offset="0.78" stop-color="#078acf"/><stop offset="1" stop-color="#0080c9"/></linearGradient><linearGradient id="linear-gradient-4" x1="-4.383" y1="-0.425" x2="23.855" y2="58.715" gradientUnits="userSpaceOnUse"><stop offset="0.095" stop-color="#29bdef"/><stop offset="0.385" stop-color="#19a5e0"/><stop offset="0.772" stop-color="#078acf"/><stop offset="1" stop-color="#0080c9"/></linearGradient></defs><path class="cls-1" d="M8.842,20.278l2.116-2.115L9.5,16.7a.622.622,0,1,1,.879-.879l1.458,1.458L14.122,15,12.664,13.54a.622.622,0,0,1,.879-.879L15,14.12l2.162-2.162L15.776,10.57a.622.622,0,1,1,.879-.879l1.387,1.388,2.051-2.051L13.332,2.266a22.336,22.336,0,0,0-6.5,4.561,22.224,22.224,0,0,0-4.673,6.765Z"/><path class="cls-2" d="M20.973,9.906l-2.052,2.052,1.53,1.53a.622.622,0,0,1-.879.879l-1.53-1.53L15.88,15l1.459,1.458a.622.622,0,0,1-.879.879L15,15.878l-2.284,2.285,1.458,1.458a.622.622,0,0,1-.879.879l-1.459-1.458L9.722,21.157l6.686,6.686a22.208,22.208,0,0,0,6.764-4.673,22.321,22.321,0,0,0,4.562-6.5Z"/><path class="cls-3" d="M28.244,15.42C29.97,10.774,29.565,6.154,26.705,3.3S19.226.03,14.58,1.756Z"/><path class="cls-4" d="M1.656,14.85C.045,19.4.493,23.9,3.3,26.7s7.3,3.251,11.854,1.641Z"/></svg>