<svg id="Layer_1" data-name="Layer 1" xmlns="http://www.w3.org/2000/svg" xmlns:xlink="http://www.w3.org/1999/xlink" viewBox="0 0 30 30"><defs><style>.cls-1{fill:url(#linear-gradient);}.cls-2{fill:url(#linear-gradient-2);}.cls-3{fill:url(#linear-gradient-3);}.cls-4{fill:url(#linear-gradient-4);}</style><linearGradient id="linear-gradient" x1="4.79" y1="1.825" x2="27.622" y2="31.288" gradientUnits="userSpaceOnUse"><stop offset="0" stop-color="#e4e5e3"/><stop offset="0.822" stop-color="#d7d5d6"/><stop offset="1" stop-color="#d3d1d3"/></linearGradient><linearGradient id="linear-gradient-2" x1="7.233" y1="-0.068" x2="30.064" y2="29.396" xlink:href="#linear-gradient"/><linearGradient id="linear-gradient-3" x1="3.857" y1="2.549" x2="26.688" y2="32.012" xlink:href="#linear-gradient"/><linearGradient id="linear-gradient-4" x1="3.959" y1="2.47" x2="26.79" y2="31.933" xlink:href="#linear-gradient"/></defs><path class="cls-1" d="M15,1.02A13.98,13.98,0,1,0,28.98,15,13.98,13.98,0,0,0,15,1.02Zm6.461,23.188L15,21.236,8.539,24.208,9.8,17.558,5.567,12.771,11.6,11.33,15,5.612l3.4,5.718,6.034,1.441L20.2,17.558Z"/><circle class="cls-2" cx="17.949" cy="13.762" r="0.72"/><circle class="cls-3" cx="12.546" cy="13.762" r="0.72"/><path class="cls-4" d="M18.621,16.559h-.627a3.2,3.2,0,0,1-5.538,0h-.627c0,.017,0,.034,0,.051a3.161,3.161,0,0,0,3.4,2.848S18.3,19.458,18.621,16.559Z"/></svg>