<svg id="Layer_1" data-name="Layer 1" xmlns="http://www.w3.org/2000/svg" xmlns:xlink="http://www.w3.org/1999/xlink" viewBox="0 0 30 30"><defs><style>.cls-1{fill:url(#linear-gradient);}</style><linearGradient id="linear-gradient" x1="7.989" y1="3.589" x2="29.715" y2="39.21" gradientUnits="userSpaceOnUse"><stop offset="0.235" stop-color="#29bdef"/><stop offset="1" stop-color="#0080c9"/></linearGradient></defs><path class="cls-1" d="M20.645,28.59A1.716,1.716,0,0,0,23.3,26.8l-1.257-7.657a.707.707,0,0,1,.206-.622l5.844-5.685a1.707,1.707,0,0,0,.359-1.936,1.756,1.756,0,0,0-1.616-.984H19.977a.708.708,0,0,1-.668-.473L16.7,2.058A1.433,1.433,0,0,0,15.351,1.1h0a1.432,1.432,0,0,0-1.31.854L10.711,9.5a.711.711,0,0,1-.649.422h-6.9a1.755,1.755,0,0,0-1.615.983,1.708,1.708,0,0,0,.359,1.937l5.844,5.685a.71.71,0,0,1,.206.622L6.7,26.8A1.716,1.716,0,0,0,9.355,28.59l5.21-4.053a.709.709,0,0,1,.87,0Z"/></svg>