<svg id="Layer_1" data-name="Layer 1" xmlns="http://www.w3.org/2000/svg" viewBox="0 0 30 30"><defs><style>.cls-1{fill:#fff;}</style></defs><path class="cls-1" d="M15,1.909A13.091,13.091,0,1,0,28.091,15,13.091,13.091,0,0,0,15,1.909Zm9.7,17.122c-1.327,0-2.4-1.668-2.4-3.725s1.074-3.725,2.4-3.725a1.672,1.672,0,0,1,.873.263,10.922,10.922,0,0,1-.255,7.047A1.618,1.618,0,0,1,24.7,19.031ZM15.926,12.3a2.845,2.845,0,0,1,0,5.392ZM14.074,17.7a2.845,2.845,0,0,1,0-5.392Zm-9.4,1.177a10.9,10.9,0,0,1-.253-7.012,1.683,1.683,0,0,1,.908-.28c1.326,0,2.4,1.668,2.4,3.725s-1.075,3.725-2.4,3.725A1.625,1.625,0,0,1,4.673,18.873Zm.893,1.839a2.231,2.231,0,0,0,.243.038c1.943,0,3.518-2.437,3.518-5.444S7.752,9.862,5.809,9.862a2.341,2.341,0,0,0-.623.1,11.032,11.032,0,0,1,8.888-5.952v6.248a4.834,4.834,0,0,0,0,9.49v6.248A11.022,11.022,0,0,1,5.566,20.712Zm10.36,5.281V19.745a4.834,4.834,0,0,0,0-9.49V4.007a11.029,11.029,0,0,1,8.885,5.947,2.291,2.291,0,0,0-.589-.092c-1.944,0-3.519,2.437-3.519,5.444s1.575,5.444,3.519,5.444c.071,0,.138-.026.208-.032A11.022,11.022,0,0,1,15.926,25.993Z"/></svg>