<svg id="Layer_1" data-name="Layer 1" xmlns="http://www.w3.org/2000/svg" viewBox="0 0 30 30"><defs><style>.cls-1{fill:#fff;}</style></defs><path class="cls-1" d="M1.677,2.64V14.033H13.069V2.64ZM11,11.967H3.742V4.705H11Z"/><path class="cls-1" d="M1.677,16.876V28.269H13.069V16.876ZM11,26.2H3.742V18.941H11Z"/><path class="cls-1" d="M15.671,16.876V28.269H27.064V16.876ZM25,26.2H17.736V18.941H25Z"/><path class="cls-1" d="M27.794,7.41,22.645,2.261a1.807,1.807,0,0,0-2.556,0L14.94,7.41a1.808,1.808,0,0,0,0,2.555l5.149,5.15a1.809,1.809,0,0,0,2.556,0l5.149-5.15A1.806,1.806,0,0,0,27.794,7.41ZM24.572,9.965l-1.927,1.928a1.809,1.809,0,0,1-2.556,0L18.162,9.965a1.808,1.808,0,0,1,0-2.555l1.927-1.927a1.807,1.807,0,0,1,2.556,0L24.572,7.41A1.806,1.806,0,0,1,24.572,9.965Z"/></svg>