<svg id="Layer_1" data-name="Layer 1" xmlns="http://www.w3.org/2000/svg" xmlns:xlink="http://www.w3.org/1999/xlink" viewBox="0 0 30 30"><defs><style>.cls-1{fill:url(#linear-gradient);}.cls-2{fill:url(#linear-gradient-2);}.cls-3{fill:url(#linear-gradient-3);}.cls-4{fill:url(#linear-gradient-4);}.cls-5{fill:url(#linear-gradient-5);}</style><linearGradient id="linear-gradient" x1="-0.045" y1="-3.693" x2="10.611" y2="49.053" gradientUnits="userSpaceOnUse"><stop offset="0.184" stop-color="#29bdef"/><stop offset="0.446" stop-color="#19a5e0"/><stop offset="0.794" stop-color="#078acf"/><stop offset="1" stop-color="#0080c9"/></linearGradient><linearGradient id="linear-gradient-2" x1="6.476" y1="-3.843" x2="17.132" y2="48.904" xlink:href="#linear-gradient"/><linearGradient id="linear-gradient-3" x1="14.592" y1="-5.483" x2="25.248" y2="47.264" xlink:href="#linear-gradient"/><linearGradient id="linear-gradient-4" x1="13.396" y1="-5.241" x2="24.052" y2="47.506" xlink:href="#linear-gradient"/><linearGradient id="linear-gradient-5" x1="10.37" y1="-4.63" x2="21.026" y2="48.117" xlink:href="#linear-gradient"/></defs><path class="cls-1" d="M4.2,19.357l6.394,6.393-2.01,1.941a4.443,4.443,0,0,1-6.228-.055h0a4.444,4.444,0,0,1-.118-6.161Z"/><path class="cls-2" d="M4.863,18.469,8.6,2.566a1.946,1.946,0,0,1,1.894-1.5s1.344-.133,3.52,2.087C14.01,3.506,4.863,18.469,4.863,18.469Z"/><path class="cls-3" d="M11.344,24.629l16.03-3.145a1.945,1.945,0,0,0,1.57-1.838s.183-1.338-1.956-3.594C26.633,16.039,11.344,24.629,11.344,24.629Z"/><path class="cls-4" d="M10.591,23.22l-1.31-1.31L21.469,9.766a1.753,1.753,0,0,1,2.22-.444c1.332.711,4.424,3.851,2.22,4.973C23.571,15.486,10.591,23.22,10.591,23.22Z"/><path class="cls-5" d="M8.238,20.778,6.772,19.312,15.319,4.239s1.066-2.131,3.463-.367c1.7,1.366,3.63,2.964,1.1,5S8.238,20.778,8.238,20.778Z"/></svg>