<svg id="Layer_1" data-name="Layer 1" xmlns="http://www.w3.org/2000/svg" xmlns:xlink="http://www.w3.org/1999/xlink" viewBox="0 0 30 30"><defs><style>.cls-1{fill:url(#linear-gradient);}.cls-2{fill:url(#linear-gradient-2);}.cls-3{fill:url(#linear-gradient-3);}.cls-4{fill:url(#linear-gradient-4);}</style><linearGradient id="linear-gradient" x1="3.826" y1="-4.277" x2="32.064" y2="54.864" gradientUnits="userSpaceOnUse"><stop offset="0" stop-color="#e4e5e3"/><stop offset="0.822" stop-color="#d7d5d6"/><stop offset="1" stop-color="#d3d1d3"/></linearGradient><linearGradient id="linear-gradient-2" x1="7.061" y1="-5.821" x2="35.299" y2="53.319" xlink:href="#linear-gradient"/><linearGradient id="linear-gradient-3" x1="15.205" y1="-9.71" x2="43.443" y2="49.43" xlink:href="#linear-gradient"/><linearGradient id="linear-gradient-4" x1="-4.24" y1="-0.425" x2="23.998" y2="58.715" xlink:href="#linear-gradient"/></defs><path class="cls-1" d="M8.986,20.278,11.1,18.163,9.643,16.7a.622.622,0,1,1,.879-.879l1.458,1.458L14.265,15,12.807,13.54a.622.622,0,0,1,.879-.879l1.458,1.459,2.162-2.162L15.919,10.57a.622.622,0,0,1,.879-.879l1.387,1.388,2.051-2.051L13.475,2.266a22.336,22.336,0,0,0-6.5,4.561A22.224,22.224,0,0,0,2.3,13.592Z"/><path class="cls-2" d="M21.116,9.906l-2.052,2.052,1.53,1.53a.622.622,0,0,1-.879.879l-1.53-1.53L16.023,15l1.459,1.458a.622.622,0,0,1-.879.879l-1.459-1.458L12.86,18.163l1.458,1.458a.622.622,0,0,1-.879.879L11.98,19.042,9.865,21.157l6.686,6.686a22.224,22.224,0,0,0,6.765-4.673,22.336,22.336,0,0,0,4.561-6.5Z"/><path class="cls-3" d="M28.387,15.42c1.726-4.646,1.321-9.266-1.539-12.125S19.369.03,14.723,1.756Z"/><path class="cls-4" d="M1.8,14.85C.188,19.4.636,23.9,3.44,26.7s7.3,3.251,11.854,1.641Z"/></svg>