<svg id="Layer_1" data-name="Layer 1" xmlns="http://www.w3.org/2000/svg" viewBox="0 0 20 20"><defs><style>.cls-1{fill:#fff;}</style></defs><path class="cls-1" d="M12.21,12.865V11.508l-3.5,0a.679.679,0,0,0,0,1.357l1.417,0-1.655,1.69a.489.489,0,0,1-.674.023L6.431,13.294a.49.49,0,0,0-.684.034L3.574,15.679A.8.8,0,0,0,3.6,16.792h0a.8.8,0,0,0,1.189-.057l1.069-1.3a.49.49,0,0,1,.724-.035l1.006,1.007a.489.489,0,0,0,.692,0l2.462-2.462.115,1.078a.679.679,0,1,0,1.357,0l0-2.158Z"/><path class="cls-1" d="M12.673,7.363,10.505,3.185a.394.394,0,0,0-.7.009L7.8,7.3H3.742a.764.764,0,0,0-.764.765h0a.762.762,0,0,0,.257.572c.577.509,1.805,1.751,2.529,2.426.925.864.74,1.172.74,1.172l-.031.525H7.738V12a1.683,1.683,0,0,0-.525-1.221L4.746,8.442H8.355l1.764-3.756L12.18,8.473h3.7l-2.714,2.745.586,4.072-1.018.339,1.419.864h0a.745.745,0,0,0,.737-.854l-.583-3.958,2.361-2.308a1.17,1.17,0,0,0,.353-.838h0A1.171,1.171,0,0,0,15.85,7.363Z"/></svg>