<svg id="Layer_1" data-name="Layer 1" xmlns="http://www.w3.org/2000/svg" xmlns:xlink="http://www.w3.org/1999/xlink" viewBox="0 0 30 30"><defs><style>.cls-1{fill:url(#linear-gradient);}.cls-2{fill:url(#linear-gradient-2);}.cls-3{fill:url(#linear-gradient-3);}.cls-4{fill:url(#linear-gradient-4);}.cls-5{fill:url(#linear-gradient-5);}.cls-6{fill:url(#linear-gradient-6);}.cls-7{fill:url(#linear-gradient-7);}.cls-8{fill:url(#linear-gradient-8);}</style><linearGradient id="linear-gradient" x1="4.146" y1="-0.121" x2="26.315" y2="30.763" gradientUnits="userSpaceOnUse"><stop offset="0.235" stop-color="#29bdef"/><stop offset="1" stop-color="#0080c9"/></linearGradient><linearGradient id="linear-gradient-2" x1="8.754" y1="-3.428" x2="30.923" y2="27.456" xlink:href="#linear-gradient"/><linearGradient id="linear-gradient-3" x1="7.139" y1="-2.269" x2="29.307" y2="28.615" xlink:href="#linear-gradient"/><linearGradient id="linear-gradient-4" x1="2.378" y1="1.148" x2="24.547" y2="32.032" xlink:href="#linear-gradient"/><linearGradient id="linear-gradient-5" x1="5.071" y1="-0.785" x2="27.24" y2="30.1" xlink:href="#linear-gradient"/><linearGradient id="linear-gradient-6" x1="1.765" y1="1.588" x2="23.934" y2="32.472" xlink:href="#linear-gradient"/><linearGradient id="linear-gradient-7" x1="5.412" y1="-1.029" x2="27.58" y2="29.855" xlink:href="#linear-gradient"/><linearGradient id="linear-gradient-8" x1="3.688" y1="0.208" x2="25.856" y2="31.093" xlink:href="#linear-gradient"/></defs><path class="cls-1" d="M15,1.079A13.921,13.921,0,1,0,28.921,15,13.921,13.921,0,0,0,15,1.079Zm-1.777,22.1A10.212,10.212,0,1,1,23.434,12.963,10.212,10.212,0,0,1,13.223,23.174Zm14.195-9.532c-.545.151-1.3-.856-1.683-2.249s-.254-2.643.291-2.794,1.3.856,1.683,2.249S27.963,13.492,27.418,13.642Z"/><path class="cls-2" d="M16.674,10.308c.727-.265,3.04-3.5,3.04-3.5a10.925,10.925,0,0,0-2.115,0,11.369,11.369,0,0,1-2.6,3.5A3.212,3.212,0,0,0,16.674,10.308Z"/><path class="cls-3" d="M16.956,14.658c.849-.324,3.551-4.279,3.551-4.279a12.229,12.229,0,0,0-2.471,0C17.419,12.317,15,14.658,15,14.658A3.594,3.594,0,0,0,16.956,14.658Z"/><path class="cls-4" d="M18.072,14.486a12.661,12.661,0,0,1-2.419,3.85,31.157,31.157,0,0,1-1.9-4.393h.9V12.555H12.291v-.9H9.537v.9H6.982v1.388h.782A5.987,5.987,0,0,1,6.541,17.82l-.176.264V19.1s2.688-.132,3.084-5.154H9.8v5.881h1.982v-4.73a21.764,21.764,0,0,0,3.124,4.06h0a1.088,1.088,0,0,0,.141.123c.048.042.1.088.144.128l.021-.025a1.684,1.684,0,0,0,1.644-.086c.908-.468,3.992-4.809,3.992-4.809A13.664,13.664,0,0,0,18.072,14.486Z"/><rect class="cls-5" x="6.982" y="6.586" width="7.676" height="1.278"/><polygon class="cls-6" points="9.141 11.121 7.908 8.586 6.982 8.586 7.489 11.121 9.141 11.121"/><polygon class="cls-7" points="13.796 11.121 14.302 8.586 13.377 8.586 12.144 11.121 13.796 11.121"/><rect class="cls-8" x="9.802" y="8.586" width="1.619" height="2.534"/></svg>