<svg id="Layer_1" data-name="Layer 1" xmlns="http://www.w3.org/2000/svg" xmlns:xlink="http://www.w3.org/1999/xlink" viewBox="0 0 30 30"><defs><style>.cls-1{fill:url(#linear-gradient);}.cls-2{fill:url(#linear-gradient-2);}.cls-3{fill:url(#linear-gradient-3);}.cls-4{fill:url(#linear-gradient-4);}.cls-5{fill:url(#linear-gradient-5);}.cls-6{fill:url(#linear-gradient-6);}.cls-7{fill:url(#linear-gradient-7);}.cls-8{fill:url(#linear-gradient-8);}.cls-9{fill:url(#linear-gradient-9);}.cls-10{fill:url(#linear-gradient-10);}.cls-11{fill:url(#linear-gradient-11);}</style><linearGradient id="linear-gradient" x1="-3.202" y1="3.97" x2="24.637" y2="43.264" gradientUnits="userSpaceOnUse"><stop offset="0.24" stop-color="#b69468"/><stop offset="0.484" stop-color="#b59770"/><stop offset="0.808" stop-color="#b69468"/><stop offset="1" stop-color="#b59770"/></linearGradient><linearGradient id="linear-gradient-2" x1="3.174" y1="-0.547" x2="31.013" y2="38.747" xlink:href="#linear-gradient"/><linearGradient id="linear-gradient-3" x1="-4.52" y1="4.904" x2="23.318" y2="44.198" xlink:href="#linear-gradient"/><linearGradient id="linear-gradient-4" x1="2.704" y1="-0.214" x2="30.543" y2="39.08" xlink:href="#linear-gradient"/><linearGradient id="linear-gradient-5" x1="-1.028" y1="2.43" x2="26.81" y2="41.724" xlink:href="#linear-gradient"/><linearGradient id="linear-gradient-6" x1="3.533" y1="-0.801" x2="31.372" y2="38.492" xlink:href="#linear-gradient"/><linearGradient id="linear-gradient-7" x1="-6.388" y1="6.227" x2="21.451" y2="45.521" xlink:href="#linear-gradient"/><linearGradient id="linear-gradient-8" x1="8.23" y1="-4.129" x2="36.069" y2="35.165" xlink:href="#linear-gradient"/><linearGradient id="linear-gradient-9" x1="11.368" y1="-6.352" x2="39.206" y2="32.942" xlink:href="#linear-gradient"/><linearGradient id="linear-gradient-10" x1="10.256" y1="-5.564" x2="38.094" y2="33.73" xlink:href="#linear-gradient"/><linearGradient id="linear-gradient-11" x1="14.295" y1="-8.426" x2="42.133" y2="30.868" xlink:href="#linear-gradient"/></defs><path class="cls-1" d="M3.288,10.761,2.37,9.08a14.034,14.034,0,0,0-1.132,3.913Z"/><polygon class="cls-2" points="10.88 19.968 9.082 13.774 14.876 9.046 20.338 14.041 18.739 19.968 10.88 19.968"/><path class="cls-3" d="M8.838,23.609c1.332-9.368-4.484-10.734-4.484-10.734L1.117,15.5a14.075,14.075,0,0,0,3.112,8.321C6.131,23.763,8.867,23.667,8.838,23.609Z"/><path class="cls-4" d="M19.471,28.45a14.124,14.124,0,0,0,4.786-2.6l-.19-.91H21.226Z"/><path class="cls-5" d="M19.805,24.142l-1.332-2.4H10.925L9.859,24.5l1.86,4.137a14.111,14.111,0,0,0,3.523.46,14.093,14.093,0,0,0,2.139-.179Z"/><path class="cls-6" d="M5.02,10.587l3.463,1.574,4.928-4.415v-3.9l-3.382-2.06a14.181,14.181,0,0,0-5.751,4.2Z"/><path class="cls-7" d="M8.572,25.118H5.421a14.136,14.136,0,0,0,4.662,2.992Z"/><path class="cls-8" d="M25.754,23.822a9.475,9.475,0,0,0,3.019-8.649,33.372,33.372,0,0,0-3.019-3.082s-6.216,1.661-4.884,11.34C21.137,23.7,25.754,23.822,25.754,23.822Z"/><path class="cls-9" d="M16.43,8.247l-.421-4.263,3.462-2.193s5.728.6,6.061,6.189c-.133.267-.749,2.781-.749,2.781l-4.013,1.4Z"/><path class="cls-10" d="M12.346,1.054s.865-.333,5.194,0c.2.133-2.6,1.665-2.6,1.665Z"/><path class="cls-11" d="M27.53,8.513a5.33,5.33,0,0,1,1.353,3.648c-.154.215-2.085-1.125-2.085-1.125Z"/></svg>