<svg id="Layer_1" data-name="Layer 1" xmlns="http://www.w3.org/2000/svg" xmlns:xlink="http://www.w3.org/1999/xlink" viewBox="0 0 30 30"><defs><style>.cls-1{fill:url(#linear-gradient);}.cls-2{fill:url(#linear-gradient-2);}.cls-3{fill:url(#linear-gradient-3);}</style><linearGradient id="linear-gradient" x1="7.008" y1="7.42" x2="28.362" y2="7.42" gradientUnits="userSpaceOnUse"><stop offset="0" stop-color="#e4e5e3"/><stop offset="0.822" stop-color="#d7d5d6"/><stop offset="1" stop-color="#d3d1d3"/></linearGradient><linearGradient id="linear-gradient-2" x1="11.384" y1="20.009" x2="28.967" y2="20.009" xlink:href="#linear-gradient"/><linearGradient id="linear-gradient-3" x1="1.033" y1="16.499" x2="15.413" y2="16.499" xlink:href="#linear-gradient"/></defs><path class="cls-1" d="M8.4,11.473c1.865,2.842,6.305,2.664,6.6,1.688,2.512-4.618,7.256-4.973,11.518-3.375a5.6,5.6,0,0,1,1.844,1.15A13.966,13.966,0,0,0,7.224,3.4C6.733,5.932,7.057,9.421,8.4,11.473Z"/><path class="cls-2" d="M17.816,12.273c-1.154,1.065-1.421,3.374-.8,5.772,1.83,6.3-3.164,9.343-5.633,10.432A13.922,13.922,0,0,0,28.967,15c0-.152-.018-.3-.023-.451C23.354,9.2,18.84,11.328,17.816,12.273Z"/><path class="cls-3" d="M7.9,27.015c3.829-.578,6.152-2.408,7.1-4.175,1.269-4.174-.469-7.015-4.021-7.84-4.52-1.147-6.091-5.96-6.636-9.016A13.938,13.938,0,0,0,7.9,27.015Z"/></svg>