<svg id="Layer_1" data-name="Layer 1" xmlns="http://www.w3.org/2000/svg" viewBox="0 0 20 20"><defs><style>.cls-1{fill:#fff;}</style></defs><path class="cls-1" d="M16.761,4.46H15.692V3.6a1.224,1.224,0,0,0-1.224-1.225H5.532A1.224,1.224,0,0,0,4.307,3.6V4.46h-1a2.335,2.335,0,0,0-2.371,2.3A2.334,2.334,0,0,0,3.3,9.051H4.36a5.69,5.69,0,0,0,5.15,4.934v2.656h-2.2v.98h5.386v-.98h-2.2V13.985a5.69,5.69,0,0,0,5.15-4.934h1.121a2.3,2.3,0,1,0,0-4.591ZM4.185,8.328H3.451a1.592,1.592,0,1,1,0-3.183h.734Zm10.7-.029a4.889,4.889,0,1,1-9.778,0V3.914A.714.714,0,0,1,5.825,3.2h8.35a.714.714,0,0,1,.714.714Zm1.561.029h-.735V5.145h.735a1.592,1.592,0,0,1,0,3.183Z"/></svg>