<svg id="Layer_1" data-name="Layer 1" xmlns="http://www.w3.org/2000/svg" xmlns:xlink="http://www.w3.org/1999/xlink" viewBox="0 0 30 30"><defs><style>.cls-1{fill:url(#linear-gradient);}.cls-2{fill:url(#linear-gradient-2);}.cls-3{fill:url(#linear-gradient-3);}.cls-4{fill:url(#linear-gradient-4);}.cls-5{fill:url(#linear-gradient-5);}</style><linearGradient id="linear-gradient" x1="0.754" y1="-9.813" x2="29.88" y2="56.254" gradientUnits="userSpaceOnUse"><stop offset="0.296" stop-color="#29bdef"/><stop offset="0.43" stop-color="#1caae3"/><stop offset="0.637" stop-color="#0d93d5"/><stop offset="0.832" stop-color="#0385cc"/><stop offset="1" stop-color="#0080c9"/></linearGradient><linearGradient id="linear-gradient-2" x1="-4.938" y1="0.637" x2="24.188" y2="66.703" xlink:href="#linear-gradient"/><linearGradient id="linear-gradient-3" x1="-4.4" y1="-7.541" x2="24.726" y2="58.526" xlink:href="#linear-gradient"/><linearGradient id="linear-gradient-4" x1="5.507" y1="-11.908" x2="34.633" y2="54.158" xlink:href="#linear-gradient"/><linearGradient id="linear-gradient-5" x1="14.594" y1="-15.914" x2="43.72" y2="50.152" xlink:href="#linear-gradient"/></defs><circle class="cls-1" cx="9.258" cy="9.475" r="5.195"/><path class="cls-2" d="M5.75,17.451l-1.3-.605a2.882,2.882,0,0,0-2.472,5.206L5.75,23.878Z"/><polygon class="cls-3" points="6.647 24.312 10.611 26.232 10.611 19.714 6.647 17.869 6.647 24.312"/><path class="cls-4" d="M19.433,11.306c-1.532,3.52-2.929,6.731-3.351,7.715-1.065,2.487-3.907,1.421-3.907,1.421l-.666-.31v6.535l4.28,2.072a2.28,2.28,0,0,0,3.047-1.06l7.908-16.373Z"/><path class="cls-5" d="M27.66,1.366A3.466,3.466,0,0,0,23,3.114c-.876,2.011-2.045,4.692-3.178,7.294h7.354L29.3,6.01A3.468,3.468,0,0,0,27.66,1.366Z"/></svg>