<svg id="Layer_1" data-name="Layer 1" xmlns="http://www.w3.org/2000/svg" xmlns:xlink="http://www.w3.org/1999/xlink" viewBox="0 0 30 30"><defs><style>.cls-1{fill:url(#linear-gradient);}.cls-2{fill:url(#linear-gradient-2);}.cls-3{fill:url(#linear-gradient-3);}.cls-4{fill:url(#linear-gradient-4);}.cls-5{fill:url(#linear-gradient-5);}.cls-6{fill:url(#linear-gradient-6);}</style><linearGradient id="linear-gradient" x1="-1.28" y1="-6.28" x2="33.085" y2="76.836" gradientUnits="userSpaceOnUse"><stop offset="0.257" stop-color="#29bdef"/><stop offset="0.381" stop-color="#1eade5"/><stop offset="0.613" stop-color="#0e94d6"/><stop offset="0.826" stop-color="#0385cc"/><stop offset="1" stop-color="#0080c9"/></linearGradient><linearGradient id="linear-gradient-2" x1="3.957" y1="-11.217" x2="38.322" y2="71.899" xlink:href="#linear-gradient"/><linearGradient id="linear-gradient-3" x1="7.503" y1="-15.24" x2="41.868" y2="67.876" xlink:href="#linear-gradient"/><linearGradient id="linear-gradient-4" x1="12.524" y1="-20.062" x2="46.89" y2="63.054" xlink:href="#linear-gradient"/><linearGradient id="linear-gradient-5" x1="-6.017" y1="-12.396" x2="28.349" y2="70.72" xlink:href="#linear-gradient"/><linearGradient id="linear-gradient-6" x1="4.385" y1="-16.697" x2="38.75" y2="66.419" xlink:href="#linear-gradient"/></defs><path class="cls-1" d="M15,23.935a19.935,19.935,0,0,0,.444-7.9c0-.169-4.893-.1-12.314-8.478A13.852,13.852,0,0,0,1.359,18.242C3.647,20.192,9.458,24.559,15,23.935Z"/><path class="cls-2" d="M7.186,9.638s1.929-5.184,9.233-8.586A14.161,14.161,0,0,0,15,.98,13.994,13.994,0,0,0,3.883,6.474,10.374,10.374,0,0,0,7.186,9.638Z"/><path class="cls-3" d="M8.074,10.438A11.428,11.428,0,0,0,15,14.522,23.791,23.791,0,0,1,27.192,8.084,14.038,14.038,0,0,0,18.334,1.4C15.861,2.451,9.952,5.429,8.074,10.438Z"/><path class="cls-4" d="M24.146,10.615c.159.318,3.364,3.123,2.777,11.765A13.946,13.946,0,0,0,27.806,9.3,8.323,8.323,0,0,0,24.146,10.615Z"/><path class="cls-5" d="M15,25.178c-.084-.252-5.651,1-12.791-4.423A14.017,14.017,0,0,0,14.593,29.02,13.946,13.946,0,0,0,15,25.178Z"/><path class="cls-6" d="M23.17,11.059c-.089-.177-4.263.621-6.483,3.951.089-.043.352,10.735-1.223,14.007A13.974,13.974,0,0,0,25.51,24.283C26,21.467,26.613,15.11,23.17,11.059Z"/></svg>