<svg id="Layer_1" data-name="Layer 1" xmlns="http://www.w3.org/2000/svg" xmlns:xlink="http://www.w3.org/1999/xlink" viewBox="0 0 30 30"><defs><style>.cls-1{fill:url(#linear-gradient);}.cls-2{fill:url(#linear-gradient-2);}.cls-3{fill:url(#linear-gradient-3);}</style><linearGradient id="linear-gradient" x1="13.395" y1="-16.318" x2="54.953" y2="94.503" gradientUnits="userSpaceOnUse"><stop offset="0.198" stop-color="#b69468"/><stop offset="0.455" stop-color="#b59770"/><stop offset="0.798" stop-color="#b69468"/><stop offset="1" stop-color="#b59770"/></linearGradient><linearGradient id="linear-gradient-2" x1="2.265" y1="-21.025" x2="43.823" y2="89.797" xlink:href="#linear-gradient"/><linearGradient id="linear-gradient-3" x1="-8.145" y1="-21.783" x2="33.413" y2="89.038" xlink:href="#linear-gradient"/></defs><path class="cls-1" d="M16.03,3.617c.656-.241,1.2-.246,1.41.043.259.357-.058,1.054-.731,1.739a21.191,21.191,0,0,0,1.171,2.34c.881-.454,1.672-.557,1.937-.192s-.1,1.13-.851,1.85a15.945,15.945,0,0,0,1.785,2.038c.613-.747,1.277-1.142,1.66-.921.428.248.364,1.183-.1,2.221a13.786,13.786,0,0,0,2.19,1.29c.614-.75,1.279-1.146,1.663-.924.343.2.366.841.124,1.622a15.519,15.519,0,0,0,2.723.577c0-.1.015-.2.015-.3A14.015,14.015,0,0,0,15.311.994,24.73,24.73,0,0,0,16.03,3.617Z"/><path class="cls-2" d="M25.418,16.427c-.664.915-1.437,1.434-1.863,1.188-.4-.231-.368-1.057.013-2.008A20.144,20.144,0,0,1,21.3,14.291c-.565.622-1.148.939-1.5.737-.382-.221-.374-.99-.035-1.892a16.485,16.485,0,0,1-2.487-2.594c-.774.345-1.442.4-1.681.071s.031-.98.631-1.628a16.277,16.277,0,0,1-1.167-2.4c-.842.412-1.585.492-1.84.141-.313-.429.216-1.353,1.192-2.154a20.37,20.37,0,0,1-.577-3.536A14.011,14.011,0,0,0,1.858,10.148a20.852,20.852,0,0,1,4.279,1.22c.928-.857,1.915-1.255,2.3-.887.313.3.132,1.026-.392,1.8a16.269,16.269,0,0,1,2.217,1.484c.725-.505,1.4-.691,1.7-.4s.147.936-.3,1.656a16.506,16.506,0,0,1,2.23,2.818c.939-.212,1.7-.115,1.869.294.152.374-.241.908-.935,1.382a20.1,20.1,0,0,1,.994,2.425c.993-.248,1.816-.165,1.99.261.185.456-.433,1.15-1.431,1.683a23.52,23.52,0,0,1,.639,4.976,14.012,14.012,0,0,0,11.78-11.4A23.889,23.889,0,0,1,25.418,16.427Z"/><path class="cls-3" d="M14.568,24.512c-.806.133-1.44.022-1.59-.345-.167-.41.317-1.015,1.143-1.52a13.761,13.761,0,0,0-.978-2.346c-1.092.32-2.028.256-2.214-.2-.167-.41.315-1.014,1.14-1.519a15.945,15.945,0,0,0-1.775-2.047c-.816.645-1.615.912-1.95.589s-.114-1.08.456-1.892a21.138,21.138,0,0,0-2.158-1.48c-.771.573-1.505.792-1.822.487-.258-.249-.179-.786.15-1.4a24.4,24.4,0,0,0-3.513-1.416,13.961,13.961,0,0,0,13.2,17.588A16.343,16.343,0,0,0,14.568,24.512Z"/></svg>