<svg id="Layer_1" data-name="Layer 1" xmlns="http://www.w3.org/2000/svg" xmlns:xlink="http://www.w3.org/1999/xlink" viewBox="0 0 37.42105 30"><defs><style>.cls-1{fill:url(#linear-gradient);}.cls-2{fill:url(#linear-gradient-2);}.cls-3{fill:url(#linear-gradient-3);}.cls-4{fill:url(#linear-gradient-4);}.cls-5{fill:url(#linear-gradient-5);}</style><linearGradient id="linear-gradient" x1="42.23376" y1="16.24755" x2="18.61217" y2="16.24755" gradientUnits="userSpaceOnUse"><stop offset="0" stop-color="#44b7a6"/><stop offset="0.38623" stop-color="#43b7ab"/><stop offset="0.83428" stop-color="#40b8b9"/><stop offset="1" stop-color="#3eb9c0"/></linearGradient><linearGradient id="linear-gradient-2" x1="42.23376" y1="16.24755" x2="20.53923" y2="16.24755" gradientUnits="userSpaceOnUse"><stop offset="0" stop-color="#44b7a6"/><stop offset="0.43577" stop-color="#43b7ab"/><stop offset="0.94135" stop-color="#40b9b9"/><stop offset="1" stop-color="#40b9bb"/></linearGradient><linearGradient id="linear-gradient-3" x1="18.52026" y1="16.24755" x2="-3.17427" y2="16.24755" gradientUnits="userSpaceOnUse"><stop offset="0" stop-color="#40b9bb"/><stop offset="1" stop-color="#44b7a6"/></linearGradient><linearGradient id="linear-gradient-4" x1="35.61604" y1="7.50434" x2="13.92151" y2="7.50434" xlink:href="#linear-gradient-2"/><linearGradient id="linear-gradient-5" x1="18.84206" y1="16.24755" x2="34.55922" y2="16.24755" xlink:href="#linear-gradient-3"/></defs><path class="cls-1" d="M0,28.93152H16.29131V24.38571a8.19722,8.19722,0,0,1,0-16.27631V3.56359H0Z"/><path class="cls-2" d="M23.07992,16.2476A5.78332,5.78332,0,0,0,18.842,10.687V21.80813A5.78329,5.78329,0,0,0,23.07992,16.2476Z"/><path class="cls-3" d="M11.47885,16.2476a5.79057,5.79057,0,0,0,4.81246,5.70087V10.54663A5.79068,5.79068,0,0,0,11.47885,16.2476Z"/><path class="cls-4" d="M32.03139,1.02448a5.17744,5.17744,0,0,0-5.33084,5.00929A4.81057,4.81057,0,0,0,28.08869,9.3786l-.01208.006,3.95478,4.59956s3.26267-3.63058,4.27383-4.96329a5.77139,5.77139,0,0,0,1.057-2.98714A5.17766,5.17766,0,0,0,32.03139,1.02448Zm0,7.44493a1.88418,1.88418,0,1,1,1.88412-1.88422A1.88425,1.88425,0,0,1,32.03139,8.46941Z"/><path class="cls-5" d="M25.90993,10.41491l.01865-.00933a7.44657,7.44657,0,0,1-2.14864-5.17744,7.31959,7.31959,0,0,1,.19541-1.66455H18.84206V8.19707a8.2001,8.2001,0,0,1,0,16.101v4.63348H34.55922V14.68635c-1.37375,1.56347-2.52792,2.84812-2.52792,2.84812Z"/></svg>