<svg id="Layer_1" data-name="Layer 1" xmlns="http://www.w3.org/2000/svg" xmlns:xlink="http://www.w3.org/1999/xlink" viewBox="0 0 37.421 30"><defs><style>.cls-1{fill:url(#linear-gradient);}.cls-2{fill:url(#linear-gradient-2);}.cls-3{fill:url(#linear-gradient-5);}</style><linearGradient id="linear-gradient" x1="1.232" y1="7.737" x2="58.582" y2="7.737" gradientUnits="userSpaceOnUse"><stop offset="0" stop-color="#69c8f0"/><stop offset="0.152" stop-color="#64c5ef"/><stop offset="0.329" stop-color="#56beea"/><stop offset="0.518" stop-color="#3fb1e3"/><stop offset="0.714" stop-color="#1e9fd9"/><stop offset="0.866" stop-color="#008fd0"/></linearGradient><linearGradient id="linear-gradient-2" x1="3.253" y1="7.737" x2="60.603" y2="7.737" xlink:href="#linear-gradient"/><linearGradient id="linear-gradient-5" x1="4.483" y1="12.765" x2="36.891" y2="23.108" gradientUnits="userSpaceOnUse"><stop offset="0" stop-color="#69c8f0"/><stop offset="0.176" stop-color="#64c5ef"/><stop offset="0.38" stop-color="#56beea"/><stop offset="0.598" stop-color="#3fb1e3"/><stop offset="0.824" stop-color="#1e9fd9"/><stop offset="1" stop-color="#008fd0"/></linearGradient></defs><polygon class="cls-1" points="6.584 9.189 6.584 6.284 13.216 6.284 11.511 9.189 6.584 9.189"/><polygon class="cls-2" points="13.216 9.189 14.921 6.284 19.658 6.284 17.953 9.189 13.216 9.189"/><polygon class="cls-2" points="19.658 9.189 21.221 6.284 25.768 6.284 24.347 9.189 19.658 9.189"/><path class="cls-2" d="M25.768,9.189l1.564-2.9h.6a2.905,2.905,0,0,1,2.905,2.905H25.768Z"/><rect class="cls-3" x="6.584" y="10.895" width="24.252" height="12.821"/><polygon points="16.437 20.432 16.437 13.863 22.713 16.832 16.437 20.432"/></svg>