<svg id="Layer_1" data-name="Layer 1" xmlns="http://www.w3.org/2000/svg" xmlns:xlink="http://www.w3.org/1999/xlink" viewBox="0 0 30 30"><defs><style>.cls-1{fill:url(#linear-gradient);}.cls-2{fill:url(#linear-gradient-2);}.cls-3{fill:url(#linear-gradient-3);}.cls-4{fill:url(#linear-gradient-4);}</style><linearGradient id="linear-gradient" x1="9.983" y1="-7.088" x2="37.52" y2="27.775" gradientUnits="userSpaceOnUse"><stop offset="0" stop-color="#e4e5e3"/><stop offset="0.822" stop-color="#d7d5d6"/><stop offset="1" stop-color="#d3d1d3"/></linearGradient><linearGradient id="linear-gradient-2" x1="1.225" y1="-0.17" x2="28.762" y2="34.693" xlink:href="#linear-gradient"/><linearGradient id="linear-gradient-3" x1="3.433" y1="-1.914" x2="30.97" y2="32.949" xlink:href="#linear-gradient"/><linearGradient id="linear-gradient-4" x1="-5.325" y1="5.004" x2="22.212" y2="39.867" xlink:href="#linear-gradient"/></defs><path class="cls-1" d="M16.516,13.452v-6.2a6.2,6.2,0,0,1,6.2-6.2h.4a6.2,6.2,0,0,1,6.2,6.2h0a6.2,6.2,0,0,1-6.195,6.2Z"/><path class="cls-2" d="M13.484,13.452v-6.2a6.2,6.2,0,0,0-6.2-6.2h-.4A6.2,6.2,0,0,0,.7,7.256h0a6.2,6.2,0,0,0,6.2,6.2Z"/><path class="cls-3" d="M16.516,16.548v6.2a6.2,6.2,0,0,0,6.2,6.2h.4a6.2,6.2,0,0,0,6.2-6.2h0a6.2,6.2,0,0,0-6.195-6.2Z"/><path class="cls-4" d="M13.484,16.548v6.2a6.2,6.2,0,0,1-6.2,6.2h-.4A6.2,6.2,0,0,1,.7,22.744h0a6.2,6.2,0,0,1,6.2-6.2Z"/></svg>