<svg id="Layer_1" data-name="Layer 1" xmlns="http://www.w3.org/2000/svg" xmlns:xlink="http://www.w3.org/1999/xlink" viewBox="0 0 37.42105 30"><defs><style>.cls-1{fill:url(#linear-gradient);}.cls-2{fill:url(#linear-gradient-2);}.cls-3{fill:url(#linear-gradient-3);}.cls-4{fill:url(#linear-gradient-4);}.cls-5{fill:url(#linear-gradient-5);}</style><linearGradient id="linear-gradient" x1="-1.9239" y1="7.39206" x2="38.36182" y2="42.82063" gradientUnits="userSpaceOnUse"><stop offset="0" stop-color="#e4e5e3"/><stop offset="0.82167" stop-color="#d7d5d6"/><stop offset="1" stop-color="#d3d1d3"/></linearGradient><linearGradient id="linear-gradient-2" x1="2.9308" y1="1.87179" x2="43.21652" y2="37.30036" xlink:href="#linear-gradient"/><linearGradient id="linear-gradient-3" x1="1.34531" y1="3.67465" x2="41.63103" y2="39.10322" xlink:href="#linear-gradient"/><linearGradient id="linear-gradient-4" x1="13.28782" y1="-9.90514" x2="53.57354" y2="25.52343" xlink:href="#linear-gradient"/><linearGradient id="linear-gradient-5" x1="3.86028" y1="0.81489" x2="44.14599" y2="36.24346" xlink:href="#linear-gradient"/></defs><path class="cls-1" d="M0,28.93152H16.29131V24.38571a8.19722,8.19722,0,0,1,0-16.27631V3.56359H0Z"/><path class="cls-2" d="M23.07992,16.2476A5.78332,5.78332,0,0,0,18.842,10.687V21.80813A5.78329,5.78329,0,0,0,23.07992,16.2476Z"/><path class="cls-3" d="M11.47885,16.2476a5.79057,5.79057,0,0,0,4.81246,5.70087V10.54663A5.79068,5.79068,0,0,0,11.47885,16.2476Z"/><path class="cls-4" d="M32.03139,1.02448a5.17744,5.17744,0,0,0-5.33084,5.00929A4.81057,4.81057,0,0,0,28.08869,9.3786l-.01208.006,3.95478,4.59956s3.26267-3.63058,4.27383-4.96329a5.77139,5.77139,0,0,0,1.057-2.98714A5.17766,5.17766,0,0,0,32.03139,1.02448Zm0,7.44493a1.88418,1.88418,0,1,1,1.88412-1.88422A1.88425,1.88425,0,0,1,32.03139,8.46941Z"/><path class="cls-5" d="M25.90993,10.41491l.01865-.00933a7.44657,7.44657,0,0,1-2.14864-5.17744,7.31959,7.31959,0,0,1,.19541-1.66455H18.84206V8.19707a8.2001,8.2001,0,0,1,0,16.101v4.63348H34.55922V14.68635c-1.37375,1.56347-2.52792,2.84812-2.52792,2.84812Z"/></svg>