<svg id="Layer_1" data-name="Layer 1" xmlns="http://www.w3.org/2000/svg" viewBox="0 0 20 20"><path d="M7.542,15.681h7.042A1.414,1.414,0,0,0,16,14.267V5.645a1.414,1.414,0,0,0-1.414-1.414H6.05A1.414,1.414,0,0,0,4.636,5.645v4.466a.7.7,0,0,1-.7.7h0a.7.7,0,0,1-.7-.7V5A1.871,1.871,0,0,1,5.107,3.125h10.42A1.871,1.871,0,0,1,17.4,5V15a1.871,1.871,0,0,1-1.871,1.871H4.89a.608.608,0,0,1-.608-.608h0a.608.608,0,0,1,.614-.609Z"/><polygon points="7.542 7.797 7.542 8.884 8.444 8.884 8.444 13.096 10.062 13.096 10.062 8.884 10.062 8.341 10.062 7.797 7.542 7.797"/><polygon points="12.73 7.797 12.73 8.884 13.631 8.884 13.631 13.096 15.249 13.096 15.249 8.884 15.249 8.341 15.249 7.797 12.73 7.797"/><rect x="11.05" y="9.378" width="1.068" height="1.068"/><rect x="11.05" y="12.028" width="1.068" height="1.068"/><rect x="2.602" y="13.429" width="5.385" height="1.186" rx="0.582"/><rect x="4.652" y="11.376" width="3.335" height="1.186" rx="0.582"/></svg>