<?xml version="1.0" encoding="utf-8"?>
<!-- Generator: Adobe Illustrator 24.1.2, SVG Export Plug-In . SVG Version: 6.00 Build 0)  -->
<svg version="1.1" id="Layer_1" xmlns="http://www.w3.org/2000/svg" xmlns:xlink="http://www.w3.org/1999/xlink" x="0px" y="0px"
	 viewBox="0 0 167 66" style="enable-background:new 0 0 167 66;" xml:space="preserve">
<style type="text/css">
	.st0{fill:url(#SVGID_1_);}
	.st1{fill:#FFFFFF;}
</style>
<g>
	<linearGradient id="SVGID_1_" gradientUnits="userSpaceOnUse" x1="9.9924" y1="9.367" x2="55.4166" y2="56.4051">
		<stop  offset="0" style="stop-color:#46AEF7"/>
		<stop  offset="1" style="stop-color:#1DD5E6"/>
	</linearGradient>
	<path class="st0" d="M65.4,32.9c0-11.4-5.8-21.4-14.6-27.2v14.1c0,0.5,0,1,0,1.5c0,1.2,0,2.3,0,3.5c0,1.1,0,2.1,0,3.2V31h0
		c0,2,0,4,0,6c0,10.2-6.1,16.8-16.3,17.7c-0.6,0.1-1.2,0.1-1.8,0.1c-4.1,0.1-7.9-0.9-11.4-3.1c-4.5-2.9-6.9-7-7.1-12.3
		c-0.2-5.3-0.1-10.7,0-16c0-1,0.3-1.9,0.7-2.7c0.8-1.3,2-2,3.5-2c2.3,0.1,3.8,1.8,3.8,4.7c0,4.8,0,9.5,0,14.3
		c0,5.8,4.3,9.6,10.6,9.6c0.8,0,1.5-0.1,2.2-0.2c4.8-0.8,7.8-4.2,7.9-9.2c0-1.7,0-3.4,0-5.1V22.2V17V1.8c-3.2-1-6.5-1.6-10.1-1.6
		C14.7,0.2,0,14.8,0,32.9c0,18.1,14.6,32.7,32.7,32.7S65.4,50.9,65.4,32.9z"/>
	<path class="st1" d="M99.5,37.1c0,1.2-0.2,2.3-0.5,3.4c-0.3,1-0.9,1.9-1.5,2.6c-0.7,0.7-1.5,1.3-2.4,1.7c-1,0.4-2,0.6-3.2,0.6
		c-1.2,0-2.3-0.2-3.3-0.6c-1-0.4-1.8-1-2.4-1.7c-0.7-0.7-1.2-1.6-1.5-2.6c-0.3-1-0.5-2.1-0.5-3.4V19.3h-3.9v17.8
		c0,1.7,0.3,3.3,0.8,4.7c0.5,1.4,1.3,2.7,2.3,3.7s2.2,1.9,3.7,2.5c1.4,0.6,3.1,0.9,4.9,0.9c1.8,0,3.4-0.3,4.9-0.9
		c1.4-0.6,2.7-1.4,3.7-2.5c1-1.1,1.8-2.3,2.3-3.7c0.5-1.4,0.8-3,0.8-4.7V19.3h-3.9V37.1z"/>
	<path class="st1" d="M125.2,42.7h5.2v-2h-5.2V29.4c2.1,5.7,5.4,11.2,8.9,14.2c0.4-0.5,1.1-1.3,1.6-1.7c-3.6-2.7-7.1-8.1-9.1-13.4
		h8.5v-2.1h-10v-6.5c0.5,0,0.6-0.2,0.6-0.4l-2.7-0.2v7.1h-9.4v2.1h8c-2.1,5.4-5.6,10.8-9.2,13.6c0.5,0.4,1.2,1.1,1.6,1.6
		c3.6-3,7-8.4,9.1-14.2v11.2h-5.3v2h5.3v6.4h2.1V42.7z"/>
	<path class="st1" d="M111.8,27.7c0.4,0,0.6-0.2,0.6-0.4l-0.9-0.2c1.1-2.2,2.1-4.4,3-6.7c0.4,0,0.6-0.1,0.7-0.3l-2.6-0.9
		c-1.9,5.6-5,11.2-8.1,14.5c0.4,0.5,0.9,1.5,1.1,2c1.4-1.6,2.7-3.4,3.9-5.4v18.7h2.1V27.7z"/>
	<path class="st1" d="M151.5,22.3h-13.3v2h8.9c-0.9,1.5-2.1,3.2-3.2,4.5l-4.4,0.1l0.9,2.5c0.3-0.1,0.4-0.2,0.5-0.5
		c5.3-0.1,13.8-0.4,21.8-0.7c0.9,0.8,1.6,1.5,2.2,2.1l1.8-1.3c-1.8-1.9-5.5-4.7-8.4-6.6l-1.7,1.1c1.3,0.8,2.7,1.9,4.1,2.9
		c-4.9,0.1-10,0.2-14.3,0.3c1.2-1.3,2.4-2.9,3.2-4c0.4,0,0.6-0.1,0.7-0.3l-0.3-0.1h17.2v-2h-13.5v-2.7c0.4,0,0.6-0.2,0.6-0.4
		l-2.8-0.2V22.3z"/>
	<path class="st1" d="M145.3,43.6h14.9v3c0,0.5-0.2,0.6-0.7,0.6h-1.7c-0.8,0-1.7,0-2.7,0c0.3,0.5,0.6,1.3,0.7,1.8
		c2.6,0,4.3,0,5.3-0.3c1-0.3,1.3-0.9,1.3-2.1V33.1h-19.2v16h2.2V43.6z M145.3,34.9h14.9v2.7h-14.9V34.9z M145.3,39.2h14.9v2.7h-14.9
		V39.2z"/>
</g>
</svg>
