<?xml version="1.0" encoding="utf-8"?>
<!-- Generator: Adobe Illustrator 24.1.3, SVG Export Plug-In . SVG Version: 6.00 Build 0)  -->
<svg version="1.1" id="Layer_1" xmlns="http://www.w3.org/2000/svg" xmlns:xlink="http://www.w3.org/1999/xlink" x="0px" y="0px"
	 viewBox="0 0 496 435.5" style="enable-background:new 0 0 496 435.5;" xml:space="preserve">
<style type="text/css">
	.st0{fill:url(#SVGID_1_);}
	.st1{fill:url(#SVGID_2_);}
</style>
<linearGradient id="SVGID_1_" gradientUnits="userSpaceOnUse" x1="461.9375" y1="441.4375" x2="122.0625" y2="101.5625">
	<stop  offset="0" style="stop-color:#46AEF7"/>
	<stop  offset="1" style="stop-color:#1DD5E6"/>
</linearGradient>
<path class="st0" d="M448,147.5v-16c0-26.5-21.5-48-48-48H160c-26.5,0-48,21.5-48,48v256c0,26.5,21.5,48,48,48h288
	c26.5,0,48-21.5,48-48v-192C496,169,474.5,147.5,448,147.5z M160,115.5h240c8.8,0,16,7.2,16,16v16H160c-8.8,0-16-7.2-16-16
	S151.2,115.5,160,115.5z M448,403.5H160c-8.8,0-16-7.2-16-16V176.8c5,1.8,10.4,2.7,16,2.7h288c8.8,0,16,7.2,16,16v40h-88
	c-30.9,0-56,25.1-56,56s25.1,56,56,56h88v40C464,396.3,456.8,403.5,448,403.5z M464,315.5h-37.4c3.5-7.4,5.4-15.6,5.4-24
	c0-8.6-2-16.7-5.5-24H464V315.5z M352,291.5c0-13.2,10.8-24,24-24s24,10.8,24,24c0,6.4-2.5,12.5-6.9,16.9
	c-4.6,4.6-10.7,7.1-17.1,7.1C362.8,315.5,352,304.7,352,291.5z"/>
<linearGradient id="SVGID_2_" gradientUnits="userSpaceOnUse" x1="254.5097" y1="298.9345" x2="72.9721" y2="480.4721" gradientTransform="matrix(1 0 0 -1 0 517)">
	<stop  offset="0" style="stop-color:#46AEF7"/>
	<stop  offset="1" style="stop-color:#1DD5E6"/>
</linearGradient>
<path class="st1" d="M164.3,0C100,0,46.9,47.7,38,109.5H0l45.6,45.6l45.6-45.6H56.4c8.7-51.7,53.7-91.3,107.8-91.3
	c60.4,0,109.5,49.1,109.5,109.5s-49.1,109.5-109.5,109.5c-33.9,0-65.4-15.3-86.3-42.1l-14.4,11.2c24.4,31.3,61.1,49.2,100.7,49.2
	c70.4,0,127.8-57.3,127.8-127.8S234.7,0,164.3,0L164.3,0z"/>
</svg>
