<?xml version="1.0" encoding="utf-8"?>
<!-- Generator: Adobe Illustrator 24.1.3, SVG Export Plug-In . SVG Version: 6.00 Build 0)  -->
<svg version="1.1" id="Capa_1" xmlns="http://www.w3.org/2000/svg" xmlns:xlink="http://www.w3.org/1999/xlink" x="0px" y="0px"
	 viewBox="0 0 512 512" style="enable-background:new 0 0 512 512;" xml:space="preserve">
<style type="text/css">
	.st0{fill:url(#SVGID_1_);}
	.st1{fill:url(#SVGID_2_);}
	.st2{fill:url(#SVGID_3_);}
	.st3{fill:url(#SVGID_4_);}
	.st4{fill:url(#SVGID_5_);}
	.st5{fill:url(#SVGID_6_);}
	.st6{fill:url(#SVGID_7_);}
	.st7{fill:url(#SVGID_8_);}
	.st8{fill:url(#SVGID_9_);}
	.st9{fill:url(#SVGID_10_);}
	.st10{fill:url(#SVGID_11_);}
	.st11{fill:url(#SVGID_12_);}
</style>
<g>
	<linearGradient id="SVGID_1_" gradientUnits="userSpaceOnUse" x1="287.8049" y1="76.8049" x2="224.1951" y2="13.1951">
		<stop  offset="0" style="stop-color:#46AEF7"/>
		<stop  offset="1" style="stop-color:#1DD5E6"/>
	</linearGradient>
	<path class="st0" d="M301,45c0-24.8-20.2-45-45-45s-45,20.2-45,45s20.2,45,45,45S301,69.8,301,45z M256,60c-8.3,0-15-6.7-15-15
		s6.7-15,15-15s15,6.7,15,15S264.3,60,256,60z"/>
	<linearGradient id="SVGID_2_" gradientUnits="userSpaceOnUse" x1="305.1504" y1="206.8496" x2="206.8497" y2="108.549">
		<stop  offset="0" style="stop-color:#46AEF7"/>
		<stop  offset="1" style="stop-color:#1DD5E6"/>
	</linearGradient>
	<path class="st1" d="M331,166c0-41.5-33.5-76-75-76c-41.5,0-75,34.5-75,76v15h150V166z M213.6,151c6.2-17.8,23.2-31,42.4-31
		s36.2,13.2,42.4,31H213.6z"/>
	<linearGradient id="SVGID_3_" gradientUnits="userSpaceOnUse" x1="467.8049" y1="257.8049" x2="404.1951" y2="194.1951">
		<stop  offset="0" style="stop-color:#46AEF7"/>
		<stop  offset="1" style="stop-color:#1DD5E6"/>
	</linearGradient>
	<path class="st2" d="M481,226c0-24.8-20.2-45-45-45s-45,20.2-45,45s20.2,45,45,45S481,250.8,481,226z M436,241c-8.3,0-15-6.7-15-15
		s6.7-15,15-15s15,6.7,15,15S444.3,241,436,241z"/>
	<linearGradient id="SVGID_4_" gradientUnits="userSpaceOnUse" x1="485.6502" y1="387.3498" x2="387.1421" y2="288.8416">
		<stop  offset="0" style="stop-color:#46AEF7"/>
		<stop  offset="1" style="stop-color:#1DD5E6"/>
	</linearGradient>
	<path class="st3" d="M512,346c0-41.5-34.5-75-76-75c-41.4,0-75,33.6-75,75v15h151V346z M393.6,331c6.2-17.5,22.9-30,42.4-30
		c19.6,0,36.8,12.7,43.3,30H393.6z"/>
	<linearGradient id="SVGID_5_" gradientUnits="userSpaceOnUse" x1="107.8049" y1="257.8049" x2="44.1951" y2="194.1951">
		<stop  offset="0" style="stop-color:#46AEF7"/>
		<stop  offset="1" style="stop-color:#1DD5E6"/>
	</linearGradient>
	<path class="st4" d="M121,226c0-24.8-20.2-45-45-45s-45,20.2-45,45s20.2,45,45,45S121,250.8,121,226z M76,241c-8.3,0-15-6.7-15-15
		s6.7-15,15-15s15,6.7,15,15S84.3,241,76,241z"/>
	<linearGradient id="SVGID_6_" gradientUnits="userSpaceOnUse" x1="124.7541" y1="387.2459" x2="26.4535" y2="288.9454">
		<stop  offset="0" style="stop-color:#46AEF7"/>
		<stop  offset="1" style="stop-color:#1DD5E6"/>
	</linearGradient>
	<path class="st5" d="M151,346c0-41.4-33.6-75-75-75c-41.5,0-76,33.5-76,75v15h151V346z M32.7,331c6.5-17.3,23.7-30,43.3-30
		c19.6,0,36.2,12.5,42.4,30H32.7z"/>
	<linearGradient id="SVGID_7_" gradientUnits="userSpaceOnUse" x1="287.8049" y1="407.8049" x2="224.1951" y2="344.1951">
		<stop  offset="0" style="stop-color:#46AEF7"/>
		<stop  offset="1" style="stop-color:#1DD5E6"/>
	</linearGradient>
	<path class="st6" d="M211,376c0,24.8,20.2,45,45,45s45-20.2,45-45s-20.2-45-45-45S211,351.2,211,376z M271,376c0,8.3-6.7,15-15,15
		s-15-6.7-15-15s6.7-15,15-15S271,367.7,271,376z"/>
	<linearGradient id="SVGID_8_" gradientUnits="userSpaceOnUse" x1="305.0041" y1="537.9959" x2="206.9959" y2="439.9878">
		<stop  offset="0" style="stop-color:#46AEF7"/>
		<stop  offset="1" style="stop-color:#1DD5E6"/>
	</linearGradient>
	<path class="st7" d="M331,497c0-41.4-33.6-75-75-75s-75,33.6-75,75v15h150V497z M213.6,482c6.2-17.5,22.9-30,42.4-30
		s36.2,12.5,42.4,30H213.6z"/>
	<linearGradient id="SVGID_9_" gradientUnits="userSpaceOnUse" x1="121.25" y1="120.75" x2="82.9495" y2="82.4495">
		<stop  offset="0" style="stop-color:#46AEF7"/>
		<stop  offset="1" style="stop-color:#1DD5E6"/>
	</linearGradient>
	<path class="st8" d="M91,136c0-24.9,20.6-46,45-46h15V60h-15c-41.5,0-75,34.5-75,76v15h30V136z"/>
	<linearGradient id="SVGID_10_" gradientUnits="userSpaceOnUse" x1="455.1503" y1="146.8497" x2="364.6503" y2="56.3497">
		<stop  offset="0" style="stop-color:#46AEF7"/>
		<stop  offset="1" style="stop-color:#1DD5E6"/>
	</linearGradient>
	<path class="st9" d="M421,136v15h30v-15c0-41.5-33.5-76-75-76h-15v30h15C400.4,90,421,111.1,421,136z"/>
	<linearGradient id="SVGID_11_" gradientUnits="userSpaceOnUse" x1="147.3497" y1="485.6503" x2="56.8497" y2="395.1503">
		<stop  offset="0" style="stop-color:#46AEF7"/>
		<stop  offset="1" style="stop-color:#1DD5E6"/>
	</linearGradient>
	<path class="st10" d="M61,391v15c0,41.5,33.5,76,75,76h15v-30h-15c-24.4,0-45-21.1-45-46v-15H61z"/>
	<linearGradient id="SVGID_12_" gradientUnits="userSpaceOnUse" x1="429.0505" y1="459.5505" x2="390.75" y2="421.25">
		<stop  offset="0" style="stop-color:#46AEF7"/>
		<stop  offset="1" style="stop-color:#1DD5E6"/>
	</linearGradient>
	<path class="st11" d="M451,406v-15h-30v15c0,24.9-20.6,46-45,46h-15v30h15C417.5,482,451,447.5,451,406z"/>
</g>
</svg>
