<svg xmlns="http://www.w3.org/2000/svg" xmlns:xlink="http://www.w3.org/1999/xlink" viewBox="0 0 387.0423 101.9406"><defs><style>.a{fill:url(#a);}.b{fill:url(#b);}.c{fill:#fff;}.d{fill:#ffc107;}.e{fill:#ffd54f;}.f{fill:#f44336;}</style><linearGradient id="a" x1="83.2558" y1="-61.4118" x2="315.3955" y2="178.9759" gradientUnits="userSpaceOnUse"><stop offset="0" stop-color="#00b2fb"/><stop offset="1" stop-color="#00a0fb"/></linearGradient><linearGradient id="b" x1="2.2245" y1="0.4926" x2="99.716" y2="101.448" gradientUnits="userSpaceOnUse"><stop offset="0" stop-color="#98bdee"/><stop offset="1" stop-color="#5291c9"/></linearGradient></defs><path class="a" d="M383.1684,7.8118H117.4235A9.6786,9.6786,0,0,0,107.745,17.49a9.6787,9.6787,0,0,0-9.6786-9.6786H15.483A9.6786,9.6786,0,0,0,5.8045,17.49v82.5833a9.6786,9.6786,0,0,0,9.6785,9.6786H98.0664a9.6787,9.6787,0,0,0,9.6786-9.6786,9.6786,9.6786,0,0,0,9.6785,9.6786H383.1684a9.6785,9.6785,0,0,0,9.6784-9.6786V17.49A9.6785,9.6785,0,0,0,383.1684,7.8118Z" transform="translate(-5.8045 -7.8118)"/><path class="b" d="M4.5885,0H97.3521A4.5884,4.5884,0,0,1,101.94,4.5884V97.3521a4.5885,4.5885,0,0,1-4.5885,4.5885H4.5884A4.5884,4.5884,0,0,1,0,97.3522V4.5885A4.5885,4.5885,0,0,1,4.5885,0Z"/><rect class="c" x="101.3531" y="9.5311" width="1.1748" height="1.762"/><path class="c" d="M108.3324,94.2165h-1.1748V90.8024h1.1748Zm0-6.8285h-1.1748V83.9737h1.1748Zm0-6.8281h-1.1748V77.1455h1.1748Zm0-6.8285h-1.1748v-3.414h1.1748Zm0-6.8282h-1.1748V63.4889h1.1748Zm0-6.8283h-1.1748V56.6608h1.1748Zm0-6.8285h-1.1748V49.8325h1.1748Zm0-6.8281h-1.1748V43.0039h1.1748Zm0-6.8287h-1.1748V36.1758h1.1748Zm0-6.8281h-1.1748V29.3473h1.1748Zm0-6.8282h-1.1748V22.5192h1.1748Z" transform="translate(-5.8045 -7.8118)"/><rect class="c" x="101.3531" y="89.8187" width="1.1748" height="1.762"/><path class="d" d="M86.1464,54.3674H26.6408a1.4877,1.4877,0,0,0-1.4877,1.4877V82.6326a7.4382,7.4382,0,0,0,7.4382,7.4382H80.1958a7.4382,7.4382,0,0,0,7.4382-7.4382V55.8551A1.4877,1.4877,0,0,0,86.1464,54.3674Z" transform="translate(-5.8045 -7.8118)"/><path class="e" d="M26.6408,39.4911H86.1464a4.463,4.463,0,0,1,4.4629,4.4629V52.88a4.4629,4.4629,0,0,1-4.4629,4.4629H26.6408A4.4629,4.4629,0,0,1,22.1779,52.88V43.954A4.463,4.463,0,0,1,26.6408,39.4911Z" transform="translate(-5.8045 -7.8118)"/><path class="f" d="M56.3935,42.4664a16.4621,16.4621,0,0,1-15.6856-11.69h0a4.4451,4.4451,0,0,1,5.48-5.4835A16.462,16.462,0,0,1,57.8812,40.9785,1.4877,1.4877,0,0,1,56.3935,42.4664ZM43.5613,29.9226A13.4721,13.4721,0,0,0,54.8107,39.39a13.4718,13.4718,0,0,0-9.47-11.2525,1.47,1.47,0,0,0-1.7851,1.7851Z" transform="translate(-5.8045 -7.8118)"/><path class="f" d="M56.3935,42.4664a1.4877,1.4877,0,0,1-1.4876-1.4877A16.4621,16.4621,0,0,1,66.5987,25.293a4.445,4.445,0,0,1,5.4834,5.4864h0A16.462,16.462,0,0,1,56.3935,42.4664ZM67.8246,28.09a1.2971,1.2971,0,0,0-.3778.0564,13.4722,13.4722,0,0,0-9.47,11.2495A13.4719,13.4719,0,0,0,69.226,29.9225h0a1.3987,1.3987,0,0,0-.3868-1.3984A1.4438,1.4438,0,0,0,67.8246,28.09Z" transform="translate(-5.8045 -7.8118)"/><path class="f" d="M47.4677,51.3922a1.4876,1.4876,0,0,1-1.0532-2.5409L55.34,39.9254a1.4877,1.4877,0,0,1,2.14,2.067l-.0365.0366L48.518,50.9548A1.4872,1.4872,0,0,1,47.4677,51.3922Z" transform="translate(-5.8045 -7.8118)"/><rect class="f" x="49.1015" y="31.6793" width="2.9752" height="50.5798"/><path class="f" d="M65.3194,51.3922a1.4871,1.4871,0,0,1-1.0533-.4345L55.34,42.0319a1.4876,1.4876,0,0,1,2.1034-2.1036L66.37,48.8542a1.4878,1.4878,0,0,1-1.05,2.538Z" transform="translate(-5.8045 -7.8118)"/></svg>