<svg xmlns="http://www.w3.org/2000/svg" viewBox="0 0 512 430"><defs><style>.a{fill:#c9ccd3;}</style></defs><circle class="a" cx="256" cy="255" r="81"/><path class="a" d="M374.297,91,369.12,65.117A30.08,30.08,0,0,0,339.703,41H172.297A30.0809,30.0809,0,0,0,142.88,65.117L137.703,91Z" transform="translate(0 -41)"/><path class="a" d="M467,121H45A45.0511,45.0511,0,0,0,0,166V426a45.0511,45.0511,0,0,0,45,45H467a45.0511,45.0511,0,0,0,45-45V166A45.0511,45.0511,0,0,0,467,121ZM128,215H80a15,15,0,0,1,0-30h48a15,15,0,0,1,0,30ZM256,407A111,111,0,1,1,367,296,111.1252,111.1252,0,0,1,256,407Z" transform="translate(0 -41)"/></svg>