<?xml version="1.0" encoding="utf-8"?>
<!-- Generator: Adobe Illustrator 24.1.3, SVG Export Plug-In . SVG Version: 6.00 Build 0)  -->
<svg version="1.1" id="Capa_1" xmlns="http://www.w3.org/2000/svg" xmlns:xlink="http://www.w3.org/1999/xlink" x="0px" y="0px"
	 viewBox="0 0 512 512" style="enable-background:new 0 0 512 512;" xml:space="preserve">
<style type="text/css">
	.st0{fill:url(#SVGID_1_);}
	.st1{fill:url(#SVGID_2_);}
	.st2{fill:url(#SVGID_3_);}
	.st3{fill:url(#SVGID_4_);}
</style>
<g>
	<linearGradient id="SVGID_1_" gradientUnits="userSpaceOnUse" x1="79.1063" y1="243.0631" x2="10.8924" y2="174.8492">
		<stop  offset="0" style="stop-color:#46AEF7"/>
		<stop  offset="1" style="stop-color:#1DD5E6"/>
	</linearGradient>
	<path class="st0" d="M36.6,266.4L45,272l8.4-5.6C57.1,263.9,90,240.9,90,209S57.1,154,53.4,151.5l-8.4-5.6l-8.4,5.6
		C32.9,154,0,177,0,209S32.9,263.9,36.6,266.4L36.6,266.4z M45,183.3c7,6.6,15,16.4,15,25.7c0,9.2-8,19-15,25.7
		c-7-6.6-15-16.4-15-25.7C30,199.7,38,189.9,45,183.3z"/>
	<linearGradient id="SVGID_2_" gradientUnits="userSpaceOnUse" x1="196.8156" y1="180.777" x2="133.1779" y2="117.1392">
		<stop  offset="0" style="stop-color:#46AEF7"/>
		<stop  offset="1" style="stop-color:#1DD5E6"/>
	</linearGradient>
	<path class="st1" d="M120.4,193.6l9.9,1.9c22.1,4.3,50.4,1.4,66.5-14.7c22.6-22.6,15.6-62.1,14.7-66.5l-1.9-9.9l-9.9-1.9
		c-4.4-0.9-44-7.9-66.5,14.7c-22.6,22.6-15.6,62.1-14.7,66.5L120.4,193.6z M154.4,138.4c6.5-6.5,19.1-7.8,28.7-7.5
		c0.3,9.7-1,22.2-7.5,28.8c-6.5,6.5-19.1,7.8-28.7,7.5C146.6,157.4,147.9,144.9,154.4,138.4z"/>
	<linearGradient id="SVGID_3_" gradientUnits="userSpaceOnUse" x1="382.6873" y1="323.278" x2="200.5578" y2="141.1485">
		<stop  offset="0" style="stop-color:#46AEF7"/>
		<stop  offset="1" style="stop-color:#1DD5E6"/>
	</linearGradient>
	<path class="st2" d="M490.8,33L262,261.8c-19.2-17.1-43.8-26.5-69.7-26.5c-28,0-54.4,10.9-74.2,30.8c-5.2,5.2-47,47-53,53
		c-5.7,5.7-13.2,8.8-21.2,8.8c-8,0-15.5-3.1-21.2-8.8L1.4,340.3l107.9,107.9c40.9,40.9,107.5,40.9,148.5,0
		c3.5-3.5,16.4-16.4,21.2-21.2c19.8-19.8,30.8-46.2,30.8-74.2c0-26-9.4-50.5-26.5-69.7L512,54.3L490.8,33z M86.2,340.3l42.4-42.4
		l27.4,27.4L138.4,343c-20.4,20.4-51.2,24.4-75.7,11.9C71.5,351.9,79.5,347,86.2,340.3L86.2,340.3z M96.5,391.9
		c23.8-1,46.1-10.8,63.1-27.7l17.7-17.7l21.2,21.2l-17.7,17.7C157.9,408.4,121.9,410.5,96.5,391.9z M236.6,427
		c-26.6,26.5-68.2,29-97.6,7.3c22.9-1,45.6-10.2,63.1-27.7l17.7-17.7l27.4,27.4L236.6,427z M267.3,394.1L150.9,277.7
		c12.2-8.1,26.4-12.4,41.4-12.4c20,0,38.9,7.8,53,22l12.4,12.4c14.2,14.2,22,33,22,53C279.7,367.7,275.4,381.9,267.3,394.1z"/>
	<linearGradient id="SVGID_4_" gradientUnits="userSpaceOnUse" x1="70.3462" y1="483.603" x2="2.8475" y2="416.1043">
		<stop  offset="0" style="stop-color:#46AEF7"/>
		<stop  offset="1" style="stop-color:#1DD5E6"/>
	</linearGradient>
	<path class="st3" d="M45,479h30v-30H45c-8.3,0-15-6.7-15-15v-15H0v15C0,458.8,20.2,479,45,479z"/>
</g>
</svg>
