<svg xmlns="http://www.w3.org/2000/svg" viewBox="0 0 890.0409 766.575"><defs><style>.a{fill:#ab141a;}.b{fill:#ed1c24;}.c{fill:#476c20;}.d{fill:#6fae33;}.e{fill:#00abac;}.f{fill:#ff9d1d;}.g{fill:#ffd71d;}.h{fill:#006a6b;}</style></defs><path class="a" d="M205.002,430.0523s23.0355-16.3362,45.7639-13.3092c0,0-4.8936-8.77-16.9707-11.4458s-40.2169,14.943-40.2169,14.943Z" transform="translate(131.9578 77.426)"/><path class="b" d="M233.7952,405.2973s16.2853,6.5209,20.0248,11.2.5681,20.3474,12.648,30.7238l-20.5062,2.2516s-6.9318-2.4517-4.79-24.0723C242.6279,410.7025,233.7952,405.2973,233.7952,405.2973Z" transform="translate(131.9578 77.426)"/><path class="c" d="M193.76,330.4716s14.5356,10.5768,17.12,27.6893A26.9181,26.9181,0,0,0,214.592,342.18c-.7179-9.4654-17.039-23.2007-17.039-23.2007Z" transform="translate(131.9578 77.426)"/><path class="d" d="M214.592,342.18s-.8208,13.7793-2.9628,18.0528-12.3848,7.4976-16.3951,19.6505l-5.392-13.7017s.1507-5.7522,13.8467-11.7793C212.9994,350.3049,214.592,342.18,214.592,342.18Z" transform="translate(131.9578 77.426)"/><path class="e" d="M407.2126,84.581s27.5406,2.37,31.7668-3.2533l28.928,12.18s-2.2742,7.7145-28.1976,5.6619Z" transform="translate(131.9578 77.426)"/><path class="e" d="M548.1949,291.7358s-2.255-7.2-.3282-9.3909l-6.0469-5.8041s-2.8164,2.03-.7617,8.8391Z" transform="translate(131.9578 77.426)"/><path class="b" d="M226.4948,178.8458s7.8327-9.5644,6.2643-13.9943l12.71-5.2515s3.0125,4.7034-4.2773,13.7944Z" transform="translate(131.9578 77.426)"/><path class="e" d="M295.9953,125.7578s4.9445,4.3735,10.6919,4.6l-2.88,5.3134s-6.9985.2261-11.8019-3.8771Z" transform="translate(131.9578 77.426)"/><path class="b" d="M496.1726,166.5817a37.0446,37.0446,0,0,0,12.99,2.5888l-3.6292,3.2933s-8.5675.2769-14.3631-2.1266Z" transform="translate(131.9578 77.426)"/><path class="b" d="M262.574,65.257a45.3642,45.3642,0,0,0-18.2311-6.7762l8.04-4.28s13.4793,1.4193,20.6964,6.3613Z" transform="translate(131.9578 77.426)"/><path class="d" d="M237.3139-4.3341a52.8667,52.8667,0,0,0-.6414,21.5l-7.2108-4.4425s-3.2278-13.4067-.6445-23.4845Z" transform="translate(131.9578 77.426)"/><path class="d" d="M212.8505,92.0263l6.9714,9.4387a24.8737,24.8737,0,0,1,11.3379,5.9111,117.1375,117.1375,0,0,0,10.3092,8.643l-3.3034-7.5136a104.27,104.27,0,0,1-10.5733-8.8643C223.5759,95.5551,212.8505,92.0263,212.8505,92.0263Z" transform="translate(131.9578 77.426)"/><path class="c" d="M336.6214,225.5146s-19.6595,10.7071-42.964,3.36a46.3673,46.3673,0,0,0,19.2754,14.0793c12.6012,4.9025,37.0938-5.99,37.0938-5.99Z" transform="translate(131.9578 77.426)"/><path class="d" d="M312.9328,242.9541s-17.5862-9.3356-22.2737-14.4556-4.72-19.1486-18.895-31.256l20.0091,1.9673s7.42,3.6707,9.6938,23.4721A30.0668,30.0668,0,0,0,312.9328,242.9541Z" transform="translate(131.9578 77.426)"/><path class="f" d="M524.405,331.1013c-1.13,4.3937,11.3292,22.0573,4.4261,30.0588,0,0,13.3941,2.5482,13.6845-8.8767.3218-12.6677-16.13-28.4739,1.806-28.2355C544.3216,324.0479,527.81,317.8561,524.405,331.1013Z" transform="translate(131.9578 77.426)"/><path class="g" d="M524.405,331.1013s2.282-9.26,30.9662,3.8308,32.7606,8.7132,37.6177,4.8514a72.24,72.24,0,0,0,8.1261-7.5266s-10.5157,7.6266-38.8576-7.97C526.5586,304.6412,524.405,331.1013,524.405,331.1013Z" transform="translate(131.9578 77.426)"/><path class="h" d="M532.903,113.1641s-6.0087,10.4179-9.6072,12.3442-14.2422-2.5836-22.5624,4.3329l.2688-14.65s2.332-4.482,17.2189.18C528.341,118.5407,532.903,113.1641,532.903,113.1641Z" transform="translate(131.9578 77.426)"/><path class="e" d="M518.2208,89.4306s9.3268,18.4794,5.1772,33.9086a16.7682,16.7682,0,0,0,9.505-10.1751c2.95-8.0422-6.8142-30.2742-6.8142-30.2742Z" transform="translate(131.9578 77.426)"/><path class="h" d="M678.6188,394.9025c2.0455,12.6984-3.5073,35.5408,2.0743,50.2142s12.94,16.4761,12.94,16.4761-13.486-2.3863-19.01-4.81-10.5219-23.2249-9.3865-42.2174-.7743-34.2956-8.1326-36.0984C657.1042,378.4668,675.464,375.3178,678.6188,394.9025Z" transform="translate(131.9578 77.426)"/><path class="e" d="M678.6188,394.9025s-1.2712-9.7938-22.7078-9.6927-61.77,19.2785-61.77,19.2785l-8.0257-13.4369S609.34,380.53,630.138,374.9191s34.9023-2.0021,41.66,2.2534S678.6188,394.9025,678.6188,394.9025Z" transform="translate(131.9578 77.426)"/><path class="h" d="M720.5894,525.7723l-4.6638-12.6891s3.2878-7.4321,17.4689-20.9194,8.4821-32.8021-.3785-36.3054a27.8159,27.8159,0,0,1,16.0585,15.4937c5.3573,12.3638,2.3722,25.5876-9.9107,35.667C725.3762,518.3334,720.5894,525.7723,720.5894,525.7723Z" transform="translate(131.9578 77.426)"/><path class="e" d="M733.016,455.8584c-10.3981-4.3212-21.4067-1.6479-37.2546-2.791s-28.7546-10.9034-28.7546-10.9034,3.9147,13.6564,9.4033,18.6207,19.8191,8.7676,34.768,6.2952,35.48,3.3167,40.2565,11.26C751.4346,478.34,747.67,461.9482,733.016,455.8584Z" transform="translate(131.9578 77.426)"/><path class="e" d="M758.0831,547.6032a49.86,49.86,0,0,1-2.19-19.7539c-13.7719,3.574-39.967-14.7661-39.967-14.7661l4.6638,12.6891S742.6508,553.6914,758.0831,547.6032Z" transform="translate(131.9578 77.426)"/><path class="e" d="M100.1567,205.24s4.9445,4.3735,10.6919,4.6l-2.88,5.3134s-6.9985.2261-11.8019-3.8771Z" transform="translate(131.9578 77.426)"/><path class="c" d="M-62.2091,459.73c11.1519-1.7225,19.0578.057,24.1616.797-14.6388,3.8426-35.9766,47.4952-35.9766,47.4952s-6.8248,11.7851-20.6386,10.33c2.6054,1.7477,5.7914-4.0658,14.8068-28.2607C-75.5867,478.6346-73.6517,471.1551-62.2091,459.73Z" transform="translate(131.9578 77.426)"/><path class="c" d="M85.0568,414.1528s-6.485.2994-15.2084-3.9737c2.7,13.6891-12.7439,33.5108-12.7439,33.5108l10.6731-1.006S89.7365,429.759,85.0568,414.1528Z" transform="translate(131.9578 77.426)"/><path class="d" d="M67.7776,442.6839,57.1045,443.69s-6.27-5.4032-17.4851-23.4524c-11.2587-18.119-29.3365-19.2013-33.3512-11.5717A18.2955,18.2955,0,0,1,21.8548,398.18c11.3072-.8743,22.5914,6.3248,30.7245,21.1237C61.7142,435.9255,67.7776,442.6839,67.7776,442.6839Z" transform="translate(131.9578 77.426)"/><path class="c" d="M6.2682,408.6658C1.2048,417.8252,2.8974,430.2431.3659,446.97c-2.6312,17.3848-14.2891,29.5943-14.2891,29.5943s14.8594-.7718,20.4343-5.6908c5.4325-4.7934,10.2169-19.43,8.884-36.0689-1.2986-16.2124,5.4426-34.6207,12.8714-36.4876C28.2665,398.3166,13.1238,396.2645,6.2682,408.6658Z" transform="translate(131.9578 77.426)"/><path class="d" d="M6.5111,470.8731s-10.9451,1.8357-26.5419-9.3162c-15.8673-11.3453-34.3907-7.8546-42.1783-1.8266,0,0,16.2059-.2877,25.95,5.5,9.56,5.6779,15.4356,9.6138,22.3357,11.3341C-7.1451,478.2537,2.143,474.4026,6.5111,470.8731Z" transform="translate(131.9578 77.426)"/><path class="d" d="M-73.304,506.68s-5.2073,13.71-22.1513,15.5715c-11.6549,1.28-20.1867-6.6419-35.13-.3724,0,0-2.0811-7.9332-1.1189-10.19C-125.1265,496.2581-107.1441,513.5214-73.304,506.68Z" transform="translate(131.9578 77.426)"/><path class="a" d="M3.6429,614.37s26.4221-9.9689,36.617-30.5069c0,0,4.5365,8.96.0043,20.47s-34.871,24.9941-34.871,24.9941Z" transform="translate(131.9578 77.426)"/><path class="b" d="M40.2642,604.3327s3.6962-17.1485,1.9071-22.8645-16.554-11.8449-18.4055-27.6615l-13.33,15.7447S8.5944,576.67,27.719,586.9791C40.72,593.9874,40.2642,604.3327,40.2642,604.3327Z" transform="translate(131.9578 77.426)"/><path class="e" d="M310.1713,407.1183s4.7093,5.8943,7.6033,5.5215l1.4325,8.2584s-3.2574,1.2006-7.755-4.3094Z" transform="translate(131.9578 77.426)"/><path class="c" d="M246.8143,619.5671s-19.8674,10.3161-26.8024,33.7465a46.3678,46.3678,0,0,1-.9-23.8528c2.9788-13.1891,25.702-27.4089,25.702-27.4089Z" transform="translate(131.9578 77.426)"/><path class="d" d="M219.1123,629.4608s-2.09,19.8005-.4644,26.5493,13.24,14.6171,15.3548,33.1389l9.5536-17.6908s1.1037-8.204-14.0439-21.1584A30.0666,30.0666,0,0,1,219.1123,629.4608Z" transform="translate(131.9578 77.426)"/><path class="f" d="M81.6834,247.5739C78.62,250.92,57.0188,250.13,54.0863,260.2831c0,0-9.45-9.8283-.038-16.3113,10.4357-7.1882,32.6614-2.04,22.666-16.9339C76.7143,227.0379,90.9188,237.4874,81.6834,247.5739Z" transform="translate(131.9578 77.426)"/><path class="g" d="M81.6834,247.5739s6.51-6.9689-20.1215-23.8476-25.1913-22.6842-24.6091-28.862A72.2409,72.2409,0,0,1,38.82,183.9465s-.6454,12.9741,27.899,28.1972C102.6723,231.3185,81.6834,247.5739,81.6834,247.5739Z" transform="translate(131.9578 77.426)"/><path class="a" d="M140.26,64.8105c.9511-10.572,4.8047-17.7521,6.8593-22.43.8312,7.6629,7.9385,12.9264,12.1353,15.034,29.1654,14.6471,35.93,27.3311,35.93,27.3311s3.82,11.8619-7.929,21.1994c0,0-2.0389-11.5354-14.4425-21.5044C163.6753,77.0963,149.517,76.6705,140.26,64.8105Z" transform="translate(131.9578 77.426)"/><path class="a" d="M128.6282-77.1906s-1.2971,6.0741-7.9963,13.7545c15.1767-1.08,32.3344,15.3886,32.3344,15.3886l1.591-10.0507S146.329-79.9147,128.6282-77.1906Z" transform="translate(131.9578 77.426)"/><path class="b" d="M154.5574-58.0982l-1.591,10.0507s-7.2859,5.2755-29.2022,13.8334C101.7632-25.6232,96.116-8.8919,103.2008-4.351a14.4879,14.4879,0,0,1-7.23-15.623c1.8884-10.6277,12.3254-20.3874,30.03-26.4141C145.8869-53.157,154.5574-58.0982,154.5574-58.0982Z" transform="translate(131.9578 77.426)"/><path class="a" d="M103.2008-4.351c8.4444,5.6785,22.0234,5.4035,39.1161,9.5162a55.6067,55.6067,0,0,1,27.8,16.4177s2.8815-13.9269-.9428-19.6373c-3.7266-5.5647-18.0436-11.5574-36.0058-12.06-17.5014-.49-35.328-8.7016-35.4569-15.82C97.7113-25.9341,91.7674-12.0394,103.2008-4.351Z" transform="translate(131.9578 77.426)"/><path class="b" d="M169.174,1.9456s-.78,10.391-16.4784,23.7547c-15.9712,13.5956-16.8838,31.2216-12.4354,39.11,0,0,3.73-15.1308,12.2872-23.6037,8.396-8.3129,14.029-13.3748,17.5694-19.6239C173.5947,15.4443,171.8263,6.3858,169.174,1.9456Z" transform="translate(131.9578 77.426)"/><path class="a" d="M215.4856,160.2172a25.0019,25.0019,0,0,1,2.5113,11.7744s-4.4806,10.3843-9.6905,13.8364c.6529-8.4236-1.7582-21.7221-10.8579-31.23-11.5858-12.1046-26.8307-15.7518-35.12-20.1345-9.1946-4.8616.3467-16.6208.3467-16.6208C165.3065,124.5954,204.8394,136.6574,215.4856,160.2172Z" transform="translate(131.9578 77.426)"/><path class="b" d="M194.7054,83.4366s6.5468,11.7858-5.0584,25.3526c-7.9827,9.3319-20.646,11.0272-27.3181,25.6747,0,0-7.7082-3.0652-8.7055-5.0829C146.8063,115.5881,173.9323,112.3428,194.7054,83.4366Z" transform="translate(131.9578 77.426)"/><path class="f" d="M451.3877,305.7678c6.8119-7.5794,22.4719-15.1923,29.156-26.0493s5.0434-16.5428,5.0434-16.5428,3.5538,9.9693,4.1475,14.764-9.957,18.2849-21.693,26.8853-20.15,17.3723-18.51,23.058C449.5321,327.883,440.8817,317.4576,451.3877,305.7678Z" transform="translate(131.9578 77.426)"/><path class="f" d="M518.876,216.05l-10.8322,7.2622s-5.6417,1.5109-18.9106-1.1047-22.6754,10.6009-21.4938,18.1027a26.7965,26.7965,0,0,1,3.3074-18.0935c5.3907-9.5747,14.3717-14.1317,24.91-11.0781A177.109,177.109,0,0,0,518.876,216.05Z" transform="translate(131.9578 77.426)"/><path class="g" d="M467.6394,240.3105c1.2616,8.9069,6.9163,14.7719,12.0823,25.67s4.1123,24.1162,4.1123,24.1162,6.693-9.27,7.6261-15.2909-2.0881-17.2381-9.0768-25.7718-11.1143-24.7712-8.1437-31.793C474.24,217.2412,465.8615,227.7582,467.6394,240.3105Z" transform="translate(131.9578 77.426)"/><path class="f" d="M560.7558,111.6426s-7.1646,14.8134-5.2982,26.2791,10.6909,16.714,8.1432,33.6152c0,0,8.71-2.4606,10.8186-4.5628C589.2471,152.19,568.7463,144.2318,560.7558,111.6426Z" transform="translate(131.9578 77.426)"/><path class="g" d="M516.965,186.5606c-6.7737,12.5505,7.6679,24.0714-8.9212,36.7519,28.8709-4.4058,9.5481-25.06,21.5512-33.4195,15.9261-11.0914,27.1165-11.7994,36.922-15.5562,11.13-4.2641,13.5043-19.8657,13.5043-19.8657C573.59,161.78,531.44,159.7417,516.965,186.5606Z" transform="translate(131.9578 77.426)"/><path class="g" d="M630.3754,87.5477q1.7329-10.5318,4.0566-20.9457-8.06,4.0636-17.0018,7.996c-39.5763,17.4048-56.6744,37.0446-56.6744,37.0446s-10.63,14.1243-5.2982,26.2791c0,0,10.3681-19.6525,27.2457-28.0713C591.9838,105.2211,610.1743,98.2318,630.3754,87.5477Z" transform="translate(131.9578 77.426)"/></svg>