<svg xmlns="http://www.w3.org/2000/svg" viewBox="0 0 33 33"><defs><style>.a{fill:none;stroke:#02a2fb;stroke-width:3px;}.a,.b{stroke-miterlimit:10;}.b{fill:#02a2fb;stroke:#fff;}.c{fill:#fff;}</style></defs><circle class="a" cx="16.5" cy="16.5" r="15"/><circle class="b" cx="16.5" cy="16.5" r="15"/><path class="c" d="M27.2162,15.8431H27.16v-1.43a8.3165,8.3165,0,1,0-16.633,0v1.43h-.3519a2.3794,2.3794,0,0,0-2.2788,2.452v3.6472a2.3117,2.3117,0,0,0,2.2509,2.3626h2.1894a.5513.5513,0,0,0,.525-.5809V16.5413c0-.3519-.2066-.6982-.525-.6982h-.6423v-1.43a7.1492,7.1492,0,1,1,14.2984,0v1.43h-.6423c-.3184,0-.525.3519-.525.6982v7.1492a.5527.5527,0,0,0,.4915.6088h.7037l-.0558.0894a4.624,4.624,0,0,1-3.7087,1.8375,2.8891,2.8891,0,0,0-5.7193.5586,2.919,2.919,0,0,0,2.9155,2.8876,2.9813,2.9813,0,0,0,2.1-.9049,2.5413,2.5413,0,0,0,.6981-1.4019,5.7876,5.7876,0,0,0,4.6414-2.3067l.553-.8155a1.9883,1.9883,0,0,0,2.0442-2.0107V18.5855C29.495,17.3288,28.5622,15.8431,27.2162,15.8431ZM11.6946,23.1375H10.1754A1.1409,1.1409,0,0,1,9.0639,21.97V18.29a1.2129,1.2129,0,0,1,1.1115-1.2846h1.5192Zm9.0147,4.8146a1.704,1.704,0,0,1-1.2567.5529,1.775,1.775,0,0,1-1.7482-1.72,1.72,1.72,0,1,1,3.4405,0h0A1.5089,1.5089,0,0,1,20.7093,27.9521Zm7.6183-5.7194c0,.7876-.76.9048-1.1114.9048H25.993v-6.127h1.2232c.6423,0,1.1114.9048,1.1114,1.575Z" transform="translate(-2.3944 -1.371)"/><path class="c" d="M18.6986,8.7721a5.1386,5.1386,0,0,0-3.8762,8.512v2.128a.3217.3217,0,0,0,.5473.229l1.1-1.1a5.1386,5.1386,0,1,0,2.2286-9.7687Zm0,8.3724a.3182.3182,0,0,1-.3184-.3184.3184.3184,0,1,1,.3184.3184Zm.3183-2.2732v.67a.3194.3194,0,0,1-.3239.3184.3231.3231,0,0,1-.324-.3184v-.9606a.32.32,0,0,1,.324-.3184,1.2846,1.2846,0,1,0-1.2846-1.2846.32.32,0,0,1-.324.3183.323.323,0,0,1-.3239-.3183,1.9269,1.9269,0,1,1,2.2564,1.8934Z" transform="translate(-2.3944 -1.371)"/></svg>