<?xml version="1.0" encoding="utf-8"?>
<!-- Generator: Adobe Illustrator 24.1.2, SVG Export Plug-In . SVG Version: 6.00 Build 0)  -->
<svg version="1.1" id="Capa_1" xmlns="http://www.w3.org/2000/svg" xmlns:xlink="http://www.w3.org/1999/xlink" x="0px" y="0px"
	fill="#fff" viewBox="0 0 422.1 422.1" style="enable-background:new 0 0 422.1 422.1;" xml:space="preserve">
<g>
	<g>
		<path d="M363.6,174.5h-1v-25.6C362.6,66.7,295.9,0,213.7,0S64.8,66.7,64.8,148.9v25.6h-6.3c-23,0-40.8,20.4-40.8,43.9v65.3
			C17.2,306.5,35.2,325.4,58,326c0.2,0,0.4,0,0.5,0h38.7c5.5-0.3,9.7-4.9,9.4-10.4c0-0.2,0-0.4,0-0.6V187c0-6.3-3.7-12.5-9.4-12.5
			H85.7v-25.6c0-70.7,57.3-128,128-128s128,57.3,128,128v25.6h-11.5c-5.7,0-9.4,6.3-9.4,12.5v128c-0.6,5.5,3.4,10.3,8.8,10.9
			c0.2,0,0.4,0,0.6,0h12l-1,1.6c-15.7,20.8-40.3,33-66.4,32.9c-5.7-28-33-46.1-61-40.3c-23.9,4.9-41.2,25.8-41.4,50.3
			c0.3,28.6,23.6,51.7,52.2,51.7c14.2-0.2,27.7-6,37.6-16.2c6.7-6.9,11.1-15.6,12.5-25.1c32.7,0.1,63.4-15.2,83.1-41.3l9.9-14.6
			c22.5-1.6,36.6-15.7,36.6-36v-65.3C404.4,201.1,387.7,174.5,363.6,174.5z M85.7,305.1H58.5c-11.3-0.3-20.1-9.6-19.9-20.9
			c0-0.2,0-0.4,0-0.6v-65.3c0-12,8.4-23,19.9-23h27.2V305.1z M247.1,391.3c-5.8,6.3-13.9,9.9-22.5,9.9c-17-0.3-30.8-13.8-31.3-30.8
			c0-17,13.8-30.8,30.8-30.8c17,0,30.8,13.8,30.8,30.8c0,0,0,0,0,0C255.4,378.2,252.6,385.8,247.1,391.3z M383.5,288.9
			c0,14.1-13.6,16.2-19.9,16.2h-21.9V195.4h21.9c11.5,0,19.9,16.2,19.9,28.2V288.9z"/>
	</g>
</g>
<g>
	<path d="M211.1,47.9c-50.8,0-92,41.1-92,92c0,22.3,8,43.7,22.6,60.4v38.1c0,5.1,6.2,7.7,9.8,4.1l19.7-19.7
		c61.1,29.4,131.9-15.3,131.9-82.9C303.1,89.1,261.9,47.9,211.1,47.9L211.1,47.9z M211.1,197.8c-3.2,0-5.7-2.6-5.7-5.7
		s2.6-5.7,5.7-5.7s5.7,2.6,5.7,5.7C216.8,195.2,214.2,197.8,211.1,197.8z M216.8,157.1v12c0,3.2-2.6,5.7-5.8,5.7s-5.8-2.6-5.8-5.7
		v-17.2c0-3.2,2.6-5.7,5.8-5.7c12.7,0,23-10.3,23-23s-10.3-23-23-23c-12.7,0-23,10.3-23,23c0,3.2-2.6,5.7-5.8,5.7
		c-3.2,0-5.8-2.6-5.8-5.7c0-19,15.5-34.5,34.5-34.5s34.5,15.5,34.5,34.5C245.6,140.1,233.1,154.3,216.8,157.1z"/>
</g>
</svg>
