<svg xmlns="http://www.w3.org/2000/svg" xmlns:xlink="http://www.w3.org/1999/xlink" viewBox="0 0 374.065 453.3652"><defs><style>.a{fill:url(#a);}.b{fill:url(#b);}.c{fill:#f7f7f7;}</style><linearGradient id="a" x1="0.0003" y1="401.819" x2="57.1429" y2="401.819" gradientUnits="userSpaceOnUse"><stop offset="0" stop-color="#c15f29"/><stop offset="1" stop-color="#fd644f"/></linearGradient><linearGradient id="b" x1="0.4834" y1="200.9784" x2="374.0653" y2="200.9784" gradientUnits="userSpaceOnUse"><stop offset="0" stop-color="#f28e26"/><stop offset="1" stop-color="#fd644f"/></linearGradient></defs><path class="a" d="M57.1429,350.273V453.3649L15.6853,431.3922S-4.7665,420.4751,1.0372,398.7788s30.1257-40.9052,30.1257-40.9052Z" transform="translate(-0.0003 0.0003)"/><path class="b" d="M374.0653,57.12,273.0923,0,18.08,147.0372S.3916,155.3288.4838,171.912s0,214.2911,0,214.2911v15.754s.4145-12.99,16.2376-21.7654S234.3983,255.9333,234.3983,255.9333l139.667-78.8621Z" transform="translate(-0.0003 0.0003)"/><path class="c" d="M53.3538,244.6169a104.2978,104.2978,0,0,0-2.6992-35.8237l5.6738-1.2368a155.72,155.72,0,0,1,2.584,18.7217l24.0869,40.52-4.444,2.6411L59.2311,236.93a93.397,93.397,0,0,1-.9121,11.7783Q55.947,246.7151,53.3538,244.6169Zm9.1641-21.59,12.7168-7.56q-3.6695-6.84-8.9815-15.71l4.6778-2.7807q5.2544,8.707,9.0107,15.6919L103.33,198.7652l2.5371,4.2681L89.846,212.5579l16.2676,27.3648q1.9453,3.2724,5.3369,1.2568l3.8-2.2588q3.86-2.2939,1.9063-6.5136-1.5147-3.6093-4.5928-9.4551,2.8931-.4548,5.9062-.98,2.521,5.3071,4.2081,9.6059,1.5219,4.16.52,6.733-.8849,2.5048-5.0117,4.88l-4.795,2.8506q-4.0927,2.4316-6.7031,1.7686-2.6016-.5127-5.0683-4.6641L85.11,215.3731l-2.8643,1.7031q12.5523,22.4494,5.98,46.5337-2.7846-.955-5.7666-1.7139,6.3413-21.8115-4.9209-42.022l-12.4831,7.4211ZM79.72,192.86a119.1877,119.1877,0,0,1,14.8213,1.2392,53.33,53.33,0,0,0-.8164,5.5494,139.4693,139.4693,0,0,0-14.666-2.0435Z" transform="translate(-0.0003 0.0003)"/><path class="c" d="M162.2171,186.946l1.6738-4.2392q9.1626,1.4378,16.3887,3.0771l-1.84,4.8916q-3.5538-1.0524-7.1836-1.9018-15.1054,9.3347-46.8115,29.41l-2.8877-4.06q13.0371-7.7513,25.4814-15.3057l-2.8154-4.7358-16.7811,9.9757.834,1.4028-4.0918,2.4331-11.5058-19.353,20.874-12.4082-2.3975-4.0347-25.5517,15.189-2.2247-3.7422,25.5518-15.189-2.92-4.9111,4.0928-2.4331,2.9189,4.9111,25.5518-15.189,2.2246,3.7422-25.5518,15.189,2.3985,4.0347,20.873-12.4082,10.6719,17.95-20.8744,12.4079,2.7979,4.7065q7.2861-4.4495,14.3789-8.8247Q163.8553,187.2388,162.2171,186.946Zm-41.0664,6.5279,16.7813-9.9751-2.3633-3.9756-16.7813,9.9747Zm4.2754,7.1919,16.7813-9.9751-2.3643-3.9761-16.78,9.9751Zm4.3516,17.038,5.0664-.7954a95.0968,95.0968,0,0,1,1.1621,15.1343q-2.59.0366-5.2031.165a63.2835,63.2835,0,0,0-1.0254-14.5039Zm8.3711-4.8193,4.4443-2.6416,3.8584,6.4907q2.1212,3.5676,6.1543,1.1685l12.2793-7.2993q4.0341-2.3982,3.0547-5.3765a43.3389,43.3389,0,0,0-2.6114-6.1235q.876-.1245,5.3692-.8179a60.3149,60.3149,0,0,1,2.3086,6.145q1.9131,5.748-4.8692,9.78l-14.2089,8.4458q-7.3668,4.38-11.6768-2.8706Zm18.2929-45.77L139.6605,177.09l2.3633,3.9756L158.805,171.09ZM163.08,178.282l-2.3633-3.9761-16.7812,9.9756,2.3632,3.976Zm-14.7676,28.4038,1.7666-4.2154a82.68,82.68,0,0,1,11.07,2.9146l-1.8388,4.8921q-5.1135-1.9453-10.9978-3.5913ZM172.49,196.5079l1.85-4.3442q5.2075,1.5732,13.1982,4.4985l-2.084,4.88Q180.2826,199.2325,172.49,196.5079Z" transform="translate(-0.0003 0.0003)"/><path class="c" d="M178.4945,134.0647l.2373,1.9951q9.0951,3.0593,18.354,7.0513l-1.6305,5.2431q-8.6631-4.188-16.2554-7.1123a146.1764,146.1764,0,0,1,.1631,25.7,39.8651,39.8651,0,0,0-5.2978-2.39,101.919,101.919,0,0,0-.1309-27.7759Zm11.6928,47.4912,1.92-4.6231q4.6,1.6173,9.0507,3.2452a141.1093,141.1093,0,0,0-1.5761-16.63l-17.191,10.2187-2.3984-4.0341,21.9253-13.0337,2.3984,4.0341q1.4649,12.5815,1.7344,21.2842,3.9463,1.4517,7.8145,3.03L211.5,190.2528A220.8952,220.8952,0,0,0,190.1873,181.5559ZM181.53,153.5471l2.5469-3.9683A109.8245,109.8245,0,0,1,194.201,155.43l-2.7832,4.5029A97.2664,97.2664,0,0,0,181.53,153.5471Zm15.9257-12.0792,10.35-6.1523-3.3008-8.879-14.6171,8.69-2.4332-4.0928,33.62-19.9854,2.4316,4.0927-14.2656,8.48,3.0664,9.0186,13.2148-7.8555,16.6134,27.9482-4.2109,2.5025-14.215-23.9141L204.0623,143l14.3555,24.148-4.2109,2.5024Zm15.6348-.5894,4.209-2.5024,5.2148,8.77a45.5826,45.5826,0,0,1,5.2344,12.002q12.1612,1.1578,23.75,3.2114l-1.3184,5.769a218.544,218.544,0,0,0-21.7285-3.9384q.0205.7008.0059,1.3413-.1875,8.7371-7.1856,19.8613-3.39-1.31-5.5683-1.9141,7.2041-9.9784,7.5273-17.6889.53-6.9611-4.998-16.2578Z" transform="translate(-0.0003 0.0003)"/><path class="c" d="M249.576,149.4179q2.3819-1.8524,4.8633-3.8013l-21.4981-36.1637-4.3847,2.6069-2.4336-4.0928,28.65-17.0312,1.2168,2.0464L281.54,77.7932l2.19,3.6836q9.4337,23.5913,8.8926,37.7222a46.8275,46.8275,0,0,0,20.4863,4.2421,48.8827,48.8827,0,0,0-.9961,6.4468,69.1748,69.1748,0,0,1-19.914-5.4121,73.3019,73.3019,0,0,1-6.0391,21.79q-2.9677-1.202-5.1719-1.9112l2.1563,3.625-4.3868,2.607-7.5235-12.6587q-9.6825,8.01-18.4434,15.4336Zm-6.9316-33.626,11.4023-6.7773-5.3184-8.9458-11.4023,6.7773Zm7.5429,12.688,11.4-6.7773-5.3164-8.9458-11.4023,6.7773Zm18.6993,5.5015-5.0743-8.5371-11.4,6.7773,6.0645,10.2031q4.9975-4.0386,10.41-8.4435Zm-11-36.7451-1.1485-1.93-3.625,2.1553,19.76,33.24q2.9619-2.4728,6.0234-5.0444,1.248,2.5026,2.2227,4.1381-3.0087,2.4616-5.9,4.8531l5.5957,9.4135a56.7723,56.7723,0,0,0,6.6055-21.77q-13.1484-6.7441-27.4-26.3247Zm21.6328-12.86-15.26,9.0713q11.54,16.2854,23.502,23.2993-.0028-11.59-8.242-32.3707Z" transform="translate(-0.0003 0.0003)"/></svg>