<?xml version="1.0" encoding="utf-8"?>
<!-- Generator: Adobe Illustrator 24.1.3, SVG Export Plug-In . SVG Version: 6.00 Build 0)  -->
<svg version="1.1" id="Layer_1" xmlns="http://www.w3.org/2000/svg" xmlns:xlink="http://www.w3.org/1999/xlink" x="0px" y="0px"
	 viewBox="0 0 640 640" style="enable-background:new 0 0 640 640;" xml:space="preserve">
<style type="text/css">
	.st0{fill:url(#SVGID_1_);}
	.st1{fill:url(#SVGID_2_);}
	.st2{fill:url(#SVGID_3_);}
	.st3{fill:url(#SVGID_4_);}
	.st4{fill:url(#SVGID_5_);}
	.st5{fill:url(#SVGID_6_);}
</style>
<linearGradient id="SVGID_1_" gradientUnits="userSpaceOnUse" x1="244.9585" y1="291.0586" x2="153.5657" y2="199.6658">
	<stop  offset="0" style="stop-color:#46AEF7"/>
	<stop  offset="1" style="stop-color:#1DD5E6"/>
</linearGradient>
<path class="st0" d="M199.3,310c35.7,0,64.6-28.9,64.6-64.6c0-35.7-28.9-64.6-64.6-64.6s-64.6,28.9-64.6,64.6
	C134.7,281,163.6,310,199.3,310z M199.3,205.9c21.9,0,39.6,17.7,39.6,39.6c0,21.9-17.7,39.6-39.6,39.6c-21.9,0-39.6-17.7-39.6-39.6
	C159.6,223.6,177.4,205.9,199.3,205.9z"/>
<linearGradient id="SVGID_2_" gradientUnits="userSpaceOnUse" x1="261.2612" y1="479.02" x2="137.2388" y2="354.9976">
	<stop  offset="0" style="stop-color:#46AEF7"/>
	<stop  offset="1" style="stop-color:#1DD5E6"/>
</linearGradient>
<path class="st1" d="M199.3,333.9c-26.4-0.2-51.8,10.4-70.3,29.4c-18.8,19.1-29,45.1-29,73.4c0,6.9,5.6,12.5,12.5,12.5H286
	c6.9,0,12.5-5.6,12.5-12.5c0-28.3-10.3-54.3-29-73.4C251.1,344.3,225.7,333.7,199.3,333.9z M125.9,424.1c2.1-16.3,9.5-31.6,21-43.4
	c13.8-14,32.7-21.9,52.4-21.9s38.5,7.9,52.4,21.9c11.5,11.8,18.8,27,21,43.4H125.9z"/>
<linearGradient id="SVGID_3_" gradientUnits="userSpaceOnUse" x1="562.311" y1="557.311" x2="77.689" y2="72.689">
	<stop  offset="0" style="stop-color:#46AEF7"/>
	<stop  offset="1" style="stop-color:#1DD5E6"/>
</linearGradient>
<path class="st2" d="M557.5,93.8h-475c-34.5,0-62.5,28-62.5,62.5v317.5c0,34.5,28,62.5,62.5,62.5h475c34.5,0,62.5-28,62.5-62.5
	V156.3C620,121.7,592,93.8,557.5,93.8z M595,473.8c-0.1,20.7-16.8,37.4-37.5,37.5h-475c-20.7-0.1-37.4-16.8-37.5-37.5V156.3
	c0.1-20.7,16.8-37.4,37.5-37.5h475c20.7,0.1,37.4,16.8,37.5,37.5V473.8z"/>
<linearGradient id="SVGID_4_" gradientUnits="userSpaceOnUse" x1="499.1829" y1="360.2454" x2="408.6921" y2="269.7546">
	<stop  offset="0" style="stop-color:#46AEF7"/>
	<stop  offset="1" style="stop-color:#1DD5E6"/>
</linearGradient>
<path class="st3" d="M526.8,302.5H381.1c-6.9,0-12.5,5.6-12.5,12.5s5.6,12.5,12.5,12.5h145.6c6.9,0,12.5-5.6,12.5-12.5
	S533.7,302.5,526.8,302.5z"/>
<linearGradient id="SVGID_5_" gradientUnits="userSpaceOnUse" x1="499.1829" y1="440.2454" x2="408.6921" y2="349.7546">
	<stop  offset="0" style="stop-color:#46AEF7"/>
	<stop  offset="1" style="stop-color:#1DD5E6"/>
</linearGradient>
<path class="st4" d="M526.8,382.5H381.1c-6.9,0-12.5,5.6-12.5,12.5s5.6,12.5,12.5,12.5h145.6c6.9,0,12.5-5.6,12.5-12.5
	S533.7,382.5,526.8,382.5z"/>
<linearGradient id="SVGID_6_" gradientUnits="userSpaceOnUse" x1="499.1829" y1="280.2454" x2="408.6921" y2="189.7546">
	<stop  offset="0" style="stop-color:#46AEF7"/>
	<stop  offset="1" style="stop-color:#1DD5E6"/>
</linearGradient>
<path class="st5" d="M526.8,222.5H381.1c-6.9,0-12.5,5.6-12.5,12.5s5.6,12.5,12.5,12.5h145.6c6.9,0,12.5-5.6,12.5-12.5
	S533.7,222.5,526.8,222.5z"/>
</svg>
