<svg id="Layer_1" data-name="Layer 1" xmlns="http://www.w3.org/2000/svg" xmlns:xlink="http://www.w3.org/1999/xlink" viewBox="0 0 37.42105 30"><defs><style>.cls-1{fill:url(#linear-gradient);}.cls-2{fill:url(#linear-gradient-2);}.cls-3{fill:url(#linear-gradient-5);}.cls-4{fill:#fff;}</style><linearGradient id="linear-gradient" x1="-8.25894" y1="3.79319" x2="80.23162" y2="3.79319" gradientUnits="userSpaceOnUse"><stop offset="0" stop-color="#69c8f0"/><stop offset="0.15198" stop-color="#64c5ef"/><stop offset="0.32867" stop-color="#56beea"/><stop offset="0.51767" stop-color="#3fb1e3"/><stop offset="0.71392" stop-color="#1e9fd9"/><stop offset="0.86592" stop-color="#008fd0"/></linearGradient><linearGradient id="linear-gradient-2" x1="-5.14052" y1="3.79319" x2="83.35004" y2="3.79319" xlink:href="#linear-gradient"/><linearGradient id="linear-gradient-5" x1="-3.24181" y1="11.55085" x2="46.76298" y2="27.50985" gradientUnits="userSpaceOnUse"><stop offset="0" stop-color="#69c8f0"/><stop offset="0.17551" stop-color="#64c5ef"/><stop offset="0.37956" stop-color="#56beea"/><stop offset="0.59782" stop-color="#3fb1e3"/><stop offset="0.82447" stop-color="#1e9fd9"/><stop offset="1" stop-color="#008fd0"/></linearGradient></defs><polygon class="cls-1" points="0 6.035 0 1.552 10.232 1.552 7.601 6.035 0 6.035"/><polygon class="cls-2" points="10.232 6.035 12.863 1.552 20.172 1.552 17.541 6.035 10.232 6.035"/><polygon class="cls-2" points="20.172 6.035 22.584 1.552 29.601 1.552 27.408 6.035 20.172 6.035"/><path class="cls-2" d="M29.60064,6.03455l2.4119-4.48273h.92579a4.48273,4.48273,0,0,1,4.48272,4.48273H29.60064Z"/><rect class="cls-3" x="0.0002" y="8.6657" width="37.42076" height="19.78247"/><polygon class="cls-4" points="15.202 23.381 15.202 13.246 24.887 17.826 15.202 23.381"/></svg>