<svg id="Layer_1" data-name="Layer 1" xmlns="http://www.w3.org/2000/svg" viewBox="0 0 25 25"><path d="M18.271,16.323c5.687-2.152,5.27-8.823,5.27-8.823a3.4,3.4,0,0,0-3.4-3.4H18.784v-.93a1.676,1.676,0,0,0-1.676-1.676H8.136A1.676,1.676,0,0,0,6.46,3.168V4.1h-1.6a3.4,3.4,0,0,0-3.4,3.4s-.448,6.928,5.571,8.947v0a6.159,6.159,0,0,0,4.781,3.523v1.988H8.019v1.553h9.206V21.955h-3.86V19.978A6.164,6.164,0,0,0,18.271,16.323ZM20.214,5.577s1.823-.049,1.626,3.5a8.668,8.668,0,0,1-3.087,5.391,6,6,0,0,0,.031-.6V5.577ZM3.16,9.077c-.2-3.549,1.627-3.5,1.627-3.5H6.46v8.288a6.315,6.315,0,0,0,.055.783A8.621,8.621,0,0,1,3.16,9.077Zm4.859,4.852V3.032h9.206v10.9a4.6,4.6,0,0,1-9.206,0Z"/></svg>