<svg id="Layer_1" data-name="Layer 1" xmlns="http://www.w3.org/2000/svg" xmlns:xlink="http://www.w3.org/1999/xlink" viewBox="0 0 30 30"><defs><style>.cls-1{fill:url(#linear-gradient);}.cls-2{fill:url(#linear-gradient-2);}.cls-3{fill:url(#linear-gradient-3);}.cls-4{fill:url(#linear-gradient-4);}.cls-5{fill:url(#linear-gradient-5);}.cls-6{fill:url(#linear-gradient-6);}.cls-7{fill:url(#linear-gradient-7);}.cls-8{fill:url(#linear-gradient-8);}</style><linearGradient id="linear-gradient" x1="9.021" y1="-8.602" x2="34.95" y2="18.748" gradientUnits="userSpaceOnUse"><stop offset="0" stop-color="#e4e5e3"/><stop offset="0.822" stop-color="#d7d5d6"/><stop offset="1" stop-color="#d3d1d3"/></linearGradient><linearGradient id="linear-gradient-2" x1="7.739" y1="-7.387" x2="33.669" y2="19.963" xlink:href="#linear-gradient"/><linearGradient id="linear-gradient-3" x1="6.718" y1="-6.419" x2="32.648" y2="20.931" xlink:href="#linear-gradient"/><linearGradient id="linear-gradient-4" x1="3.095" y1="-2.984" x2="29.024" y2="24.366" xlink:href="#linear-gradient"/><linearGradient id="linear-gradient-5" x1="-0.199" y1="0.139" x2="25.73" y2="27.489" xlink:href="#linear-gradient"/><linearGradient id="linear-gradient-6" x1="-3.452" y1="3.223" x2="22.477" y2="30.573" xlink:href="#linear-gradient"/><linearGradient id="linear-gradient-7" x1="-3.02" y1="2.814" x2="22.909" y2="30.164" xlink:href="#linear-gradient"/><linearGradient id="linear-gradient-8" x1="-5.387" y1="5.057" x2="20.543" y2="32.407" xlink:href="#linear-gradient"/></defs><path class="cls-1" d="M25.156,11.205a24.014,24.014,0,0,1,3.8,1.517,14.043,14.043,0,0,0-1.828-5.007A5.984,5.984,0,0,0,25.156,11.205Z"/><path class="cls-2" d="M18.7,10.026a29.739,29.739,0,0,1,4.764.719,10.575,10.575,0,0,1,2.253-4.993A14.116,14.116,0,0,0,16.107.879,30.2,30.2,0,0,1,18.7,10.026Z"/><path class="cls-3" d="M28.624,18.8a14.141,14.141,0,0,0,.526-3.664,19.592,19.592,0,0,0-3.944-2A11.556,11.556,0,0,0,28.624,18.8Z"/><path class="cls-4" d="M10.931,10.393a34.907,34.907,0,0,1,5.692-.448A26.029,26.029,0,0,0,13.734.887a14.114,14.114,0,0,0-9.4,4.792C9.547,5.892,10.684,8.943,10.931,10.393Z"/><path class="cls-5" d="M23.32,12.54a24.035,24.035,0,0,0-4.453-.748,36.913,36.913,0,0,1-3.353,17.329,14.157,14.157,0,0,0,12.5-8.557A10.822,10.822,0,0,1,23.32,12.54Z"/><path class="cls-6" d="M16.8,11.722a34.147,34.147,0,0,0-5.7.5c.168,5.759-5.166,9.668-7.526,11.109a14.138,14.138,0,0,0,9.9,5.731A36.028,36.028,0,0,0,16.8,11.722Z"/><path class="cls-7" d="M9.514,10.645C9,7.422,5.31,7.231,3.03,7.433A14.056,14.056,0,0,0,.941,13.314,44.417,44.417,0,0,1,9.514,10.645Z"/><path class="cls-8" d="M9.593,12.507A45.4,45.4,0,0,0,.85,15.3a14.082,14.082,0,0,0,1.755,6.538C8.6,18.652,9.5,14.539,9.593,12.507Z"/></svg>