<svg id="Layer_1" data-name="Layer 1" xmlns="http://www.w3.org/2000/svg" xmlns:xlink="http://www.w3.org/1999/xlink" viewBox="0 0 30 30"><defs><style>.cls-1{fill:url(#linear-gradient);}.cls-2{fill:url(#linear-gradient-2);}</style><linearGradient id="linear-gradient" x1="14.983" y1="-3.087" x2="20.863" y2="39.11" gradientUnits="userSpaceOnUse"><stop offset="0.162" stop-color="#b69468"/><stop offset="0.431" stop-color="#b59770"/><stop offset="0.789" stop-color="#b69468"/><stop offset="1" stop-color="#b59770"/></linearGradient><linearGradient id="linear-gradient-2" x1="4.085" y1="-1.568" x2="9.965" y2="40.629" xlink:href="#linear-gradient"/></defs><path class="cls-1" d="M17.1,1.2A11.35,11.35,0,0,0,5.687,12.488c0,.023,0,.045,0,.068l11.094,11.2c.106,0,.209.016.316.016A11.349,11.349,0,0,0,28.515,12.488,11.349,11.349,0,0,0,17.1,1.2Z"/><path class="cls-2" d="M6.725,15.9,14.1,23.275l-4.518.5L5.19,28.161a2.172,2.172,0,0,1-3.07,0h0a2.172,2.172,0,0,1,0-3.07l4.346-4.345Z"/></svg>