<svg id="Layer_1" data-name="Layer 1" xmlns="http://www.w3.org/2000/svg" xmlns:xlink="http://www.w3.org/1999/xlink" viewBox="0 0 30 30"><defs><style>.cls-1{fill:url(#linear-gradient);}.cls-2{fill:url(#linear-gradient-2);}.cls-3{fill:url(#linear-gradient-3);}</style><linearGradient id="linear-gradient" x1="3.063" y1="0.234" x2="27.749" y2="28.117" gradientUnits="userSpaceOnUse"><stop offset="0" stop-color="#e4e5e3"/><stop offset="0.822" stop-color="#d7d5d6"/><stop offset="1" stop-color="#d3d1d3"/></linearGradient><linearGradient id="linear-gradient-2" x1="11.089" y1="-6.872" x2="35.776" y2="21.011" xlink:href="#linear-gradient"/><linearGradient id="linear-gradient-3" x1="-4.894" y1="7.279" x2="19.792" y2="35.162" xlink:href="#linear-gradient"/></defs><path class="cls-1" d="M14.744.87A14.149,14.149,0,0,0,1.89,13c11,1.18,15.1,12.02,16.23,15.944A14.156,14.156,0,0,0,29.974,16.535C25.657,15.172,16.046,11.022,14.744.87Z"/><path class="cls-2" d="M30.036,14.429A14.142,14.142,0,0,0,16.868.861C17.37,4.366,19.7,11.3,30.036,14.429Z"/><path class="cls-3" d="M1.743,15.106A14.16,14.16,0,0,0,15.9,29.139c.049,0,.1-.007.144-.007C12.893,17.578,5.123,15.466,1.743,15.106Z"/></svg>