<svg id="Layer_1" data-name="Layer 1" xmlns="http://www.w3.org/2000/svg" xmlns:xlink="http://www.w3.org/1999/xlink" viewBox="0 0 30 30"><defs><style>.cls-1{fill:url(#linear-gradient);}.cls-2{fill:url(#linear-gradient-2);}.cls-3{fill:url(#linear-gradient-3);}</style><linearGradient id="linear-gradient" x1="8.867" y1="-18.462" x2="52.023" y2="63.589" gradientUnits="userSpaceOnUse"><stop offset="0.13" stop-color="#e4e5e3"/><stop offset="0.845" stop-color="#d7d5d6"/><stop offset="1" stop-color="#d3d1d3"/></linearGradient><linearGradient id="linear-gradient-2" x1="0.793" y1="-14.215" x2="43.95" y2="67.835" gradientUnits="userSpaceOnUse"><stop offset="0.133" stop-color="#e4e5e3"/><stop offset="0.845" stop-color="#d7d5d6"/><stop offset="1" stop-color="#d3d1d3"/></linearGradient><linearGradient id="linear-gradient-3" x1="-7.979" y1="-9.601" x2="35.177" y2="72.449" gradientUnits="userSpaceOnUse"><stop offset="0.157" stop-color="#e4e5e3"/><stop offset="0.85" stop-color="#d7d5d6"/><stop offset="1" stop-color="#d3d1d3"/></linearGradient></defs><path class="cls-1" d="M16.236,3.617c.656-.241,1.2-.246,1.409.043.26.357-.058,1.054-.731,1.739a21.191,21.191,0,0,0,1.171,2.34c.882-.454,1.672-.557,1.937-.192s-.1,1.13-.851,1.85a15.945,15.945,0,0,0,1.785,2.038c.613-.747,1.277-1.142,1.661-.921.428.248.363,1.183-.1,2.221a13.741,13.741,0,0,0,2.19,1.29c.613-.75,1.278-1.146,1.662-.924.344.2.367.841.124,1.622a15.539,15.539,0,0,0,2.723.577c0-.1.015-.2.015-.3A14.015,14.015,0,0,0,15.516.994,24.762,24.762,0,0,0,16.236,3.617Z"/><path class="cls-2" d="M25.623,16.427c-.664.915-1.436,1.434-1.863,1.188-.4-.231-.368-1.057.013-2.008a20.233,20.233,0,0,1-2.265-1.316c-.565.622-1.148.939-1.5.737-.383-.221-.374-.99-.036-1.892a16.435,16.435,0,0,1-2.486-2.594c-.775.345-1.442.4-1.681.071s.031-.98.63-1.628a16.277,16.277,0,0,1-1.167-2.4c-.842.412-1.585.492-1.84.141-.313-.429.217-1.353,1.192-2.154a20.37,20.37,0,0,1-.577-3.536A14.012,14.012,0,0,0,2.063,10.148a20.852,20.852,0,0,1,4.279,1.22c.928-.857,1.915-1.255,2.3-.887.312.3.132,1.026-.392,1.8a16.393,16.393,0,0,1,2.217,1.484c.724-.505,1.4-.691,1.7-.4s.147.936-.3,1.656a16.457,16.457,0,0,1,2.23,2.818c.94-.212,1.7-.115,1.869.294.152.374-.241.908-.935,1.382a20.1,20.1,0,0,1,.994,2.425c.994-.248,1.817-.165,1.99.261.186.456-.433,1.15-1.431,1.683a23.606,23.606,0,0,1,.64,4.976A14.011,14.011,0,0,0,29,17.46,23.929,23.929,0,0,1,25.623,16.427Z"/><path class="cls-3" d="M14.773,24.512c-.806.133-1.44.022-1.59-.345-.167-.41.317-1.015,1.143-1.52a13.681,13.681,0,0,0-.978-2.346c-1.092.32-2.027.256-2.214-.2-.167-.41.315-1.014,1.14-1.519A15.945,15.945,0,0,0,10.5,16.533c-.815.645-1.614.912-1.95.589s-.114-1.08.456-1.892a21.138,21.138,0,0,0-2.158-1.48c-.77.573-1.5.792-1.822.487-.258-.249-.178-.786.15-1.4a24.358,24.358,0,0,0-3.513-1.416,13.961,13.961,0,0,0,13.2,17.588A16.343,16.343,0,0,0,14.773,24.512Z"/></svg>