<svg id="Layer_1" data-name="Layer 1" xmlns="http://www.w3.org/2000/svg" xmlns:xlink="http://www.w3.org/1999/xlink" viewBox="0 0 30 30"><defs><style>.cls-1{fill:url(#linear-gradient);}.cls-2{fill:url(#linear-gradient-2);}</style><linearGradient id="linear-gradient" x1="7.98" y1="-3.48" x2="33.555" y2="63.119" gradientUnits="userSpaceOnUse"><stop offset="0" stop-color="#e4e5e3"/><stop offset="0.822" stop-color="#d7d5d6"/><stop offset="1" stop-color="#d3d1d3"/></linearGradient><linearGradient id="linear-gradient-2" x1="10.258" y1="2.198" x2="12.256" y2="20.447" xlink:href="#linear-gradient"/></defs><path class="cls-1" d="M15.077.948A14.052,14.052,0,1,0,29.129,15,14.052,14.052,0,0,0,15.077.948ZM12.283,24.591a7.267,7.267,0,1,1,7.267-7.267A7.268,7.268,0,0,1,12.283,24.591Zm9.256-14.423c-1.378-1.26-1.783-3.06-.905-4.018s2.7-.715,4.082.546,1.783,3.06.9,4.018S22.916,11.428,21.539,10.168Z"/><path class="cls-2" d="M8.847,19.9a2.754,2.754,0,0,1,1.913-2.58l-.015-.045a2.387,2.387,0,0,1-1.527-2.165A2.7,2.7,0,0,1,12.2,12.548c1.868,0,2.8,1.172,2.8,2.373a2.449,2.449,0,0,1-1.587,2.254v.045a2.672,2.672,0,0,1,1.943,2.491c0,1.676-1.439,2.8-3.278,2.8C10.063,22.514,8.847,21.313,8.847,19.9Zm5.191-.059c0-1.172-.816-1.735-2.121-2.106a2.093,2.093,0,0,0-1.735,1.987,1.782,1.782,0,0,0,1.928,1.839A1.744,1.744,0,0,0,14.038,19.845Zm-3.589-4.82c0,.964.726,1.483,1.839,1.78a1.9,1.9,0,0,0,1.468-1.751,1.5,1.5,0,0,0-1.631-1.571A1.533,1.533,0,0,0,10.449,15.025Z"/></svg>