<svg id="Layer_1" data-name="Layer 1" xmlns="http://www.w3.org/2000/svg" xmlns:xlink="http://www.w3.org/1999/xlink" viewBox="0 0 37.42105 30"><defs><style>.cls-1{fill:url(#linear-gradient);}.cls-2{fill:#fff;}</style><linearGradient id="linear-gradient" x1="0.71588" y1="11.57645" x2="41.42546" y2="21.12772" gradientUnits="userSpaceOnUse"><stop offset="0" stop-color="#3a82c4"/><stop offset="0.23189" stop-color="#4367af"/><stop offset="0.45758" stop-color="#4b519e"/><stop offset="0.60344" stop-color="#564f9c"/><stop offset="0.85838" stop-color="#734997"/><stop offset="0.99354" stop-color="#854594"/></linearGradient></defs><path class="cls-1" d="M35.07316,4.99393h-7.934l2.27352-2.881A1.30466,1.30466,0,1,0,27.36426.49654L23.81535,4.99393H13.034L9.48522.49654A1.30466,1.30466,0,0,0,7.43682,2.1129l2.27339,2.881H2.3479A2.33749,2.33749,0,0,0,.01035,7.33148v20.331A2.33749,2.33749,0,0,0,2.3479,30H35.07316a2.33759,2.33759,0,0,0,2.33755-2.33755V7.33148A2.33759,2.33759,0,0,0,35.07316,4.99393Z"/><polygon class="cls-2" points="3.924 11.662 2.475 23.259 9.578 23.259 9.578 20.65 6.026 20.65 6.969 11.662 3.924 11.662"/><polygon class="cls-2" points="12.485 11.662 15.449 11.662 13.464 23.259 10.528 23.259 12.485 11.662"/><polygon class="cls-2" points="16.536 11.662 16.536 23.259 21.32 23.259 25.669 11.662 22.48 11.662 19.435 19.635 19.435 11.662 16.536 11.662"/><polygon class="cls-2" points="27.118 11.662 25.669 23.259 32.482 23.259 32.482 20.94 28.495 20.94 28.495 18.693 32.482 18.693 32.482 16.301 29.075 16.301 29.075 14.199 33.787 14.199 33.787 11.662 27.118 11.662"/></svg>