<?xml version="1.0" encoding="utf-8"?>
<!-- Generator: Adobe Illustrator 24.1.3, SVG Export Plug-In . SVG Version: 6.00 Build 0)  -->
<svg version="1.1" id="Layer_1" xmlns="http://www.w3.org/2000/svg" xmlns:xlink="http://www.w3.org/1999/xlink" x="0px" y="0px"
	 viewBox="0 0 500 500" style="enable-background:new 0 0 500 500;" xml:space="preserve">
<style type="text/css">
	.st0{fill:url(#SVGID_1_);}
	.st1{display:none;}
	.st2{display:inline;fill:#FFFFFF;}
	.st3{fill:#FFFFFF;}
</style>
<linearGradient id="SVGID_1_" gradientUnits="userSpaceOnUse" x1="106.8076" y1="98.8222" x2="395.7858" y2="398.0679">
	<stop  offset="0" style="stop-color:#7683D9"/>
	<stop  offset="1" style="stop-color:#D8A0FE"/>
</linearGradient>
<circle class="st0" cx="251.3" cy="248.4" r="208"/>
<g class="st1">
	<path class="st2" d="M283.3,238c0-17.7-14.4-32.2-32.2-32.2S219,220.3,219,238c0,17.7,14.4,32.2,32.2,32.2S283.3,255.7,283.3,238z
		 M251.2,251.7c-7.5,0-13.7-6.1-13.7-13.7c0-7.5,6.1-13.7,13.7-13.7s13.7,6.1,13.7,13.7C264.8,245.5,258.7,251.7,251.2,251.7
		L251.2,251.7z"/>
	<path class="st2" d="M355.8,350.7v-81.6l-31.8-20.3c0.4-8.8,0.2-17.7-0.7-26.6c-4.4-46.2-25.5-89.3-59.4-121.2l-12.7-11.9
		L238.5,101c-33.9,31.9-55,75-59.4,121.2c-0.8,8.9-1.1,17.8-0.7,26.6l-31.8,20.3v81.6l55.5-17.4c2.3,4.2,4.8,8.3,7.4,12.3V384h18.5
		v-29.8h14v14.3h18.5v-14.3h14V384h18.5v-38.4c2.6-4,5.1-8.1,7.4-12.3L355.8,350.7z M337.3,279.3v46.2l-28.8-9
		c6.5-15,11-30.8,13.4-47L337.3,279.3z M251.1,114.5C268,130.3,281,149,290,169.2h-77.8C221.3,149,234.3,130.3,251.1,114.5z
		 M165,325.5v-46.2l15.4-9.8c2.5,16.2,7,32,13.4,47L165,325.5z M241.9,318.8v17h-16.8c-29.3-44.6-35.4-99.3-19.9-148.1h91.9
		c15.5,48.7,9.4,103.5-19.9,148.1h-16.8v-17H241.9z"/>
	<path class="st2" d="M241.9,387.2h18.5v17.6h-18.5V387.2z"/>
</g>
<g>
	<path class="st3" d="M251.3,139.2c-12.5,0-22.7,10.2-22.7,22.7c0,12.5,10.2,22.7,22.7,22.7s22.7-10.2,22.7-22.7
		C273.9,149.3,263.8,139.2,251.3,139.2z M251.3,173.1c-6.2,0-11.3-5.1-11.3-11.3c0-6.2,5.1-11.3,11.3-11.3s11.3,5.1,11.3,11.3
		C262.6,168,257.5,173.1,251.3,173.1z"/>
	<path class="st3" d="M166.4,271.1c3.1,0,5.7-2.5,5.7-5.7v-17c0-3.1-2.5-5.7-5.7-5.7s-5.7,2.5-5.7,5.7v17
		C160.7,268.6,163.2,271.1,166.4,271.1z"/>
	<path class="st3" d="M160.7,316.4c0,3.1,2.5,5.7,5.7,5.7s5.7-2.5,5.7-5.7v-17c0-3.1-2.5-5.7-5.7-5.7s-5.7,2.5-5.7,5.7V316.4z"/>
	<path class="st3" d="M336.2,271.1c3.1,0,5.7-2.5,5.7-5.7v-17c0-3.1-2.5-5.7-5.7-5.7s-5.7,2.5-5.7,5.7v17
		C330.6,268.6,333.1,271.1,336.2,271.1z"/>
	<path class="st3" d="M330.6,316.4c0,3.1,2.5,5.7,5.7,5.7s5.7-2.5,5.7-5.7v-17c0-3.1-2.5-5.7-5.7-5.7s-5.7,2.5-5.7,5.7V316.4z"/>
	<path class="st3" d="M166.4,356h17c3.1,0,5.7-2.5,5.7-5.7s-2.5-5.7-5.7-5.7h-17c-3.1,0-5.7,2.5-5.7,5.7S163.2,356,166.4,356z"/>
	<path class="st3" d="M217.3,344.7c-3.1,0-5.7,2.5-5.7,5.7s2.5,5.7,5.7,5.7h17c3.1,0,5.7-2.5,5.7-5.7s-2.5-5.7-5.7-5.7H217.3z"/>
	<path class="st3" d="M290.9,350.4c0-3.1-2.5-5.7-5.7-5.7h-17c-3.1,0-5.7,2.5-5.7,5.7s2.5,5.7,5.7,5.7h17
		C288.4,356,290.9,353.5,290.9,350.4z"/>
	<path class="st3" d="M313.6,350.4c0,3.1,2.5,5.7,5.7,5.7h17c3.1,0,5.7-2.5,5.7-5.7s-2.5-5.7-5.7-5.7h-17
		C316.1,344.7,313.6,347.2,313.6,350.4z"/>
	<circle class="st3" cx="251.3" cy="387.7" r="5.7"/>
	<path class="st3" d="M276.8,393.4h59.5c21.9,0,39.6-17.8,39.6-39.6V126.1c0-12.5-10.2-22.7-22.7-22.7H149.4
		c-12.5,0-22.7,10.2-22.7,22.7v227.6c0,21.9,17.8,39.6,39.6,39.6h59.5c3.1,0,5.7-2.5,5.7-5.7c0-3.1-2.5-5.7-5.7-5.7h-59.5
		c-15.6,0-28.3-12.7-28.3-28.3V186.3c7.4,0.5,14.8,1.9,22.7,4.3v23.8c0,3.1,2.5,5.7,5.7,5.7s5.7-2.5,5.7-5.7v-19.7
		c5.9,2.4,11.7,5.1,17.4,7.8c18.4,8.6,37.4,17.5,61.9,17.5s43.5-8.9,61.9-17.5c5.7-2.7,11.5-5.4,17.4-7.8v19.7
		c0,3.1,2.5,5.7,5.7,5.7s5.7-2.5,5.7-5.7v-23.8c7.8-2.5,15.2-3.9,22.7-4.3v167.4c0,15.6-12.7,28.3-28.3,28.3h-59.5
		c-3.1,0-5.7,2.5-5.7,5.7C271.1,390.9,273.7,393.4,276.8,393.4z M308.3,192.4c-18,8.5-35.1,16.5-57.1,16.5s-39-8-57.1-16.5
		c-18.5-8.7-35.1-16.2-56.2-17.4v-48.9c0-6.2,5.1-11.3,11.3-11.3h203.9c6.2,0,11.3,5.1,11.3,11.3V175
		C343.7,176.2,327.3,183.5,308.3,192.4z"/>
</g>
</svg>
