<?xml version="1.0" encoding="utf-8"?>
<!-- Generator: Adobe Illustrator 24.1.3, SVG Export Plug-In . SVG Version: 6.00 Build 0)  -->
<svg version="1.1" id="Layer_1" xmlns="http://www.w3.org/2000/svg" xmlns:xlink="http://www.w3.org/1999/xlink" x="0px" y="0px"
	 viewBox="0 0 629 549.6" style="enable-background:new 0 0 629 549.6;" xml:space="preserve">
<style type="text/css">
	.st0{fill:url(#Shape_13_);}
	.st1{fill:url(#Oval_3_);}
	.st2{fill:url(#Oval_4_);}
	.st3{fill:url(#Oval_5_);}
	.st4{fill:url(#Shape_14_);}
	.st5{fill:url(#Shape_15_);}
	.st6{fill:url(#Shape_16_);}
	.st7{fill:url(#Shape_17_);}
	.st8{fill:url(#Shape_18_);}
	.st9{fill:url(#Shape_19_);}
	.st10{fill:url(#Shape_20_);}
	.st11{fill:url(#Shape_21_);}
	.st12{fill:url(#Shape_22_);}
	.st13{fill:url(#Shape_23_);}
	.st14{fill:url(#Shape_24_);}
	.st15{fill:url(#Shape_25_);}
	.st16{fill:url(#SVGID_1_);}
</style>
<g id="Page-1">
	<g id="_x30_16---Online-Discounts">
		<linearGradient id="Shape_13_" gradientUnits="userSpaceOnUse" x1="595.155" y1="558.4216" x2="150.8451" y2="114.1117">
			<stop  offset="0" style="stop-color:#46AEF7"/>
			<stop  offset="1" style="stop-color:#1DD5E6"/>
		</linearGradient>
		<path id="Shape" class="st0" d="M586.3,122.9H159.7c-23.6,0-42.6,19.1-42.7,42.7v341.3c0,23.6,19.1,42.6,42.7,42.7h426.7
			c23.6,0,42.6-19.1,42.7-42.7V165.6C629,142,609.9,123,586.3,122.9z M159.7,140h426.7c14.1,0,25.6,11.5,25.6,25.6v42.7H134.1v-42.7
			C134.1,151.5,145.5,140,159.7,140z M586.3,532.5H159.7c-14.1,0-25.6-11.5-25.6-25.6V225.3h477.9v281.6
			C611.9,521.1,600.5,532.5,586.3,532.5z"/>
		<linearGradient id="Oval_3_" gradientUnits="userSpaceOnUse" x1="165.7007" y1="188.7007" x2="153.6327" y2="176.6327">
			<stop  offset="0" style="stop-color:#46AEF7"/>
			<stop  offset="1" style="stop-color:#1DD5E6"/>
		</linearGradient>
		<circle id="Oval" class="st1" cx="159.7" cy="182.7" r="8.5"/>
		<linearGradient id="Oval_4_" gradientUnits="userSpaceOnUse" x1="199.834" y1="188.7007" x2="187.766" y2="176.6327">
			<stop  offset="0" style="stop-color:#46AEF7"/>
			<stop  offset="1" style="stop-color:#1DD5E6"/>
		</linearGradient>
		<circle id="Oval_1_" class="st2" cx="193.8" cy="182.7" r="8.5"/>
		<linearGradient id="Oval_5_" gradientUnits="userSpaceOnUse" x1="233.9673" y1="188.7007" x2="221.8994" y2="176.6327">
			<stop  offset="0" style="stop-color:#46AEF7"/>
			<stop  offset="1" style="stop-color:#1DD5E6"/>
		</linearGradient>
		<circle id="Oval_2_" class="st3" cx="227.9" cy="182.7" r="8.5"/>
		<linearGradient id="Shape_14_" gradientUnits="userSpaceOnUse" x1="556.1006" y1="224.9673" x2="471.4994" y2="140.366">
			<stop  offset="0" style="stop-color:#46AEF7"/>
			<stop  offset="1" style="stop-color:#1DD5E6"/>
		</linearGradient>
		<path id="Shape_1_" class="st4" d="M441.3,191.2h145.1c4.7,0,8.5-3.8,8.5-8.5s-3.8-8.5-8.5-8.5H441.3c-4.7,0-8.5,3.8-8.5,8.5
			S436.6,191.2,441.3,191.2z"/>
		<linearGradient id="Shape_15_" gradientUnits="userSpaceOnUse" x1="408.9007" y1="192.9673" x2="388.2994" y2="172.366">
			<stop  offset="0" style="stop-color:#46AEF7"/>
			<stop  offset="1" style="stop-color:#1DD5E6"/>
		</linearGradient>
		<path id="Shape_2_" class="st5" d="M390.1,191.2h17.1c4.7,0,8.5-3.8,8.5-8.5s-3.8-8.5-8.5-8.5h-17.1c-4.7,0-8.5,3.8-8.5,8.5
			S385.4,191.2,390.1,191.2z"/>
		<linearGradient id="Shape_16_" gradientUnits="userSpaceOnUse" x1="425.2353" y1="507.9686" x2="167.1647" y2="249.8981">
			<stop  offset="0" style="stop-color:#46AEF7"/>
			<stop  offset="1" style="stop-color:#1DD5E6"/>
		</linearGradient>
		<path id="Shape_3_" class="st6" d="M407.1,242.4H185.3c-14.1,0-25.6,11.5-25.6,25.6v221.9c0,14.1,11.5,25.6,25.6,25.6h221.9
			c14.1,0,25.6-11.5,25.6-25.6V268C432.7,253.9,421.3,242.4,407.1,242.4z M415.7,489.9c0,4.7-3.8,8.5-8.5,8.5H185.3
			c-4.7,0-8.5-3.8-8.5-8.5V268c0-4.7,3.8-8.5,8.5-8.5h221.9c4.7,0,8.5,3.8,8.5,8.5V489.9z"/>
		<linearGradient id="Shape_17_" gradientUnits="userSpaceOnUse" x1="515.5673" y1="299.634" x2="469.366" y2="253.4327">
			<stop  offset="0" style="stop-color:#46AEF7"/>
			<stop  offset="1" style="stop-color:#1DD5E6"/>
		</linearGradient>
		<path id="Shape_4_" class="st7" d="M458.3,285.1h68.3c4.7,0,8.5-3.8,8.5-8.5c0-4.7-3.8-8.5-8.5-8.5h-68.3c-4.7,0-8.5,3.8-8.5,8.5
			C449.8,281.2,453.6,285.1,458.3,285.1z"/>
		<linearGradient id="Shape_18_" gradientUnits="userSpaceOnUse" x1="560.3673" y1="348.7007" x2="484.2994" y2="272.6327">
			<stop  offset="0" style="stop-color:#46AEF7"/>
			<stop  offset="1" style="stop-color:#1DD5E6"/>
		</linearGradient>
		<path id="Shape_5_" class="st8" d="M586.3,302.1h-128c-4.7,0-8.5,3.8-8.5,8.5c0,4.7,3.8,8.5,8.5,8.5h128c4.7,0,8.5-3.8,8.5-8.5
			C594.9,306,591,302.1,586.3,302.1z"/>
		<linearGradient id="Shape_19_" gradientUnits="userSpaceOnUse" x1="560.3673" y1="382.834" x2="484.2994" y2="306.766">
			<stop  offset="0" style="stop-color:#46AEF7"/>
			<stop  offset="1" style="stop-color:#1DD5E6"/>
		</linearGradient>
		<path id="Shape_6_" class="st9" d="M586.3,336.3h-128c-4.7,0-8.5,3.8-8.5,8.5s3.8,8.5,8.5,8.5h128c4.7,0,8.5-3.8,8.5-8.5
			S591,336.3,586.3,336.3z"/>
		<linearGradient id="Shape_20_" gradientUnits="userSpaceOnUse" x1="560.3673" y1="416.9673" x2="484.2994" y2="340.8994">
			<stop  offset="0" style="stop-color:#46AEF7"/>
			<stop  offset="1" style="stop-color:#1DD5E6"/>
		</linearGradient>
		<path id="Shape_7_" class="st10" d="M586.3,370.4h-128c-4.7,0-8.5,3.8-8.5,8.5s3.8,8.5,8.5,8.5h128c4.7,0,8.5-3.8,8.5-8.5
			S591,370.4,586.3,370.4z"/>
		<linearGradient id="Shape_21_" gradientUnits="userSpaceOnUse" x1="560.3673" y1="451.1006" x2="484.2994" y2="375.0327">
			<stop  offset="0" style="stop-color:#46AEF7"/>
			<stop  offset="1" style="stop-color:#1DD5E6"/>
		</linearGradient>
		<path id="Shape_8_" class="st11" d="M586.3,404.5h-128c-4.7,0-8.5,3.8-8.5,8.5s3.8,8.5,8.5,8.5h128c4.7,0,8.5-3.8,8.5-8.5
			S591,404.5,586.3,404.5z"/>
		<linearGradient id="Shape_22_" gradientUnits="userSpaceOnUse" x1="563.902" y1="531.4353" x2="480.7648" y2="448.2981">
			<stop  offset="0" style="stop-color:#46AEF7"/>
			<stop  offset="1" style="stop-color:#1DD5E6"/>
		</linearGradient>
		<path id="Shape_9_" class="st12" d="M569.3,464.3h-93.9c-14.1,0-25.6,11.5-25.6,25.6c0,14.1,11.5,25.6,25.6,25.6h93.9
			c14.1,0,25.6-11.5,25.6-25.6C594.9,475.7,583.4,464.3,569.3,464.3z M569.3,498.4h-93.9c-4.7,0-8.5-3.8-8.5-8.5
			c0-4.7,3.8-8.5,8.5-8.5h93.9c4.7,0,8.5,3.8,8.5,8.5C577.8,494.6,574,498.4,569.3,498.4z"/>
		<linearGradient id="Shape_23_" gradientUnits="userSpaceOnUse" x1="252.0692" y1="334.8026" x2="203.7974" y2="286.5308">
			<stop  offset="0" style="stop-color:#46AEF7"/>
			<stop  offset="1" style="stop-color:#1DD5E6"/>
		</linearGradient>
		<path id="Shape_10_" class="st13" d="M227.9,344.8c18.9,0,34.1-15.3,34.1-34.1s-15.3-34.1-34.1-34.1s-34.1,15.3-34.1,34.1
			S209.1,344.8,227.9,344.8z M227.9,293.6c9.4,0,17.1,7.6,17.1,17.1c0,9.4-7.6,17.1-17.1,17.1s-17.1-7.6-17.1-17.1
			C210.9,301.2,218.5,293.6,227.9,293.6z"/>
		<linearGradient id="Shape_24_" gradientUnits="userSpaceOnUse" x1="388.6026" y1="471.3359" x2="340.3307" y2="423.0641">
			<stop  offset="0" style="stop-color:#46AEF7"/>
			<stop  offset="1" style="stop-color:#1DD5E6"/>
		</linearGradient>
		<path id="Shape_11_" class="st14" d="M364.5,413.1c-18.9,0-34.1,15.3-34.1,34.1c0,18.9,15.3,34.1,34.1,34.1s34.1-15.3,34.1-34.1
			C398.6,428.3,383.3,413.1,364.5,413.1z M364.5,464.3c-9.4,0-17.1-7.6-17.1-17.1s7.6-17.1,17.1-17.1s17.1,7.6,17.1,17.1
			S373.9,464.3,364.5,464.3z"/>
		<linearGradient id="Shape_25_" gradientUnits="userSpaceOnUse" x1="314.1545" y1="397.187" x2="277.9507" y2="360.9831">
			<stop  offset="0" style="stop-color:#46AEF7"/>
			<stop  offset="1" style="stop-color:#1DD5E6"/>
		</linearGradient>
		<path id="Shape_12_" class="st15" d="M354.9,284L201.3,437.6c-6.6,6.4-9.1,15.9-6.8,24.8c2.4,8.9,9.3,15.8,18.2,18.2
			c8.9,2.4,18.4-0.2,24.8-6.8l153.6-153.6c9.9-10,9.8-26.1-0.1-36.1C381,274.2,364.9,274.2,354.9,284z M379,308.2L225.4,461.8
			c-3.4,3.2-8.7,3.2-12.1,0c-3.3-3.3-3.3-8.7,0-12.1L367,296.1c2.1-2.2,5.3-3.1,8.3-2.3s5.3,3.1,6.1,6.1S381.3,306,379,308.2
			L379,308.2z"/>
	</g>
</g>
<linearGradient id="SVGID_1_" gradientUnits="userSpaceOnUse" x1="278.9147" y1="433.5574" x2="79.9694" y2="632.5027" gradientTransform="matrix(1 0 0 -1 0 672.5333)">
	<stop  offset="0" style="stop-color:#46AEF7"/>
	<stop  offset="1" style="stop-color:#1DD5E6"/>
</linearGradient>
<path class="st16" d="M180,0C109.6,0,51.4,52.3,41.6,120H0l50,50l50-50H61.8C71.4,63.3,120.6,20,180,20c66.2,0,120,53.8,120,120
	s-53.8,120-120,120c-37.2,0-71.7-16.8-94.6-46.2l-15.7,12.3c26.7,34.2,67,53.9,110.4,53.9c77.2,0,140-62.8,140-140S257.2,0,180,0
	L180,0z"/>
</svg>
