<svg height="512" viewBox="0 0 512 512" width="512" xmlns="http://www.w3.org/2000/svg"><g id="Flat"><path d="m487.29 183.1-20 20-199.29 199.29-29.61 29.61-158.39-158.39 248.9-248.9z" fill="#e04446"/><path d="m487.29 183.1-20 20-36.57 7.31-115.8-115.8 13.98-69.9z" fill="#d6323f"/><path d="m328.9 24.71-11.312 56.565 113.137 113.137 56.569-11.314z" fill="#e5585a"/><circle cx="374.156" cy="137.844" fill="#fdca77" r="24"/><path d="m268 85.61v316.78l-29.61 29.61-158.39-158.39z" fill="#d6323f"/><path d="m248 424h-224v-352l16-24h192l16 24z" fill="#e04446"/><g fill="#fdca77"><path d="m120 144h-32a8.00008 8.00008 0 0 1 -8-8v-24h-16v16h8v16h-16a8.00008 8.00008 0 0 1 -8-8v-32a8.00008 8.00008 0 0 1 8-8h32a8.00008 8.00008 0 0 1 8 8v24h16v-16h-8v-16h16a8.00008 8.00008 0 0 1 8 8v32a8.00008 8.00008 0 0 1 -8 8z"/><path d="m216 144h-32a8.00008 8.00008 0 0 1 -8-8v-24h-16v16h8v16h-16a8.00008 8.00008 0 0 1 -8-8v-32a8.00008 8.00008 0 0 1 8-8h32a8.00008 8.00008 0 0 1 8 8v24h16v-16h-8v-16h16a8.00008 8.00008 0 0 1 8 8v32a8.00008 8.00008 0 0 1 -8 8z"/><path d="m120 400h-32a8.00008 8.00008 0 0 1 -8-8v-24h-16v16h8v16h-16a8.00008 8.00008 0 0 1 -8-8v-32a8.00008 8.00008 0 0 1 8-8h32a8.00008 8.00008 0 0 1 8 8v24h16v-16h-8v-16h16a8.00008 8.00008 0 0 1 8 8v32a8.00008 8.00008 0 0 1 -8 8z"/><path d="m216 400h-32a8.00008 8.00008 0 0 1 -8-8v-24h-16v16h8v16h-16a8.00008 8.00008 0 0 1 -8-8v-32a8.00008 8.00008 0 0 1 8-8h32a8.00008 8.00008 0 0 1 8 8v24h16v-16h-8v-16h16a8.00008 8.00008 0 0 1 8 8v32a8.00008 8.00008 0 0 1 -8 8z"/><path d="m48 160h176v16h-176z"/><path d="m48 320h176v16h-176z"/><path d="m102.059 214.059h67.882v67.882h-67.882z" transform="matrix(.707 -.707 .707 .707 -135.529 168.804)"/></g><path d="m248 72-32-48h-160l-32 48z" fill="#e5585a"/><path d="m360 272a56 56 0 1 0 56 56 55.99746 55.99746 0 0 0 -56-56zm0 80-24-24 24-24 24 24z" fill="#fdca77"/><path d="m360 392a64 64 0 1 1 64-64 64.07239 64.07239 0 0 1 -64 64zm0-112a48 48 0 1 0 48 48 48.05405 48.05405 0 0 0 -48-48z" fill="#fab53f"/><path d="m360 360a7.97661 7.97661 0 0 1 -5.65674-2.34277l-24-24a8.00034 8.00034 0 0 1 0-11.31446l24-24a8.00182 8.00182 0 0 1 11.31348 0l24 24a8.00034 8.00034 0 0 1 0 11.31446l-24 24a7.97661 7.97661 0 0 1 -5.65674 2.34277zm-12.68652-32 12.68652 12.68652 12.68652-12.68652-12.68652-12.68652z" fill="#fab53f"/><path d="m432 336a56 56 0 1 0 56 56 55.99746 55.99746 0 0 0 -56-56zm0 80-24-24 24-24 24 24z" fill="#fdca77"/><path d="m432 456a64 64 0 1 1 64-64 64.07239 64.07239 0 0 1 -64 64zm0-112a48 48 0 1 0 48 48 48.05405 48.05405 0 0 0 -48-48z" fill="#fab53f"/><path d="m432 424a7.97661 7.97661 0 0 1 -5.65674-2.34277l-24-24a8.00034 8.00034 0 0 1 0-11.31446l24-24a8.00182 8.00182 0 0 1 11.31348 0l24 24a8.00034 8.00034 0 0 1 0 11.31446l-24 24a7.97661 7.97661 0 0 1 -5.65674 2.34277zm-12.68652-32 12.68652 12.68652 12.68652-12.68652-12.68652-12.68652z" fill="#fab53f"/><path d="m352 376a56 56 0 1 0 56 56 55.99746 55.99746 0 0 0 -56-56zm0 80-24-24 24-24 24 24z" fill="#fdca77"/><path d="m352 496a64 64 0 1 1 64-64 64.07239 64.07239 0 0 1 -64 64zm0-112a48 48 0 1 0 48 48 48.05405 48.05405 0 0 0 -48-48z" fill="#fab53f"/><path d="m352 464a7.97661 7.97661 0 0 1 -5.65674-2.34277l-24-24a8.00034 8.00034 0 0 1 0-11.31446l24-24a8.00182 8.00182 0 0 1 11.31348 0l24 24a8.00034 8.00034 0 0 1 0 11.31446l-24 24a7.97661 7.97661 0 0 1 -5.65674 2.34277zm-12.68652-32 12.68652 12.68652 12.68652-12.68652-12.68652-12.68652z" fill="#fab53f"/></g></svg>