<svg xmlns="http://www.w3.org/2000/svg" xmlns:xlink="http://www.w3.org/1999/xlink" viewBox="0 0 121.3229 121.3229"><defs><style>.a{isolation:isolate;}.b{fill:url(#a);}.c{fill:url(#b);}.d{mix-blend-mode:color-burn;fill:url(#c);}.e{fill:url(#d);}.f,.g{mix-blend-mode:color-dodge;}.f{fill:url(#e);}.g{fill:url(#f);}.h{fill:url(#g);}</style><linearGradient id="a" x1="68.1209" y1="15.4544" x2="68.1209" y2="145.9274" gradientTransform="translate(71.3689 -26.8712) rotate(45)" gradientUnits="userSpaceOnUse"><stop offset="0" stop-color="#f5f5f5"/><stop offset="0.405" stop-color="#ddd"/><stop offset="1" stop-color="#b3b3b3"/></linearGradient><linearGradient id="b" x1="68.1209" y1="22.0686" x2="68.1209" y2="117.7026" gradientTransform="translate(71.3689 -26.8712) rotate(45)" gradientUnits="userSpaceOnUse"><stop offset="0" stop-color="#67d2df"/><stop offset="0.1547" stop-color="#55c7d1"/><stop offset="0.7275" stop-color="#18a0a2"/><stop offset="1" stop-color="#00918f"/></linearGradient><radialGradient id="c" cx="68.1209" cy="72.7143" r="50.1732" gradientTransform="translate(71.3689 -26.8712) rotate(45)" gradientUnits="userSpaceOnUse"><stop offset="0.8458" stop-color="#fff"/><stop offset="0.8735" stop-color="#fbfbfb"/><stop offset="0.9002" stop-color="#f0f0f0"/><stop offset="0.9264" stop-color="#dcdcdc"/><stop offset="0.9524" stop-color="#c1c1c1"/><stop offset="0.9779" stop-color="#9e9e9e"/><stop offset="1" stop-color="#7a7a7a"/></radialGradient><linearGradient id="d" x1="60.6615" y1="21.7276" x2="60.6615" y2="110.4426" gradientTransform="matrix(1, 0, 0, 1, 0, 0)" xlink:href="#a"/><radialGradient id="e" cx="60.6615" cy="60.6614" r="41.2467" gradientUnits="userSpaceOnUse"><stop offset="0.8358"/><stop offset="0.8933" stop-color="#050505"/><stop offset="0.9591" stop-color="#131313"/><stop offset="1" stop-color="#1f1f1f"/></radialGradient><radialGradient id="f" cx="75.2075" cy="100.2104" r="82.264" gradientUnits="userSpaceOnUse"><stop offset="0" stop-color="#1f1f1f"/><stop offset="0.2489" stop-color="#131313"/><stop offset="0.6499" stop-color="#050505"/><stop offset="1"/></radialGradient><linearGradient id="g" x1="39.0323" y1="72.129" x2="98" y2="72.129" gradientUnits="userSpaceOnUse"><stop offset="0" stop-color="#bcbbbb"/><stop offset="1" stop-color="#898888"/></linearGradient></defs><g class="a"><circle class="b" cx="68.1209" cy="72.7143" r="60.6615" transform="translate(-38.924 57.4134) rotate(-45)"/><circle class="c" cx="68.1209" cy="72.7143" r="50.1733" transform="translate(-38.924 57.4134) rotate(-45)"/><circle class="d" cx="68.1209" cy="72.7143" r="50.1733" transform="translate(-38.924 57.4134) rotate(-45)"/><circle class="e" cx="60.6615" cy="60.6614" r="41.2467"/><circle class="f" cx="60.6615" cy="60.6614" r="41.2467"/><path class="g" d="M41.4232,84.0008a70.3851,70.3851,0,0,1,48.241-19.982,65.1613,65.1613,0,0,1,19.2929,2.9242,41.2442,41.2442,0,1,0-75.92,27.4585A66.075,66.075,0,0,1,41.4232,84.0008Z" transform="translate(-7.4594 -12.0528)"/><path class="h" d="M86.4844,74.0758a18.2893,18.2893,0,1,1-9.505-16.0033l-7.1221,8.703H98L90.9634,40.9809,83.98,49.5138A29.1692,29.1692,0,1,0,97.435,74.0758V72.2507H86.4844Z" transform="translate(-7.4594 -12.0528)"/></g></svg>