<?xml version="1.0" encoding="utf-8"?>
<!-- Generator: Adobe Illustrator 24.1.3, SVG Export Plug-In . SVG Version: 6.00 Build 0)  -->
<svg version="1.1" id="Layer_1" xmlns="http://www.w3.org/2000/svg" xmlns:xlink="http://www.w3.org/1999/xlink" x="0px" y="0px"
	 viewBox="0 0 512 512" style="enable-background:new 0 0 512 512;" xml:space="preserve">
<style type="text/css">
	.st0{fill:url(#SVGID_1_);}
	.st1{fill:url(#SVGID_2_);}
</style>
<g>
	<linearGradient id="SVGID_1_" gradientUnits="userSpaceOnUse" x1="437.0235" y1="437.0235" x2="74.976" y2="74.976">
		<stop  offset="0" style="stop-color:#46AEF7"/>
		<stop  offset="1" style="stop-color:#1DD5E6"/>
	</linearGradient>
	<path class="st0" d="M256,512c-30.9,0-56-25.1-56-56v-16.3c-11.9-3.6-23.3-8.4-34.3-14.2L154.2,437c-10.6,10.6-24.6,16.4-39.6,16.4
		c-15,0-29-5.8-39.6-16.4c-21.8-21.8-21.8-57.4,0-79.2l11.5-11.5c-5.9-11-10.6-22.4-14.2-34.3H56c-15,0-29-5.8-39.6-16.4
		S0,271,0,256c0-30.9,25.1-56,56-56h16.3c3.6-11.9,8.4-23.3,14.2-34.3L75,154.2c-10.6-10.6-16.4-24.6-16.4-39.6
		c0-15,5.8-29,16.4-39.6c21.8-21.8,57.4-21.8,79.2,0l11.5,11.5c11-5.9,22.4-10.6,34.3-14.2V56c0-15,5.8-29,16.4-39.6
		C227,5.8,241,0,256,0c3.7,0,7.5,0.4,11.1,1.1C293.2,6.4,312,29.5,312,56v16.3c11.9,3.6,23.3,8.4,34.3,14.2L357.8,75
		c10.6-10.6,24.6-16.4,39.6-16.4c15,0,29,5.8,39.6,16.4c21.8,21.8,21.8,57.4,0,79.2l-11.5,11.5c5.9,11,10.6,22.4,14.2,34.3H456
		c15,0,29,5.8,39.6,16.4S512,241,512,256c0,30.9-25.1,56-56,56h-16.3c-3.6,11.9-8.4,23.3-14.2,34.3l11.5,11.5
		c10.6,10.6,16.4,24.6,16.4,39.6c0,15-5.8,29-16.4,39.6c-10.9,10.9-25.3,16.4-39.6,16.4c-14.3,0-28.7-5.5-39.6-16.4l-11.5-11.5
		c-11,5.9-22.4,10.6-34.3,14.2V456c0,15-5.8,29-16.4,39.6c-7.8,7.8-17.6,13.1-28.4,15.3c0,0,0,0,0,0C263.5,511.6,259.7,512,256,512
		L256,512z M264,495.2L264,495.2L264,495.2z M163.1,389.5c2.9,0,5.8,0.8,8.5,2.4c14.9,9.3,31.1,16,48.1,19.9
		c7.3,1.7,12.4,8.1,12.4,15.6V456c0,13.2,10.8,24,24,24c1.6,0,3.2-0.2,4.8-0.5c4.6-0.9,8.8-3.2,12.1-6.6c4.5-4.5,7-10.6,7-17v-28.6
		c0-7.4,5.1-13.9,12.4-15.6c17-3.9,33.2-10.7,48.1-19.9c6.3-3.9,14.5-3,19.8,2.3l20.2,20.2c9.4,9.4,24.6,9.4,33.9,0
		c4.5-4.5,7-10.6,7-17c0-6.4-2.5-12.4-7-17l-20.2-20.2c-5.3-5.3-6.2-13.5-2.3-19.8c9.3-14.9,16-31.1,19.9-48.1
		c1.7-7.3,8.1-12.4,15.6-12.4H456c13.2,0,24-10.8,24-24c0-6.4-2.5-12.4-7-17c-4.5-4.5-10.6-7-17-7h-28.6c-7.4,0-13.9-5.1-15.6-12.4
		c-3.9-17-10.7-33.2-19.9-48.1c-3.9-6.3-3-14.5,2.3-19.8l20.2-20.2c9.4-9.4,9.4-24.6,0-33.9c-4.5-4.5-10.6-7-17-7
		c-6.4,0-12.4,2.5-17,7l-20.2,20.2c-5.3,5.3-13.5,6.2-19.8,2.3c-14.9-9.3-31.1-16-48.1-19.9C285.1,98.5,280,92,280,84.6V56
		c0-11.4-8.1-21.3-19.2-23.5c-1.6-0.3-3.2-0.5-4.8-0.5c-6.4,0-12.4,2.5-17,7c-4.5,4.5-7,10.6-7,17v28.6c0,7.4-5.1,13.9-12.4,15.6
		c-17,3.9-33.2,10.7-48.1,19.9c-6.3,3.9-14.5,3-19.8-2.3l-20.2-20.2c-9.4-9.4-24.6-9.4-33.9,0c-4.5,4.5-7,10.6-7,17
		c0,6.4,2.5,12.4,7,17l20.2,20.2c5.3,5.3,6.2,13.5,2.3,19.8c-9.3,14.9-16,31.1-19.9,48.1C98.5,226.9,92,232,84.6,232H56
		c-13.2,0-24,10.8-24,24c0,6.4,2.5,12.4,7,17c4.5,4.5,10.6,7,17,7h28.6c7.4,0,13.9,5.1,15.6,12.4c3.9,17,10.7,33.2,19.9,48.1
		c3.9,6.3,3,14.5-2.3,19.8l-20.2,20.2c-9.4,9.4-9.4,24.6,0,33.9c4.5,4.5,10.6,7,17,7c6.4,0,12.4-2.5,17-7l20.2-20.2
		C154.8,391.1,158.9,389.5,163.1,389.5L163.1,389.5z"/>
	<linearGradient id="SVGID_2_" gradientUnits="userSpaceOnUse" x1="335.2179" y1="335.1786" x2="176.8608" y2="176.8214">
		<stop  offset="0" style="stop-color:#46AEF7"/>
		<stop  offset="1" style="stop-color:#1DD5E6"/>
	</linearGradient>
	<path class="st1" d="M256,368c-61.8,0-112-50.2-112-112s50.2-112,112-112c3.2,0,6.3,0.1,9.4,0.4c27.8,2.3,53.7,14.9,72.8,35.5
		c19.2,20.8,29.8,47.8,29.8,76.1s-10.6,55.3-29.8,76.1c-19.1,20.6-45,33.3-72.9,35.6C262.3,367.9,259.2,368,256,368z M256,176
		c-44.1,0-80,35.9-80,80s35.9,80,80,80c2.3,0,4.5-0.1,6.6-0.3c41.2-3.4,73.4-38.4,73.4-79.7s-32.2-76.3-73.3-79.7
		C260.5,176.1,258.3,176,256,176L256,176z"/>
</g>
</svg>
