<svg id="Layer_1" enable-background="new 0 0 512 512" height="512" viewBox="0 0 512 512" width="512" xmlns="http://www.w3.org/2000/svg"><g><path d="m256 192c-35.29 0-64 28.71-64 64s28.71 64 64 64 64-28.71 64-64-28.71-64-64-64zm0 96c-17.645 0-32-14.355-32-32s14.355-32 32-32 32 14.355 32 32-14.355 32-32 32z"/><path d="m490.007 217.504-69.27-43.111c-48.764-30.351-105.73-46.393-164.737-46.393s-115.973 16.042-164.737 46.393l-69.27 43.111c-13.771 8.571-21.993 22.962-21.993 38.496s8.222 29.925 21.993 38.496l69.27 43.111c48.764 30.351 105.73 46.393 164.737 46.393s115.973-16.042 164.737-46.393l69.271-43.111c13.77-8.571 21.992-22.962 21.992-38.496s-8.222-29.925-21.993-38.496zm-234.007 134.496c-52.935 0-96-43.065-96-96s43.065-96 96-96 96 43.065 96 96-43.065 96-96 96z"/></g></svg>