<?xml version="1.0" encoding="utf-8"?>
<!-- Generator: Adobe Illustrator 24.1.3, SVG Export Plug-In . SVG Version: 6.00 Build 0)  -->
<svg version="1.1" id="Layer_1" xmlns="http://www.w3.org/2000/svg" xmlns:xlink="http://www.w3.org/1999/xlink" x="0px" y="0px"
	 viewBox="0 0 409.9 204.7" style="enable-background:new 0 0 409.9 204.7;" xml:space="preserve">
<style type="text/css">
	.st0{fill:url(#SVGID_1_);}
	.st1{fill:url(#SVGID_2_);}
	.st2{fill:url(#SVGID_3_);}
	.st3{fill:url(#SVGID_4_);}
	.st4{fill:#FFFFFF;}
</style>
<linearGradient id="SVGID_1_" gradientUnits="userSpaceOnUse" x1="75.9509" y1="167.1814" x2="114.829" y2="126.9218" gradientTransform="matrix(1 0 0 -1 0 206)">
	<stop  offset="0" style="stop-color:#46AEF7"/>
	<stop  offset="1" style="stop-color:#1DD5E6"/>
</linearGradient>
<path class="st0" d="M77.1,43.7h36.5c8.4,0,15.3,6.8,15.3,15.3v0c0,8.4-6.8,15.3-15.3,15.3H77.1c-8.4,0-15.3-6.8-15.3-15.3v0
	C61.8,50.5,68.7,43.7,77.1,43.7z"/>
<linearGradient id="SVGID_2_" gradientUnits="userSpaceOnUse" x1="21.1923" y1="107.2796" x2="62.5305" y2="64.4726" gradientTransform="matrix(1 0 0 -1 0 206)">
	<stop  offset="0" style="stop-color:#46AEF7"/>
	<stop  offset="1" style="stop-color:#1DD5E6"/>
</linearGradient>
<path class="st1" d="M21,104.8h41.6c8.4,0,15.3,6.8,15.3,15.3v0c0,8.4-6.8,15.3-15.3,15.3H21c-8.4,0-15.3-6.8-15.3-15.3v0
	C5.8,111.7,12.6,104.8,21,104.8z"/>
<linearGradient id="SVGID_3_" gradientUnits="userSpaceOnUse" x1="239.4006" y1="-32.3681" x2="241.3716" y2="-34.4091" gradientTransform="matrix(1 0 0 -1 -32 132.5456)">
	<stop  offset="0" style="stop-color:#46AEF7"/>
	<stop  offset="1" style="stop-color:#1DD5E6"/>
</linearGradient>
<path class="st2" d="M210.4,166c-0.1-0.2-0.1-0.3-0.2-0.5c-1.3,0.3-2.6,0.5-3.9,0.5H210.4z"/>
<linearGradient id="SVGID_4_" gradientUnits="userSpaceOnUse" x1="208.0475" y1="113.2614" x2="392.1057" y2="-77.3364" gradientTransform="matrix(1 0 0 -1 -32 132.5456)">
	<stop  offset="0" style="stop-color:#46AEF7"/>
	<stop  offset="1" style="stop-color:#1DD5E6"/>
</linearGradient>
<path class="st3" d="M344.3,2.9h-79.1c-25.7,0-48.6,16.4-56.8,40.8H157c-8.4,0-15.3,6.8-15.3,15.3l0,0c0,8.4,6.8,15.3,15.3,15.3
	h74.8c8.4,0,15.3,6.8,15.3,15.3l0,0c0,8.4-6.8,15.3-15.3,15.3c0,0,0,0,0,0h-130c-8.4,0-15.3,6.8-15.3,15.3l0,0
	c0,8.4,6.8,15.3,15.3,15.3c0,0,0,0,0,0h104.5c8.4,0,15.3,6.8,15.3,15.3l0,0c0,6.9-4.7,13-11.4,14.8c0.1,0.2,0.1,0.3,0.2,0.5h-66.1
	c-8.4,0-15.3,6.8-15.3,15.3c0,0,0,0,0,0l0,0c0,8.4,6.8,15.3,15.3,15.3c0,0,0,0,0,0h96.6c7.7,3.4,16,5.2,24.4,5.2h79.1
	c33.1,0,59.9-26.8,59.9-59.9V62.8C404.2,29.7,377.4,2.9,344.3,2.9C344.3,2.9,344.3,2.9,344.3,2.9z"/>
<path class="st4" d="M345.6,57v24.6c0,0.9,0,1.8,0,2.7c0,2,0,4,0,6c0,1.8,0,3.7,0,5.5v5.4h0c0,3.5,0,6.9,0,10.4
	c0,17.7-10.6,29.3-28.3,30.8c-1,0.1-2,0.1-3.1,0.2c-7,0.2-14-1.7-19.9-5.4c-7.8-5-12.1-12.2-12.4-21.4c-0.4-9.3-0.2-18.6-0.1-27.9
	c0-1.7,0.4-3.3,1.3-4.7c1.2-2.2,3.5-3.5,6-3.5c4.1,0.1,6.5,3.1,6.6,8.1c0,8.3,0,16.6,0,24.9c0.1,10,7.4,16.7,18.4,16.6
	c1.3,0,2.5-0.1,3.8-0.3c8.4-1.4,13.7-7.3,13.7-16.1c0-2.9,0-5.9,0-8.8V85.9c0-2.8,0-5.6,0-8.4c0-0.2,0-0.5,0-0.7V50.3
	c-29.9-9.7-62,6.7-71.7,36.6c-9.7,29.9,6.7,62,36.6,71.7c29.9,9.7,62-6.7,71.7-36.6C376.2,97.7,366.9,71.1,345.6,57L345.6,57z"/>
</svg>
