<?xml version="1.0" encoding="utf-8"?>
<!-- Generator: Adobe Illustrator 24.1.3, SVG Export Plug-In . SVG Version: 6.00 Build 0)  -->
<svg version="1.1" id="Layer_1" xmlns="http://www.w3.org/2000/svg" xmlns:xlink="http://www.w3.org/1999/xlink" x="0px" y="0px"
	 viewBox="0 0 572.6 508.5" style="enable-background:new 0 0 572.6 508.5;" xml:space="preserve">
<style type="text/css">
	.st0{fill:url(#SVGID_1_);}
	.st1{fill:url(#SVGID_2_);}
	.st2{fill:url(#SVGID_3_);}
	.st3{fill:url(#SVGID_4_);}
</style>
<g>
	<linearGradient id="SVGID_1_" gradientUnits="userSpaceOnUse" x1="461.2813" y1="469.6813" x2="231" y2="239.4">
		<stop  offset="0" style="stop-color:#46AEF7"/>
		<stop  offset="1" style="stop-color:#1DD5E6"/>
	</linearGradient>
	<path class="st0" d="M532.1,258.3V328c0,28.9-23.4,52.3-52.3,52.3H139.1l68.8-68.8L183.4,287l-98.5,98.5c-6.7,6.7-6.7,17.8,0,24.5
		l98.5,98.5l24.5-24.5l-68.8-68.8h340.7c48,0,87-39.1,87-87v-69.7h-34.7V258.3z"/>
	<linearGradient id="SVGID_2_" gradientUnits="userSpaceOnUse" x1="415.65" y1="277.45" x2="185.4688" y2="47.2687">
		<stop  offset="0" style="stop-color:#46AEF7"/>
		<stop  offset="1" style="stop-color:#1DD5E6"/>
	</linearGradient>
	<path class="st1" d="M114.6,188.8c0-28.9,23.4-52.3,52.3-52.3h340.7l-68.8,68.8l24.5,24.5l98.5-98.5c6.7-6.7,6.7-17.8,0-24.5
		L463.3,8.5L438.8,33l68.8,68.8H166.9c-48,0-87,39.1-87,87v69.7h34.7V188.8z"/>
	<linearGradient id="SVGID_3_" gradientUnits="userSpaceOnUse" x1="397.2375" y1="332.1375" x2="249.5812" y2="184.4812">
		<stop  offset="0" style="stop-color:#46AEF7"/>
		<stop  offset="1" style="stop-color:#1DD5E6"/>
	</linearGradient>
	<path class="st2" d="M219,258.3c0,57.7,46.7,104.4,104.4,104.4S427.8,316,427.8,258.3s-46.7-104.4-104.4-104.4
		C265.6,153.9,219,200.8,219,258.3z M330.7,191.2v7.4c16.5,0,29.7,13.5,29.7,29.7c0,4.1-3.3,7.4-7.4,7.4s-7.4-3.3-7.4-7.4
		c0-8.2-6.7-15-15-15h-15c-8.2,0-15,6.7-15,15v7.4c0,8.2,6.7,15,15,15h15c16.5,0,29.7,13.5,29.7,29.7v7.4
		c0,16.5-13.5,29.7-29.7,29.7v7.4c0,4.1-3.3,7.4-7.4,7.4s-7.4-3.3-7.4-7.4v-7.4c-16.5,0-29.7-13.5-29.7-29.7c0-4.1,3.3-7.4,7.4-7.4
		c4.1,0,7.4,3.3,7.4,7.4c0,8.2,6.7,15,15,15h15c8.2,0,15-6.7,15-15v-7.4c0-8.2-6.7-15-15-15h-15c-16.5,0-29.7-13.5-29.7-29.7v-7.4
		c0-16.5,13.5-29.7,29.7-29.7v-7.4c0-4.1,3.3-7.4,7.4-7.4C327.5,183.6,330.7,187.1,330.7,191.2z"/>
</g>
<linearGradient id="SVGID_4_" gradientUnits="userSpaceOnUse" x1="255.1097" y1="294.9345" x2="73.5721" y2="476.4721" gradientTransform="matrix(1 0 0 -1 0 515)">
	<stop  offset="0" style="stop-color:#46AEF7"/>
	<stop  offset="1" style="stop-color:#1DD5E6"/>
</linearGradient>
<path class="st3" d="M164.9,2C100.6,2,47.5,49.7,38.6,111.5h-38l45.6,45.6l45.6-45.6H57c8.7-51.7,53.7-91.3,107.8-91.3
	c60.4,0,109.5,49.1,109.5,109.5s-49.1,109.5-109.5,109.5c-33.9,0-65.4-15.3-86.3-42.1l-14.4,11.2c24.4,31.3,61.1,49.2,100.7,49.2
	c70.4,0,127.8-57.3,127.8-127.8S235.3,2,164.9,2L164.9,2z"/>
</svg>
