<svg xmlns="http://www.w3.org/2000/svg" xmlns:xlink="http://www.w3.org/1999/xlink" viewBox="0 0 121.3229 121.3229"><defs><style>.a{isolation:isolate;}.b{fill:url(#a);}.c{fill:url(#b);}.d{mix-blend-mode:color-burn;fill:url(#c);}.e{fill:url(#d);}.f,.g{mix-blend-mode:color-dodge;}.f{fill:url(#e);}.g{fill:url(#f);}.h{fill:url(#g);}.i{fill:url(#h);}.j{fill:url(#i);}.k{fill:url(#j);}.l{fill:url(#k);}.m{fill:url(#l);}.n{fill:url(#m);}.o{fill:url(#n);}.p{fill:url(#o);}</style><linearGradient id="a" x1="68.1209" y1="15.4544" x2="68.1209" y2="145.9274" gradientTransform="translate(71.3689 -26.8712) rotate(45)" gradientUnits="userSpaceOnUse"><stop offset="0" stop-color="#f5f5f5"/><stop offset="0.405" stop-color="#ddd"/><stop offset="1" stop-color="#b3b3b3"/></linearGradient><linearGradient id="b" x1="68.1209" y1="22.0686" x2="68.1209" y2="117.7026" gradientTransform="translate(71.3689 -26.8712) rotate(45)" gradientUnits="userSpaceOnUse"><stop offset="0" stop-color="#67d2df"/><stop offset="0.1547" stop-color="#55c7d1"/><stop offset="0.7275" stop-color="#18a0a2"/><stop offset="1" stop-color="#00918f"/></linearGradient><radialGradient id="c" cx="68.1209" cy="72.7143" r="50.1732" gradientTransform="translate(71.3689 -26.8712) rotate(45)" gradientUnits="userSpaceOnUse"><stop offset="0.8458" stop-color="#fff"/><stop offset="0.8735" stop-color="#fbfbfb"/><stop offset="0.9002" stop-color="#f0f0f0"/><stop offset="0.9264" stop-color="#dcdcdc"/><stop offset="0.9524" stop-color="#c1c1c1"/><stop offset="0.9779" stop-color="#9e9e9e"/><stop offset="1" stop-color="#7a7a7a"/></radialGradient><linearGradient id="d" x1="60.6615" y1="21.7276" x2="60.6615" y2="110.4426" gradientTransform="matrix(1, 0, 0, 1, 0, 0)" xlink:href="#a"/><radialGradient id="e" cx="60.6615" cy="60.6614" r="41.2467" gradientUnits="userSpaceOnUse"><stop offset="0.8358"/><stop offset="0.8933" stop-color="#050505"/><stop offset="0.9591" stop-color="#131313"/><stop offset="1" stop-color="#1f1f1f"/></radialGradient><radialGradient id="f" cx="75.2075" cy="100.2104" r="82.264" gradientUnits="userSpaceOnUse"><stop offset="0" stop-color="#1f1f1f"/><stop offset="0.2489" stop-color="#131313"/><stop offset="0.6499" stop-color="#050505"/><stop offset="1"/></radialGradient><linearGradient id="g" x1="27.9592" y1="84.5369" x2="80.7048" y2="84.5369" gradientUnits="userSpaceOnUse"><stop offset="0" stop-color="#bcbbbb"/><stop offset="1" stop-color="#898888"/></linearGradient><linearGradient id="h" x1="54.9424" y1="62.1914" x2="107.8473" y2="62.1914" xlink:href="#g"/><linearGradient id="i" x1="78.8646" y1="97.1042" x2="88.1539" y2="97.1042" xlink:href="#g"/><linearGradient id="j" x1="47.7056" y1="49.5872" x2="56.9241" y2="49.5872" xlink:href="#g"/><linearGradient id="k" x1="42.6982" y1="54.7538" x2="49.8643" y2="54.7538" xlink:href="#g"/><linearGradient id="l" x1="85.8891" y1="91.9465" x2="93.0552" y2="91.9465" xlink:href="#g"/><linearGradient id="m" x1="90.4624" y1="86.8152" x2="96.01" y2="86.8152" xlink:href="#g"/><linearGradient id="n" x1="39.7787" y1="59.9204" x2="45.4012" y2="59.9204" xlink:href="#g"/><linearGradient id="o" x1="56.9418" y1="73.9075" x2="79.2185" y2="73.9075" xlink:href="#g"/></defs><g class="a"><circle class="b" cx="68.1209" cy="72.7143" r="60.6615" transform="translate(-38.924 57.4134) rotate(-45)"/><circle class="c" cx="68.1209" cy="72.7143" r="50.1733" transform="translate(-38.924 57.4134) rotate(-45)"/><circle class="d" cx="68.1209" cy="72.7143" r="50.1733" transform="translate(-38.924 57.4134) rotate(-45)"/><circle class="e" cx="60.6615" cy="60.6614" r="41.2467"/><circle class="f" cx="60.6615" cy="60.6614" r="41.2467"/><path class="g" d="M41.4232,84.0008a70.3851,70.3851,0,0,1,48.241-19.982,65.1613,65.1613,0,0,1,19.2929,2.9242,41.2442,41.2442,0,1,0-75.92,27.4585A66.075,66.075,0,0,1,41.4232,84.0008Z" transform="translate(-7.4594 -12.0528)"/><path class="h" d="M37.1954,79.3926H27.9592c3.7865-5.1135,7.4668-10.0678,11.1648-15.0752,4.0166,5.025,7.98,9.9617,12.085,15.0752H43.4767c.5839,1.5394,1.0086,2.9018,1.61,4.1935A25.456,25.456,0,0,0,60.923,97.6528a23.2436,23.2436,0,0,0,9.8555.9023c1.5925-.1946,3.15-.6369,4.742-.9554.23-.0531.5839-.1062.7077.0177,1.504,1.4509,2.9726,2.9195,4.4766,4.4235C64.2671,109.72,41.8312,100.7846,37.1954,79.3926Z" transform="translate(-7.4594 -12.0528)"/><path class="i" d="M98.5934,67.3076h9.2539c-3.7865,5.0959-7.4492,10.05-11.1649,15.0753-4.0165-5.0074-7.98-9.9617-12.0672-15.0576h7.6437c-.2477-.7431-.4069-1.327-.6193-1.8932-3.5387-9.307-10.0324-15.2345-19.941-17.11a22.8481,22.8481,0,0,0-11.1826.7431,1.1717,1.1717,0,0,1-1.38-.3362c-1.3094-1.3624-2.6718-2.6541-4.1935-4.1581C64.32,41.0321,73.38,40.9437,82.1734,45.58,90.985,50.18,96.2755,57.576,98.5934,67.3076Z" transform="translate(-7.4594 -12.0528)"/><path class="j" d="M83.8189,93.3177c1.3978,1.3979,2.8134,2.7957,4.335,4.3174-1.61,1.097-3.2379,2.194-4.8127,3.2556-1.5748-1.5747-3.0434-3.061-4.4766-4.4942C80.4571,95.4056,82.12,94.3794,83.8189,93.3177Z" transform="translate(-7.4594 -12.0528)"/><path class="k" d="M56.9241,50.3038c-1.6278,1.0085-3.291,2.0525-4.9012,3.061-1.38-1.38-2.7956-2.8133-4.3173-4.335,1.5748-1.0616,3.1849-2.1587,4.76-3.22C54.0223,47.3666,55.4909,48.8529,56.9241,50.3038Z" transform="translate(-7.4594 -12.0528)"/><path class="l" d="M42.6982,54.25c.9378-1.0793,1.9286-2.194,2.8664-3.2911,1.4686,1.4863,2.8841,2.9019,4.3,4.3174-.92,1.0616-1.911,2.2117-2.8311,3.2733C45.6177,57.1336,44.2022,55.7358,42.6982,54.25Z" transform="translate(-7.4594 -12.0528)"/><path class="m" d="M85.8891,91.4245c.9378-1.0793,1.9287-2.2118,2.8487-3.2911,1.3979,1.3978,2.7957,2.8133,4.3174,4.335-.9024,1.0263-1.8933,2.1764-2.8665,3.2911C88.7025,94.2555,87.3046,92.84,85.8891,91.4245Z" transform="translate(-7.4594 -12.0528)"/><path class="n" d="M94.6653,90.1505c-1.4332-1.4332-2.7956-2.7779-4.105-4.14a.7383.7383,0,0,1-.0354-.6723c.3008-.6724.6724-1.3094.9555-1.8579,1.4863,1.4155,2.99,2.831,4.53,4.3173C95.5854,88.54,95.143,89.2835,94.6653,90.1505Z" transform="translate(-7.4594 -12.0528)"/><path class="o" d="M44.3084,63.2734c-1.5217-1.4509-3.008-2.8664-4.53-4.3173.4424-.7785.8493-1.504,1.3447-2.3887.4247.407.7963.7609,1.15,1.1147.9377.9378,1.8578,1.8933,2.8133,2.7957a.7167.7167,0,0,1,.1415,1.0616C44.8746,62.1056,44.5915,62.7249,44.3084,63.2734Z" transform="translate(-7.4594 -12.0528)"/><path class="p" d="M79.2185,58.036c-1.7517,4.1227-3.5034,8.21-5.2728,12.3858h4.37v4.1227h-.5308c-1.6455,0-3.2911,0-4.9366-.0177a.8538.8538,0,0,0-.9378.637c-.1769.5131-.4069.9908-.637,1.557h7.0245v4.1227H71.2562V89.832H64.9395V80.9143H57.8442V76.7562h7.0776c-.3185-.7077-.5662-1.3624-.9024-1.9817-.0708-.1416-.4069-.2123-.6193-.2123-1.557-.0177-3.1318,0-4.6889,0h-.8493V70.4749H62.25c-1.7871-4.1935-3.5388-8.2808-5.3082-12.4389.23-.0177.3716-.0354.5309-.0354,1.84,0,3.68,0,5.5028-.0177a.754.754,0,0,1,.8139.5662C65.1164,62,66.4789,65.45,67.8236,68.9c.0708.1769.1416.3362.2654.637.2477-.5839.46-1.0793.6547-1.5748,1.2209-3.15,2.4418-6.3167,3.6627-9.4662.1061-.2831.23-.4955.6015-.4955,1.9995.0177,3.9989.0177,5.9983.0177C79.0416,57.9829,79.1123,58.0183,79.2185,58.036Z" transform="translate(-7.4594 -12.0528)"/></g></svg>