<?xml version="1.0" encoding="utf-8"?>
<!-- Generator: Adobe Illustrator 24.1.3, SVG Export Plug-In . SVG Version: 6.00 Build 0)  -->
<svg version="1.1" id="Capa_1" xmlns="http://www.w3.org/2000/svg" xmlns:xlink="http://www.w3.org/1999/xlink" x="0px" y="0px"
	 viewBox="0 0 512 512" style="enable-background:new 0 0 512 512;" xml:space="preserve">
<style type="text/css">
	.st0{fill:url(#SVGID_1_);}
	.st1{fill:url(#SVGID_2_);}
</style>
<g>
	<g>
		<linearGradient id="SVGID_1_" gradientUnits="userSpaceOnUse" x1="338.5243" y1="299.6888" x2="71.2064" y2="32.3709">
			<stop  offset="0" style="stop-color:#46AEF7"/>
			<stop  offset="1" style="stop-color:#1DD5E6"/>
		</linearGradient>
		<path class="st0" d="M511.2,127L385,0.8V42H105C47.1,42,0,89.1,0,147v159.5l27.5-41.2C49.7,231.9,87,212,127.1,212H385v41.2
			L511.2,127z M127.1,182C91,182,56.7,194.9,30,217.7V147c0-41.4,33.6-75,75-75h308.8l55,55l-55,55H127.1z"/>
	</g>
</g>
<g>
	<g>
		<linearGradient id="SVGID_2_" gradientUnits="userSpaceOnUse" x1="440.7936" y1="479.6291" x2="173.4757" y2="212.3112">
			<stop  offset="0" style="stop-color:#46AEF7"/>
			<stop  offset="1" style="stop-color:#1DD5E6"/>
		</linearGradient>
		<path class="st1" d="M484.5,246.7C462.3,280.1,425,300,384.9,300H127v-41.2L0.8,385L127,511.2V470h280c57.9,0,105-47.1,105-105
			V205.5L484.5,246.7z M482,365c0,41.4-33.6,75-75,75H98.2l-55-55l55-55h286.7c36.1,0,70.4-12.9,97.1-35.7L482,365L482,365z"/>
	</g>
</g>
</svg>
