<?xml version="1.0" encoding="utf-8"?>
<!-- Generator: Adobe Illustrator 24.1.3, SVG Export Plug-In . SVG Version: 6.00 Build 0)  -->
<svg version="1.1" id="Layer_1" xmlns="http://www.w3.org/2000/svg" xmlns:xlink="http://www.w3.org/1999/xlink" x="0px" y="0px"
	 viewBox="0 0 382.7 382.5" style="enable-background:new 0 0 382.7 382.5;" xml:space="preserve">
<style type="text/css">
	.st0{fill:url(#SVGID_1_);}
	.st1{fill:url(#SVGID_2_);}
	.st2{fill:url(#SVGID_3_);}
	.st3{fill:url(#SVGID_4_);}
	.st4{fill:url(#SVGID_5_);}
	.st5{fill:url(#SVGID_6_);}
	.st6{fill:url(#SVGID_7_);}
	.st7{fill:url(#SVGID_8_);}
	.st8{fill:url(#SVGID_9_);}
	.st9{fill:url(#SVGID_10_);}
	.st10{fill:url(#SVGID_11_);}
	.st11{fill:url(#SVGID_12_);}
	.st12{fill:url(#SVGID_13_);}
	.st13{fill:url(#SVGID_14_);}
	.st14{fill:url(#SVGID_15_);}
</style>
<g>
	<linearGradient id="SVGID_1_" gradientUnits="userSpaceOnUse" x1="270.2745" y1="146.345" x2="270.2745" y2="78.4433">
		<stop  offset="0" style="stop-color:#738FB9"/>
		<stop  offset="1" style="stop-color:#C3CFE2"/>
	</linearGradient>
	<path class="st0" d="M269.5,146.3c18.5,0.4,34-14.1,34.8-32.7c0.7-18.9-15.2-35.3-34.2-35.2c-18.2,0-33.6,15.4-33.8,33.8
		C236.1,130.8,250.9,146,269.5,146.3z"/>
	<linearGradient id="SVGID_2_" gradientUnits="userSpaceOnUse" x1="112.4619" y1="304.1875" x2="112.4619" y2="236.1433">
		<stop  offset="0" style="stop-color:#738FB9"/>
		<stop  offset="1" style="stop-color:#C3CFE2"/>
	</linearGradient>
	<path class="st1" d="M111.9,236.1c-18.4,0.3-33.8,16.3-33.3,34.7c0.4,18.6,16.2,33.8,34.6,33.4c18.7-0.5,33.5-16,33.3-34.7
		C145.9,250.9,130.6,236,111.9,236.1z"/>
	<linearGradient id="SVGID_3_" gradientUnits="userSpaceOnUse" x1="270.2441" y1="304.1012" x2="270.2441" y2="236.1297">
		<stop  offset="0" style="stop-color:#738FB9"/>
		<stop  offset="1" style="stop-color:#C3CFE2"/>
	</linearGradient>
	<path class="st2" d="M270.7,236.1c-18.2-0.3-33.9,14.8-34.4,33.1c-0.5,18.2,14.4,34.1,32.7,34.8c0.2,0,0.4,0,0.6,0
		c19,0.2,34.5-15,34.7-34C304.3,251.8,289,236.4,270.7,236.1z"/>
	<linearGradient id="SVGID_4_" gradientUnits="userSpaceOnUse" x1="112.4908" y1="146.3723" x2="112.4908" y2="78.4047">
		<stop  offset="0" style="stop-color:#738FB9"/>
		<stop  offset="1" style="stop-color:#C3CFE2"/>
	</linearGradient>
	<path class="st3" d="M115.1,78.5c-18.1-1.6-35,12.8-36.5,31.3c-1.4,18.6,12.5,34.9,31.1,36.4c18.7,1.5,35.1-12.4,36.6-31.1
		C147.8,96.8,133.7,80.2,115.1,78.5z"/>
	<linearGradient id="SVGID_5_" gradientUnits="userSpaceOnUse" x1="191.3514" y1="382.493" x2="191.3514" y2="315.5316">
		<stop  offset="0" style="stop-color:#738FB9"/>
		<stop  offset="1" style="stop-color:#C3CFE2"/>
	</linearGradient>
	<path class="st4" d="M191.9,315.5c-19.3-0.4-33.9,13.7-34.1,32.8c-0.2,19.4,13.7,33.8,32.9,34.1c19.4,0.3,33.8-13.6,34.1-32.9
		C225.2,330.2,211.3,315.9,191.9,315.5z"/>
	<linearGradient id="SVGID_6_" gradientUnits="userSpaceOnUse" x1="349.0959" y1="224.8781" x2="349.0959" y2="157.7782">
		<stop  offset="0" style="stop-color:#738FB9"/>
		<stop  offset="1" style="stop-color:#C3CFE2"/>
	</linearGradient>
	<path class="st5" d="M348.3,157.8c-19,0.4-33.2,15.3-32.8,34.4c0.5,19.1,15.3,33.1,34.4,32.7c19-0.4,33.2-15.3,32.7-34.4
		C382.2,171.4,367.5,157.4,348.3,157.8z"/>
	<linearGradient id="SVGID_7_" gradientUnits="userSpaceOnUse" x1="33.6419" y1="382.4599" x2="33.6419" y2="315.561">
		<stop  offset="0" style="stop-color:#738FB9"/>
		<stop  offset="1" style="stop-color:#C3CFE2"/>
	</linearGradient>
	<path class="st6" d="M35,315.6c-19.3-0.8-34.4,12.9-35,32c-0.6,19.4,13.1,34.2,32.2,34.9c19.5,0.7,34.3-12.9,35.1-32
		C68,331.1,54.4,316.4,35,315.6z"/>
	<linearGradient id="SVGID_8_" gradientUnits="userSpaceOnUse" x1="112.4708" y1="67.2629" x2="112.4708" y2="9.676836e-06">
		<stop  offset="0" style="stop-color:#738FB9"/>
		<stop  offset="1" style="stop-color:#C3CFE2"/>
	</linearGradient>
	<path class="st7" d="M113.4,67.3c0.1,0,0.1,0,0.2,0c18.6-0.4,33.3-15.9,32.9-34.5C145.9,14,130.6-0.4,111.6,0c-0.1,0-0.2,0-0.3,0
		C92.7,0.5,78,15.9,78.5,34.5C79,53.2,94.4,67.7,113.4,67.3z"/>
	<linearGradient id="SVGID_9_" gradientUnits="userSpaceOnUse" x1="191.3047" y1="224.8417" x2="191.3047" y2="157.7966">
		<stop  offset="0" style="stop-color:#738FB9"/>
		<stop  offset="1" style="stop-color:#C3CFE2"/>
	</linearGradient>
	<path class="st8" d="M224.8,190.5c-0.3-19.2-14.9-33.1-34.3-32.7c-19.1,0.4-33.2,15.1-32.8,34.3c0.4,19,15.2,33.1,34.4,32.8
		C211.2,224.5,225.2,209.9,224.8,190.5z"/>
	<linearGradient id="SVGID_10_" gradientUnits="userSpaceOnUse" x1="112.4883" y1="382.5431" x2="112.4883" y2="315.52">
		<stop  offset="0" style="stop-color:#738FB9"/>
		<stop  offset="1" style="stop-color:#C3CFE2"/>
	</linearGradient>
	<path class="st9" d="M113.3,315.5c-19.3-0.4-34.3,13.7-34.8,32.6c0,0.2,0,0.4,0,0.6c-0.2,18.5,14.7,33.6,33.1,33.8
		c19,0.4,34.3-14,34.8-32.7c0-0.2,0-0.4,0-0.6C146.6,330.8,131.8,315.7,113.3,315.5z"/>
	<linearGradient id="SVGID_11_" gradientUnits="userSpaceOnUse" x1="191.3195" y1="146.3302" x2="191.3195" y2="78.4362">
		<stop  offset="0" style="stop-color:#738FB9"/>
		<stop  offset="1" style="stop-color:#C3CFE2"/>
	</linearGradient>
	<path class="st10" d="M191.7,78.4c-18.5-0.3-33.8,14.9-33.9,33.7c0,0.2,0,0.4,0,0.6c-0.1,18.5,14.8,33.5,33.3,33.6
		c18.8,0.3,33.7-14.4,33.9-33.5C225.1,93.8,210.5,78.7,191.7,78.4z"/>
	<linearGradient id="SVGID_12_" gradientUnits="userSpaceOnUse" x1="270.3272" y1="224.8338" x2="270.3272" y2="157.7957">
		<stop  offset="0" style="stop-color:#738FB9"/>
		<stop  offset="1" style="stop-color:#C3CFE2"/>
	</linearGradient>
	<path class="st11" d="M270.5,157.8c-19.1-0.1-34.1,14.5-34.2,33.2c0.1,18.4,14.9,33.4,33.3,33.8c18.8,0.4,34.3-14.5,34.7-33.3
		c0,0,0-0.1,0-0.1C304.3,172.8,289.1,157.7,270.5,157.8z"/>
	<linearGradient id="SVGID_13_" gradientUnits="userSpaceOnUse" x1="33.6891" y1="67.1586" x2="33.6891" y2="9.333987e-02">
		<stop  offset="0" style="stop-color:#738FB9"/>
		<stop  offset="1" style="stop-color:#C3CFE2"/>
	</linearGradient>
	<path class="st12" d="M33.8,0.1C14.7,0,0.2,14.3,0.1,33.4C0,52.7,14.1,67.1,33.4,67.2C52.6,67.3,67.1,53,67.3,33.8
		C67.4,14.8,53,0.2,33.8,0.1z"/>
	<linearGradient id="SVGID_14_" gradientUnits="userSpaceOnUse" x1="191.2999" y1="304.0684" x2="191.2999" y2="236.2349">
		<stop  offset="0" style="stop-color:#738FB9"/>
		<stop  offset="1" style="stop-color:#C3CFE2"/>
	</linearGradient>
	<path class="st13" d="M190.5,304.1c0.3,0,0.6,0,0.9,0c18.4,0.1,33.3-14.7,33.4-33.1c0.3-19.2-13.9-34.4-32.6-34.8
		c-0.1,0-0.3,0-0.4,0c-18.5-0.3-33.8,14.5-34,33.1C157.4,288.3,171.8,303.6,190.5,304.1z"/>
	<linearGradient id="SVGID_15_" gradientUnits="userSpaceOnUse" x1="191.3746" y1="67.3088" x2="191.3746" y2="9.813957e-02">
		<stop  offset="0" style="stop-color:#738FB9"/>
		<stop  offset="1" style="stop-color:#C3CFE2"/>
	</linearGradient>
	<path class="st14" d="M190.4,67.3c19.1,0.5,34.1-13.6,34.5-32.6c0.4-19.3-13.5-34.1-32.6-34.6c-19.2-0.5-34,13.4-34.5,32.6
		C157.4,51.9,171.3,66.8,190.4,67.3z"/>
</g>
</svg>
