<svg xmlns="http://www.w3.org/2000/svg" viewBox="0 0 487.5385 487.5385"><defs><style>.a{fill:#98cc46;}.b{fill:#fff;}</style></defs><rect class="a" width="487.5385" height="487.5385" rx="146.8365"/><path class="b" d="M421.8318,296.0156c0-47.7869-48.4359-86.5312-108.1641-86.5312s-108.1641,38.7443-108.1641,86.5312,48.4359,86.5313,108.1641,86.5313a132.1517,132.1517,0,0,0,28.2308-3.3531l58.3,24.9859-20.1617-40.3019C405.3043,348.0425,421.8318,323.684,421.8318,296.0156Z"/><path class="b" d="M205.5036,101.32c-71.6911,0-129.7968,48.4359-129.7968,108.1641,0,34.4394,19.4262,64.9849,49.5607,84.7573L108.156,328.4648l46.6187-19.967a147.36,147.36,0,0,0,31.4757,7.831,90.5737,90.5737,0,0,1-2.38-20.3132c0-59.6417,58.2139-108.1641,129.7969-108.1641a157.0124,157.0124,0,0,1,19.2748,1.32C321.52,139.1561,268.8445,101.32,205.5036,101.32Z"/><circle class="a" cx="162.238" cy="166.2188" r="16.2246"/><circle class="a" cx="248.7693" cy="166.2188" r="16.2246"/><circle class="a" cx="281.2185" cy="274.3828" r="16.2246"/><circle class="a" cx="346.1169" cy="274.3828" r="16.2246"/></svg>