<?xml version="1.0" encoding="utf-8"?>
<!-- Generator: Adobe Illustrator 24.1.3, SVG Export Plug-In . SVG Version: 6.00 Build 0)  -->
<svg version="1.1" id="Layer_1" xmlns="http://www.w3.org/2000/svg" xmlns:xlink="http://www.w3.org/1999/xlink" x="0px" y="0px"
	 viewBox="0 0 596.8 459.5" style="enable-background:new 0 0 596.8 459.5;" xml:space="preserve">
<style type="text/css">
	.st0{fill:url(#SVGID_1_);}
	.st1{fill:url(#SVGID_2_);}
</style>
<linearGradient id="SVGID_1_" gradientUnits="userSpaceOnUse" x1="540.9094" y1="486.2656" x2="140.6344" y2="85.9906">
	<stop  offset="0" style="stop-color:#46AEF7"/>
	<stop  offset="1" style="stop-color:#1DD5E6"/>
</linearGradient>
<path class="st0" d="M547.3,112.8H398.6c-9.1,0-16.5,7.4-16.5,16.5s7.4,16.5,16.5,16.5h67.2c7.3,50.6,47.4,90.6,97.9,97.9v85
	c-50.6,7.3-90.6,47.4-97.9,97.9H215.7c-7.3-50.6-47.4-90.6-97.9-97.9v-85c50.6-7.3,90.6-47.4,97.9-97.9h67.2
	c9.1,0,16.5-7.4,16.5-16.5s-7.4-16.5-16.5-16.5H134.3c-27.3,0-49.5,22.2-49.5,49.5V410c0,27.3,22.2,49.5,49.5,49.5h412.9
	c27.3,0,49.5-22.2,49.5-49.5V162.3C596.8,135,574.6,112.8,547.3,112.8z M499.4,145.8h47.9c9.1,0,16.5,7.4,16.5,16.5v47.9
	C531.5,203.6,505.9,178.1,499.4,145.8z M134.3,145.8h47.9c-6.6,32.3-32.1,57.8-64.4,64.4v-47.9C117.8,153.2,125.2,145.8,134.3,145.8
	z M117.8,410.1v-47.9c32.3,6.6,57.8,32.1,64.4,64.4h-47.9C125.2,426.6,117.8,419.2,117.8,410.1z M547.3,426.6h-47.9
	c6.6-32.3,32.1-57.8,64.4-64.4v47.9C563.8,419.2,556.4,426.6,547.3,426.6z M250,286.2c0,50.1,40.8,90.8,90.8,90.8
	s90.8-40.8,90.8-90.8s-40.8-90.8-90.8-90.8S250,236.1,250,286.2z M398.6,286.2c0,31.9-25.9,57.8-57.8,57.8S283,318.1,283,286.2
	s25.9-57.8,57.8-57.8S398.6,254.3,398.6,286.2z M208.7,269.7c9.1,0,16.5,7.4,16.5,16.5s-7.4,16.5-16.5,16.5h-8.3
	c-9.1,0-16.5-7.4-16.5-16.5s7.4-16.5,16.5-16.5H208.7z M472.9,302.7c-9.1,0-16.5-7.4-16.5-16.5s7.4-16.5,16.5-16.5h8.3
	c9.1,0,16.5,7.4,16.5,16.5s-7.4,16.5-16.5,16.5H472.9z M295.1,66.6c-6.5-6.4-6.5-16.9,0-23.4l34.1-34.1c6.4-6.4,16.9-6.4,23.4,0
	l34.1,34.1c6.5,6.4,6.5,16.9,0,23.4s-16.9,6.4-23.4,0l-5.9-5.9v78.8c0,9.1-7.4,16.5-16.5,16.5s-16.5-7.4-16.5-16.5V60.8l-5.9,5.9
	C312,73.1,301.5,73.1,295.1,66.6L295.1,66.6z"/>
<linearGradient id="SVGID_2_" gradientUnits="userSpaceOnUse" x1="254.5097" y1="234.1261" x2="72.9721" y2="415.6637" gradientTransform="matrix(1 0 0 -1 0 462)">
	<stop  offset="0" style="stop-color:#46AEF7"/>
	<stop  offset="1" style="stop-color:#1DD5E6"/>
</linearGradient>
<path class="st1" d="M164.3,9.8C100,9.8,46.9,57.5,38,119.3H0l45.6,45.6l45.6-45.6H56.4c8.7-51.7,53.7-91.3,107.8-91.3
	c60.4,0,109.5,49.1,109.5,109.5s-49.1,109.5-109.5,109.5c-33.9,0-65.4-15.3-86.3-42.1l-14.4,11.2c24.4,31.3,61.1,49.2,100.7,49.2
	c70.4,0,127.8-57.3,127.8-127.7S234.7,9.8,164.3,9.8L164.3,9.8z"/>
</svg>
