<svg xmlns="http://www.w3.org/2000/svg" viewBox="0 0 485 485"><defs><style>.a{fill:#fff;}.b{fill:#ed2425;}</style></defs><circle class="a" cx="242.5" cy="242.5" r="242.5"/><path class="b" d="M249.7541,50.7685C139.55,50.9443,50.5194,139.9345,50.7362,249.6967c.217,109.9215,89.2532,199.2394,198.9051,199.5344,109.7975.2952,199.8886-89.9763,199.6223-200.0222C448.9978,139.28,359.8326,50.593,249.7541,50.7685Zm-.5409,368.0743c-92.6119-.4215-168.879-77.5522-168.2807-170.1858.5962-92.3168,76.87-167.9849,169.2193-167.8761,92.8214.1093,169.04,76.563,168.875,169.3969C418.8626,342.7494,341.8265,419.2645,249.2132,418.8428Z" transform="translate(-8 -8.5)"/><path class="b" d="M259.3088,173.8246h67.1827v31.256H266.7978v91.443H327.126V327.1H259.183v29.5682h97.1794V265.4464H297.1712V234.32h59.317V144.1779H259.3088Z" transform="translate(-8 -8.5)"/><path class="b" d="M144.8911,235.0655h59.0032v31.0454H144.4167v90.1675h97.2377V326.792H174.3811V296.1025H234.065v-91.691H174.2679v-30.81H241.971V144.4773h-97.08Z" transform="translate(-8 -8.5)"/></svg>