<svg xmlns="http://www.w3.org/2000/svg" viewBox="0 0 485 485"><defs><style>.a{fill:#fff;}.b{fill:#335ba9;}</style></defs><circle class="a" cx="242.5" cy="242.5" r="242.5"/><path class="b" d="M396.6271,207.8349c-13.2011,12.43-26.0307,24.3325-38.6537,36.45-10.93,10.4923-14.9537,10.5738-25.8616-.371q-35.33-35.45-70.6373-70.9222c-3.7641-3.7663-7.8712-7.19-13.1594-11.987-10.7093,11.1145-20.6655,21.7028-30.9008,32.014-18.5108,18.648-36.9866,37.34-55.9015,55.5732-6.9955,6.7434-8.6483,11.46-.6515,19.184,26.9969,26.076,53.4508,52.7243,79.7036,79.5537,6.4616,6.6035,10.8,6.7676,17.29.127,26.2354-26.8432,52.66-53.515,79.6284-79.6156a30.5162,30.5162,0,0,1,18.2939-8.0062c24.5691-1.0321,49.2035-.3738,73.8024-.8879,10.7452-.2246,11.2337,6.0874,10.39,13.8284-8.1535,74.8273-45.036,130.2318-114.0186,161.1217C212.4448,484.7245,82.8726,414.0481,60.961,290.71c-17.935-100.9539,53.3-202.8344,154.1452-219.8538,22.7886-3.846,44.7159.0235,61.7093,16.7269C316.3574,126.4505,355.1383,166.0925,396.6271,207.8349Z" transform="translate(-8 -8.5)"/><path class="b" d="M408.7464,194.4317c-24.1084-24.219-46.3806-46.5753-68.6311-68.9532-13.2025-13.2781-26.2-26.7652-39.5993-39.8413-15.5906-15.2144-33.6437-25.5942-56.0293-27.3345,35.62-12.5427,70.7748-12.875,104.4316,6.4089a152.1707,152.1707,0,0,1,28.6993,21.7732c19.3013,18.3384,37.808,37.5155,56.5578,56.4309,10.008,10.0963,10.0913,13.917.7393,23.9169C426.6773,175.6408,418.324,184.34,408.7464,194.4317Z" transform="translate(-8 -8.5)"/></svg>