<svg xmlns="http://www.w3.org/2000/svg" viewBox="0 0 485 485"><defs><style>.a{fill:#fff;}.b{fill:#025ccc;}</style></defs><circle class="a" cx="242.5" cy="242.5" r="242.5"/><path class="b" d="M375.2492,163.3817c-38.3129-32.94-92.1507-36.2328-135.9429-8.2482-16.5464,10.5735-32.9963,21.2977-49.5242,31.9-2.4452,1.5687-5.0793,2.8428-9.517,5.3V60C146.2424,88.5889,113.7329,115.7022,81.6,143.2541c-2.9076,2.4931-4.7609,7.8-4.7953,11.82q-.6766,79.19-.5487,158.3859A138.0166,138.0166,0,0,0,77.95,334.5216c6.8153,43.9352,44.3125,83.1322,88.0057,90.4784-29.5288-19.0458-49.3774-43.4916-57.8386-76.0839-8.5986-33.1219-3.9553-64.6081,13.744-93.8829,30.8444-51.0165,94.2906-73.6725,151.6543-54.4636,46.6914,15.635,87.8348,66.4432,83.7772,104.8127h-9.7547c-16.8824,0-33.7849-.485-50.6386.2117-8.0353.3322-11.5881-2.319-14.8021-9.6944-12.0168-27.5751-43.9546-39.9922-71.83-28.7891a56.3549,56.3549,0,0,0-31.7831,71.529c8.3981,23.026,30.1732,37.6382,55.01,36.9141a55.268,55.268,0,0,0,51.7573-41.17c1.7691-6.7734,4.4337-8.7648,11.1111-8.617,18.1013.4011,36.2176.0974,54.3277.1448,2.6461.007,5.2911.406,10.7662.8564-5.5963,18.3385-10.78,35.3259-15.857,51.9619,5.6455-6.9318,12.2377-14.1256,17.8054-22.04,13.7329-19.5211,29.4959-38.142,39.9353-59.3442C426.22,250.8769,413.5749,196.3327,375.2492,163.3817Z"/></svg>