<svg xmlns="http://www.w3.org/2000/svg" viewBox="0 0 485 485"><defs><style>.a{fill:#fff;}.b{fill:#c8152d;}</style></defs><circle class="a" cx="242.5" cy="242.5" r="242.5"/><path class="b" d="M400.1634,326.8549c-10.53,17.384-21.99,34.2275-33.6912,50.8589-2.0957,2.9784-6.95,5.68-10.5426,5.6955q-112.0894.49-224.1806-.0139c-3.8809-.0184-9.0018-2.8748-11.4022-6.0368-11.7189-15.4379-22.4781-31.6018-34.0863-47.1281-3.9364-5.265-4.0919-9.4883-1.6412-15.471Q134.11,193.9452,183.125,72.9357c1.118-2.7477,2.508-5.3849,4.6024-9.8432,18.9961,45.9693,37.1777,89.9678,56.2085,136.021,19.0251-46.9409,37.01-91.315,55.8913-137.9015,2.6047,6.2844,4.0882,9.7694,5.5,13.2833,13.8519,34.4868,27.607,69.0129,41.683,103.4077,1.2324,3.0114,4.5045,7.3413,6.9045,7.3906,25.9969.534,52.0089.3336,78.8313.3336C419.2874,105.4411,320.8323,35.8821,232.1433,42.421,126.7923,50.1883,46.4191,132.9765,44.1244,236.0892c-2.2573,101.44,73.7226,190.0749,172.52,202.0894,114.0547,13.87,192.7325-65.2869,211.4845-128.53H402.2121C401.5735,316.0135,402.7549,322.5769,400.1634,326.8549Z"/><path class="b" d="M113.7592,321.7664H225.4936c-18.9342-46.3431-36.9728-90.4954-55.9239-136.88C150.2937,232.1622,132.1463,276.6706,113.7592,321.7664Z"/><path class="b" d="M225.7229,321.7664H337.9586c-18.5932-45.6719-36.7783-90.3413-55.925-137.3731C262.8466,231.2008,244.7559,275.3348,225.7229,321.7664Z"/><path class="b" d="M225.6081,322.0465l.1148-.28h-.2293Z"/><path class="b" d="M429.2665,194.92c-10.1371.3374-20.2936.0914-30.4419.0912-14.4763,0-28.9526,0-43.6263,0-.4542,7.3059,2.5561,9.3887,8.4074,9.3011,13.3166-.2,26.6384-.0559,39.9582-.0538,11.3158.0018,22.6316,0,33.7795,0C438.3726,196.5754,435.2768,194.72,429.2665,194.92Z"/><path class="b" d="M436.8074,233.4528c-22.074-.43-44.1592-.28-66.2416-.28l-1.5057,2.8749c2.6342,2.0821,5.2268,5.9057,7.9094,5.97,20.8732.5,41.7637.2764,62.6489.2764q1.2318-1.3244,2.4637-2.6488C440.3257,237.4877,438.6051,233.4879,436.8074,233.4528Z"/><path class="b" d="M377.4435,252.5205c.6277,6.0748,2.7542,8.9023,9.028,8.75,15.8288-.3834,31.6748-.2793,47.51-.0649,6.3829.0863,7.75-2.7,5.88-8.6855Z"/><path class="b" d="M434.7058,214.7c-23.7465-.3164-47.4986-.2084-71.2493-.2084q-1.0131,1.5431-2.0263,3.0861c2.793,2.0258,5.5478,5.7438,8.3852,5.8081,21.565.4888,43.1478.3728,64.72.0717,1.9242-.0268,3.8115-2.7014,5.716-4.1462C438.4036,217.7046,436.5744,214.7247,434.7058,214.7Z"/><path class="b" d="M385.9025,271.7833q-.8178,1.4083-1.6354,2.817c2.9026,1.9409,5.732,5.4145,8.7206,5.5573,12.9324.6185,25.9127.1558,38.8731.3077,6.4255.0753,7.4259-3.1007,5.8793-8.682Z"/><path class="b" d="M403.6752,299.3454c29.0875.1667,29.087.2656,31.016-8.7889h-41.216C392.8481,298.7739,397.6358,299.3108,403.6752,299.3454Z"/></svg>