<?xml version="1.0" encoding="utf-8"?>
<!-- Generator: Adobe Illustrator 24.1.3, SVG Export Plug-In . SVG Version: 6.00 Build 0)  -->
<svg version="1.1" id="Capa_1" xmlns="http://www.w3.org/2000/svg" xmlns:xlink="http://www.w3.org/1999/xlink" x="0px" y="0px"
	 viewBox="0 0 512 512" style="enable-background:new 0 0 512 512;" xml:space="preserve">
<style type="text/css">
	.st0{fill:url(#SVGID_1_);}
	.st1{fill:url(#SVGID_2_);}
	.st2{fill:url(#SVGID_3_);}
	.st3{fill:url(#SVGID_4_);}
	.st4{fill:url(#SVGID_5_);}
</style>
<g>
	<g>
		<linearGradient id="SVGID_1_" gradientUnits="userSpaceOnUse" x1="467.1555" y1="477.3672" x2="44.8444" y2="55.0561">
			<stop  offset="0" style="stop-color:#46AEF7"/>
			<stop  offset="1" style="stop-color:#1DD5E6"/>
		</linearGradient>
		<path class="st0" d="M478.5,80.2H375.3C351.7,38.7,307.1,10.6,256,10.6s-95.7,28.1-119.3,69.6H33.5C15,80.2,0,95.3,0,113.8v304.8
			c0,18.5,15,33.6,33.5,33.6h165v29.2h-86.1c-5.5,0-10,4.5-10,10c0,5.5,4.5,10,10,10h287.2c5.5,0,10-4.5,10-10c0-5.5-4.5-10-10-10
			h-86.1v-29.2h165c18.5,0,33.5-15.1,33.5-33.6V113.8C512,95.3,497,80.2,478.5,80.2L478.5,80.2z M256,30.6c64.5,0,117,52.5,117,117
			c0,53.9-36.5,100.6-88.7,113.6c-2,0.5-3.8,1.6-5.1,3.1L256,291l-23.2-26.6c-1.3-1.5-3.1-2.6-5.1-3.1
			c-52.2-13-88.7-59.7-88.7-113.6C139,83.1,191.5,30.6,256,30.6L256,30.6z M293.5,481.4h-75v-29.2h75V481.4z M478.5,432.2h-445
			c-7.4,0-13.5-6.1-13.5-13.6v-49.2h309.3c5.5,0,10-4.5,10-10s-4.5-10-10-10H20V113.8c0-7.5,6.1-13.6,13.5-13.6h93.9
			c-5.5,14.8-8.5,30.8-8.5,47.4c0,62,41.3,115.9,100.8,132.2l28.7,33c1.9,2.2,4.6,3.4,7.5,3.4s5.6-1.3,7.5-3.4l28.7-33
			C351.8,263.6,393,209.7,393,147.7c0-16.7-3-32.6-8.5-47.4h93.9c7.4,0,13.5,6.1,13.5,13.6v235.6h-72.3c-5.5,0-10,4.5-10,10
			s4.5,10,10,10H492v49.2C492,426.1,485.9,432.2,478.5,432.2L478.5,432.2z"/>
		<linearGradient id="SVGID_2_" gradientUnits="userSpaceOnUse" x1="271.7552" y1="416.5547" x2="240.2458" y2="385.0453">
			<stop  offset="0" style="stop-color:#46AEF7"/>
			<stop  offset="1" style="stop-color:#1DD5E6"/>
		</linearGradient>
		<path class="st1" d="M273.4,390.8h-34.7c-5.5,0-10,4.5-10,10s4.5,10,10,10h34.7c5.5,0,10-4.5,10-10S278.9,390.8,273.4,390.8z"/>
		<linearGradient id="SVGID_3_" gradientUnits="userSpaceOnUse" x1="286.4672" y1="226.8329" x2="225.5325" y2="165.8982">
			<stop  offset="0" style="stop-color:#46AEF7"/>
			<stop  offset="1" style="stop-color:#1DD5E6"/>
		</linearGradient>
		<path class="st2" d="M256,244.2c17.4,0,31.6-14.2,31.6-31.6v-32.6c0-17.4-14.2-31.6-31.6-31.6c-17.4,0-31.6,14.2-31.6,31.6v32.6
			C224.4,230.1,238.6,244.2,256,244.2z M244.4,180.1c0-6.4,5.2-11.6,11.6-11.6s11.6,5.2,11.6,11.6v32.6c0,6.4-5.2,11.6-11.6,11.6
			s-11.6-5.2-11.6-11.6L244.4,180.1z"/>
		<linearGradient id="SVGID_4_" gradientUnits="userSpaceOnUse" x1="278.3232" y1="116.5118" x2="233.6765" y2="71.8652">
			<stop  offset="0" style="stop-color:#46AEF7"/>
			<stop  offset="1" style="stop-color:#1DD5E6"/>
		</linearGradient>
		<path class="st3" d="M256,125.8c17.4,0,31.6-14.2,31.6-31.6S273.4,62.6,256,62.6c-17.4,0-31.6,14.2-31.6,31.6
			S238.6,125.8,256,125.8z M256,82.6c6.4,0,11.6,5.2,11.6,11.6s-5.2,11.6-11.6,11.6s-11.6-5.2-11.6-11.6S249.6,82.6,256,82.6
			L256,82.6z"/>
		<linearGradient id="SVGID_5_" gradientUnits="userSpaceOnUse" x1="381.7796" y1="366.485" x2="367.6519" y2="352.3573">
			<stop  offset="0" style="stop-color:#46AEF7"/>
			<stop  offset="1" style="stop-color:#1DD5E6"/>
		</linearGradient>
		<path class="st4" d="M384,355.6c-1.6-3.9-5.7-6.5-9.9-6.1c-4.1,0.3-7.6,3.1-8.8,7c-1.2,3.9,0.2,8.4,3.5,10.9
			c3.4,2.6,8.1,2.7,11.6,0.4C384.2,365.1,385.7,359.9,384,355.6L384,355.6z"/>
	</g>
</g>
</svg>
