<?xml version="1.0" encoding="utf-8"?>
<!-- Generator: Adobe Illustrator 24.1.3, SVG Export Plug-In . SVG Version: 6.00 Build 0)  -->
<svg version="1.1" id="Layer_1" xmlns="http://www.w3.org/2000/svg" xmlns:xlink="http://www.w3.org/1999/xlink" x="0px" y="0px"
	 viewBox="0 0 512 512" style="enable-background:new 0 0 512 512;" xml:space="preserve">
<style type="text/css">
	.st0{fill:url(#SVGID_1_);}
</style>
<linearGradient id="SVGID_1_" gradientUnits="userSpaceOnUse" x1="494.4125" y1="494.4125" x2="17.5875" y2="17.5875">
	<stop  offset="0" style="stop-color:#46AEF7"/>
	<stop  offset="1" style="stop-color:#1DD5E6"/>
</linearGradient>
<path class="st0" d="M0,119V60C0,26.9,26.9,0,60,0h61c11,0,20,9,20,20s-9,20-20,20H60c-11,0-20,9-20,20v59c0,11-9,20-20,20
	S0,130,0,119z M452,0h-61c-11,0-20,9-20,20s9,20,20,20h61c11,0,20,9,20,20v59c0,11,9,20,20,20s20-9,20-20V60C512,26.9,485.1,0,452,0
	z M121,472H60c-11,0-20-9-20-20v-59c0-11-9-20-20-20s-20,9-20,20v59c0,33.1,26.9,60,60,60h61c11,0,20-9,20-20S132,472,121,472z
	 M492,373c-11,0-20,9-20,20v59c0,11-9,20-20,20h-61c-11,0-20,9-20,20s9,20,20,20h61c33.1,0,60-26.9,60-60v-59
	C512,382,503,373,492,373z M112.2,317.2v41.2c0,23.4,19.1,42.4,42.4,42.4h41.2L225,430c8,8,18.8,12.5,30,12.5c11.2,0,22-4.5,30-12.5
	l29.2-29.2h41.2c23.4,0,42.4-19.1,42.4-42.4v-41.2L427,288c8-8,12.5-18.8,12.5-30c0-11.2-4.5-22-12.5-30l-29.2-29.2v-41.2
	c0-23.4-19.1-42.4-42.4-42.4h-41.2L285,86c-16-16-44-16-60,0l-29.2,29.2h-41.2c-23.4,0-42.4,19.1-42.4,42.4v41.2L83,228.1
	c-8,8-12.5,18.8-12.5,30c0,11.2,4.5,22,12.5,30L112.2,317.2z M255,165.8c12.3,0,24.1,2.3,35.1,6.6c4.5,1.8,7.2,6.1,7.2,10.8
	c0,4.8-2.9,9.1-7.4,10.8c-24.3,9.5-50.3,31.4-50.3,64.1s26,54.6,50.3,64.1c4.5,1.7,7.4,6,7.4,10.8c0,4.6-2.8,8.9-7.2,10.8
	c-10.9,4.3-22.8,6.6-35.1,6.6c-53.5,0-92.3-38.7-92.3-92.3C162.8,204.5,201.5,165.8,255,165.8z"/>
</svg>
