<?xml version="1.0" encoding="utf-8"?>
<!-- Generator: Adobe Illustrator 24.1.3, SVG Export Plug-In . SVG Version: 6.00 Build 0)  -->
<svg version="1.1" id="Capa_1" xmlns="http://www.w3.org/2000/svg" xmlns:xlink="http://www.w3.org/1999/xlink" x="0px" y="0px"
	 viewBox="0 0 512 512" style="enable-background:new 0 0 512 512;" xml:space="preserve">
<style type="text/css">
	.st0{fill:url(#SVGID_1_);}
	.st1{fill:url(#SVGID_2_);}
	.st2{fill:url(#SVGID_3_);}
	.st3{fill:url(#SVGID_4_);}
	.st4{fill:url(#SVGID_5_);}
</style>
<g>
	<g>
		<g>
			<linearGradient id="SVGID_1_" gradientUnits="userSpaceOnUse" x1="384.1421" y1="360.1421" x2="355.8579" y2="331.8579">
				<stop  offset="0" style="stop-color:#46AEF7"/>
				<stop  offset="1" style="stop-color:#1DD5E6"/>
			</linearGradient>
			<circle class="st0" cx="370" cy="346" r="20"/>
			<linearGradient id="SVGID_2_" gradientUnits="userSpaceOnUse" x1="440.8564" y1="504.2275" x2="71.1066" y2="134.4777">
				<stop  offset="0" style="stop-color:#46AEF7"/>
				<stop  offset="1" style="stop-color:#1DD5E6"/>
			</linearGradient>
			<path class="st1" d="M460,362c11,0,20-9,20-20v-74c0-44.1-35.9-80-80-80h-24v-70.5C376,52.7,322.1,0,256,0S136,52.7,136,117.5
				V188h-24c-44.1,0-80,35.9-80,80v164c0,44.1,35.9,80,80,80h288c44.1,0,80-35.9,80-80c0-11-9-20-20-20s-20,9-20,20
				c0,22.1-17.9,40-40,40H112c-22.1,0-40-17.9-40-40V268c0-22.1,17.9-40,40-40h288c22.1,0,40,17.9,40,40v74C440,353,449,362,460,362
				z M336,188H176v-70.5c0-42.7,35.9-77.5,80-77.5s80,34.8,80,77.5V188z"/>
			<linearGradient id="SVGID_3_" gradientUnits="userSpaceOnUse" x1="233.1421" y1="360.1421" x2="204.8579" y2="331.8579">
				<stop  offset="0" style="stop-color:#46AEF7"/>
				<stop  offset="1" style="stop-color:#1DD5E6"/>
			</linearGradient>
			<circle class="st2" cx="219" cy="346" r="20"/>
			<linearGradient id="SVGID_4_" gradientUnits="userSpaceOnUse" x1="158.1421" y1="360.1421" x2="129.8579" y2="331.8579">
				<stop  offset="0" style="stop-color:#46AEF7"/>
				<stop  offset="1" style="stop-color:#1DD5E6"/>
			</linearGradient>
			<circle class="st3" cx="144" cy="346" r="20"/>
			<linearGradient id="SVGID_5_" gradientUnits="userSpaceOnUse" x1="308.1421" y1="360.1421" x2="279.8579" y2="331.8579">
				<stop  offset="0" style="stop-color:#46AEF7"/>
				<stop  offset="1" style="stop-color:#1DD5E6"/>
			</linearGradient>
			<circle class="st4" cx="294" cy="346" r="20"/>
		</g>
	</g>
</g>
</svg>
