<?xml version="1.0" encoding="UTF-8" standalone="no"?>
<svg width="222px" height="60px" viewBox="0 0 222 60" version="1.1" xmlns="http://www.w3.org/2000/svg" xmlns:xlink="http://www.w3.org/1999/xlink">
    <!-- Generator: sketchtool 39.1 (31720) - http://www.bohemiancoding.com/sketch -->
    <title>5AFF168C-E8C1-4787-85FE-0A32204139D9</title>
    <desc>Created with sketchtool.</desc>
    <defs></defs>
    <g id="Home" stroke="none" stroke-width="1" fill="none" fill-rule="evenodd">
        <g id="Home---1440px" transform="translate(-270.000000, -1951.000000)">
            <g id="Footer" transform="translate(0.000000, 1542.000000)">
                <g id="GC-logo-grey" transform="translate(270.000000, 409.000000)">
                    <g id="Layer_1">
                        <g>
                            <g id="Group">
                                <path d="M23.3015267,25.6285714 C20.6324427,26.5714286 17.7938931,27.0428571 14.1927481,27.0428571 C6.60916031,27.0428571 0.127099237,22.0285714 0.127099237,14.4 C0.127099237,5.87142857 6.10076336,0.0857142857 15.0400763,0.0857142857 C18.3870229,0.0857142857 21.0561069,0.728571429 23.2591603,1.71428571 L21.8187023,5.74285714 C21.0984733,5.1 18.7259542,3.64285714 14.7858779,3.64285714 C8.60038168,3.64285714 5.12633588,7.54285714 5.12633588,13.5428571 C5.12633588,19.8857143 9.53244275,23.7 14.4045802,23.7 C16.1416031,23.7 17.370229,23.5285714 18.3870229,23.1857143 C18.5564885,21.7714286 18.5564885,19.1142857 18.5564885,17.7857143 C18.5564885,16.0714286 18.5564885,14.7 18.3870229,13.4571429 L23.3862595,13.4571429 C23.3015267,14.9571429 23.3015267,16.7571429 23.3015267,18.5571429 C23.3015267,20.4857143 23.3015267,23.5285714 23.3862595,25.5857143 L23.3015267,25.6285714" id="Shape" fill="#A1A1A1"></path>
                                <path d="M0.127099237,47.2285714 C0.127099237,38.4 6.52442748,33 14.4469466,33 C17.7938931,33 19.9969466,33.3857143 22.0729008,34.3714286 L20.5477099,38.5714286 C19.8698473,37.6285714 17.6667939,36.4285714 14.489313,36.4285714 C9.06641221,36.4285714 5.2110687,40.1142857 5.2110687,46.4142857 C5.2110687,52.4142857 9.23587786,56.3571429 14.489313,56.3571429 C16.9465649,56.3571429 18.8954198,55.8428571 20.8019084,54.6 L22.2,57.9428571 C19.7003817,59.3571429 17.2007634,59.8714286 13.7267176,59.8714286 C6.01603053,59.8714286 0.127099237,54.7285714 0.127099237,47.2285714" id="Shape" fill="#525051"></path>
                                <path d="M36.0538168,33.0428571 C28.3007634,33.0428571 22.3694656,38.5285714 22.3694656,46.8857143 C22.3694656,54.7285714 27.9194656,59.9142857 36.0538168,59.9142857 C43.679771,59.9142857 49.6958015,54.5142857 49.6958015,46.1142857 C49.6958015,38.2285714 44.1881679,33.0428571 36.0538168,33.0428571 L36.0538168,33.0428571 Z M36.0538168,56.4857143 C30.8427481,56.4857143 27.5805344,52.4142857 27.5805344,46.4571429 C27.5805344,40.5 30.7580153,36.4714286 36.0538168,36.4714286 C41.0530534,36.4714286 44.5270992,40.4142857 44.5270992,46.4571429 C44.5270992,52.4571429 41.1377863,56.4857143 36.0538168,56.4857143 L36.0538168,56.4857143 Z" id="Shape" fill="#525051"></path>
                                <path d="M40.6293893,0.342857143 L36.1385496,0.342857143 C32.7916031,8.14285714 27.5805344,20.2714286 24.5301527,26.7 L29.2751908,26.7 C29.5293893,25.8857143 30.0801527,24.6857143 30.4614504,23.7428571 C31.0969466,22.4571429 31.6900763,20.8714286 32.2408397,19.4142857 L42.8324427,19.4142857 C43.3408397,20.8714286 43.9763359,22.3714286 44.5270992,23.7857143 C44.9083969,24.7714286 45.2473282,25.7571429 45.5862595,26.7 L51.0515267,26.7 C47.4927481,18.6 43.2984733,7.75714286 40.6293893,0.342857143 L40.6293893,0.342857143 Z M33.5965649,15.8571429 C34.1049618,14.5714286 34.7828244,13.1142857 35.2912214,11.7857143 C36.2656489,9.38571429 37.1977099,7.15714286 37.9179389,5.14285714 C39.0194656,8.48571429 40.2480916,12.0857143 41.7732824,15.8571429 L33.5965649,15.8571429 L33.5965649,15.8571429 Z" id="Shape" fill="#A1A1A1"></path>
                                <path d="M75.4545802,59.4857143 C75.4545802,52.5857143 75.2427481,45.3857143 74.9038168,39.2142857 C74.4801527,40.4571429 73.9717557,41.8285714 73.378626,43.5 C71.5568702,48.5142857 69.269084,55.0714286 67.6167939,59.4857143 L63.2530534,59.4857143 C61.0076336,52.8428571 58.2961832,44.7 56.5591603,39.2142857 C55.9236641,45.3 55.2881679,52.7142857 55.0339695,59.4857143 L50.6278626,59.4857143 C51.898855,50.5714286 52.5343511,42.2571429 52.8732824,33.4285714 L58.8045802,33.4285714 C60.0332061,37.7571429 61.7278626,42.4714286 63.3377863,47.0142857 C64.3122137,49.7571429 65.2019084,52.1571429 65.9221374,54.5571429 C68.3370229,48.4714286 71.2603053,40.0285714 73.5480916,33.4285714 L79.2251908,33.4285714 C79.2251908,40.9285714 79.860687,50.9142857 80.6232824,59.4857143 L75.4545802,59.4857143" id="Shape" fill="#525051"></path>
                                <path d="M76.8950382,26.6571429 C76.8950382,19.7571429 76.6832061,12.5571429 76.3442748,6.34285714 C75.8782443,7.58571429 75.3698473,9 74.7343511,10.6714286 C72.9973282,15.6 70.6671756,22.2428571 69.0148855,26.6571429 L64.651145,26.6571429 C62.4057252,20.0142857 59.6942748,11.8714286 57.9572519,6.34285714 C57.2793893,12.4714286 56.6015267,19.8857143 56.4320611,26.6571429 L52.0259542,26.6571429 C53.2969466,17.7428571 53.9324427,9.42857143 54.271374,0.557142857 L60.2026718,0.557142857 C61.4312977,4.84285714 63.1259542,9.6 64.7358779,14.1 C65.6679389,16.8428571 66.5576336,19.2857143 67.320229,21.6857143 C69.7351145,15.5571429 72.6583969,7.11428571 74.9038168,0.557142857 L80.6232824,0.557142857 C80.6232824,8.01428571 81.2587786,18.0428571 82.021374,26.6571429 L76.8950382,26.6571429" id="Shape" fill="#A1A1A1"></path>
                                <path d="M107.314122,59.4857143 C107.314122,52.5857143 107.10229,45.3857143 106.763359,39.2142857 C106.297328,40.4571429 105.788931,41.8285714 105.153435,43.5 C103.374046,48.5142857 101.08626,55.0714286 99.4339695,59.4857143 L95.0278626,59.4857143 C92.7400763,52.8428571 90.1557252,44.7 88.3763359,39.2142857 C87.6984733,45.3 87.0206107,52.7142857 86.7664122,59.4857143 L82.4026718,59.4857143 C83.6736641,50.5714286 84.2667939,42.2571429 84.6057252,33.4285714 L90.5793893,33.4285714 C91.8080153,37.7571429 93.4603053,42.4714286 95.070229,47.0142857 C96.0446565,49.7571429 96.9343511,52.1571429 97.6969466,54.5571429 C100.111832,48.4714286 102.992748,40.0285714 105.280534,33.4285714 L110.957634,33.4285714 C110.957634,40.9285714 111.59313,50.9142857 112.355725,59.4857143 L107.314122,59.4857143" id="Shape" fill="#525051"></path>
                                <path d="M98.1629771,12.6 C100.832061,11.8285714 102.908015,9.42857143 102.908015,6.94285714 C102.908015,3 99.2221374,0.6 92.909542,0.6 L84.9870229,0.6 C85.2412214,5.7 85.2412214,8.78571429 85.2412214,13.9714286 C85.2412214,18.8571429 85.2412214,21.8142857 84.9870229,26.6571429 L92.9942748,26.6571429 C100.366031,26.6571429 104.009542,23.9142857 104.009542,18.8571429 C104.051908,15.7285714 101.764122,13.4142857 98.1629771,12.6 L98.1629771,12.6 Z M89.9015267,4.02857143 C90.5793893,3.85714286 91.5961832,3.85714286 92.3587786,3.85714286 C96.5954198,3.85714286 98.2900763,5.22857143 98.2900763,7.58571429 C98.2900763,10.0714286 96.3412214,11.4428571 92.2316794,11.4428571 L89.8167939,11.4428571 C89.7744275,8.82857143 89.7744275,6.21428571 89.9015267,4.02857143 L89.9015267,4.02857143 Z M92.4435115,23.2285714 L89.8591603,23.2285714 C89.7744275,20.3571429 89.7744275,17.7428571 89.7744275,14.8285714 L92.3587786,14.8285714 C97.1038168,14.8285714 99.3068702,16.2428571 99.3068702,18.9857143 C99.3068702,21.6857143 97.6122137,23.2285714 92.4435115,23.2285714 L92.4435115,23.2285714 Z" id="Shape" fill="#A1A1A1"></path>
                                <path d="M111.169466,20.0571429 C111.169466,21.0857143 111.211832,22.0714286 111.211832,23.1428571 C115.109542,23.1428571 120.108779,23.1428571 122.777863,22.9714286 L121.422137,26.6571429 L106.339695,26.6571429 C106.593893,21.8142857 106.593893,18.8571429 106.593893,13.9714286 C106.593893,8.74285714 106.593893,5.7 106.339695,0.6 L111.338931,0.6 C111.296565,2.35714286 111.296565,3.94285714 111.254198,5.27142857 C111.211832,7.8 111.084733,10.7571429 111.084733,13.9714286 C111.084733,16.2857143 111.127099,18.1285714 111.169466,20.0571429" id="Shape" fill="#A1A1A1"></path>
                                <path d="M115.194275,59.4857143 C115.448473,54.8142857 115.448473,51.7285714 115.448473,46.8857143 C115.448473,41.5714286 115.448473,38.5714286 115.194275,33.3857143 L120.193511,33.3857143 C119.939313,38.5285714 119.939313,41.5714286 119.939313,46.8857143 C119.939313,51.7285714 119.939313,54.8142857 120.193511,59.4857143 L115.194275,59.4857143" id="Shape" fill="#525051"></path>
                                <path d="M138.877099,38.2714286 C137.733206,37.2857143 135.91145,36.3428571 133.327099,36.3428571 C130.191985,36.3428571 128.624427,37.7142857 128.624427,39.5571429 C128.624427,41.1 129.344656,42.2142857 132.691603,43.6714286 C133.496565,44.0142857 134.428626,44.4428571 135.275954,44.8285714 C139.258397,46.6714286 140.868321,48.6428571 140.868321,52.2 C140.868321,57.2571429 136.801145,59.8714286 131.378244,59.8714286 C128.200763,59.8714286 125.362214,59.3571429 122.904962,58.2 L124.34542,54.3857143 C126.294275,55.6714286 128.83626,56.5714286 131.293511,56.5714286 C134.809924,56.5714286 136.03855,54.9 136.03855,52.8857143 C136.03855,51 134.767557,49.8 132.14084,48.6 C131.251145,48.1714286 130.022519,47.6142857 129.132824,47.2285714 C125.574046,45.5571429 123.837023,43.5857143 123.837023,40.2428571 C123.837023,36.0857143 127.607634,32.9571429 133.369466,32.9571429 C136.546947,32.9571429 138.834733,33.4714286 140.40229,34.3285714 L138.877099,38.2714286" id="Shape" fill="#525051"></path>
                                <path d="M124.769084,26.6571429 C125.023282,21.8142857 125.023282,18.8571429 125.023282,13.9714286 C125.023282,8.74285714 125.023282,5.7 124.769084,0.6 L129.768321,0.6 C129.768321,1.84285714 129.725954,3.04285714 129.725954,4.07142857 C129.683588,7.37142857 129.556489,9.98571429 129.556489,13.9714286 C129.556489,17.6571429 129.641221,20.2285714 129.725954,23.3571429 C129.725954,24.3428571 129.768321,25.5 129.768321,26.7 L124.769084,26.7" id="Shape" fill="#A1A1A1"></path>
                                <path d="M155.145802,0.6 C154.976336,5.7 154.976336,8.78571429 154.976336,13.9714286 C154.976336,18.8571429 154.976336,21.8142857 155.145802,26.6571429 L150.654962,26.6571429 C145.994656,19.3714286 140.783588,11.5285714 137.09771,6.34285714 C137.09771,15.0857143 137.09771,19.7571429 137.351908,26.6571429 L132.818702,26.6571429 C133.072901,21.8142857 133.072901,18.8571429 133.072901,13.9714286 C133.072901,8.74285714 133.072901,5.7 132.818702,0.6 L138.029771,0.6 C143.029008,7.37142857 147.901145,14.4857143 150.951527,19.2428571 C150.951527,11.5285714 150.951527,6.72857143 150.697328,0.6 L155.145802,0.6" id="Shape" fill="#A1A1A1"></path>
                                <path d="M157.772519,38.2714286 C156.58626,37.2857143 154.80687,36.3428571 152.222519,36.3428571 C149.087405,36.3428571 147.477481,37.7142857 147.477481,39.5571429 C147.477481,41.1 148.240076,42.2142857 151.587023,43.6714286 C152.434351,44.0142857 153.324046,44.4428571 154.171374,44.8285714 C158.11145,46.6714286 159.76374,48.6428571 159.76374,52.2 C159.76374,57.2571429 155.696565,59.8714286 150.316031,59.8714286 C147.053817,59.8714286 144.3,59.3571429 141.842748,58.2 L143.283206,54.3857143 C145.232061,55.6714286 147.689313,56.5714286 150.231298,56.5714286 C153.74771,56.5714286 154.976336,54.9 154.976336,52.8857143 C154.976336,51 153.705344,49.8 151.078626,48.6 C150.188931,48.1714286 148.960305,47.6142857 148.070611,47.2285714 C144.511832,45.5571429 142.774809,43.5857143 142.774809,40.2428571 C142.774809,36.0857143 146.54542,32.9571429 152.307252,32.9571429 C155.484733,32.9571429 157.772519,33.4714286 159.340076,34.3285714 L157.772519,38.2714286" id="Shape" fill="#525051"></path>
                                <path d="M180.777481,25.6285714 C178.108397,26.5714286 175.227481,27.0428571 171.668702,27.0428571 C164.085115,27.0428571 157.560687,22.0285714 157.560687,14.4 C157.560687,5.87142857 163.576718,0.0857142857 172.558397,0.0857142857 C175.862977,0.0857142857 178.574427,0.728571429 180.777481,1.71428571 L179.337023,5.65714286 C178.235496,4.54285714 175.312214,3.6 172.431298,3.6 C166.033969,3.6 162.60229,7.5 162.60229,13.5 C162.60229,19.8428571 166.966031,23.6571429 171.880534,23.6571429 C173.617557,23.6571429 174.803817,23.4857143 175.778244,23.1428571 C175.94771,21.7285714 175.94771,19.0714286 175.94771,17.7428571 C175.94771,16.0285714 175.94771,14.6571429 175.778244,13.4142857 L180.819847,13.4142857 C180.735115,14.9142857 180.735115,16.7142857 180.735115,18.5142857 C180.735115,20.4428571 180.735115,23.4857143 180.819847,25.5428571 L180.777481,25.6285714" id="Shape" fill="#A1A1A1"></path>
                                <path d="M162.348092,59.4857143 C162.60229,54.8142857 162.60229,51.7285714 162.60229,46.8857143 C162.60229,41.5714286 162.60229,38.5714286 162.348092,33.3857143 L167.347328,33.3857143 C167.09313,38.5285714 167.09313,41.5714286 167.09313,46.8857143 C167.09313,51.7285714 167.09313,54.8142857 167.347328,59.4857143 L162.348092,59.4857143" id="Shape" fill="#525051"></path>
                                <path d="M183.361832,33.0428571 C175.608779,33.0428571 169.719847,38.5285714 169.719847,46.8857143 C169.719847,54.7285714 175.227481,59.9142857 183.361832,59.9142857 C191.072519,59.9142857 197.046183,54.5142857 197.046183,46.1142857 C197.046183,38.2285714 191.53855,33.0428571 183.361832,33.0428571 L183.361832,33.0428571 Z M183.361832,56.4857143 C178.277863,56.4857143 174.88855,52.4142857 174.88855,46.4571429 C174.88855,40.5 178.150763,36.4714286 183.361832,36.4714286 C188.403435,36.4714286 191.919847,40.4142857 191.919847,46.4571429 C191.877481,52.4571429 188.488168,56.4857143 183.361832,56.4857143 L183.361832,56.4857143 Z" id="Shape" fill="#525051"></path>
                                <path d="M221.618702,33.3857143 C221.449237,38.5285714 221.449237,41.5714286 221.449237,46.8857143 C221.449237,51.7285714 221.449237,54.8142857 221.618702,59.4857143 L217.297328,59.4857143 C212.467557,52.2 207.298855,44.3571429 203.612977,39.2142857 C203.612977,47.9571429 203.612977,52.7571429 203.867176,59.4857143 L199.503435,59.4857143 L199.503435,58.7571429 C199.545802,56.4857143 199.757634,51.2142857 199.757634,46.8857143 C199.757634,41.5714286 199.588168,36 199.503435,33.3857143 L204.587405,33.3857143 C209.671374,40.2428571 214.416412,47.4 217.50916,52.1142857 C217.50916,44.5714286 217.50916,39.5571429 217.254962,33.3857143 L221.618702,33.3857143" id="Shape" fill="#525051"></path>
                            </g>
                        </g>
                    </g>
                </g>
            </g>
        </g>
    </g>
</svg>