<svg xmlns:dc="http://purl.org/dc/elements/1.1/" xmlns:cc="http://creativecommons.org/ns#" xmlns:rdf="http://www.w3.org/1999/02/22-rdf-syntax-ns#" xmlns:svg="http://www.w3.org/2000/svg" xmlns="http://www.w3.org/2000/svg" xmlns:sodipodi="http://sodipodi.sourceforge.net/DTD/sodipodi-0.dtd" xmlns:inkscape="http://www.inkscape.org/namespaces/inkscape" width="490" height="490" viewBox="0 0 490.00001 490" id="svg2" version="1.1" inkscape:version="0.91 r13725" sodipodi:docname="Philippine Amusement and Gaming Corporation (PAGCOR).svg">
  <defs id="defs4"/>
  <sodipodi:namedview id="base" pagecolor="#ffffff" bordercolor="#666666" borderopacity="1.0" inkscape:pageopacity="0.0" inkscape:pageshadow="2" inkscape:zoom="0.51044271" inkscape:cx="299.97016" inkscape:cy="362.94432" inkscape:document-units="px" inkscape:current-layer="layer1" showgrid="false" fit-margin-top="0" fit-margin-left="0" fit-margin-right="0" fit-margin-bottom="0" units="px" inkscape:window-width="1366" inkscape:window-height="705" inkscape:window-x="-4" inkscape:window-y="-4" inkscape:window-maximized="1"/>
  <metadata id="metadata7">
    <rdf:RDF>
      <cc:Work rdf:about="">
        <dc:format>image/svg+xml</dc:format>
        <dc:type rdf:resource="http://purl.org/dc/dcmitype/StillImage"/>
        <dc:title/>
      </cc:Work>
    </rdf:RDF>
  </metadata>
  <g inkscape:label="Layer 1" inkscape:groupmode="layer" id="layer1" transform="translate(-21.898213,-238.82648)">
    <g id="g4438" transform="matrix(0.701116,0,0,0.6965136,6.5450255,221.18892)">
      <path sodipodi:nodetypes="cccsccccccccccccccccccccccc" inkscape:connector-curvature="0" id="path4158" d="m 371.70553,581.2944 c -16.26731,-97.12315 11.8165,-185.45052 -121.1877,-78.70007 l 42.46662,-71.19504 c 0,0 -71.60799,11.19811 -70.62845,10.95322 0.97954,-0.24489 56.81343,-44.81404 56.81343,-44.81404 l -82.77129,-18.6113 83.27846,-18.75474 -57.56548,-42.95639 72.15718,9.95627 -43.50558,-70.1981 69.46344,42.77093 -9.71139,-69.70833 44.32427,53.8748 16.16244,-113.62685 17.63175,114.11662 42.36519,-53.38503 -6.85679,67.58839 68.56793,-42.61007 -43.09985,69.79236 68.81282,-8.57099 -53.38503,41.63053 78.11846,18.85618 -79.83266,18.85618 54.11969,41.63053 -67.3435,-7.36397 44.32426,71.27907 C 357.53517,397.50602 390.268,484.03169 371.70553,581.2944 Z" style="fill:#fcd116;fill-opacity:1;fill-rule:evenodd;stroke:none;stroke-width:0.30000001;stroke-linecap:butt;stroke-linejoin:miter;stroke-miterlimit:4;stroke-dasharray:none;stroke-opacity:1"/>
      <path sodipodi:nodetypes="ssscccsccs" inkscape:connector-curvature="0" id="path4334" d="m 392.5514,484.7177 c -1.11401,-8.56079 8.28768,-17.43594 16.40734,-18.12153 7.23995,-0.61131 14.34714,5.45483 17.13193,13.47637 11.44805,32.97587 29.84405,86.35287 29.84405,86.35287 l 177.50716,-0.77667 c 50.46849,-72.2678 66.65197,-142.88404 56.56133,-225.05696 -0.98649,-6.74804 2.80492,-15.76028 12.06602,-16.83047 12.10783,-1.39915 14.97877,14.57157 15.73209,20.90229 25.60531,191.16671 -117.11163,364.82509 -295.12901,383.47025 0,0 -20.75347,-171.43044 -30.12091,-243.41615 z" style="fill:#006c35;fill-opacity:1;fill-rule:evenodd;stroke:none;stroke-width:0.30000001;stroke-linecap:butt;stroke-linejoin:miter;stroke-miterlimit:4;stroke-dasharray:none;stroke-opacity:1"/>
      <path sodipodi:nodetypes="cscccc" inkscape:connector-curvature="0" id="path4336" d="m 675.32467,346.90766 c -1.21342,-5.45571 -2.685,-18.12643 -15.23809,-17.31602 -12.72226,0.82133 -12.64865,14.45346 -11.77489,20.77923 7.07721,83.75622 -7.32622,128.66741 -51.08225,194.99133 l 35.15151,0 c 37.7313,-66.09876 51.55566,-129.81711 42.94372,-198.45454 z" style="fill:#006c35;fill-opacity:1;fill-rule:evenodd;stroke:none;stroke-width:0.30000001;stroke-linecap:butt;stroke-linejoin:miter;stroke-miterlimit:4;stroke-dasharray:none;stroke-opacity:1"/>
      <path sodipodi:nodetypes="cscccc" inkscape:connector-curvature="0" id="path4336-7" d="m 631.73507,354.25422 c -1.21342,-5.45571 -2.685,-18.12643 -15.23809,-17.31602 -12.72226,0.82133 -12.64865,14.45346 -11.77489,20.77923 2.92137,86.52678 -11.44397,124.42754 -64.82736,187.64477 l 38.40856,0 c 43.60855,-63.64991 62.04372,-122.47055 53.43178,-191.10798 z" style="fill:#006c35;fill-opacity:1;fill-rule:evenodd;stroke:none;stroke-width:0.30000001;stroke-linecap:butt;stroke-linejoin:miter;stroke-miterlimit:4;stroke-dasharray:none;stroke-opacity:1"/>
      <path sodipodi:nodetypes="cscccc" inkscape:connector-curvature="0" id="path4336-0" d="m 586.64759,361.01062 c -1.21342,-5.45571 -2.685,-18.12643 -15.23809,-17.31602 -12.72226,0.82133 -12.64865,14.45346 -11.77489,20.77923 7.07721,83.75622 -34.16605,147.11857 -93.16017,180.88837 l 51.86146,0 c 53.66204,-56.40179 76.92363,-115.71415 68.31169,-184.35158 z" style="fill:#006c35;fill-opacity:1;fill-rule:evenodd;stroke:none;stroke-width:0.30000001;stroke-linecap:butt;stroke-linejoin:miter;stroke-miterlimit:4;stroke-dasharray:none;stroke-opacity:1"/>
      <path sodipodi:nodetypes="ssscccsccs" inkscape:connector-curvature="0" id="path4334-6" d="m 350.1308,485.41033 c 1.11401,-8.56079 -8.28768,-17.43594 -16.40733,-18.12153 -7.23995,-0.61131 -14.34714,5.45483 -17.13193,13.47637 -11.44805,32.97587 -29.84405,86.35287 -29.84405,86.35287 L 109.24032,566.34137 C 58.771829,494.07357 42.588349,423.45734 52.678989,341.28442 c 0.98649,-6.74804 -2.80492,-15.76028 -12.06602,-16.83047 -12.10783,-1.39915 -14.97877,14.57157 -15.73209,20.90229 -25.60530956,191.1667 117.111631,364.82508 295.129021,383.47024 0,0 20.75346,-171.43044 30.1209,-243.41615 z" style="fill:#006c35;fill-opacity:1;fill-rule:evenodd;stroke:none;stroke-width:0.30000001;stroke-linecap:butt;stroke-linejoin:miter;stroke-miterlimit:4;stroke-dasharray:none;stroke-opacity:1"/>
      <path sodipodi:nodetypes="cscccc" inkscape:connector-curvature="0" id="path4336-8" d="m 67.357529,347.6003 c 1.21342,-5.45571 2.685,-18.12643 15.23809,-17.31602 12.72226,0.82133 12.64865,14.45346 11.77489,20.77923 -7.07721,83.75621 7.326221,128.6674 51.082251,194.99132 l -35.15151,0 C 72.569949,479.95607 58.745589,416.23773 67.357529,347.6003 Z" style="fill:#006c35;fill-opacity:1;fill-rule:evenodd;stroke:none;stroke-width:0.30000001;stroke-linecap:butt;stroke-linejoin:miter;stroke-miterlimit:4;stroke-dasharray:none;stroke-opacity:1"/>
      <path sodipodi:nodetypes="cscccc" inkscape:connector-curvature="0" id="path4336-7-3" d="m 110.94713,354.94686 c 1.21342,-5.45571 2.685,-18.12643 15.23809,-17.31602 12.72226,0.82133 12.64865,14.45346 11.77489,20.77923 -2.92137,86.52677 11.44397,124.42753 64.82736,187.64476 l -38.40856,0 C 120.77036,482.40492 102.33519,423.58429 110.94713,354.94686 Z" style="fill:#006c35;fill-opacity:1;fill-rule:evenodd;stroke:none;stroke-width:0.30000001;stroke-linecap:butt;stroke-linejoin:miter;stroke-miterlimit:4;stroke-dasharray:none;stroke-opacity:1"/>
      <path sodipodi:nodetypes="cscccc" inkscape:connector-curvature="0" id="path4336-0-0" d="m 156.03461,361.70326 c 1.21342,-5.45571 2.685,-18.12643 15.23809,-17.31602 12.72226,0.82133 12.64865,14.45346 11.77489,20.77923 -7.07721,83.75621 34.16605,147.11856 93.16018,180.88836 l -51.86147,0 C 170.68426,489.65304 147.42267,430.34068 156.03461,361.70326 Z" style="fill:#006c35;fill-opacity:1;fill-rule:evenodd;stroke:none;stroke-width:0.30000001;stroke-linecap:butt;stroke-linejoin:miter;stroke-miterlimit:4;stroke-dasharray:none;stroke-opacity:1"/>
      <path id="path4399" d="m 108.01367,155.48828 c -5.03777,-0.0504 -9.861043,1.10209 -13.814451,3.54102 -10.666439,6.58031 -26.839844,32.38086 -26.839844,32.38086 L 139.0957,243.75 152.19727,226.36328 132.12109,212.01562 c 0,0 6.97459,-8.99636 8.13868,-13.85351 6.4662,-26.98009 -14.25407,-42.49377 -32.2461,-42.67383 z m 0.125,22.95313 c 1.87077,-0.0578 3.98234,0.46283 6.32031,1.88671 8.98111,5.46975 1.73243,18.52735 1.73243,18.52735 L 97.835938,186.21484 c 0,0 3.621412,-7.567 10.302732,-7.77343 z" style="fill:#006c35;fill-opacity:1;fill-rule:evenodd;stroke:none;stroke-width:0.30000001;stroke-linecap:butt;stroke-linejoin:miter;stroke-miterlimit:4;stroke-dasharray:none;stroke-opacity:1" inkscape:connector-curvature="0"/>
      <path id="path4403" d="m 190.47656,71.064453 -19.56836,12.986328 19.91407,95.238279 19.39453,-13.33398 -1.21289,-12.81446 26.32031,-16.10351 8.83203,6.4082 19.39258,-13.33398 -73.07227,-59.046877 z m 4.15625,30.302737 23.375,20.60547 -16.10351,10.21679 -7.27149,-30.82226 z" style="fill:#006c35;fill-opacity:1;fill-rule:evenodd;stroke:none;stroke-width:0.30000001;stroke-linecap:butt;stroke-linejoin:miter;stroke-miterlimit:4;stroke-dasharray:none;stroke-opacity:1" inkscape:connector-curvature="0"/>
      <path sodipodi:nodetypes="ccsscccccc" inkscape:connector-curvature="0" id="path4407" d="m 340.63568,26.292104 -4.0196,21.574533 c -13.47449,-3.451973 -21.07894,-3.042728 -29.33119,2.0728 -8.25225,5.115528 -11.22971,14.232133 -10.97348,23.125791 0.39742,13.794078 15.58989,27.409382 37.22259,18.121524 l -3.67328,-22.284578 20.57038,-3.673282 7.34656,41.385648 c -42.16119,22.70084 -75.82769,1.20301 -82.03663,-27.916947 -5.1327,-41.634316 30.28061,-57.675507 64.89465,-52.405489 z" style="fill:#006c35;fill-opacity:1;fill-rule:evenodd;stroke:none;stroke-width:0.30000001;stroke-linecap:butt;stroke-linejoin:miter;stroke-miterlimit:4;stroke-dasharray:none;stroke-opacity:1"/>
      <path sodipodi:nodetypes="ccsccsc" inkscape:connector-curvature="0" id="path4409" d="m 451.32391,94.615149 -5.38748,25.957861 c -31.15732,-4.02324 -54.30811,-15.93732 -49.71175,-54.364576 3.36328,-28.118147 33.218,-44.266106 66.22051,-34.773736 l -5.24403,26.692516 C 438.40228,45.582837 418.04363,53.22751 417.28483,72.820342 416.59302,90.683413 433.34191,98.0895 451.32391,94.615149 Z" style="fill:#006c35;fill-opacity:1;fill-rule:evenodd;stroke:none;stroke-width:0.30000001;stroke-linecap:butt;stroke-linejoin:miter;stroke-miterlimit:4;stroke-dasharray:none;stroke-opacity:1"/>
      <path id="path4411" d="m 534.20508,68.595703 a 44.725243,45.472061 0 0 0 -44.72461,45.470707 44.725243,45.472061 0 0 0 44.72461,45.47265 44.725243,45.472061 0 0 0 44.72461,-45.47265 44.725243,45.472061 0 0 0 -44.72461,-45.470707 z m 0.16797,22.830078 a 22.699625,22.580639 0 0 1 22.69922,22.582029 22.699625,22.580639 0 0 1 -22.69922,22.58008 22.699625,22.580639 0 0 1 -22.70117,-22.58008 22.699625,22.580639 0 0 1 22.70117,-22.582029 z" style="fill:#006c35;fill-opacity:1;stroke:none;stroke-width:0.55779207;stroke-linecap:round;stroke-linejoin:miter;stroke-miterlimit:4;stroke-dasharray:none;stroke-dashoffset:0;stroke-opacity:1" inkscape:connector-curvature="0"/>
      <path id="path4428" d="m 640.51953,144.31055 -72.72656,52.64062 13.67969,19.04688 29.26367,-21.125 -18.5293,35.15234 14.89258,20.43164 19.39453,-39.48047 c 18.29631,6.78346 45.66772,-9.07349 39.48047,-31.6875 -2.42812,-8.87463 -25.45508,-34.97851 -25.45508,-34.97851 z m -2.25195,29.7832 c 0,0 10.64183,10.64993 1.55859,17.31641 -8.92042,6.54698 -19.04687,-3.46289 -19.04687,-3.46289 l 17.48828,-13.85352 z" style="fill:#006c35;fill-opacity:1;fill-rule:evenodd;stroke:none;stroke-width:0.30000001;stroke-linecap:butt;stroke-linejoin:miter;stroke-miterlimit:4;stroke-dasharray:none;stroke-opacity:1" inkscape:connector-curvature="0"/>
    </g>
  </g>
</svg>