<svg width="90" height="30" viewBox="0 0 90 30" fill="none" xmlns="http://www.w3.org/2000/svg">
<g clip-path="url(#clip0)">
<path d="M24.9629 21.7778C24.5063 21.3723 23.9927 21.2 23.3067 21.2C22.6207 21.2 21.9929 21.3723 21.5363 21.7778L21.0787 22.1245C21.0216 22.1823 20.9645 22.1823 20.9074 22.2978C21.1357 21.9512 21.307 21.6045 21.4211 21.3723L23.1926 17.4978C23.3067 17.2089 23.4779 16.9778 23.5921 16.8045C23.6491 16.7467 23.6491 16.6889 23.6491 16.6889C23.6491 16.6312 23.5921 16.5734 23.4779 16.5734H23.3638L22.9643 16.6312H21.1928C20.8504 16.6312 20.7362 16.6889 20.7362 16.7467C20.7362 16.8045 20.7933 16.8623 20.9074 16.8623C21.5934 16.8623 21.9359 16.8623 21.9359 17.0356L21.8217 17.1512C21.7646 17.2089 21.7076 17.3245 21.6505 17.44L17.651 25.4789C17.2515 26.23 17.0802 26.7512 17.0802 27.04V27.2712L16.9661 27.3867C16.4513 27.9645 15.9948 28.2534 15.4811 28.2534C15.1376 28.2534 14.9663 28.1389 14.9663 27.85C14.9663 27.6178 15.0805 27.2134 15.3088 26.75L17.8222 21.7778C17.9374 21.6045 17.9945 21.4889 17.9945 21.43C17.9945 21.3723 17.9374 21.3145 17.8804 21.3145C17.8222 21.3145 17.8222 21.3145 17.7651 21.3723C17.5939 21.43 17.4227 21.43 17.1373 21.43C17.0802 21.43 17.0232 21.43 16.852 21.3723C16.7378 21.3723 16.6237 21.3145 16.6237 21.3145C16.5655 21.3145 16.4513 21.43 16.3383 21.6034L15.8806 22.4712C15.7665 21.6623 15.2517 21.2567 14.2815 21.2567C13.3672 21.2567 12.3959 21.6623 11.3104 22.5289C10.5113 23.1656 9.88244 23.8589 9.42585 24.6112C8.96817 25.3634 8.6828 26.0567 8.6828 26.6934C8.6828 27.2712 8.9111 27.7345 9.31171 28.1378C9.71122 28.4856 10.282 28.7167 10.9109 28.7167C11.9393 28.7167 12.8535 28.1967 13.6526 27.1556C13.5384 27.3867 13.5384 27.56 13.5384 27.7334C13.5384 28.0223 13.6526 28.1967 13.8809 28.37C14.1091 28.5434 14.4516 28.6012 14.8522 28.6012C15.5952 28.6012 16.2801 28.3123 16.852 27.7923C16.9661 27.6756 17.0802 27.56 17.1373 27.4445C17.2515 27.6756 17.4227 27.9078 17.7081 28.1389C18.1657 28.4278 18.7365 28.6012 19.4224 28.6012C20.8504 28.6012 22.2212 28.0234 23.535 26.8667C24.8488 25.71 25.5348 24.5534 25.5348 23.2812C25.6489 22.7034 25.4206 22.1823 24.964 21.7778H24.9629V21.7778ZM13.995 26.1145C13.6526 26.6923 13.3101 27.2145 12.7954 27.56C12.3388 27.9656 11.8822 28.1378 11.4816 28.1378C10.7967 28.1378 10.3961 27.7345 10.3961 26.9823C10.3961 26.3456 10.6255 25.6523 11.025 24.7845C11.4245 23.9745 11.9393 23.1656 12.6241 22.4134C13.1949 21.7778 13.8238 21.43 14.4527 21.43C14.7951 21.43 15.1376 21.5467 15.367 21.7189C15.5952 21.8934 15.7094 22.1823 15.7094 22.53C15.7094 22.6445 15.6523 22.8767 15.4811 23.1656L13.995 26.1145V26.1145ZM22.9072 25.8256C21.9359 27.5034 20.7933 28.3123 19.5366 28.3123C18.8506 28.3123 18.5082 28.0812 18.5082 27.6178C18.5082 27.2712 18.7365 26.6934 19.1941 25.71L19.6507 24.7267C20.6791 22.5289 21.8217 21.43 23.0784 21.43C23.7062 21.43 24.0498 21.8356 24.0498 22.5867C24.1068 23.3967 23.7062 24.4956 22.9072 25.8256ZM7.4261 22.1245L6.28463 21.1412C5.36927 20.3323 4.91268 19.6378 4.91268 19.0012C4.91268 18.4234 5.19805 17.9034 5.7128 17.4978C6.22646 17.0934 6.85427 16.92 7.65549 16.92C8.34037 16.92 8.9111 17.0934 9.31171 17.3823C9.71122 17.7289 9.93951 18.1345 9.93951 18.7123C9.93951 18.8856 9.93951 19.1178 9.88244 19.3489V19.4645C9.88244 19.5223 9.93951 19.58 9.99659 19.58C10.1107 19.58 10.1678 19.4645 10.2249 19.2912C10.3961 18.4812 10.6255 17.9023 10.8538 17.4978C11.0821 17.0934 11.1962 16.8623 11.1962 16.8045C11.1962 16.7467 11.1391 16.6889 11.0821 16.6889C11.025 16.6889 10.9679 16.7467 10.8538 16.8623C10.6255 17.1512 10.3961 17.2667 10.1678 17.2667C10.0537 17.2667 9.82537 17.2089 9.42585 17.0356C8.79695 16.8045 8.16915 16.6889 7.54024 16.6889C6.39878 16.6889 5.42634 17.0356 4.57024 17.6712C3.71305 18.3078 3.31354 19.1178 3.31354 19.9845C3.31354 20.8523 3.8272 21.72 4.91268 22.5867L5.99817 23.4545C6.85427 24.1489 7.31195 24.9578 7.31195 25.7678C7.31195 26.52 7.02659 27.0978 6.45585 27.56C5.88402 28.0234 5.14098 28.2545 4.28378 28.2545C2.51341 28.2545 1.65622 27.56 1.65622 26.1723C1.65622 25.7678 1.71329 25.4789 1.77037 25.3634C1.82744 25.2467 1.82744 25.1889 1.82744 25.1889C1.82744 25.1312 1.77037 25.0734 1.71329 25.0734C1.54207 25.0734 1.42793 25.1889 1.31378 25.4789C0.971342 26.3456 0.628902 27.2134 0.172317 28.1389C0.0570732 28.37 0 28.4856 0 28.5434C0 28.6589 0.0570732 28.7167 0.17122 28.7167C0.285366 28.7167 0.342439 28.6589 0.399512 28.4856C0.570732 27.9656 0.857195 27.6756 1.14256 27.6756C1.25671 27.6756 1.42793 27.7345 1.54207 27.7923C2.05683 28.1389 2.28512 28.3123 2.39927 28.3123C2.91293 28.5434 3.54073 28.6589 4.28378 28.6589C5.59866 28.6589 6.68305 28.3123 7.59841 27.56C8.51159 26.8089 8.96817 25.9412 8.96817 24.9C8.96817 23.9167 8.45451 23.05 7.4261 22.1245V22.1245ZM34.1605 21.1989C34.1034 21.1989 34.1034 21.1989 34.0463 21.2567C33.8751 21.3145 33.7028 21.3145 33.4174 21.3145C33.3604 21.3145 33.3033 21.3145 33.1321 21.2567C33.0179 21.2567 32.9038 21.1989 32.9038 21.1989C32.8467 21.1989 32.7326 21.3145 32.6184 21.4878L32.1607 22.3556C32.0466 21.5467 31.5329 21.1412 30.5616 21.1412C29.6473 21.1412 28.676 21.5467 27.5905 22.4134C26.7915 23.05 26.1637 23.7434 25.706 24.4956C25.2494 25.2467 24.9629 25.9412 24.9629 26.5778C24.9629 27.1556 25.1912 27.6178 25.5918 28.0223C25.9913 28.37 26.5632 28.6012 27.191 28.6012C28.2194 28.6012 29.1337 28.0812 29.9327 27.04C29.8185 27.2712 29.8185 27.4445 29.8185 27.6178C29.8185 27.9067 29.9327 28.0812 30.1621 28.2545C30.3904 28.4278 30.7328 28.4856 31.1323 28.4856C31.8754 28.4856 32.5602 28.1967 33.1321 27.6756C33.4174 27.3867 33.5316 27.2134 33.5316 27.0978C33.5316 27.04 33.5316 27.04 33.4745 27.04C33.4174 27.04 33.3604 27.0978 33.2462 27.2134C32.7326 27.7912 32.2749 28.08 31.7612 28.08C31.4188 28.08 31.2465 27.9656 31.2465 27.6756C31.2465 27.4445 31.3617 27.04 31.59 26.5778L34.1034 21.6045C34.2176 21.43 34.2746 21.3156 34.2746 21.2567C34.2746 21.1989 34.2176 21.1989 34.1605 21.1989V21.1989ZM31.6471 23.3389L30.1621 26.1145C29.8185 26.6923 29.4761 27.2145 28.9624 27.56C28.5048 27.9656 28.0482 28.1378 27.6476 28.1378C26.9627 28.1378 26.5632 27.7345 26.5632 26.9823C26.5632 26.3456 26.7915 25.6523 27.191 24.7845C27.5905 23.9745 28.1052 23.1656 28.7901 22.4134C29.3609 21.7778 29.9898 21.43 30.6187 21.43C30.9611 21.43 31.3035 21.5467 31.5329 21.7189C31.7612 21.8934 31.8754 22.1823 31.8754 22.53C31.8754 22.8189 31.8183 22.9923 31.6471 23.3389ZM66.7207 23.8012C66.6066 23.6856 66.4354 23.57 66.2641 23.4545C66.0929 23.3967 65.8646 23.3389 65.5782 23.3389C65.2928 23.3389 65.0074 23.3967 64.8362 23.5123C64.665 23.6278 64.4927 23.8012 64.3215 24.09C64.2644 24.0334 64.2644 23.9167 64.2073 23.8589C64.1502 23.7434 64.0932 23.6856 63.979 23.6278L63.6366 23.4545C63.5224 23.3967 63.2931 23.3967 63.1218 23.3967C62.9506 23.3967 62.8365 23.3967 62.6652 23.4545C62.5511 23.5123 62.3799 23.57 62.2657 23.6278C62.1516 23.6856 62.0363 23.8012 61.9804 23.8589C61.9222 23.9745 61.808 24.0334 61.808 24.1478V23.4545H61.1802V27.3867H61.808V25.4789C61.808 25.2467 61.8081 25.0734 61.8651 24.8423C61.9222 24.6112 61.9793 24.4956 62.0945 24.38C62.2087 24.2645 62.3228 24.1489 62.494 24.0912C62.6652 24.0334 62.8365 23.9745 63.0648 23.9745C63.3501 23.9745 63.5224 24.0912 63.6355 24.2634C63.7507 24.4378 63.8078 24.7856 63.8078 25.1889V27.4445H64.4356V25.1312C64.4356 24.9578 64.4356 24.7845 64.4927 24.6689C64.5509 24.5534 64.6079 24.38 64.7221 24.3223C64.8362 24.2067 64.8933 24.1489 65.0645 24.0912C65.1787 24.0334 65.2928 24.0334 65.464 24.0334C65.6352 24.0334 65.8076 24.0912 65.9217 24.1489C66.0359 24.2067 66.15 24.2645 66.2071 24.38L66.3783 24.7267C66.3783 24.8423 66.4354 25.0156 66.4354 25.1312V27.5023H67.0643V25.0156C67.0643 24.7845 67.0643 24.5534 67.0072 24.3223C66.949 24.0912 66.8349 23.9167 66.7218 23.8012H66.7207V23.8012ZM46.4422 26.7512V25.0156C46.4422 24.4378 46.3281 24.0334 46.0416 23.7434C45.7562 23.4545 45.3567 23.3389 44.7849 23.3389C44.4995 23.3389 44.2141 23.3967 43.9288 23.5123C43.6434 23.6278 43.414 23.7434 43.1857 23.9745L43.5852 24.38C43.7576 24.2067 43.9288 24.1489 44.1 24.0334C44.3283 23.9745 44.4995 23.9167 44.7278 23.9167C45.0132 23.9167 45.2985 23.9745 45.4709 24.1489C45.6421 24.3223 45.6991 24.4956 45.6991 24.7845V24.9H45.4709C45.2426 24.9 44.9572 24.9 44.6707 24.9578C44.3854 24.9578 44.1 25.0156 43.8717 25.1312C43.6434 25.2467 43.414 25.3634 43.2428 25.5367C43.0716 25.71 43.0145 25.9989 43.0145 26.2878C43.0145 26.4612 43.0716 26.6356 43.1287 26.8089C43.1857 26.9823 43.2999 27.0978 43.4711 27.1556C43.5852 27.2712 43.7565 27.3289 43.9288 27.3867C44.1 27.4445 44.2712 27.4445 44.4995 27.4445C44.7849 27.4445 45.0702 27.3867 45.2996 27.2712C45.5279 27.1556 45.6991 26.9823 45.8133 26.7512V27.04C45.8133 27.1556 45.8133 27.2712 45.8704 27.3289H46.4993C46.4993 27.2134 46.4422 27.0978 46.4422 26.9823V26.7512V26.7512ZM45.8133 25.7678C45.8133 25.9412 45.7562 26.1145 45.7562 26.23C45.6991 26.3456 45.6421 26.5189 45.5279 26.6356C45.4138 26.7512 45.2996 26.8089 45.1855 26.8667C45.0713 26.9245 44.9001 26.9823 44.6707 26.9823C44.4424 26.9823 44.2141 26.9245 44.0429 26.8089C43.8717 26.6934 43.8146 26.52 43.8146 26.2878C43.8146 25.9989 43.9288 25.8256 44.1571 25.71C44.3854 25.5945 44.7278 25.5367 45.1284 25.5367H45.7562V25.7678H45.8133V25.7678ZM56.61 23.9167C56.4388 23.7434 56.2105 23.57 55.924 23.5123C55.6387 23.3967 55.4104 23.3389 55.0679 23.3389C54.7826 23.3389 54.4972 23.3967 54.2118 23.5123C53.9254 23.6278 53.7541 23.7434 53.5259 23.9167C53.2965 24.0912 53.1823 24.3223 53.0682 24.5534C52.954 24.7845 52.897 25.0734 52.897 25.42C52.897 25.7678 52.954 25.9989 53.0682 26.2878C53.1823 26.52 53.2965 26.7512 53.5259 26.9245C53.7541 27.0978 53.9254 27.2712 54.2107 27.3289C54.439 27.4445 54.7255 27.5023 55.0668 27.5023C55.3533 27.5023 55.6387 27.4445 55.924 27.3289C56.1534 27.2134 56.3817 27.0978 56.61 26.9245C56.8383 26.7512 56.9524 26.52 57.0666 26.2878C57.1818 26.0567 57.2389 25.7678 57.2389 25.4212C57.2389 25.0734 57.1818 24.8434 57.0666 24.5534C56.9524 24.3223 56.7812 24.0912 56.61 23.9167ZM56.3817 26C56.3246 26.1734 56.2105 26.3467 56.0963 26.4623C55.9822 26.5789 55.811 26.6945 55.6387 26.7512C55.4674 26.81 55.2962 26.8678 55.0679 26.8678C54.8396 26.8678 54.6673 26.81 54.4972 26.7523C54.3249 26.6945 54.1537 26.5789 54.0395 26.4634C53.9254 26.3467 53.8112 26.1745 53.7541 26C53.6971 25.8267 53.64 25.6534 53.64 25.4223C53.64 25.19 53.6971 25.0167 53.7541 24.8445C53.8112 24.67 53.9254 24.4967 54.0395 24.3812C54.1537 24.2656 54.3249 24.15 54.4961 24.0923C54.6673 24.0345 54.8396 23.9756 55.0668 23.9756C55.2962 23.9756 55.4674 24.0345 55.6387 24.0923C55.8099 24.15 55.9822 24.2656 56.0963 24.3812C56.2105 24.4967 56.3246 24.67 56.3817 24.8434C56.4388 25.0167 56.4959 25.19 56.4959 25.4212C56.4959 25.6534 56.4959 25.8267 56.3817 26V26ZM49.5263 26.8667C49.4122 26.8667 49.3551 26.9256 49.241 26.9256C49.0698 26.9256 49.0127 26.9256 48.8985 26.8678L48.7273 26.6945C48.6702 26.6367 48.6702 26.5212 48.6702 26.4056V24.0889H49.8117V23.5112H48.6702V22.3556H48.0413V23.5112H47.1852V24.0889H48.0413V26.2867C48.0413 26.5189 48.0413 26.6923 48.0984 26.8645C48.1555 27.0389 48.1555 27.1545 48.2696 27.27C48.3267 27.3856 48.4409 27.4434 48.6132 27.5589C48.7273 27.6167 48.9556 27.6745 49.1839 27.6745C49.2981 27.6745 49.4122 27.6745 49.5834 27.6167C49.6976 27.6167 49.8688 27.5589 49.984 27.5012V26.9234C49.6987 26.8078 49.6405 26.8656 49.5263 26.8656V26.8667V26.8667ZM41.3583 27.3889H41.9861V20.9667H41.3583V27.3889ZM52.3262 20.9112C52.0409 20.9112 51.8685 20.9689 51.6402 21.0267C51.469 21.0845 51.2978 21.2 51.1837 21.3734C51.0695 21.5478 51.0113 21.7212 50.9543 21.8945C50.8972 22.0678 50.8972 22.2989 50.8972 22.5878V23.4556H50.0411V24.0334H50.8972V27.4445H51.5261V24.0334H52.4974V23.4556H51.5261V22.24C51.5261 22.1245 51.5832 21.9512 51.5832 21.8356C51.6402 21.72 51.6973 21.6623 51.8115 21.6045C51.9256 21.5467 52.0398 21.4878 52.211 21.4878C52.3262 21.4878 52.4963 21.4878 52.6687 21.5467L52.7828 20.9689C52.7257 20.91 52.6687 20.91 52.5545 20.91H52.3262V20.9112ZM39.6439 21.7778C39.4727 21.6634 39.2444 21.5478 38.959 21.4889C38.7307 21.4312 38.4443 21.4312 38.1589 21.4312H36.3885V27.4445H37.0734V24.7267H38.273C38.5013 24.7267 38.6726 24.7267 38.902 24.6689C39.1302 24.6112 39.3585 24.5534 39.5298 24.38C39.701 24.2645 39.8722 24.0912 39.9874 23.8589C40.1016 23.6278 40.1587 23.3967 40.1587 23.05C40.1587 22.7612 40.1016 22.4723 39.9874 22.24C39.9874 22.0667 39.8151 21.8934 39.6439 21.7778V21.7778ZM39.1873 23.8023C38.959 23.9756 38.6726 24.0345 38.3312 24.0345H37.1305V22.0678H38.3301C38.6726 22.0678 38.959 22.1256 39.1862 22.2989C39.4167 22.4723 39.5298 22.7034 39.5298 23.0512C39.5298 23.3978 39.4156 23.6289 39.1873 23.8023V23.8023ZM60.1507 23.34C59.9806 23.34 59.8654 23.34 59.6952 23.3978C59.58 23.4556 59.4099 23.5134 59.2946 23.5712C59.1805 23.6289 59.0663 23.7445 59.0093 23.8023C58.9522 23.9178 58.8381 23.9756 58.8381 24.0912V23.3978H58.2091V27.3289H58.8381V25.4223C58.8381 24.9589 58.9522 24.6123 59.1234 24.3223C59.2946 24.0334 59.58 23.9178 59.9795 23.9178C60.0948 23.9178 60.2089 23.9178 60.323 23.9756L60.3801 23.2823C60.3231 23.2823 60.266 23.2823 60.266 23.2245C60.266 23.34 60.2089 23.34 60.1518 23.34H60.1507V23.34ZM82.3171 9.40226C82.3171 9.40226 82.26 9.40226 82.3171 9.40226H82.26C81.1745 9.05449 69.064 5.23782 63.0659 2.98337C55.6387 0.670041 41.2441 -1.29663 33.3033 1.07449C29.9338 2.1156 28.1623 3.79226 27.5334 5.41226C26.7344 7.60893 28.1623 10.6745 31.8754 14.1445C31.8754 14.1445 32.9038 13.97 31.9895 11.0789C30.7899 7.4356 31.4188 5.5856 34.6741 4.83449C33.8751 4.83449 32.389 5.00671 31.7041 5.2956C30.2191 6.04782 29.8756 7.66671 29.8756 7.66671C29.3049 7.03115 29.9327 5.2956 31.8183 4.66004C39.3015 2.05782 54.9538 8.82338 59.6382 12.6978C65.5211 17.6134 69.2912 22.3556 69.6348 22.8189C71.0616 26.7512 74.7757 29.5845 79.1737 29.5845C84.7723 29.5845 89.3426 24.9578 89.3426 19.2912C89.3996 14.6067 86.4285 10.7323 82.316 9.40226H82.3171V9.40226ZM82.4312 10.0378C84.5451 10.79 86.3726 12.2934 87.5151 14.26L86.7732 15.3012L83.9744 15.59L80.089 12.7567V10.6734L82.4312 10.0367V10.0378ZM83.745 15.8789L83.4596 19.5223L79.7466 21.43L76.6624 18.8278L76.9478 14.8956L79.9178 13.1034L83.7439 15.8778L83.745 15.8789ZM79.2318 9.51782C80.2032 9.51782 81.1174 9.69115 81.9746 9.92227L79.8607 10.5589L76.8907 9.80671C77.6327 9.63338 78.4328 9.51782 79.2318 9.51782V9.51782ZM76.6613 9.86449L74.4333 12.4089L71.1209 14.0867C72.3205 12.0623 74.3191 10.5012 76.6613 9.86449V9.86449ZM71.0067 14.4334L74.4915 12.6978L76.6613 14.7223L76.376 18.8278L73.406 21.0834L70.9496 18.8278V14.4334H71.0067V14.4334ZM69.6348 20.2745L70.8926 19.1745L73.2348 21.3145L75.0051 24.7845L73.406 27.04C71.3491 25.4212 69.9783 22.9923 69.6359 20.2734L69.6348 20.2745V20.2745ZM81.0033 28.7745C80.4326 28.89 79.8607 28.9478 79.2318 28.9478C77.1761 28.9478 75.2334 28.2545 73.6913 27.1556L75.2905 24.9H78.2616L81.3457 27.3289L81.0033 28.7745V28.7745ZM81.4599 27.0978L78.4899 24.7845L79.8037 21.72L83.5738 19.7534L86.0301 21.4312L85.1159 25.7089L81.461 27.0978H81.4599V27.0978ZM86.2013 25.8834L85.4594 25.71L86.3726 21.3723L88.6577 18.9434L87.0004 15.5323L87.6293 14.6067C88.3723 15.9956 88.8289 17.5556 88.8289 19.2912C88.8289 21.7778 87.8576 24.0912 86.2013 25.8834V25.8834Z" fill="#16885F"/>
</g>
<defs>
<clipPath id="clip0">
<rect width="90" height="30" fill="white"/>
</clipPath>
</defs>
</svg>
