<svg width="142" height="30" viewBox="0 0 142 30" fill="none" xmlns="http://www.w3.org/2000/svg">
<path d="M34.0733 7.66625C33.1308 6.25 31.4971 5.4125 29.9255 4.9625C27.6005 4.3175 25.2133 4.3175 22.8248 4.575C20.6888 4.83375 18.5515 5.34875 16.4776 6.0575C15.284 5.28375 14.0904 4.64 12.8956 3.8675C12.2043 3.41625 11.1996 3.41625 10.6339 4.06C10.256 4.3825 10.1316 4.8975 10.1316 5.41375V8.95625C8.81121 9.79375 7.49202 10.6313 6.29841 11.5988C4.16113 13.3375 2.21405 15.335 0.955823 17.8488C0.20235 19.3938 -0.299965 21.2612 0.20235 23.0012C0.641266 24.6762 1.89949 25.9013 3.40766 26.6738C5.79487 27.8338 8.49665 27.9625 11.0741 27.8338C13.9026 27.64 16.6666 26.9312 19.3062 25.965C23.3271 24.4837 27.0969 22.2925 30.2401 19.33C32.1884 17.4612 33.9465 15.27 34.639 12.565C35.2047 10.89 35.0169 9.02125 34.0733 7.6675V7.66625V7.66625ZM13.1479 6.4425C13.5869 6.37875 13.9648 6.7 14.3415 6.89375C17.1701 8.63375 19.9341 10.3087 22.6992 12.0475C23.0772 12.2412 23.3271 12.6275 23.3271 13.0138C23.3905 13.53 23.0138 13.9163 22.5737 14.11C19.6195 15.8488 16.7288 17.5888 13.7758 19.3288C13.2101 19.715 12.581 19.3925 12.2043 18.9412C12.1421 18.555 12.0787 18.1037 12.0787 17.7175C12.0165 14.4312 12.0787 11.1463 12.0165 7.86C12.0165 7.15125 12.5188 6.4425 13.1479 6.4425V6.4425ZM18.6771 24.2887C16.2265 25.5137 13.5247 26.415 10.7595 26.6725C9.81705 26.8012 8.8746 26.6725 7.93093 26.48C6.80072 26.2225 5.6693 25.7062 4.91582 24.74C3.97215 23.4525 3.90997 21.7125 4.41229 20.23C4.47569 21.325 4.85242 22.3562 5.6693 23.13C7.05188 24.4825 9.00018 24.8687 10.8851 24.9975C14.0904 25.1262 17.2323 24.4175 20.1852 23.1938C20.3742 23.13 20.6254 23.065 20.8143 23C20.1231 23.5162 19.4318 23.9025 18.6771 24.2887V24.2887ZM28.3552 12.5637C27.915 14.7537 26.5324 16.5575 25.0243 18.1037C22.5103 20.6812 19.3684 22.55 15.9753 23.645C14.3415 24.095 12.7078 24.4175 11.0107 24.225C9.94263 24.0312 8.8112 23.645 8.18209 22.7425C7.49202 21.8413 7.42862 20.6175 7.74317 19.5212C8.18209 17.9112 9.06236 16.4287 10.1938 15.205V20.5525C10.1938 21.0675 10.2572 21.6475 10.6327 22.0338C11.0741 22.485 11.7654 22.6788 12.3932 22.4213C12.7712 22.2913 13.0845 22.0337 13.4613 21.8412C17.4201 19.4575 21.3801 17.1375 25.2754 14.8187C25.779 14.4962 26.3435 14.2388 26.5958 13.6588C26.9092 12.95 26.5958 12.0475 25.9046 11.7262C24.144 10.695 22.3225 9.72875 20.4998 8.6975C21.7556 8.2475 23.2016 8.05375 24.522 8.1175C25.7778 8.1825 27.0982 8.56875 27.8516 9.66375C28.4807 10.5012 28.5429 11.5975 28.3552 12.5637V12.5637ZM31.1203 10.3087C30.7424 9.66375 30.3657 9.02 29.7378 8.56875C28.1662 7.34375 26.1557 7.0875 24.2708 6.95875C22.6992 6.95875 21.0643 7.15125 19.4939 7.5375C18.9916 7.73125 18.6771 7.21625 18.2381 7.0225C20.0597 6.185 22.008 5.67 23.9563 5.4125C25.7156 5.2825 27.6627 5.2825 29.2354 6.31375C30.5546 7.21625 31.3081 8.7625 31.1203 10.3087ZM95.0924 27.1237C95.4057 27.06 95.5313 26.995 95.6569 26.8012C95.8459 26.6087 95.908 26.3512 95.908 26.0287C95.908 25.3837 95.4691 24.9338 94.7132 24.9338H92.8917C92.8917 25.1913 92.9551 25.32 92.9551 25.5775V28.3475C92.9551 28.67 92.9551 28.7988 92.8917 28.9925H93.6464C93.6464 28.7988 93.583 28.605 93.583 28.3475V27.3175H94.3377C94.7144 27.3175 94.9034 27.51 95.1546 28.2188C95.3423 28.67 95.4057 28.9275 95.4057 29.0563H96.2226L95.9714 28.5413C95.4679 27.3813 95.4057 27.2537 95.0912 27.1237H95.0924V27.1237ZM94.5888 26.8012H93.583V25.6425H94.5888C95.0278 25.6425 95.2167 25.835 95.2167 26.2225C95.2167 26.415 95.1546 26.5437 95.029 26.6725C94.9034 26.7375 94.7766 26.8012 94.5888 26.8012ZM83.5282 27.06C83.3404 26.93 83.0892 26.8662 82.7113 26.7375C82.1468 26.6087 82.1468 26.6088 82.02 26.5438C81.7688 26.415 81.7067 26.2862 81.7067 26.0938C81.7067 25.7713 82.02 25.5137 82.4601 25.5137C82.7113 25.5137 82.9637 25.5775 83.0892 25.7713C83.1514 25.9 83.2148 25.9638 83.2148 26.1575L83.9061 26.0925C83.8427 25.835 83.7805 25.6425 83.655 25.5137C83.4026 25.1912 82.9637 24.9975 82.3979 24.9975C81.5177 24.9975 80.952 25.4488 80.952 26.1575C80.952 26.48 81.0775 26.8013 81.3299 26.995C81.5177 27.1238 81.7067 27.1888 82.0834 27.3175C82.7747 27.51 82.7747 27.51 82.9637 27.575C83.0892 27.6387 83.2148 27.8325 83.2148 28.025C83.2148 28.4125 82.9003 28.67 82.3979 28.67C82.0834 28.67 81.8322 28.5412 81.6433 28.3475C81.5811 28.2187 81.5177 28.155 81.5177 27.8975L80.8264 27.9612C80.8264 28.155 80.8898 28.2837 80.952 28.4125C81.0775 28.67 81.2031 28.8625 81.3921 28.9925C81.6433 29.185 82.02 29.25 82.4601 29.25C82.9637 29.25 83.4026 29.1213 83.655 28.8625C83.8427 28.67 83.9683 28.3475 83.9683 28.025C83.9683 27.51 83.8427 27.2525 83.5294 27.06H83.5282ZM86.2933 24.9338C85.791 24.9338 85.3509 25.1262 85.0375 25.4487C84.6596 25.8362 84.4718 26.415 84.4718 27.06C84.4718 28.3475 85.2253 29.185 86.3567 29.185C87.4882 29.185 88.2416 28.3475 88.2416 27.06C88.2416 26.415 88.0527 25.835 87.6759 25.4487C87.237 25.1262 86.7969 24.9338 86.2933 24.9338V24.9338ZM86.2933 28.6063C85.98 28.6063 85.7276 28.4775 85.5399 28.2838C85.2887 28.0263 85.1619 27.575 85.1619 27.0587C85.1619 26.1575 85.602 25.5775 86.3567 25.5775C86.6713 25.5775 86.9224 25.7062 87.1102 25.9C87.3626 26.1575 87.4882 26.5438 87.4882 27.06C87.4248 28.0263 86.9846 28.6063 86.2933 28.6063ZM91.4469 25.7063V27.51C91.4469 28.2187 91.1324 28.5413 90.4411 28.5413C89.7498 28.5413 89.4352 28.1537 89.4352 27.51V25.7063C89.4352 25.3838 89.4352 25.1912 89.4986 24.9975H88.7439C88.7439 25.1912 88.8073 25.385 88.8073 25.7063V27.51C88.8073 28.0262 88.9329 28.4125 89.1853 28.67C89.4352 28.9925 89.9388 29.12 90.4411 29.12C91.5091 29.12 92.1382 28.5412 92.1382 27.445V25.6425C92.1382 25.32 92.1382 25.1263 92.2004 24.9338H91.4469V25.7063V25.7063ZM117.337 27.06C117.148 26.93 116.898 26.8662 116.52 26.7375C115.954 26.6087 115.954 26.6088 115.829 26.5438C115.578 26.415 115.514 26.2862 115.514 26.0938C115.514 25.7713 115.829 25.5137 116.269 25.5137C116.52 25.5137 116.771 25.5775 116.897 25.7713C116.96 25.9 117.022 25.9638 117.022 26.1575L117.714 26.0925C117.651 25.835 117.588 25.6425 117.462 25.5137C117.211 25.1912 116.771 24.9975 116.207 24.9975C115.326 24.9975 114.761 25.4488 114.761 26.1575C114.761 26.48 114.886 26.8013 115.137 26.995C115.326 27.1238 115.515 27.1888 115.892 27.3175C116.582 27.51 116.582 27.51 116.771 27.575C116.897 27.6387 117.022 27.8325 117.022 28.025C117.022 28.4125 116.709 28.67 116.205 28.67C115.892 28.67 115.64 28.5412 115.452 28.3475C115.389 28.2187 115.326 28.155 115.326 27.8975L114.635 27.9612C114.635 28.155 114.697 28.2837 114.761 28.4125C114.886 28.67 115.012 28.8625 115.2 28.9925C115.452 29.185 115.829 29.25 116.269 29.25C116.771 29.25 117.211 29.1213 117.464 28.8625C117.651 28.67 117.777 28.3475 117.777 28.025C117.777 27.51 117.651 27.2525 117.337 27.06V27.06ZM128.962 28.2188C128.774 28.4775 128.523 28.6063 128.145 28.6063C127.454 28.6063 127.014 28.0263 127.014 27.06C127.014 26.0925 127.454 25.5775 128.145 25.5775C128.46 25.5775 128.711 25.7062 128.9 25.9C129.025 26.0287 129.025 26.0925 129.088 26.35L129.779 26.1575C129.717 25.9638 129.653 25.9 129.653 25.77C129.528 25.5775 129.339 25.3837 129.151 25.1912C128.9 24.9975 128.585 24.9338 128.209 24.9338C127.705 24.9338 127.266 25.1262 126.952 25.4487C126.574 25.8362 126.386 26.415 126.386 27.1237C126.386 27.7687 126.575 28.3488 126.952 28.735C127.266 29.0563 127.705 29.25 128.207 29.25C128.837 29.25 129.277 29.0563 129.591 28.67C129.717 28.4775 129.842 28.2825 129.905 27.8975L129.213 27.7688C129.088 27.9613 129.088 28.09 128.962 28.2188ZM131.099 28.4775V27.2525H132.293C132.608 27.2525 132.732 27.2525 132.921 27.3175V26.6725C132.733 26.6725 132.544 26.7375 132.293 26.7375H131.098V25.6425H132.544C132.859 25.6425 132.983 25.6425 133.173 25.7063V25.0625C132.921 25.0625 132.795 25.1262 132.544 25.1262H130.408C130.408 25.3837 130.47 25.5138 130.47 25.7713V28.5413C130.47 28.8638 130.47 28.9912 130.408 29.185H132.608C132.921 29.185 133.046 29.185 133.235 29.25V28.5413C133.046 28.5413 132.857 28.6063 132.608 28.6063H131.099V28.4775V28.4775ZM136.379 27.06C136.19 26.93 135.937 26.8662 135.562 26.7375C134.995 26.6087 134.995 26.6088 134.869 26.5438C134.618 26.415 134.555 26.2862 134.555 26.0938C134.555 25.7713 134.869 25.5137 135.309 25.5137C135.56 25.5137 135.812 25.5775 135.937 25.7713C136.001 25.9 136.063 25.9638 136.063 26.1575L136.754 26.0925C136.692 25.835 136.628 25.6425 136.503 25.5137C136.252 25.1912 135.812 24.9975 135.247 24.9975C134.367 24.9975 133.801 25.4488 133.801 26.1575C133.801 26.48 133.927 26.8013 134.179 26.995C134.367 27.1238 134.555 27.1888 134.933 27.3175C135.624 27.51 135.624 27.51 135.812 27.575C135.937 27.6387 136.063 27.8325 136.063 28.025C136.063 28.4125 135.749 28.67 135.246 28.67C134.933 28.67 134.681 28.5412 134.492 28.3475C134.429 28.2187 134.367 28.155 134.367 27.8975L133.676 27.9612C133.676 28.155 133.738 28.2837 133.801 28.4125C133.927 28.67 134.052 28.8625 134.24 28.9925C134.492 29.185 134.869 29.25 135.309 29.25C135.812 29.25 136.252 29.1213 136.504 28.8625C136.692 28.67 136.817 28.3475 136.817 28.025C136.817 27.51 136.692 27.2525 136.379 27.06V27.06ZM139.959 27.06C139.77 26.93 139.52 26.8662 139.143 26.7375C138.577 26.6087 138.577 26.6088 138.451 26.5438C138.2 26.415 138.137 26.2862 138.137 26.0938C138.137 25.7713 138.451 25.5137 138.891 25.5137C139.143 25.5137 139.394 25.5775 139.519 25.7713C139.583 25.9 139.645 25.9638 139.645 26.1575L140.336 26.0925C140.274 25.835 140.211 25.6425 140.085 25.5137C139.834 25.1912 139.394 24.9975 138.829 24.9975C137.949 24.9975 137.383 25.4488 137.383 26.1575C137.383 26.48 137.509 26.8013 137.761 26.995C137.949 27.1238 138.137 27.1888 138.515 27.3175C139.206 27.51 139.206 27.51 139.394 27.575C139.519 27.6387 139.645 27.8325 139.645 28.025C139.645 28.4125 139.331 28.67 138.828 28.67C138.515 28.67 138.262 28.5412 138.074 28.3475C138.011 28.2187 137.949 28.155 137.949 27.8975L137.258 27.9612C137.258 28.155 137.32 28.2837 137.383 28.4125C137.509 28.67 137.634 28.8625 137.822 28.9925C138.074 29.185 138.451 29.25 138.891 29.25C139.394 29.25 139.834 29.1213 140.086 28.8625C140.274 28.67 140.4 28.3475 140.4 28.025C140.4 27.51 140.211 27.2525 139.959 27.06V27.06ZM99.2377 28.2188C99.0499 28.4775 98.7988 28.6063 98.4208 28.6063C97.7308 28.6063 97.2906 28.0263 97.2906 27.06C97.2906 26.0925 97.7295 25.5775 98.422 25.5775C98.7366 25.5775 98.9878 25.7062 99.1755 25.9C99.3011 26.0287 99.3011 26.0925 99.3645 26.35L100.056 26.1575C99.9924 25.9638 99.9302 25.9 99.9302 25.77C99.8046 25.5775 99.6157 25.3837 99.4279 25.1912C99.1755 24.9975 98.8622 24.9338 98.4842 24.9338C97.9819 24.9338 97.5418 25.1262 97.2284 25.4487C96.8505 25.8362 96.6627 26.415 96.6627 27.1237C96.6627 27.7687 96.8505 28.3488 97.2284 28.735C97.5418 29.0563 97.9819 29.25 98.4842 29.25C99.1133 29.25 99.5535 29.0563 99.8668 28.67C99.9924 28.4775 100.119 28.2825 100.181 27.8975L99.4901 27.7688C99.3645 27.9613 99.3011 28.09 99.2389 28.2188H99.2377V28.2188ZM125.003 28.2188C124.814 28.4775 124.564 28.6063 124.186 28.6063C123.495 28.6063 123.055 28.0263 123.055 27.06C123.055 26.0925 123.495 25.5775 124.186 25.5775C124.501 25.5775 124.752 25.7062 124.941 25.9C125.067 26.0287 125.067 26.0925 125.129 26.35L125.82 26.1575C125.758 25.9638 125.695 25.9 125.695 25.77C125.569 25.5775 125.38 25.3837 125.192 25.1912C124.941 24.9975 124.627 24.9338 124.25 24.9338C123.746 24.9338 123.306 25.1262 122.993 25.4487C122.615 25.8362 122.427 26.415 122.427 27.1237C122.427 27.7687 122.616 28.3488 122.993 28.735C123.306 29.0563 123.746 29.25 124.249 29.25C124.878 29.25 125.318 29.0563 125.632 28.67C125.758 28.4775 125.884 28.2825 125.946 27.8975L125.254 27.7688C125.129 27.9613 125.129 28.09 125.003 28.2188ZM107.471 24.9338C106.969 24.9338 106.529 25.1262 106.215 25.4487C105.837 25.8362 105.648 26.415 105.648 27.06C105.648 28.3475 106.403 29.185 107.533 29.185C108.665 29.185 109.419 28.3475 109.419 27.06C109.419 26.415 109.23 25.835 108.854 25.4487C108.476 25.1262 108.037 24.9338 107.471 24.9338ZM107.471 28.6063C107.156 28.6063 106.905 28.4775 106.716 28.2838C106.465 28.0263 106.34 27.575 106.34 27.0587C106.34 26.1575 106.78 25.5775 107.534 25.5775C107.848 25.5775 108.099 25.7062 108.288 25.9C108.539 26.1575 108.666 26.5438 108.666 27.06C108.666 28.0263 108.225 28.6063 107.471 28.6063V28.6063ZM110.55 25.0625H109.922C109.922 25.32 109.985 25.4488 109.985 25.7063V28.4125C109.985 28.735 109.985 28.9925 109.922 29.1213H110.676C110.676 28.9275 110.613 28.7337 110.613 28.4125V27.3813H111.681C111.996 27.3813 112.185 27.3813 112.372 27.4463V26.7375C112.185 26.7375 111.994 26.8012 111.681 26.8012H110.613V25.6425H111.932C112.247 25.6425 112.436 25.6425 112.623 25.7063V24.9975C112.436 24.9975 112.247 25.0625 111.932 25.0625H110.55V25.0625ZM121.108 25.7063V27.51C121.108 28.2187 120.793 28.5413 120.102 28.5413C119.411 28.5413 119.096 28.1537 119.096 27.51V25.7063C119.096 25.3838 119.096 25.1912 119.16 24.9975H118.405C118.405 25.1912 118.468 25.385 118.468 25.7063V27.51C118.468 28.0262 118.594 28.4125 118.845 28.67C119.096 28.9925 119.599 29.12 120.101 29.12C121.17 29.12 121.798 28.5412 121.798 27.445V25.6425C121.798 25.32 121.798 25.1263 121.861 24.9338H121.045C121.107 25.1913 121.107 25.3838 121.107 25.7063H121.108V25.7063ZM101.375 28.4775V27.2525H102.57C102.883 27.2525 103.009 27.2525 103.198 27.3175V26.6725C103.009 26.6725 102.82 26.7375 102.57 26.7375H101.375V25.6425H102.821C103.136 25.6425 103.26 25.6425 103.449 25.7063V25.0625C103.198 25.0625 103.072 25.1262 102.821 25.1262H100.682C100.682 25.3837 100.746 25.5138 100.746 25.7713V28.5413C100.746 28.8638 100.746 28.9912 100.682 29.185H102.882C103.196 29.185 103.322 29.185 103.511 29.25V28.5413C103.322 28.5413 103.133 28.6063 102.882 28.6063H101.374V28.4775H101.375V28.4775ZM128.649 18.7487C127.894 18.04 127.517 18.62 127.517 18.62C127.517 18.62 127.328 19.1987 125.946 20.1662C124.563 21.1325 125.067 19.3288 125.067 19.3288L127.831 11.21C129.151 6.37875 125.884 7.0875 125.884 7.0875C123.872 7.0225 117.839 12.2413 117.839 12.2413L121.485 0.2575L120.919 0L114.572 1.225L114.635 2.19H116.708C118.281 2.19 117.525 3.93 117.525 3.93L114.006 16.43L112.247 18.4913C110.487 21.4538 104.14 21.4538 105.02 16.1063C105.899 10.7588 108.79 9.2775 110.55 8.6975C112.31 8.1825 112.31 9.535 112.31 9.535C111.996 9.47125 110.676 10.3725 111.87 11.79C113.065 13.2075 114.446 11.9187 114.446 11.9187C114.446 11.9187 116.143 7.0225 111.807 6.89375C107.471 6.765 103.826 10.9525 103.826 10.9525C104.078 8.505 102.821 7.0225 100.873 6.95875C98.9244 6.82875 97.2272 7.47375 94.1487 9.72875C91.069 11.9838 90.0644 18.3613 90.0644 18.3613C90.0644 18.3613 88.4306 20.23 87.4248 20.1662C86.4189 20.1012 86.859 18.7487 86.859 18.7487L89.5608 8.31125H92.4516V6.82875H90.0644C90.5667 5.4125 91.3835 1.9975 90.8178 1.86875C90.2521 1.74 89.4352 3.22125 89.4352 3.22125C88.3672 5.47625 85.0363 7.345 85.0363 7.345C83.7171 6.63625 82.9637 6.82875 82.9637 6.82875C79.7584 7.15125 81.2031 10.7588 81.7067 10.8888C82.6491 11.0813 82.5857 11.9187 82.5857 11.9187C82.3979 15.6562 80.0095 17.5238 80.0095 17.5238C79.7584 9.98625 77.7479 6.95875 77.7479 6.95875L74.417 7.5375L68.95 7.6025L68.5099 8.56875C67.2541 7.28125 64.1744 5.4125 60.3412 10.115C56.5068 14.8188 56.9469 18.62 56.9469 18.62C54.6853 20.4875 54.9352 18.3613 54.9352 18.3613L59.7133 0.12875L52.4236 1.35375L54.4353 2.12625L52.1725 10.63C52.1103 10.3725 50.7277 6.95875 48.4027 6.89375C46.0776 6.82875 43.438 9.47125 43.438 9.47125L43.6258 7.5375L37.0908 8.7625L38.0333 9.2775C39.0391 9.2775 38.5368 10.695 38.5368 10.695L34.3878 26.8L32.5651 27.5087V28.3463L41.5507 28.4113C41.5507 28.2175 41.8031 27.1237 40.4205 27.1237C39.0379 27.1237 39.478 25.3825 39.478 25.3825L40.4205 22.0325C40.6082 22.29 41.3629 22.5488 43.7502 22.6775C48.2747 22.87 51.3544 14.6888 50.4119 17.7163C49.4695 20.7438 50.7265 22.6125 52.737 22.7413C54.7487 22.87 57.0725 20.165 57.0725 20.165C57.0725 20.165 57.2615 22.355 60.34 22.7413C63.4197 23.1288 65.6192 19.2625 65.6192 19.2625C65.6192 19.2625 64.7389 22.4838 68.0076 22.6125C71.2751 22.7413 72.6577 19.52 73.16 18.875C73.6623 18.2313 72.4065 17.7813 72.4065 17.7813C72.4065 17.7813 71.4628 19.8425 70.7728 19.8425C70.0815 19.8425 70.2071 18.1025 70.2071 18.1025C70.2071 18.1025 71.903 9.21125 73.16 9.34C74.4158 9.47 76.0507 21.775 76.1763 22.355C76.3019 22.935 74.4792 26.6712 73.6623 25.3175C72.8454 23.9662 70.3326 23.45 69.3902 24.8675C68.4465 26.285 68.6989 29.5063 73.2856 28.4113C77.8735 27.2513 83.466 16.2987 84.4084 13.915C85.3509 11.5313 85.9166 8.245 85.9166 8.245L86.9224 8.43875C86.9224 8.43875 84.2195 18.1025 83.9061 19.4562C83.655 20.8087 84.345 22.7413 86.2311 22.7413C88.116 22.7413 90.7544 19.7787 90.7544 19.7787C90.7544 19.7787 91.1324 22.7413 94.9034 22.7413C99.4901 22.7413 102.317 19.3275 102.317 19.3275C102.317 19.3275 103.387 22.42 107.158 22.7413C110.928 22.9988 113.127 19.9713 113.127 19.9713L112.623 22.42L115.514 22.2263L117.839 14.6238C117.839 14.6238 122.113 10.9512 123.621 9.985C125.129 9.01875 124.941 11.08 124.941 11.08L123.433 15.7187C123.433 15.7187 120.793 21.5812 122.427 22.4837C124.124 23.3862 126.386 21.7112 126.386 21.7112C126.386 21.7112 129.402 19.4563 128.649 18.7475V18.7487V18.7487ZM45.5729 16.5575C45.5729 16.5575 43.688 21.4538 41.5519 20.81C39.4146 20.1663 43.1223 12.4987 43.1223 12.4987C43.1223 12.4987 44.2537 9.8575 45.6363 9.98625C46.9555 10.0512 47.2066 12.6275 45.5729 16.5575V16.5575ZM66.3105 15.785C66.3105 15.785 64.4256 20.6813 62.2883 20.0375C60.1522 19.3925 63.8598 11.725 63.8598 11.725C63.8598 11.725 64.9913 9.08375 66.3739 9.2125C67.693 9.3425 67.9442 11.855 66.3105 15.785V15.785ZM99.5535 8.7625C103.826 8.505 99.9302 12.885 98.5476 13.6588C97.165 14.4313 94.7144 15.0762 94.3999 14.69C94.0853 14.2387 95.908 8.955 99.5535 8.7625V8.7625ZM101.815 17.3312C101.815 17.3312 99.0499 21.1312 95.9714 20.9387C92.8917 20.745 93.5208 16.2363 93.5208 16.2363C101.124 16.365 102.758 12.4987 102.758 12.4987C101.502 16.1712 101.815 17.3312 101.815 17.3312V17.3312Z" fill="#16885F"/>
</svg>
