<svg width="86" height="30" viewBox="0 0 86 30" fill="none" xmlns="http://www.w3.org/2000/svg">
<g clip-path="url(#clip0)">
<path d="M11.5498 16.8704H16.9997C16.3724 15.1774 15.7477 13.5483 15.1204 11.8552C13.867 13.5483 12.7391 15.1774 11.5498 16.8704V16.8704ZM19.5064 23.4496H19.5692L18.44 20.5187C18.1276 19.7361 18.1904 19.7361 17.3761 19.7361H10.0455C9.48095 19.7361 9.1673 19.9317 8.85491 20.3883C7.72703 22.0161 6.53767 23.6452 5.40979 25.273C5.15887 25.5991 4.90795 25.7948 4.53157 25.7296H2.52673C2.40127 25.7296 2.27581 25.7948 2.15035 25.5991C6.78733 19.0852 11.3628 12.6365 15.9986 6.12261C16.124 6.25304 16.124 6.31826 16.1868 6.38348C17.6283 10.1609 19.0686 13.9396 20.4474 17.7183L22.9528 3.38739H4.5943C4.34338 3.38739 4.21792 3.38739 4.15519 3.71348C3.52915 7.68652 2.84038 11.5943 2.21433 15.5674C1.46157 19.997 0.772802 24.3613 0.0212992 28.7909C-0.0414306 29.1822 0.0212991 29.2474 0.397678 29.2474H24.0794C24.2049 29.2474 24.3931 29.3126 24.4558 29.1822L24.8322 27.0326H18.8791L19.5064 23.4496V23.4496ZM48.6394 0H25.0818C24.7682 0 24.6427 0.0652174 24.58 0.391304V0.521739L24.4558 1.10739C24.3303 1.89 24.2049 2.67 24.0167 3.45261L21.4485 18.2387C21.3858 18.6952 21.2603 19.2157 21.1976 19.6722L20.633 22.993C20.5076 23.9061 20.2579 24.8178 20.2579 25.7296C20.3207 25.7948 20.3834 25.86 20.4461 25.86C21.8876 25.9252 23.3279 25.9252 24.7695 25.86C24.8322 25.86 24.8949 25.7948 24.9576 25.7948C25.1458 25.7948 25.334 25.7296 25.521 25.7296H44.38C44.7564 25.7296 44.8819 25.6643 44.9434 25.273L46.6345 15.1122L49.0798 0.456522C49.2052 0 49.2052 0 48.6406 0H48.6394ZM43.5018 9.76957H40.9964C40.8082 9.76957 40.6827 9.76957 40.62 9.57522C39.5549 7.09957 36.924 6.05739 34.2291 6.77478C31.2846 7.6213 28.9046 10.3565 28.5909 13.5483C28.2146 17.0009 30.5331 19.6722 33.7285 19.607C36.047 19.607 37.8637 18.4983 39.3667 16.74L39.4921 16.6096V16.5443C39.3667 16.4791 39.1785 16.4791 39.053 16.4791H34.8564C34.5428 16.4791 34.48 16.3487 34.5428 16.0878C34.6682 15.373 34.7937 14.6557 34.9191 13.8743C34.9819 13.6135 35.0446 13.483 35.3582 13.483H42.9385C43.2522 13.483 43.3149 13.5483 43.2522 13.8743C43.1267 14.5265 43.0012 15.1774 42.9385 15.8283C42.813 16.8065 42.1857 17.5226 41.6224 18.3039C39.8685 20.5187 37.6755 22.0161 34.9819 22.4726C31.8491 22.9943 29.0915 22.2117 27.1494 19.4113C25.8346 17.5226 25.5837 15.3078 26.0215 13.0278C26.8998 8.33739 30.5331 4.62522 34.9819 3.84261C37.4873 3.38609 39.8058 3.90783 41.7479 5.73261C42.8143 6.77478 43.5018 8.07652 43.8782 9.51C43.8155 9.70565 43.8155 9.77087 43.5018 9.77087V9.76957ZM53.4006 9.44478L49.4549 16.74H50.4573L51.5852 14.6557H54.4043L54.7806 16.74H55.7191L54.5297 9.44478H53.4006V9.44478ZM51.9603 13.8743L53.0882 11.7248C53.4018 11.1378 53.6528 10.6826 53.7782 10.2261C53.7782 10.6826 53.8409 11.3348 53.9664 12.0509L54.2161 13.8743H51.9603V13.8743ZM65.18 9.44478H64.303L64.1148 10.4883H64.993L65.1812 9.44478H65.18V9.44478ZM64.8036 11.4639H63.9266L62.8627 16.74H63.7397L64.8049 11.4639H64.8036ZM70.1921 11.79C69.8157 11.4639 69.3151 11.3335 68.6891 11.3335C68.1245 11.3335 67.6227 11.4639 67.2476 11.7248C66.8712 11.9857 66.5575 12.377 66.3706 12.9626L67.2488 13.0278C67.3743 12.7017 67.4985 12.5061 67.7494 12.3104C68.0003 12.1148 68.2512 12.0496 68.6264 12.0496C69.0027 12.0496 69.3164 12.1148 69.5033 12.3104C69.6288 12.4409 69.7542 12.5713 69.7542 12.8322C69.7542 12.9626 69.6915 13.2235 69.6288 13.4191C69.3779 13.4843 69.0015 13.5496 68.4382 13.6148C67.8736 13.68 67.4985 13.68 67.3103 13.68C66.9966 13.7452 66.7457 13.8091 66.496 14.0048C66.3079 14.1352 66.1197 14.3309 65.9942 14.5265C65.8688 14.7222 65.806 15.047 65.806 15.3078C65.806 15.7643 65.9315 16.1543 66.2451 16.4152C66.5588 16.6761 66.9352 16.8717 67.3743 16.8717C67.6867 16.8717 67.9991 16.8065 68.25 16.6761C68.5009 16.5457 68.8145 16.35 69.1282 16.0891C69.1282 16.35 69.1909 16.5457 69.2537 16.7413H70.1294C70.0666 16.4152 70.0039 16.2196 70.0039 16.0239C70.0039 15.763 70.0666 15.437 70.1294 14.9804L70.443 13.6787C70.5057 13.2874 70.5685 12.9613 70.5685 12.7017C70.6312 12.3104 70.5057 12.0496 70.1921 11.7887V11.79V11.79ZM69.1897 15.2426C69.0642 15.5035 68.8133 15.7643 68.5624 15.8948C68.3127 16.0239 67.9991 16.1543 67.7494 16.1543C67.4357 16.1543 67.1848 16.0891 67.0594 15.8935C66.8712 15.763 66.8084 15.5022 66.8084 15.2413C66.8084 15.0457 66.8712 14.8513 66.9966 14.7209C67.1221 14.5904 67.2476 14.46 67.4985 14.3948C67.6867 14.3296 68.063 14.2643 68.5636 14.1991C68.8773 14.1991 69.1282 14.1339 69.2537 14.1339C69.3791 14.1339 69.5033 14.0687 69.6288 14.0035C69.4406 14.5904 69.3151 14.9817 69.1897 15.2426V15.2426ZM59.7927 11.9857C60.1691 11.9857 60.4815 12.0509 60.6697 12.2465C60.8579 12.4422 60.9834 12.703 60.9834 13.0278L61.8591 12.9626C61.8591 12.4409 61.6709 12.0496 61.3585 11.7248C61.0448 11.3987 60.543 11.2683 59.917 11.2683C59.3524 11.2683 58.9145 11.3987 58.6021 11.7248C58.2885 12.0509 58.1003 12.377 58.1003 12.8322C58.1003 13.093 58.163 13.2887 58.2885 13.4843C58.4139 13.68 58.5394 13.8091 58.7903 13.9396C58.9158 14.0048 59.2294 14.1352 59.6673 14.3961C60.1064 14.5917 60.4188 14.7874 60.5442 14.9165C60.6697 15.047 60.7324 15.1774 60.7324 15.373C60.7324 15.5687 60.607 15.7643 60.4188 15.9587C60.2306 16.0891 59.917 16.2196 59.5406 16.2196C59.2909 16.2196 59.04 16.1543 58.7891 16.0239C58.6009 15.8935 58.4127 15.763 58.35 15.5674C58.2885 15.3717 58.2258 15.1761 58.2258 14.9165L57.3475 14.9817C57.3475 15.6339 57.5357 16.1543 57.9121 16.4804C58.3512 16.8065 58.8531 16.937 59.4164 16.937C59.8555 16.937 60.2319 16.8717 60.5442 16.7413C60.8579 16.6109 61.1088 16.4152 61.2343 16.1543C61.3585 15.8935 61.4839 15.6326 61.4839 15.3717C61.4839 14.9804 61.3585 14.6557 61.0448 14.3948C60.8566 14.1991 60.4803 14.0035 59.7927 13.6787L59.04 13.2874C58.9145 13.157 58.8518 13.0265 58.8518 12.8322C58.8518 12.6365 58.9145 12.5061 59.1027 12.3757C59.2282 12.1148 59.4791 11.9843 59.7927 11.9843V11.9857V11.9857ZM50.4573 19.8013C50.8964 19.5404 51.397 19.3448 51.8976 19.3448C52.3994 19.3448 52.7758 19.4752 53.0882 19.7361C53.4018 19.997 53.59 20.3883 53.7155 20.91L54.6552 20.7796C54.5924 20.2578 54.4043 19.8665 54.2161 19.5404C54.0279 19.2157 53.7142 18.9548 53.2751 18.7591C52.8373 18.5635 52.4621 18.4983 51.9603 18.4983C51.2703 18.4983 50.6442 18.6939 50.0809 19.02C49.5164 19.3461 49.0158 19.8678 48.7021 20.5839C48.3257 21.3 48.1376 22.0813 48.1376 22.993C48.1376 23.8409 48.3257 24.557 48.7648 25.0774C49.2667 25.7296 50.0182 26.0557 51.0833 26.0557C51.5852 26.0557 52.0243 25.9904 52.5249 25.7948C53.0267 25.6643 53.4646 25.4035 53.8397 25.2078L54.467 22.2117H51.397L51.2088 23.0596H53.3391L53.0255 24.6222C52.3354 25.0135 51.6467 25.2743 51.0833 25.2743C50.456 25.2743 50.0182 25.0787 49.6418 24.6874C49.2654 24.2961 49.14 23.7743 49.14 22.993C49.14 22.277 49.2654 21.6261 49.5164 21.0391C49.7045 20.5174 50.0182 20.1274 50.4573 19.8013V19.8013ZM60.2306 21.0404C59.8542 20.7143 59.3524 20.5839 58.7276 20.5839C58.163 20.5839 57.6612 20.7143 57.2848 20.9752C56.9097 21.2361 56.5973 21.6261 56.4091 22.2117L57.2861 22.277C57.4115 21.9509 57.537 21.7552 57.7879 21.5596C58.0388 21.3639 58.2885 21.3 58.6649 21.3C59.0412 21.3 59.3536 21.3652 59.5418 21.5609C59.6673 21.6913 59.7927 21.8217 59.7927 22.0826C59.7927 22.213 59.73 22.4726 59.6673 22.6683C59.4164 22.7335 59.04 22.7987 58.4754 22.8639C57.9121 22.9291 57.537 22.9291 57.3488 22.9291C57.0351 22.9943 56.7842 23.0596 56.5333 23.2552C56.3451 23.3843 56.1582 23.58 56.0327 23.7757C55.9073 23.9713 55.8445 24.2974 55.8445 24.557C55.8445 25.0135 55.97 25.4048 56.2836 25.6643C56.5973 25.9252 56.9737 26.1209 57.4115 26.1209C57.7252 26.1209 58.0388 26.0557 58.2885 25.9252C58.5394 25.7948 58.8531 25.5991 59.1667 25.3383C59.1667 25.5991 59.2294 25.7948 59.2909 25.9904H60.1691C60.1064 25.6643 60.0437 25.4687 60.0437 25.273C60.0437 25.0122 60.1064 24.6861 60.1691 24.2309L60.4815 22.9278C60.5442 22.5365 60.607 22.2117 60.607 21.9509C60.6697 21.6248 60.4815 21.3 60.2306 21.0391V21.0404V21.0404ZM59.2282 24.557C59.1027 24.8178 58.8518 25.0787 58.6009 25.2091C58.35 25.3396 58.0376 25.47 57.7866 25.47C57.473 25.47 57.2233 25.4048 57.0979 25.2091C56.9097 25.0787 56.847 24.8178 56.847 24.557C56.847 24.3613 56.9097 24.1657 57.0351 24.0352C57.1606 23.9048 57.2861 23.7743 57.4743 23.7091C57.6624 23.6439 58.0388 23.5787 58.5394 23.5135C58.8531 23.5135 59.104 23.4496 59.2294 23.4496C59.3536 23.4496 59.4791 23.3843 59.6046 23.3191C59.4791 23.8409 59.3536 24.2322 59.2282 24.557V24.557ZM68.3754 20.5826C68.0618 20.5826 67.7481 20.6478 67.4985 20.8435C67.1848 21.0391 66.9339 21.2348 66.683 21.5596C66.6203 21.2335 66.496 20.9726 66.2451 20.8422C66.0569 20.6465 65.7433 20.5813 65.4309 20.5813C65.1173 20.5813 64.8663 20.6465 64.6154 20.777C64.3657 20.9074 64.0521 21.1683 63.7397 21.5596L63.9279 20.7117H63.0497L61.9845 25.9891H62.8627L63.3633 23.5135C63.4888 22.9917 63.6142 22.5352 63.8024 22.2757C63.9906 22.0148 64.1788 21.7539 64.4912 21.6235C64.7421 21.493 64.993 21.3626 65.244 21.3626C65.4309 21.3626 65.5564 21.4278 65.6191 21.493C65.7445 21.6235 65.7445 21.7539 65.7445 21.8843C65.7445 22.0148 65.7445 22.1452 65.6818 22.4061L64.9918 25.9891H65.87L66.3718 23.4483C66.4961 22.9265 66.6215 22.47 66.747 22.2104C66.8724 21.9496 67.1233 21.7539 67.3743 21.5583C67.6239 21.4278 67.8748 21.2987 68.1872 21.2987C68.3754 21.2987 68.5009 21.3639 68.6264 21.4291C68.7518 21.5596 68.8145 21.69 68.8145 21.8204C68.8145 21.9509 68.8145 22.1465 68.7518 22.4061L68.0618 25.9239H68.94L69.6288 22.5365C69.6915 22.1452 69.7542 21.8843 69.7542 21.7539C69.7542 21.3626 69.6288 21.103 69.4406 20.8422C69.2524 20.5813 68.8133 20.5813 68.3754 20.5813V20.5826V20.5826ZM72.1342 19.7348H73.0124L73.2006 18.6926H72.3224L72.1342 19.7361V19.7348V19.7348ZM70.8821 25.9891H71.7591L72.8242 20.713H71.946L70.8821 25.9891V25.9891ZM77.3345 20.5826C77.0209 20.5826 76.7085 20.6478 76.3948 20.8435C76.0812 21.0391 75.7675 21.2987 75.4551 21.6248L75.6433 20.7117H74.8278L73.7639 25.9891H74.6409L75.1427 23.5135C75.3309 22.7309 75.5818 22.1452 75.8942 21.8204C76.2706 21.4943 76.6457 21.2987 77.0848 21.2987C77.3358 21.2987 77.4612 21.3639 77.5867 21.4943C77.7109 21.6248 77.7736 21.7552 77.7736 21.9509C77.7736 22.0813 77.7109 22.3409 77.6481 22.667L76.9581 25.9891H77.8363L78.4636 22.7974C78.5264 22.4061 78.5891 22.08 78.5891 21.8843C78.5891 21.493 78.4636 21.1683 78.2127 20.9726C78.0873 20.7117 77.7736 20.5813 77.3345 20.5813V20.5826V20.5826ZM84.4142 20.713L84.226 21.5596C83.8509 20.9074 83.349 20.5813 82.6603 20.5813C82.2839 20.5813 81.846 20.7117 81.4696 20.9726C81.0933 21.2335 80.7809 21.6248 80.4672 22.0813C80.2163 22.6017 80.0281 23.1222 80.0281 23.7091C80.0281 24.4265 80.2163 25.0122 80.53 25.4022C80.9063 25.7935 81.2827 25.9891 81.846 25.9891C82.3479 25.9891 82.8485 25.7283 83.2876 25.2717L83.2248 25.7283C83.0994 26.3804 82.9739 26.7704 82.7857 26.9661C82.5348 27.227 82.1584 27.3574 81.6578 27.3574C81.4069 27.3574 81.2187 27.2922 81.0305 27.227C80.9051 27.1617 80.8424 27.0965 80.7809 26.9661C80.7181 26.8357 80.7181 26.7052 80.7181 26.5096L79.8399 26.4443V26.7052C79.8399 26.9661 79.9027 27.227 80.0281 27.4226C80.1536 27.6183 80.4045 27.8126 80.7181 27.8778C81.0318 28.0083 81.3454 28.0735 81.7833 28.0735C82.2224 28.0735 82.5988 28.0083 82.9112 27.8126C83.2248 27.617 83.4757 27.4213 83.6639 27.0952C83.8509 26.7691 83.9763 26.3139 84.1018 25.7935L85.1042 20.713H84.4142V20.713ZM83.7254 23.9687C83.5372 24.4252 83.349 24.7513 83.0354 24.947C82.7857 25.1426 82.4721 25.273 82.1597 25.273C81.9715 25.273 81.7206 25.2078 81.5951 25.0774C81.4069 24.947 81.2815 24.7513 81.156 24.4904C81.0933 24.2948 81.0305 24.0339 81.0305 23.6426C81.0305 23.4483 81.0933 23.1874 81.156 22.8626C81.2187 22.5365 81.3442 22.2104 81.5324 22.0148C81.7206 21.7539 81.9088 21.6235 82.0969 21.493C82.2851 21.3626 82.4733 21.2987 82.7242 21.2987C83.0366 21.2987 83.349 21.4291 83.6 21.69C83.8509 21.9509 83.9763 22.277 83.9763 22.7322C83.9763 23.1235 83.8509 23.5787 83.7254 23.9687V23.9687Z" fill="#16885F"/>
</g>
<defs>
<clipPath id="clip0">
<rect width="85.3125" height="30" fill="white"/>
</clipPath>
</defs>
</svg>
