<svg width="87" height="30" viewBox="0 0 87 30" fill="none" xmlns="http://www.w3.org/2000/svg">
<path d="M60.6752 26.0411C61.2517 25.5189 61.8838 25.4522 62.5585 25.6844C62.731 25.7433 62.8751 25.8633 62.9756 26.0367C63.0127 26.1011 63.0345 26.1 63.0848 26.05C63.6132 25.5211 64.23 25.46 64.8796 25.6633C65.2967 25.7944 65.4998 26.1211 65.502 26.6089C65.5063 27.3289 65.502 28.0489 65.5063 28.7678C65.5063 28.8622 65.4834 28.89 65.4004 28.8867C65.2476 28.88 65.0947 28.8778 64.943 28.8867C64.8447 28.8933 64.8218 28.8589 64.8229 28.75C64.8272 28.12 64.8163 27.4889 64.8272 26.8578C64.836 26.3278 64.7137 26.0411 64.0739 26.0311C63.9713 26.03 63.8665 26.0467 63.7671 26.0744C63.3381 26.1911 63.1361 26.4722 63.1317 26.9744C63.1263 27.5611 63.1263 28.1478 63.1317 28.7344C63.1339 28.8611 63.1033 28.8967 62.9942 28.8878C62.8522 28.8767 62.7081 28.8767 62.5662 28.8878C62.457 28.8967 62.4384 28.8489 62.4395 28.7378C62.4439 28.1178 62.4319 27.4978 62.445 26.8778C62.4581 26.2089 62.1884 26 61.6338 26.0333C61.1392 26.06 60.8335 26.3367 60.7604 26.8178C60.7407 26.9478 60.7386 27.0811 60.7375 27.2144C60.7353 27.7233 60.7331 28.2333 60.7375 28.7422C60.7396 28.8589 60.7113 28.8944 60.6086 28.8867C60.4558 28.8767 60.3029 28.8811 60.1512 28.8867C60.0802 28.8878 60.0475 28.8733 60.0475 28.7789C60.0507 27.7667 60.0496 26.7533 60.0475 25.74C60.0475 25.6544 60.0671 25.6178 60.1457 25.6289C60.1796 25.6333 60.2145 25.6289 60.2494 25.6289C60.3772 25.6289 60.53 25.5811 60.6261 25.6433C60.732 25.7133 60.6294 25.9056 60.6752 26.0411V26.0411ZM47.9779 26.5689C47.7869 26.5911 47.6133 26.6122 47.4397 26.63C47.4026 26.6344 47.3643 26.65 47.3392 26.5844C47.1296 26.0522 46.7355 25.9822 46.3075 26.0378C45.9429 26.0844 45.6306 26.2544 45.493 26.6956C45.3828 27.0533 45.386 27.42 45.5007 27.7733C45.6426 28.2144 45.9614 28.3633 46.3261 28.4122C46.5433 28.4411 46.7584 28.4122 46.9604 28.3111C47.1755 28.2022 47.3239 28.02 47.3829 27.75C47.4047 27.6567 47.4375 27.6344 47.515 27.6467C47.6875 27.6722 47.86 27.6878 48.038 27.7089C47.9463 28.1844 47.6984 28.4978 47.336 28.6733C46.7158 28.9733 46.0881 28.9622 45.4799 28.6289C44.9548 28.34 44.7397 27.8156 44.7648 27.1511C44.7899 26.4878 45.0432 25.9944 45.5891 25.7556C46.1787 25.4978 46.7726 25.4778 47.3611 25.76C47.6689 25.9067 47.8829 26.17 47.9768 26.5689H47.9779V26.5689ZM34.0742 24.4444C34.0742 24.7822 34.0829 25.0967 34.0698 25.41C34.0644 25.5544 34.1124 25.5856 34.2445 25.5767C34.4083 25.5644 34.5742 25.5767 34.7391 25.5722C34.8155 25.57 34.8406 25.59 34.8439 25.6722C34.857 26.0056 34.8603 26.0056 34.5273 26.0056C34.417 26.0056 34.3067 26.0133 34.1976 26.0033C34.0895 25.9922 34.072 26.0367 34.072 26.1344C34.0764 26.7411 34.072 27.3489 34.0753 27.9567C34.0775 28.2567 34.1714 28.3478 34.4705 28.3556H34.4869C34.8745 28.3611 34.8908 28.3778 34.9345 28.7622C34.9422 28.8178 34.9312 28.8433 34.8734 28.85C34.5229 28.8911 34.1714 28.9211 33.8253 28.8233C33.4814 28.7267 33.3329 28.5544 33.3252 28.1978C33.3121 27.5356 33.3078 26.8733 33.3165 26.2111C33.3187 26.0311 33.2619 25.9778 33.0982 26.0044C33.0545 26.0111 33.0108 26.0044 32.9671 26.0044C32.7532 26.0044 32.7532 26.0044 32.7532 25.7867C32.7532 25.5733 32.7532 25.5733 32.9715 25.5733C33.3121 25.5733 33.3427 25.57 33.3034 25.2322C33.2619 24.8689 33.3831 24.6678 33.7325 24.5856C33.8416 24.5589 33.9443 24.4989 34.0742 24.4444V24.4444ZM38.7481 29.6922C38.6378 29.6878 38.4915 29.7244 38.4249 29.6656C38.355 29.6056 38.4162 29.4511 38.4031 29.34C38.3878 29.2233 38.4216 29.1811 38.5439 29.1911C38.7044 29.2033 38.866 29.1967 39.0276 29.1933C39.0898 29.1911 39.1215 29.2067 39.1116 29.2756C39.1084 29.2889 39.1116 29.3033 39.1116 29.3167C39.1018 29.4367 39.1619 29.5989 39.0854 29.6678C39.0199 29.7256 38.8638 29.6789 38.7481 29.6789V29.6922V29.6922ZM19.1246 28.4256C19.7294 28.3956 20.1093 27.8878 20.081 27.1478C20.0537 26.4344 19.6464 26.0067 19.023 26.0367C18.4258 26.0667 18.0393 26.5689 18.0655 27.2789C18.095 28.0467 18.476 28.46 19.1246 28.4256ZM20.0362 25.8211C20.8234 26.2567 20.9915 27.64 20.3484 28.3344C19.8135 28.9144 19.177 29.0156 18.4957 28.7489C18.3429 28.6889 18.214 28.5722 18.0797 28.4156C18.0765 28.4778 18.0743 28.5078 18.0743 28.5378C18.071 28.8178 18.071 28.82 17.8264 28.8156C17.714 28.8144 17.5644 28.8767 17.4989 28.7889C17.4443 28.7156 17.4793 28.5444 17.4793 28.4156C17.4793 27.1489 17.4814 25.8833 17.4749 24.6178C17.4749 24.47 17.5098 24.4344 17.6277 24.4467C17.7489 24.4578 17.8745 24.4567 17.9968 24.4467C18.0917 24.4389 18.1201 24.47 18.119 24.5867C18.1125 25.0478 18.1158 25.5111 18.1158 25.9789C18.1343 25.9767 18.1496 25.9789 18.1583 25.9711C18.7566 25.44 19.4008 25.4689 20.0362 25.8211ZM10.5007 26.7667C10.4766 26.8733 10.4897 26.9056 10.5836 26.9033C10.909 26.8967 11.2343 26.9011 11.5608 26.9011H12.4593C12.4309 26.5622 12.2977 26.3278 12.0608 26.1844C11.7627 26.0044 11.4516 25.9833 11.135 26.0844C10.8358 26.1789 10.5945 26.3667 10.5017 26.7667H10.5007V26.7667ZM10.5771 27.3511C10.4526 27.3478 10.4461 27.4056 10.4668 27.5267C10.5432 27.96 10.7714 28.2178 11.1 28.3456C11.3621 28.4467 11.6285 28.4489 11.8948 28.3633C12.1154 28.2911 12.2901 28.1411 12.408 27.9022C12.4462 27.8244 12.4844 27.8022 12.5543 27.8122C12.7006 27.8344 12.8469 27.8522 12.9943 27.8622C13.0718 27.8689 13.0783 27.8956 13.0456 27.9789C12.9004 28.3422 12.6635 28.5811 12.3632 28.7078C11.7813 28.9522 11.1928 28.9567 10.6186 28.68C10.136 28.4478 9.85432 28.0133 9.82812 27.3489C9.80192 26.6689 10.0115 26.1411 10.5094 25.8422C11.1317 25.4667 11.7769 25.4611 12.4069 25.82C12.8829 26.09 13.1078 26.58 13.1013 27.2333C13.1013 27.3322 13.0794 27.3589 12.9986 27.3578C12.5903 27.3522 12.182 27.3544 11.7748 27.3544C11.3752 27.3544 10.9756 27.3622 10.576 27.3511H10.5771V27.3511ZM25.7767 26.81C25.7647 26.8756 25.7724 26.9056 25.8368 26.9056C26.47 26.9022 27.1032 26.9033 27.7452 26.9033C27.6928 26.5367 27.6076 26.3522 27.3838 26.2133C26.9406 25.9367 26.4984 25.9511 26.0715 26.2756C25.9121 26.3978 25.8193 26.5833 25.7767 26.8089V26.81V26.81ZM27.6982 27.9011C27.7277 27.84 27.7572 27.8078 27.8183 27.8167C27.9963 27.8422 28.1732 27.8589 28.361 27.88C28.2856 28.1456 28.1535 28.34 27.9832 28.4956C27.7277 28.7289 27.4329 28.8267 27.1218 28.8656C26.7255 28.9156 26.3335 28.8911 25.9547 28.7211C25.4208 28.4789 25.1326 27.9978 25.1118 27.3278C25.09 26.6156 25.3367 26.0833 25.8586 25.8011C26.4547 25.4767 27.0661 25.4711 27.6622 25.8011C28.1459 26.0678 28.3839 26.55 28.3861 27.2144C28.3861 27.3378 28.3566 27.3633 28.2616 27.3633C27.4635 27.3578 26.6654 27.3644 25.8663 27.3556C25.7287 27.3533 25.7309 27.4178 25.7527 27.5411C25.8313 27.9767 26.0639 28.23 26.3903 28.3578C26.6447 28.4544 26.9034 28.4578 27.1622 28.3778C27.3915 28.3067 27.5727 28.1533 27.6972 27.9011H27.6982V27.9011ZM54.3233 28.3967C54.7786 28.2878 55.0373 27.9056 55.069 27.3033C55.0985 26.7111 54.879 26.2844 54.4489 26.1056C54.3178 26.0511 54.1835 26.0256 54.0449 26.0278C53.3407 26.0278 52.964 26.5389 53.0252 27.4222C53.0514 27.8089 53.202 28.0944 53.475 28.2689C53.7457 28.4422 54.0318 28.4667 54.3233 28.3967V28.3967ZM54.9958 25.83C55.4576 26.0967 55.6836 26.5744 55.6804 27.2278C55.6771 27.9178 55.438 28.4033 54.9314 28.6711C54.6443 28.8233 54.344 28.89 53.9401 28.8889C53.6759 28.8856 53.3287 28.8156 53.0121 28.5889C52.5819 28.2844 52.3974 27.8078 52.4051 27.1922C52.4127 26.5856 52.6092 26.12 53.0437 25.8556C53.6868 25.4644 54.3462 25.4556 54.9958 25.83ZM15.4224 9.42778C15.4147 9.34111 15.4224 9.25111 15.4235 9.16333C15.4235 9.12556 15.4202 9.08778 15.4191 9.05C15.3973 8.99667 15.4191 8.93667 15.4005 8.88333C15.335 8.24778 15.1516 7.66444 14.8306 7.14111L14.8328 7.13333L14.8852 7.13111C14.8579 7.08445 14.8306 7.03556 14.8022 6.99C14.6472 6.74556 14.4452 6.55333 14.252 6.35333C13.9288 6.02222 13.5718 5.77 13.1351 5.68444C12.8098 5.62 12.4811 5.58444 12.1558 5.53C11.5771 5.43556 11.0072 5.47222 10.4406 5.62556C9.81065 5.79444 9.2331 6.10778 8.67739 6.48111C8.56276 6.55667 8.42956 6.60111 8.34768 6.73333C7.31159 7.45556 6.54189 8.49222 5.79948 9.60222H7.91315C7.94372 9.6 7.97429 9.59445 8.00595 9.59445C9.60977 9.58556 11.2125 9.57778 12.8163 9.57111C13.6439 9.56778 14.4725 9.56445 15.3012 9.56556C15.3929 9.56556 15.4322 9.54111 15.4213 9.42778H15.4224V9.42778ZM19.6202 7.66333C19.6704 8.16333 19.6552 8.66333 19.617 9.16333C19.6006 9.44889 19.5875 9.73556 19.5241 10.0144C19.5132 10.0622 19.5154 10.1144 19.511 10.1633C19.4739 10.5456 19.4051 10.9189 19.3211 11.29C19.2468 11.6933 19.154 12.09 19.0372 12.48C18.963 12.82 18.8538 13.1467 18.7534 13.4767C18.6933 13.7178 18.6933 13.7178 18.4771 13.7178L12.5466 13.7389C10.1207 13.7478 7.6948 13.7589 5.26997 13.77C5.03197 13.77 4.79396 13.7789 4.55704 13.7767C4.47953 13.7767 4.45005 13.8011 4.43695 13.8956C4.41293 14.0889 4.39219 14.2833 4.38236 14.4778C4.37581 14.8511 4.38127 15.2222 4.41839 15.5933C4.49809 16.0267 4.6029 16.4489 4.79287 16.8367L4.89659 17.05C5.12586 17.4033 5.38788 17.7167 5.70013 17.9744C5.82896 18.0811 5.96652 18.1611 6.10845 18.2333C7.42295 18.8489 8.75054 18.7589 10.0847 18.3422L10.2266 18.2978C10.9101 18.0411 11.5509 17.68 12.1645 17.2511C12.4265 17.0378 12.7028 16.8467 12.9528 16.6122C13.0074 16.5611 13.0707 16.5722 13.1318 16.5711L16.7412 16.54C16.7685 16.54 16.7958 16.5367 16.822 16.5344C17.2434 16.5344 17.6649 16.5322 18.0863 16.5333C18.1332 16.5333 18.2042 16.5 18.2228 16.5522C18.2446 16.6111 18.2031 16.68 18.1704 16.7356C18.154 16.7667 18.1321 16.7933 18.1125 16.8211L17.666 17.3256C17.3712 17.6933 17.0644 18.0478 16.7423 18.3844C16.4017 18.7756 16.0436 19.1411 15.6636 19.4778C15.1636 19.9689 14.6221 20.3922 14.0664 20.7922C13.9561 20.8722 13.8415 20.9433 13.7301 21.0189C13.2443 21.3722 12.729 21.6611 12.2104 21.9433C11.9756 22.0711 11.742 22.2033 11.4953 22.2989C10.8555 22.6278 10.1917 22.8733 9.50823 23.0433C8.2254 23.36 6.92947 23.3978 5.63026 23.2511C4.71972 23.1478 3.84193 22.8789 3.02747 22.3789C2.96852 22.3422 2.91284 22.3 2.85606 22.2589C2.33747 21.9289 1.88439 21.5078 1.50336 20.9811C1.14962 20.5333 0.864671 20.0311 0.646317 19.4789C0.468358 19.0922 0.339529 18.6844 0.24782 18.26C0.148469 17.8711 0.0775034 17.4767 0.0556679 17.0711L0.0523926 17.0167V17.0144C0.0250983 16.9533 0.0283736 16.8878 0.0316489 16.8222C0.00217109 16.4344 -0.0174808 16.0467 0.0229148 15.6578C0.0261901 15.2578 0.0633103 14.8633 0.132092 14.4733C0.160478 14.1111 0.23581 13.7589 0.320969 13.41C0.407219 12.9411 0.524038 12.4833 0.672519 12.0367C0.71619 11.8033 0.805715 11.5878 0.878864 11.3656C0.960747 11.1133 1.04263 10.8611 1.1529 10.6233C1.18238 10.4589 1.26426 10.3211 1.3254 10.1733C1.45641 9.86222 1.58306 9.54778 1.74682 9.25556C1.88111 8.93444 2.05252 8.63889 2.21956 8.34C2.3604 8.08778 2.50233 7.83667 2.6661 7.60333C2.92921 7.17333 3.21526 6.76556 3.52532 6.38C3.83538 5.96778 4.16291 5.57556 4.51883 5.21889C4.92497 4.76667 5.35731 4.35556 5.81477 3.97778C6.46328 3.40556 7.1511 2.91 7.88367 2.49778C8.88592 1.90556 9.94385 1.50444 11.052 1.28667C12.075 1.08667 13.1023 1.05889 14.1308 1.19667C15.1636 1.33444 16.1462 1.66111 17.0338 2.31333C17.226 2.45444 17.3941 2.63222 17.5742 2.79111C17.7642 2.92111 17.9072 3.11333 18.0557 3.29556C18.3265 3.62556 18.5688 3.98333 18.7588 4.38444C19.0132 4.85778 19.2239 5.35444 19.332 5.90333C19.3342 5.91778 19.3451 5.92889 19.3527 5.94111C19.4838 6.36333 19.5438 6.80333 19.5929 7.24444C19.6082 7.38333 19.6322 7.52222 19.6202 7.66333V7.66333ZM64.8873 0H65.5063C65.3644 0.191111 65.2334 0.364444 65.1024 0.537778L64.5292 1.32667C64.0532 1.98222 63.5761 2.63556 63.099 3.28889C62.8915 3.59111 62.6786 3.89111 62.4515 4.17444C62.4221 4.22444 62.3773 4.20222 62.3402 4.20222L54.0755 4.23556C54.0482 4.23556 54.0209 4.23222 53.9947 4.23L51.3449 4.24222H50.2641C49.918 4.24778 49.5708 4.25667 49.2247 4.26111C48.9714 4.26444 48.7192 4.26667 48.467 4.26111C48.3786 4.25889 48.336 4.28556 48.3011 4.38889C48.0358 5.18556 47.7628 5.97778 47.4899 6.77C47.4713 6.82667 47.4659 6.89444 47.4157 6.93333C47.3895 7.14222 47.2977 7.32556 47.2344 7.51889C47.1154 7.88 46.9877 8.23778 46.8643 8.59667L46.789 8.81889C47.2301 8.82111 47.6711 8.82444 48.1122 8.82333C49.8481 8.81889 51.5862 8.81444 53.3232 8.80778C54.7174 8.80333 56.1116 8.79444 57.5047 8.78778C57.5549 8.78778 57.6041 8.79111 57.6543 8.79333H59.4885C59.3869 8.99333 59.2286 9.14 59.1107 9.32222L58.9262 9.57778C58.7341 9.84 58.5441 10.1044 58.3508 10.3667L56.9228 12.3289L56.8104 12.4811C56.7023 12.6344 56.5931 12.7878 56.4861 12.9433C56.4566 12.9856 56.4228 12.9933 56.3802 12.9933L53.0547 13.0033C53.0459 13.0033 53.0372 12.9989 53.0285 12.9967C52.678 13.03 52.3254 13.0156 51.9749 13.0167C49.859 13.0256 47.7443 13.03 45.6284 13.0367C45.3282 13.0367 45.3293 13.0378 45.219 13.3578L43.8303 17.3511L43.6425 17.8889L43.6174 17.9556C43.6523 18.0178 43.7069 17.9856 43.7517 17.9867C44.1775 17.99 44.6032 17.99 45.0269 17.9911L47.2486 17.9889L49.2094 17.9733C50.3809 17.9656 51.5524 17.96 52.7249 17.9544C52.7599 17.9544 52.7959 17.9578 52.8319 17.9589L55.1618 17.9489L60.5377 17.9222C60.5781 17.9222 60.6185 17.9256 60.6599 17.9267H61.315L60.8805 18.5033C60.6392 18.8611 60.3848 19.2078 60.1217 19.5456C59.8531 19.92 59.5867 20.2956 59.3171 20.6678C59.0092 21.0933 58.6991 21.5167 58.3891 21.94C58.3727 21.9633 58.3607 21.9956 58.329 21.9967C58.2908 22.1111 58.2166 22.13 58.1161 22.1311L49.0435 22.1644C48.8535 22.1656 48.6646 22.1633 48.4758 22.1622C48.1602 22.1978 47.8447 22.1767 47.5303 22.1789C46.6132 22.1844 45.6983 22.1833 44.7823 22.1833C44.0061 22.1867 43.2298 22.1889 42.4525 22.1944L37.998 22.22C37.9478 22.22 37.8987 22.2167 37.8485 22.2144L37.3855 22.2156C37.0755 22.2344 37.0744 22.2344 37.1945 21.8956L37.2272 21.8111C37.4827 21.0667 37.7371 20.3222 37.9937 19.58C38.2066 18.9633 38.4195 18.3467 38.6345 17.7311C38.6498 17.6867 38.6695 17.6467 38.688 17.6067C38.7044 17.5167 38.735 17.4333 38.7721 17.3544L38.7841 17.3178C39.0341 16.5778 39.282 15.8378 39.5538 15.1089C39.5658 15.0267 39.5844 14.9489 39.6302 14.8822L39.6379 14.8889L39.6302 14.8822C39.8792 14.1567 40.1259 13.4333 40.3759 12.7089C40.5604 12.1744 40.7471 11.6411 40.9327 11.1078C40.9502 11.0589 40.9709 11.0133 40.9906 10.9667C41.0757 10.6744 41.1762 10.39 41.2864 10.1111C41.4273 9.66111 41.5812 9.21889 41.7483 8.78333C41.924 8.22889 42.1129 7.68111 42.316 7.14111C42.5201 6.51222 42.7352 5.88778 42.9645 5.27222C43.042 5.00333 43.1337 4.74111 43.2374 4.48444C43.2527 4.39556 43.2789 4.31222 43.3226 4.23778C43.3204 4.20889 43.316 4.18111 43.3455 4.16778C43.4907 3.72222 43.6392 3.27778 43.8073 2.84222C43.922 2.38889 44.1676 2.03667 44.4624 1.73222C45.1983 0.973333 46.0651 0.484444 46.9789 0.101111C47.0368 0.0733333 47.0969 0.0644444 47.1602 0.0633333C50.5589 0.0522222 53.9576 0.0377778 57.3573 0.0244444C57.5407 0.0244444 57.7263 0.0277778 57.9109 0.03C57.9633 0.00777778 58.0179 0.0177778 58.0713 0.0177778H58.1805C58.3967 0.0111111 58.6118 0.0122222 58.8269 0.0111111C59.7549 0.00777778 60.6807 0.00777778 61.6076 0.00666667H62.0159L64.8873 0ZM84.965 0.488889H85.5665C85.4967 0.658889 85.3569 0.745556 85.2816 0.897778L84.8875 1.44444L84.7761 1.60333L83.2902 3.68111L82.5805 4.68111C82.5533 4.72111 82.5249 4.74 82.479 4.74L79.9647 4.74111C79.9166 4.76333 79.8664 4.75222 79.8173 4.75222L79.3642 4.75333C79.2463 4.75556 79.1284 4.76 79.0105 4.76C78.0584 4.76444 77.1075 4.76333 76.1566 4.76444H75.912C75.7995 4.74222 75.7559 4.81667 75.7155 4.93333C75.472 5.62667 75.2198 6.31667 74.9731 7.00889C74.9665 7.02778 74.9665 7.05 74.9643 7.07111L74.3202 8.92667C74.2012 9.27445 74.0844 9.62222 73.9643 9.96889C73.9566 9.99222 73.937 10.01 73.9228 10.03C73.8464 10.3733 73.711 10.6889 73.6007 11.0156C73.4031 11.6 73.1989 12.1822 72.9981 12.7644C72.7863 13.3867 72.5755 14.0089 72.3616 14.6311C72.3223 14.7444 72.2655 14.85 72.2447 14.9722L70.5481 20.0578C70.2752 20.9222 70.011 21.7911 69.642 22.6067C69.5928 22.7178 69.5481 22.8367 69.4531 22.9089C69.4334 22.9178 69.4127 22.9333 69.393 22.9333H67.5872L64.9484 22.9356H64.2999L64.468 22.6522L64.6777 22.2278C64.9484 21.6122 65.1864 20.9778 65.4255 20.3444C65.6821 19.5744 65.9365 18.8022 66.2138 18.0422C66.4158 17.4422 66.6145 16.8433 66.8175 16.2456C66.9813 15.7656 67.1505 15.2878 67.3176 14.81C67.3307 14.7189 67.3634 14.6367 67.4027 14.5589C67.3995 14.5311 67.4071 14.5078 67.4257 14.4922C67.6276 13.8911 67.8274 13.29 68.0316 12.69C68.1681 12.2878 68.3111 11.8878 68.4508 11.4867C68.6222 10.9356 68.8122 10.3933 69.0055 9.85333C69.2631 9.08111 69.5164 8.30889 69.7959 7.54778C69.988 6.97333 70.1802 6.39778 70.3745 5.82444C70.4782 5.51556 70.5874 5.20778 70.6933 4.9C70.7392 4.78889 70.6791 4.79667 70.6158 4.79667C70.1049 4.8 69.5939 4.80111 69.0841 4.80222C69.0349 4.80222 68.9858 4.79889 68.9367 4.79667L66.4911 4.80778C65.9583 4.81 65.4255 4.81444 64.8927 4.81889C64.8578 4.81889 64.8229 4.82556 64.7868 4.82889C64.7563 4.86222 64.7192 4.87333 64.6798 4.87778C64.6373 4.88333 64.6023 4.86667 64.5718 4.83222C64.5172 4.81889 64.4637 4.81778 64.4102 4.83222C64.1427 4.83111 63.8752 4.83222 63.6088 4.82667C63.5892 4.82667 63.504 4.87889 63.5477 4.76889L63.7966 4.42111L63.9822 4.16333L64.5576 3.35778C65.0554 2.64778 65.5565 1.94 66.0697 1.24667C66.2225 1.01333 66.3808 0.786667 66.5533 0.574444C66.7367 0.528889 66.9223 0.566667 67.1069 0.552222C67.1593 0.548889 67.2128 0.548889 67.2652 0.545556H67.5632L69.0458 0.548889C69.1081 0.548889 69.1703 0.552222 69.2325 0.554444L71.6814 0.542222L80.1601 0.504444L84.8711 0.482222C84.9027 0.482222 84.9333 0.486667 84.965 0.488889V0.488889ZM36.8407 5.48556C36.8571 5.44111 36.8473 5.39222 36.8539 5.34556L36.7534 5.32444C36.7185 5.28444 36.6759 5.27778 36.6311 5.28C35.5503 5.26889 34.4694 5.30889 33.3886 5.3C32.6145 5.29444 31.8393 5.29444 31.0642 5.30333C31.003 5.31667 30.9408 5.31222 30.8786 5.31222C29.9855 5.31556 29.0913 5.30667 28.1983 5.31667C28.1371 5.32556 28.0989 5.37222 28.0673 5.43C27.8817 5.98 27.7026 6.53222 27.517 7.08111C27.291 7.73667 27.0803 8.39667 26.8576 9.05333C26.7779 9.33111 26.6523 9.59111 26.6087 9.88556C26.6119 9.90333 26.6185 9.91889 26.6283 9.93333C26.7539 10.0022 26.8871 9.95333 27.0159 9.96778C28.5717 9.94889 30.1274 9.98778 31.6843 9.94333C32.8656 9.91 34.0469 9.94111 35.2293 9.93556C35.2457 9.93333 35.261 9.92778 35.2751 9.92111C35.3188 9.89444 35.3341 9.84556 35.3527 9.79889C35.428 9.60222 35.4902 9.40111 35.5601 9.20333C35.7533 8.64111 35.9466 8.07889 36.142 7.51889C36.154 7.47889 36.1649 7.43889 36.1791 7.4C36.4029 6.76333 36.6246 6.12556 36.8407 5.48556V5.48556ZM33.8373 14.17C33.8657 14.0856 33.8034 14.1133 33.7751 14.0989C33.6866 14.0578 33.5938 14.0567 33.4999 14.0578C32.4038 14.0733 31.3087 14.0578 30.2115 14.0811C28.6197 14.1144 27.0268 14.0889 25.435 14.09C25.3619 14.09 25.2822 14.0678 25.2167 14.1333C25.1479 14.1278 25.1326 14.1933 25.114 14.2511C25.0409 14.4656 24.9699 14.68 24.8957 14.8944L24.019 17.4622C23.9688 17.4867 23.9513 17.5422 23.9349 17.5956C23.8367 17.92 23.7198 18.2333 23.6139 18.5511C23.5877 18.6233 23.5615 18.6956 23.543 18.7689C23.52 18.86 23.4491 18.9378 23.4829 19.0467C23.4371 19.2144 23.5615 19.1111 23.5976 19.1478C23.6773 19.2078 23.7668 19.2033 23.8552 19.2033C25.2887 19.2022 26.7211 19.2056 28.1557 19.1733C28.8763 19.1578 29.5979 19.1756 30.3196 19.1678C30.6449 19.1456 30.9714 19.1633 31.2967 19.1567C31.5653 19.1522 31.8339 19.1711 32.1025 19.1456C32.1625 19.1433 32.2051 19.11 32.2302 19.0433C32.3841 18.5933 32.5272 18.1389 32.6887 17.6933C33.049 16.6189 33.4093 15.5444 33.7761 14.4733C33.8089 14.3756 33.8384 14.2778 33.8373 14.17ZM42.5791 2.95111L42.5704 3.01444C42.5747 3.08111 42.5791 3.14778 42.5485 3.20889L42.5442 3.26667C42.5332 3.44333 42.4612 3.6 42.4383 3.77222C42.4175 3.84778 42.5016 3.97222 42.3673 3.99667L42.066 4.91444C41.9895 5.18444 41.8967 5.44778 41.7996 5.70667C41.5638 6.42111 41.3148 7.12778 41.0572 7.83L40.4873 9.47778C40.4796 9.49778 40.4763 9.51778 40.4731 9.53778C40.4654 9.60111 40.5069 9.69667 40.4021 9.7C40.3945 9.70778 40.3912 9.71778 40.3934 9.72889C40.3028 9.87556 40.2373 10.0433 40.1281 10.1744L39.9785 10.3967C39.5014 10.96 38.9271 11.3344 38.3048 11.6156C38.2852 11.6233 38.2633 11.6267 38.2415 11.6344C37.9085 11.7978 37.5635 11.9 37.2054 11.9456L37.129 11.9556C37.0526 11.9956 36.9696 11.9767 36.8899 11.9867L36.8648 12.04C36.9805 12.05 37.0962 12.0622 37.2098 12.1C37.2174 12.0967 37.2261 12.0967 37.2338 12.1056C37.45 12.1578 37.6661 12.2144 37.8747 12.2978C38.3398 12.4833 38.7284 12.7733 38.8638 13.3856C38.8802 13.4556 38.89 13.5278 38.902 13.5989C38.8998 13.8356 38.8867 14.0689 38.8223 14.2956L38.8332 14.2933C38.5461 15.3267 38.1869 16.3267 37.8419 17.3344C37.8233 17.3878 37.8026 17.4389 37.7829 17.4922L37.1443 19.33L36.5667 20.98C36.4423 21.2244 36.2992 21.4533 36.1387 21.6656C35.9826 21.8211 35.8418 21.9989 35.6627 22.1211C35.3352 22.4189 34.964 22.6167 34.5819 22.79C34.2762 22.93 33.9705 23.0678 33.6451 23.1356C33.4715 23.2089 33.2903 23.23 33.1102 23.2556L32.9868 23.2656H32.9857C32.942 23.2956 32.894 23.2944 32.846 23.2878C32.0501 23.2978 31.2542 23.3133 30.4582 23.3156C28.6273 23.3211 26.7964 23.3222 24.9655 23.3244C24.9251 23.3244 24.8858 23.3211 24.8454 23.32L22.6859 23.3278L19.9543 23.3333C19.9368 23.3333 19.9194 23.3289 19.9019 23.3267L17.7194 23.3278C17.5699 23.3278 17.4192 23.3233 17.2696 23.3211H16.3766L16.8919 22.9411L17.2937 22.55L17.5644 22.2189C18.1103 21.3967 18.4302 20.4389 18.7293 19.4678C18.7446 19.4189 18.7643 19.3744 18.7828 19.3267C18.8887 18.9822 18.9935 18.6378 19.1016 18.2933L19.9609 15.5756C19.9718 15.5367 19.9914 15.5011 20.0067 15.4644C20.1814 14.9033 20.3561 14.3422 20.5329 13.78C20.7448 13.1067 20.9587 12.4333 21.1727 11.76C21.1804 11.7367 21.1924 11.7156 21.2022 11.6922C21.3125 11.2967 21.4358 10.9067 21.5734 10.5222C21.7557 9.90111 21.9479 9.28556 22.1586 8.67778L22.6805 7C22.7438 6.8 22.8115 6.60333 22.8781 6.40444C22.9894 6.00778 23.1117 5.61556 23.2504 5.23222C23.4163 4.70111 23.5724 4.16556 23.7504 3.64111C23.8661 3.29889 23.8694 2.98 23.7045 2.66444C23.5845 2.47 23.4327 2.31111 23.2777 2.15889L23.2493 2.13111C23.0189 1.95444 22.7765 1.80222 22.5342 1.65111C22.2176 1.50222 21.9031 1.34778 21.5778 1.23111C21.5669 1.22444 21.5538 1.22 21.5439 1.21222C21.5286 1.19889 21.533 1.18667 21.5494 1.18556C21.5843 1.18333 21.6204 1.18556 21.6553 1.18556C23.793 1.17778 25.9307 1.17333 28.0694 1.16444C30.4495 1.15556 32.8318 1.14333 35.2129 1.13333C35.2522 1.13333 35.2915 1.13778 35.3308 1.14111C35.3898 1.13 35.4487 1.12778 35.5055 1.12778C35.7654 1.11333 36.0263 1.12444 36.2861 1.12333C37.5613 1.11556 38.8365 1.11444 40.1128 1.11444C40.2089 1.11444 40.3082 1.09778 40.4021 1.14111C40.9993 1.17889 41.5528 1.38222 42.0441 1.79444C42.3062 2.01556 42.4994 2.29889 42.5485 2.69333C42.5802 2.75444 42.5747 2.82111 42.5704 2.88667L42.5791 2.95111V2.95111Z" fill="#16885F"/>
</svg>
