<svg width="27" height="30" viewBox="0 0 27 30" fill="none" xmlns="http://www.w3.org/2000/svg">
<g clip-path="url(#clip0)">
<path d="M13.0814 0C5.85627 0 0 6.67072 0 14.8982C0 16.3939 0.194739 17.8382 0.555052 19.2011C0.575749 19.1668 3.85902 13.7936 5.45645 10.6296C7.05857 7.45822 8.40481 4.60072 8.6146 4.04572C8.82345 3.49071 9.33429 2.88214 10.054 3.0675C10.7737 3.25286 10.959 3.93964 10.959 4.36393C10.959 4.78607 10.5874 9.12322 10.6579 13.3543C10.7266 17.5854 11.1678 20.2307 11.5865 21.1821C12.0042 22.1336 12.1434 21.8968 12.7474 21.1821C13.3504 20.4675 16.6243 14.7032 17.9715 10.2868C18.2038 9.49393 18.5519 8.96464 19.3412 9.01714C20.1305 9.07072 20.3629 9.86357 20.3855 10.26C20.409 10.6564 20.8502 16.5225 22.8239 19.3543C23.0563 19.7539 22.9171 19.965 22.8239 20.0443C22.7308 20.1236 22.6151 20.2029 22.3827 19.9382C22.1504 19.6746 20.2001 17.6379 19.0853 13.9629C18.0881 16.6329 15.3938 22.4775 13.9083 23.6411C12.4219 24.8046 11.4698 24.6193 10.6579 24.0911C9.84512 23.5618 8.10282 22.0361 8.31261 11.01C6.9993 14.1021 3.92676 19.9061 2.17693 23.1279C4.51944 27.1468 8.52805 29.7964 13.0814 29.7964C20.3064 29.7964 26.1627 23.1268 26.1627 14.8982C26.1627 6.66964 20.3055 0 13.0814 0Z" fill="#16885F"/>
</g>
<defs>
<clipPath id="clip0">
<rect width="26.3415" height="30" fill="white"/>
</clipPath>
</defs>
</svg>
