<svg xmlns="http://www.w3.org/2000/svg" xmlns:xlink="http://www.w3.org/1999/xlink" viewBox="0 0 121.3229 121.3229"><defs><style>.a{isolation:isolate;}.b{fill:url(#a);}.c{fill:url(#b);}.d{mix-blend-mode:color-burn;fill:url(#c);}.e{fill:url(#d);}.f,.g{mix-blend-mode:color-dodge;}.f{fill:url(#e);}.g{fill:url(#f);}.h{fill:url(#g);}</style><linearGradient id="a" x1="68.1209" y1="15.4544" x2="68.1209" y2="145.9274" gradientTransform="translate(71.3689 -26.8712) rotate(45)" gradientUnits="userSpaceOnUse"><stop offset="0" stop-color="#f5f5f5"/><stop offset="0.405" stop-color="#ddd"/><stop offset="1" stop-color="#b3b3b3"/></linearGradient><linearGradient id="b" x1="68.1209" y1="22.0686" x2="68.1209" y2="117.7026" gradientTransform="translate(71.3689 -26.8712) rotate(45)" gradientUnits="userSpaceOnUse"><stop offset="0" stop-color="#67d2df"/><stop offset="0.1547" stop-color="#55c7d1"/><stop offset="0.7275" stop-color="#18a0a2"/><stop offset="1" stop-color="#00918f"/></linearGradient><radialGradient id="c" cx="68.1209" cy="72.7143" r="50.1732" gradientTransform="translate(71.3689 -26.8712) rotate(45)" gradientUnits="userSpaceOnUse"><stop offset="0.8458" stop-color="#fff"/><stop offset="0.8735" stop-color="#fbfbfb"/><stop offset="0.9002" stop-color="#f0f0f0"/><stop offset="0.9264" stop-color="#dcdcdc"/><stop offset="0.9524" stop-color="#c1c1c1"/><stop offset="0.9779" stop-color="#9e9e9e"/><stop offset="1" stop-color="#7a7a7a"/></radialGradient><linearGradient id="d" x1="60.6615" y1="21.7276" x2="60.6615" y2="110.4426" gradientTransform="matrix(1, 0, 0, 1, 0, 0)" xlink:href="#a"/><radialGradient id="e" cx="60.6615" cy="60.6614" r="41.2467" gradientUnits="userSpaceOnUse"><stop offset="0.8358"/><stop offset="0.8933" stop-color="#050505"/><stop offset="0.9591" stop-color="#131313"/><stop offset="1" stop-color="#1f1f1f"/></radialGradient><radialGradient id="f" cx="75.2075" cy="100.2104" r="82.264" gradientUnits="userSpaceOnUse"><stop offset="0" stop-color="#1f1f1f"/><stop offset="0.2489" stop-color="#131313"/><stop offset="0.6499" stop-color="#050505"/><stop offset="1"/></radialGradient><linearGradient id="g" x1="38.4839" y1="72.5161" x2="97.5161" y2="72.5161" gradientUnits="userSpaceOnUse"><stop offset="0" stop-color="#bcbbbb"/><stop offset="1" stop-color="#898888"/></linearGradient></defs><g class="a"><circle class="b" cx="68.1209" cy="72.7143" r="60.6615" transform="translate(-38.924 57.4134) rotate(-45)"/><circle class="c" cx="68.1209" cy="72.7143" r="50.1733" transform="translate(-38.924 57.4134) rotate(-45)"/><circle class="d" cx="68.1209" cy="72.7143" r="50.1733" transform="translate(-38.924 57.4134) rotate(-45)"/><circle class="e" cx="60.6615" cy="60.6614" r="41.2467"/><circle class="f" cx="60.6615" cy="60.6614" r="41.2467"/><path class="g" d="M41.4232,84.0008a70.3851,70.3851,0,0,1,48.241-19.982,65.1613,65.1613,0,0,1,19.2929,2.9242,41.2442,41.2442,0,1,0-75.92,27.4585A66.075,66.075,0,0,1,41.4232,84.0008Z" transform="translate(-7.4594 -12.0528)"/><path class="h" d="M77.74,72.518,96.0028,54.2556a5.1629,5.1629,0,0,0,0-7.3038l-2.4346-2.4347a5.1627,5.1627,0,0,0-7.3045,0L68.0019,62.7789,49.74,44.5134a5.1629,5.1629,0,0,0-7.3039,0L39.9972,46.948a5.1636,5.1636,0,0,0,0,7.3044L58.2628,72.518,40.001,90.78a5.1627,5.1627,0,0,0,0,7.3045l2.4346,2.4346a5.163,5.163,0,0,0,7.3039,0L68.0019,82.2565l18.2618,18.2624a5.1638,5.1638,0,0,0,7.3045,0l2.4346-2.4346a5.1638,5.1638,0,0,0,0-7.3045Z" transform="translate(-7.4594 -12.0528)"/></g></svg>