<svg xmlns="http://www.w3.org/2000/svg" viewBox="0 0 512 511.996"><defs><style>.a{fill:#46aef7;}</style></defs><path class="a" d="M497,59.004H430V44.005A44.052,44.052,0,0,0,385.997.002h-1.995a44.052,44.052,0,0,0-44.003,44.003V59.004H310V44.005A44.052,44.052,0,0,0,265.997.002h-1.995a44.0525,44.0525,0,0,0-44.0029,44.003V59.004h-30V44.01A44.0518,44.0518,0,0,0,145.9971.007h-1.996A44.0526,44.0526,0,0,0,99.9981,44.01V59.004H15a15,15,0,0,0-15,15V496.998a15,15,0,0,0,15,15H497a15,15,0,0,0,15-15V74.004a15,15,0,0,0-15-15ZM369.999,44.005a14.0179,14.0179,0,0,1,14.003-14.003h1.995A14.0179,14.0179,0,0,1,400,44.005V59.004H369.999Zm-120,0a14.0186,14.0186,0,0,1,14.003-14.003h1.995A14.0179,14.0179,0,0,1,280,44.005V59.004H249.999Zm-120,.005a14.0186,14.0186,0,0,1,14.003-14.003h1.996A14.0177,14.0177,0,0,1,160,44.01V59.004H129.999Zm-30,44.994v28a15,15,0,1,0,30,0v-28h90v28a15,15,0,0,0,30,0v-28h90v28a15,15,0,0,0,30,0v-28H482v73H30v-73ZM30,192.004H482V382.002H397a15,15,0,0,0-15,15v84.996H30ZM460.787,412.002,412,460.789V412.002Zm-27.57,69.996L482,433.215v48.783Z" transform="translate(-0.0001 -0.002)"/><path class="a" d="M356.606,281.108a15,15,0,1,0-21.213-21.213l-4.044,4.044a104.7941,104.7941,0,1,0,17.797,24.629ZM331,337.003a75.1772,75.1772,0,1,1-20.868-51.846L256,339.289l-22.894-22.894a15,15,0,1,0-21.213,21.213l33.5,33.5a14.9971,14.9971,0,0,0,21.212,0l59.845-59.845a74.6713,74.6713,0,0,1,4.55,25.74Z" transform="translate(-0.0001 -0.002)"/></svg>