<?xml version="1.0" encoding="utf-8"?>
<!-- Generator: Adobe Illustrator 24.2.1, SVG Export Plug-In . SVG Version: 6.00 Build 0)  -->
<svg version="1.1" id="Layer_1" xmlns="http://www.w3.org/2000/svg" xmlns:xlink="http://www.w3.org/1999/xlink" x="0px" y="0px"
	 viewBox="0 0 512 512" style="enable-background:new 0 0 512 512;" xml:space="preserve">
<style type="text/css">
	.st0{fill:url(#SVGID_1_);}
	.st1{fill:url(#SVGID_2_);}
</style>
<g>
	<linearGradient id="SVGID_1_" gradientUnits="userSpaceOnUse" x1="455.5793" y1="455.5793" x2="56.4207" y2="56.4207">
		<stop  offset="0" style="stop-color:#46AEF7"/>
		<stop  offset="1" style="stop-color:#1DD5E6"/>
	</linearGradient>
	<path class="st0" d="M456,80H56c-30.9,0-56,25.1-56,56v240c0,30.9,25.1,56,56,56h400c30.9,0,56-25.1,56-56V136
		C512,105.1,486.9,80,456,80z M56,112h400c13.2,0,24,10.8,24,24v32H32v-32C32,122.8,42.8,112,56,112z M456,400H56
		c-13.2,0-24-10.8-24-24V200h448v176C480,389.2,469.2,400,456,400z"/>
	<linearGradient id="SVGID_2_" gradientUnits="userSpaceOnUse" x1="123.3135" y1="347.3135" x2="84.6865" y2="308.6865">
		<stop  offset="0" style="stop-color:#46AEF7"/>
		<stop  offset="1" style="stop-color:#1DD5E6"/>
	</linearGradient>
	<path class="st1" d="M112,352H96c-8.8,0-16-7.2-16-16v-16c0-8.8,7.2-16,16-16h16c8.8,0,16,7.2,16,16v16
		C128,344.8,120.8,352,112,352z"/>
</g>
</svg>
