<?xml version="1.0" encoding="utf-8"?>
<!-- Generator: Adobe Illustrator 19.0.0, SVG Export Plug-In . SVG Version: 6.00 Build 0)  -->
<svg version="1.1" id="Layer_1" xmlns="http://www.w3.org/2000/svg" xmlns:xlink="http://www.w3.org/1999/xlink" x="0px" y="0px"
	 viewBox="-268.1 359.2 73.8 73.8" style="enable-background:new -268.1 359.2 73.8 73.8;" xml:space="preserve">
<style type="text/css">
	.st0{display:none;}
	.st1{display:inline;}
	.st2{clip-path:url(#SVGID_2_);fill:url(#SVGID_3_);}
	.st3{clip-path:url(#SVGID_5_);fill:url(#SVGID_6_);}
	.st4{clip-path:url(#SVGID_8_);fill:#FFFFFF;}
	.st5{clip-path:url(#SVGID_10_);fill:#FFFFFF;}
	.st6{clip-path:url(#SVGID_12_);fill:#4796FB;}
	.st7{clip-path:url(#SVGID_14_);fill:#4796FB;}
	.st8{clip-path:url(#SVGID_16_);fill:#4796FB;}
	.st9{clip-path:url(#SVGID_18_);fill:#4796FB;}
	.st10{clip-path:url(#SVGID_20_);fill:#4796FB;}
	.st11{clip-path:url(#SVGID_22_);fill:#4796FB;}
</style>
<g class="st0">
	<g class="st1">
		<defs>
			<path id="SVGID_1_" d="M-352,395c0,18.6,15.1,33.7,33.7,33.7s33.7-15.1,33.7-33.7c0-11.7-6-22.1-15.1-28.1v14.6
				c0,0.5,0,1.1,0,1.6c0,1.2,0,2.4,0,3.6c0,1.1,0,2.2,0,3.3v3.1c0,2,0,4.1,0,6.1c0,10.5-6.3,17.3-16.8,18.2
				c-0.6,0.1-1.2,0.1-1.8,0.1c-4.2,0.1-8.2-0.9-11.8-3.2c-4.6-2.9-7.1-7.2-7.4-12.7c-0.2-5.5-0.1-11,0-16.6c0-1.1,0.3-2,0.8-2.8
				c0.8-1.3,2.1-2.1,3.6-2.1c2.4,0.1,3.9,1.8,3.9,4.8c0,4.9,0,9.8,0,14.7c0.1,5.9,4.4,9.9,10.9,9.9c0.8,0,1.5-0.1,2.2-0.2
				c5-0.8,8.1-4.3,8.1-9.5c0-1.7,0-3.5,0-5.2V384c0-1.7,0-3.3,0-5c0-0.1,0-0.3,0-0.4v-15.7c-3.3-1.1-6.8-1.6-10.4-1.6
				C-336.9,361.3-352,376.4-352,395"/>
		</defs>
		<clipPath id="SVGID_2_">
			<use xlink:href="#SVGID_1_"  style="overflow:visible;"/>
		</clipPath>
		
			<linearGradient id="SVGID_3_" gradientUnits="userSpaceOnUse" x1="-679.4116" y1="642.6926" x2="-678.4116" y2="642.6926" gradientTransform="matrix(46.8574 48.5222 -48.5222 46.8574 62678.6328 3222.3706)">
			<stop  offset="0" style="stop-color:#46AEF7"/>
			<stop  offset="1" style="stop-color:#1DD5E6"/>
		</linearGradient>
		<polygon class="st2" points="-317.1,327.6 -250.8,396.2 -319.4,462.4 -385.7,393.8 		"/>
	</g>
</g>
<g>
	<g>
		<defs>
			<path id="SVGID_4_" d="M-245.6,359.6c-12.1,0-22,9.8-22,22v29c0,12.1,9.8,22,22,22h29c12.1,0,22-9.8,22-22v-29
				c0-12.1-9.8-22-22-22H-245.6z"/>
		</defs>
		<clipPath id="SVGID_5_">
			<use xlink:href="#SVGID_4_"  style="overflow:visible;"/>
		</clipPath>
		
			<linearGradient id="SVGID_6_" gradientUnits="userSpaceOnUse" x1="-680.7691" y1="642.5168" x2="-679.7691" y2="642.5168" gradientTransform="matrix(58.9707 61.066 -61.066 58.9707 79120.7266 4047.7153)">
			<stop  offset="0" style="stop-color:#46AEF7"/>
			<stop  offset="1" style="stop-color:#1DD5E6"/>
		</linearGradient>
		<polygon class="st3" points="-229.9,323.2 -158.3,397.3 -232.4,468.9 -304,394.8 		"/>
	</g>
</g>
<g>
	<g>
		<defs>
			<rect id="SVGID_7_" x="-418" y="211.3" width="300" height="300"/>
		</defs>
		<clipPath id="SVGID_8_">
			<use xlink:href="#SVGID_7_"  style="overflow:visible;"/>
		</clipPath>
		<path class="st4" d="M-223.6,385.1c0,1.2,0,2.4,0,3.6v-3.9C-223.6,384.9-223.6,385-223.6,385.1"/>
	</g>
	<g>
		<defs>
			<rect id="SVGID_9_" x="-418" y="211.3" width="300" height="300"/>
		</defs>
		<clipPath id="SVGID_10_">
			<use xlink:href="#SVGID_9_"  style="overflow:visible;"/>
		</clipPath>
		<path class="st5" d="M-217.6,376.3v10.6c0,0.4,0,0.8,0,1.1c0,0.9,0,1.7,0,2.6c0,0.8,0,1.6,0,2.4v2.3c0,1.5,0,3,0,4.5
			c0,7.6-4.6,12.6-12.2,13.2c-0.4,0-0.9,0.1-1.3,0.1c-3,0.1-5.9-0.7-8.6-2.3c-3.3-2.1-5.2-5.3-5.3-9.2c-0.2-4-0.1-8,0-12
			c0-0.8,0.2-1.5,0.6-2c0.6-0.9,1.5-1.5,2.6-1.5c1.7,0,2.8,1.3,2.8,3.5c0,3.6,0,7.1,0,10.7c0,4.3,3.2,7.2,7.9,7.2
			c0.6,0,1.1,0,1.6-0.1c3.6-0.6,5.9-3.1,5.9-6.9c0-1.3,0-2.5,0-3.8v-7.8c0-1.2,0-2.4,0-3.6c0-0.1,0-0.2,0-0.3v-11.6
			c-2.4-0.8-4.9-1.2-7.5-1.2c-13.5,0-24.5,11-24.5,24.5s10.9,24.4,24.4,24.4s24.5-11,24.5-24.5C-206.7,388.1-211,380.6-217.6,376.3"
			/>
	</g>
	<g>
		<defs>
			<rect id="SVGID_11_" x="-418" y="211.3" width="300" height="300"/>
		</defs>
		<clipPath id="SVGID_12_">
			<use xlink:href="#SVGID_11_"  style="overflow:visible;"/>
		</clipPath>
		<path class="st6" d="M-289,306.1c0-11.4-5.8-21.4-14.6-27.2V293c0,0.5,0,1,0,1.5c0,1.2,0,2.3,0,3.5c0,1.1,0,2.1,0,3.2v3.1l0,0
			c0,2,0,4,0,6c0,10.2-6.1,16.8-16.3,17.7c-0.6,0.1-1.2,0.1-1.8,0.1c-4.1,0.1-7.9-0.9-11.5-3.1c-4.5-2.9-6.9-7-7.1-12.3
			c-0.2-5.3-0.1-10.7,0-16c0-1,0.3-1.9,0.7-2.7c0.8-1.3,2-2,3.5-2c2.3,0.1,3.8,1.8,3.8,4.7c0,4.8,0,9.5,0,14.3
			c0,5.8,4.3,9.6,10.6,9.6c0.8,0,1.5-0.1,2.2-0.2c4.8-0.8,7.8-4.2,7.9-9.2c0-1.7,0-3.4,0-5.1v-10.4v-5.2v-15.2
			c-3.2-1-6.5-1.6-10.1-1.6c-18.1,0-32.7,14.6-32.7,32.7s14.6,32.7,32.7,32.7S-289,324.1-289,306.1"/>
	</g>
	<g>
		<defs>
			<rect id="SVGID_13_" x="-418" y="211.3" width="300" height="300"/>
		</defs>
		<clipPath id="SVGID_14_">
			<use xlink:href="#SVGID_13_"  style="overflow:visible;"/>
		</clipPath>
		<path class="st7" d="M-254.9,310.3c0,1.2-0.2,2.3-0.5,3.4c-0.3,1-0.8,1.9-1.5,2.6c-0.7,0.7-1.5,1.3-2.4,1.7c-1,0.4-2,0.6-3.2,0.6
			c-1.2,0-2.3-0.2-3.3-0.6c-1-0.4-1.8-1-2.4-1.7c-0.7-0.7-1.2-1.6-1.5-2.6s-0.5-2.1-0.5-3.4v-17.8h-3.9v17.8c0,1.7,0.3,3.3,0.8,4.7
			c0.5,1.4,1.3,2.7,2.3,3.7c1,1.1,2.2,1.9,3.7,2.5c1.3,0.6,2.9,0.9,4.7,0.9c1.8,0,3.4-0.3,4.9-0.9c1.4-0.6,2.7-1.4,3.7-2.5
			s1.8-2.3,2.3-3.7c0.5-1.4,0.8-3,0.8-4.7v-17.8h-3.9L-254.9,310.3L-254.9,310.3z"/>
	</g>
	<g>
		<defs>
			<rect id="SVGID_15_" x="-418" y="211.3" width="300" height="300"/>
		</defs>
		<clipPath id="SVGID_16_">
			<use xlink:href="#SVGID_15_"  style="overflow:visible;"/>
		</clipPath>
		<path class="st8" d="M-229.2,315.9h5.2v-2h-5.2v-11.3c2.1,5.7,5.4,11.2,8.9,14.2c0.4-0.5,1.1-1.3,1.6-1.7
			c-3.6-2.7-7.1-8.1-9.1-13.4h8.5v-2.1h-10v-6.5c0.5,0,0.6-0.2,0.6-0.4l-2.7-0.2v7.1h-9.4v2.1h8c-2.1,5.4-5.6,10.8-9.2,13.6
			c0.5,0.4,1.2,1.1,1.6,1.6c3.6-3,7-8.4,9.1-14.2v11.2h-5.3v2h5.3v6.4h2.1V315.9z"/>
	</g>
	<g>
		<defs>
			<rect id="SVGID_17_" x="-418" y="211.3" width="300" height="300"/>
		</defs>
		<clipPath id="SVGID_18_">
			<use xlink:href="#SVGID_17_"  style="overflow:visible;"/>
		</clipPath>
		<path class="st9" d="M-242.6,300.9c0.4,0,0.6-0.2,0.6-0.4l-0.9-0.2c1.1-2.2,2.1-4.4,3-6.7c0.4,0,0.6-0.1,0.7-0.3l-2.6-0.9
			c-1.9,5.6-5,11.2-8.1,14.6c0.4,0.5,0.9,1.5,1.1,2c1.4-1.6,2.7-3.4,3.9-5.4v18.7h2.1v-21.4H-242.6z"/>
	</g>
	<g>
		<defs>
			<rect id="SVGID_19_" x="-418" y="211.3" width="300" height="300"/>
		</defs>
		<clipPath id="SVGID_20_">
			<use xlink:href="#SVGID_19_"  style="overflow:visible;"/>
		</clipPath>
		<path class="st10" d="M-202.9,295.5h-13.3v2h8.9c-0.9,1.5-2.1,3.2-3.2,4.5l-4.4,0.1l0.9,2.5c0.3-0.1,0.4-0.2,0.5-0.5
			c5.3-0.1,13.8-0.4,21.8-0.7c0.9,0.8,1.6,1.5,2.2,2.1l1.8-1.3c-1.8-1.9-5.5-4.7-8.4-6.6l-1.7,1.1c1.3,0.8,2.7,1.9,4.1,2.9
			c-4.9,0.1-10,0.2-14.3,0.3c1.2-1.3,2.4-2.9,3.2-4c0.4,0,0.6-0.1,0.7-0.3l-0.3-0.1h17.2v-2h-13.5v-2.7c0.4,0,0.6-0.2,0.6-0.4
			l-2.8-0.2V295.5z"/>
	</g>
	<g>
		<defs>
			<rect id="SVGID_21_" x="-418" y="211.3" width="300" height="300"/>
		</defs>
		<clipPath id="SVGID_22_">
			<use xlink:href="#SVGID_21_"  style="overflow:visible;"/>
		</clipPath>
		<path class="st11" d="M-209.1,316.8h14.9v3c0,0.5-0.2,0.6-0.7,0.6h-1.7c-0.8,0-1.7,0-2.7,0c0.3,0.5,0.6,1.3,0.7,1.8
			c2.6,0,4.3,0,5.3-0.3c1-0.3,1.3-0.9,1.3-2.1v-13.5h-19.3v16h2.2V316.8z M-209.1,308.1h14.9v2.7h-14.9V308.1z M-209.1,312.4h14.9
			v2.7h-14.9V312.4z"/>
	</g>
</g>
</svg>
