<svg width="176" height="180" viewBox="0 0 176 180" fill="none" xmlns="http://www.w3.org/2000/svg">
<g clip-path="url(#clip0)">
<path d="M75.341 11.6474L0.0157166 32.8326L27.8688 131.866L103.194 110.681L75.341 11.6474Z" fill="url(#paint0_linear)"/>
<path d="M75.8298 12.4285L-0.00210571 33.2734L10.4197 71.1871L86.2517 50.3422L75.8298 12.4285Z" fill="url(#paint1_linear)"/>
<path d="M75.0144 13.5831L1.29218 33.848L27.9986 131.004L101.721 110.739L75.0144 13.5831Z" fill="#EEEEEE"/>
<path d="M75.0729 13.4678L1.18091 33.7794L11.3597 70.8091L85.2517 50.4975L75.0729 13.4678Z" fill="#16885F"/>
<path d="M49.8169 71.4749L29.7726 76.9847L30.1927 78.513L50.237 73.0032L49.8169 71.4749Z" fill="#BDBDBD"/>
<path d="M51.4984 77.5917L31.4541 83.1016L31.8742 84.6298L51.9185 79.12L51.4984 77.5917Z" fill="#F5F5F5"/>
<path d="M82.9336 65.6618L30.6142 80.0435L31.0343 81.5717L83.3536 67.19L82.9336 65.6618Z" fill="#69F0AE"/>
<path d="M53.9918 34.1524L33.9475 39.6622L34.3676 41.1905L54.4119 35.6807L53.9918 34.1524Z" fill="white"/>
<path d="M67.1562 34.1868L34.8811 43.0587L35.3012 44.587L67.5763 35.7151L67.1562 34.1868Z" fill="white"/>
<path opacity="0.2" d="M61.5371 40.4841L42.9304 45.5988C42.5334 45.7079 42.3 46.1182 42.4092 46.5152L42.4808 46.7757C42.5899 47.1727 43.0002 47.406 43.3971 47.2969L62.0039 42.1822C62.4009 42.0731 62.6342 41.6628 62.5251 41.2659L62.4535 41.0053C62.3444 40.6084 61.9341 40.375 61.5371 40.4841Z" fill="black"/>
<path d="M22.6682 84.695C24.6389 84.1533 25.7973 82.1166 25.2556 80.1459C24.7139 78.1752 22.6772 77.0167 20.7065 77.5584C18.7358 78.1002 17.5773 80.1369 18.119 82.1076C18.6608 84.0783 20.6975 85.2367 22.6682 84.695Z" fill="#69F0AE"/>
<path d="M53.883 86.2538L33.8387 91.7637L34.2588 93.2919L54.3031 87.7821L53.883 86.2538Z" fill="#BDBDBD"/>
<path d="M55.562 92.3708L35.5177 97.8806L35.9378 99.4089L55.9821 93.8991L55.562 92.3708Z" fill="#F5F5F5"/>
<path d="M86.9971 80.4408L34.6777 94.8225L35.0978 96.3508L87.4172 81.9691L86.9971 80.4408Z" fill="#E0E0E0"/>
<path d="M26.7295 99.4748C28.7002 98.9331 29.8586 96.8964 29.3169 94.9257C28.7752 92.9549 26.7385 91.7965 24.7678 92.3382C22.797 92.8799 21.6386 94.9167 22.1803 96.8874C22.722 98.8581 24.7588 100.017 26.7295 99.4748Z" fill="#E0E0E0"/>
<path d="M57.9436 101.031L37.8993 106.541L38.3194 108.07L58.3637 102.56L57.9436 101.031Z" fill="#BDBDBD"/>
<path d="M59.6249 107.146L39.5806 112.656L40.0007 114.184L60.045 108.674L59.6249 107.146Z" fill="#F5F5F5"/>
<path d="M91.0584 95.2183L38.739 109.6L39.1591 111.128L91.4785 96.7465L91.0584 95.2183Z" fill="#E0E0E0"/>
<path d="M30.793 114.254C32.7637 113.712 33.9221 111.676 33.3804 109.705C32.8387 107.734 30.802 106.576 28.8313 107.117C26.8606 107.659 25.7021 109.696 26.2438 111.667C26.7856 113.637 28.8223 114.796 30.793 114.254Z" fill="#E0E0E0"/>
<path d="M9.46387 50.7138C9.98146 52.5079 10.9816 54.1254 12.3552 55.3901C13.7289 56.6549 15.4234 57.5182 17.254 57.8862C19.0846 58.2541 20.981 58.1125 22.7367 57.4768C24.4923 56.841 26.0398 55.7355 27.2103 54.2808C28.3809 52.8261 29.1297 51.078 29.3751 49.2269C29.6205 47.3759 29.3531 45.4931 28.602 43.7836C27.8509 42.0741 26.6449 40.6036 25.1156 39.5324C23.5862 38.4611 21.7922 37.8302 19.9289 37.7085L20.6527 40.2343C20.9033 41.1146 20.7953 42.0584 20.3523 42.8593C19.9093 43.6603 19.1674 44.2534 18.2885 44.5091V44.5091C17.4082 44.7597 16.4644 44.6517 15.6635 44.2087C14.8625 43.7658 14.2694 43.0238 14.0137 42.1449L13.29 39.6191C11.588 40.8499 10.3072 42.5758 9.62241 44.5614C8.93766 46.547 8.88229 48.6956 9.46387 50.7138Z" fill="url(#paint2_linear)"/>
<path d="M28.8549 44.2677C28.3591 42.4672 27.3785 40.8373 26.0199 39.5559C24.6614 38.2744 22.9771 37.3905 21.1507 37.0006C19.3244 36.6106 17.426 36.7296 15.6626 37.3446C13.8992 37.9595 12.3384 39.0468 11.1506 40.4879C9.96273 41.929 9.19332 43.6686 8.92627 45.5169C8.65921 47.3653 8.90477 49.2515 9.63614 50.9699C10.3675 52.6883 11.5566 54.1729 13.0739 55.2618C14.5911 56.3507 16.3782 57.0022 18.2402 57.1452L17.543 54.6122C17.303 53.7293 17.4219 52.7874 17.8739 51.9919C18.3259 51.1964 19.0742 50.6121 19.9555 50.3663V50.3663C20.8383 50.1263 21.7803 50.2452 22.5757 50.6972C23.3712 51.1492 23.9556 51.8975 24.2013 52.7787L24.8985 55.3118C26.6139 54.1015 27.9143 52.3915 28.6223 50.4151C29.3304 48.4387 29.4116 46.292 28.8549 44.2677V44.2677Z" fill="#16885F"/>
<path d="M19.6865 49.4069C21.7741 48.833 23.0012 46.6755 22.4274 44.5879C21.8535 42.5002 19.696 41.2731 17.6084 41.8469C15.5207 42.4208 14.2936 44.5783 14.8674 46.666C15.4413 48.7536 17.5988 49.9807 19.6865 49.4069Z" fill="white" stroke="white" stroke-miterlimit="10"/>
<path d="M19.9507 50.3664C19.0694 50.6122 18.3211 51.1965 17.8692 51.992C17.4172 52.7875 17.2983 53.7294 17.5383 54.6123L18.2355 57.1453C20.6008 57.325 22.9551 56.6778 24.8962 55.3143L24.199 52.7813C23.9538 51.899 23.3693 51.1497 22.5732 50.6972C21.7771 50.2447 20.8342 50.1258 19.9507 50.3664V50.3664Z" fill="white" stroke="white" stroke-miterlimit="10"/>
<path d="M14.7809 46.4582C14.3168 45.9557 13.9967 45.3373 13.8545 44.6682C13.7157 43.9935 13.8465 43.2913 14.2188 42.7117C14.6409 42.0918 15.3405 41.7202 16.0474 41.4645C16.7542 41.2088 17.4948 41.0424 18.1655 40.707C18.7199 40.4267 19.2132 40.0391 19.6165 39.5665C20.0199 39.094 20.3254 38.546 20.5152 37.9545C20.7382 38.4881 20.8867 39.0498 20.9567 39.6239C20.9901 39.9112 20.9646 40.2023 20.8816 40.4794C20.7987 40.7565 20.66 41.0137 20.4742 41.2354C20.976 40.8108 21.0845 41.4525 21.0628 41.8602C21.4415 42.1255 22.1484 41.9929 22.3076 42.4271C22.4873 42.8543 22.5617 43.3185 22.5247 43.7805C22.4644 44.2388 22.848 44.9095 22.4137 45.0639" fill="white"/>
<path d="M14.7809 46.4582C14.3168 45.9557 13.9967 45.3373 13.8545 44.6682C13.7157 43.9935 13.8465 43.2913 14.2188 42.7117C14.6409 42.0918 15.3405 41.7202 16.0474 41.4645C16.7542 41.2088 17.4948 41.0424 18.1655 40.707C18.7199 40.4267 19.2132 40.0391 19.6165 39.5665C20.0199 39.094 20.3254 38.546 20.5152 37.9545C20.7382 38.4881 20.8867 39.0498 20.9567 39.6239C20.9901 39.9112 20.9646 40.2023 20.8816 40.4794C20.7987 40.7565 20.66 41.0137 20.4742 41.2354C20.976 40.8108 21.0845 41.4525 21.0628 41.8602C21.4415 42.1255 22.1484 41.9929 22.3076 42.4271C22.4873 42.8543 22.5617 43.3185 22.5247 43.7805C22.4644 44.2388 22.848 44.9095 22.4137 45.0639" stroke="white" stroke-miterlimit="10"/>
<path d="M20.6526 41.0859C20.6526 41.0859 23.3546 40.5914 22.5512 45.023Z" fill="white"/>
<path d="M153.857 172.307H128.423V68.9421H175.918L153.857 172.307Z" fill="url(#paint3_linear)"/>
<path d="M152.59 172.307H127.658V68.9421H174.215L152.59 172.307Z" fill="#BDBDBD"/>
<path d="M158.536 36.8041L80.5091 45.0739L91.3817 147.659L169.409 139.389L158.536 36.8041Z" fill="url(#paint4_linear)"/>
<path d="M158.616 36.6984L80.4092 44.9873L84.5534 84.0883L162.76 75.7994L158.616 36.6984Z" fill="url(#paint5_linear)"/>
<path d="M157.623 37.7032L81.5918 45.7615L92.2114 145.96L168.242 137.901L157.623 37.7032Z" fill="#F5F5F5"/>
<path d="M157.699 37.5997L81.4935 45.6765L85.5411 83.8658L161.747 75.789L157.699 37.5997Z" fill="#16885F"/>
<path d="M123.386 90.7514L102.714 92.9424L102.881 94.5185L123.553 92.3276L123.386 90.7514Z" fill="#BDBDBD"/>
<path d="M124.054 97.058L103.382 99.249L103.549 100.825L124.221 98.6342L124.054 97.058Z" fill="#F5F5F5"/>
<path d="M157.005 90.3771L103.047 96.0959L103.214 97.6721L157.172 91.9533L157.005 90.3771Z" fill="#69F0AE"/>
<path d="M133.549 54.5976L112.877 56.7886L113.044 58.3647L133.716 56.1737L133.549 54.5976Z" fill="white"/>
<path d="M146.532 56.7653L113.246 60.2932L113.414 61.8694L146.699 58.3415L146.532 56.7653Z" fill="white"/>
<path opacity="0.2" d="M139.966 62.0646L120.777 64.0984C120.367 64.1418 120.07 64.5089 120.114 64.9183L120.142 65.187C120.186 65.5964 120.553 65.8931 120.962 65.8497L140.152 63.8159C140.561 63.7725 140.858 63.4054 140.814 62.996L140.786 62.7273C140.742 62.3179 140.375 62.0212 139.966 62.0646Z" fill="black"/>
<path d="M94.4512 99.3995C96.4836 99.184 97.9566 97.3618 97.7412 95.3294C97.5258 93.297 95.7036 91.824 93.6711 92.0394C91.6387 92.2548 90.1657 94.077 90.3811 96.1095C90.5966 98.1419 92.4188 99.6149 94.4512 99.3995Z" fill="#69F0AE"/>
<path d="M125.002 105.991L104.33 108.182L104.497 109.758L125.169 107.567L125.002 105.991Z" fill="#BDBDBD"/>
<path d="M125.67 112.298L104.998 114.489L105.165 116.065L125.837 113.874L125.67 112.298Z" fill="#F5F5F5"/>
<path d="M158.621 105.617L104.663 111.336L104.83 112.912L158.788 107.193L158.621 105.617Z" fill="#E0E0E0"/>
<path d="M96.0677 114.639C98.1001 114.424 99.5731 112.602 99.3577 110.569C99.1423 108.537 97.32 107.064 95.2876 107.279C93.2552 107.495 91.7822 109.317 91.9976 111.349C92.213 113.382 94.0352 114.855 96.0677 114.639Z" fill="#E0E0E0"/>
<path d="M126.616 121.231L105.944 123.422L106.111 124.998L126.783 122.807L126.616 121.231Z" fill="#BDBDBD"/>
<path d="M127.285 127.538L106.612 129.729L106.78 131.305L127.452 129.114L127.285 127.538Z" fill="#F5F5F5"/>
<path d="M160.235 120.857L106.278 126.576L106.445 128.152L160.402 122.433L160.235 120.857Z" fill="#E0E0E0"/>
<path d="M97.682 129.879C99.7144 129.664 101.187 127.842 100.972 125.809C100.757 123.777 98.9344 122.304 96.9019 122.519C94.8695 122.735 93.3965 124.557 93.612 126.589C93.8274 128.622 95.6496 130.095 97.682 129.879Z" fill="#E0E0E0"/>
<path d="M86.9193 63.7337C87.1372 65.5888 87.8603 67.3484 89.0097 68.8206C90.1592 70.2929 91.6908 71.4213 93.4376 72.0827C95.1844 72.7441 97.0792 72.9131 98.9155 72.5714C100.752 72.2296 102.459 71.3902 103.851 70.1447C105.243 68.8992 106.266 67.2954 106.809 65.5082C107.352 63.721 107.393 61.819 106.929 60.0098C106.465 58.2005 105.513 56.5535 104.177 55.2482C102.841 53.9429 101.172 53.0295 99.3529 52.6077L99.6617 55.2179C99.7632 56.1242 99.5033 57.0339 98.9383 57.7497C98.3733 58.4656 97.5488 58.9298 96.6438 59.0416V59.0416C95.7344 59.1464 94.8206 58.887 94.1019 58.3202C93.3832 57.7534 92.918 56.9251 92.808 56.0164L92.4992 53.4062C90.6191 54.3438 89.0743 55.8389 88.0756 57.6873C87.077 59.5357 86.6731 61.6473 86.9193 63.7337Z" fill="url(#paint6_linear)"/>
<path d="M107.097 60.5178C106.899 58.661 106.196 56.894 105.063 55.4094C103.93 53.9249 102.412 52.7797 100.673 52.0989C98.9344 51.418 97.0421 51.2276 95.2025 51.5483C93.363 51.869 91.6467 52.6885 90.2409 53.9175C88.8351 55.1466 87.7937 56.738 87.2301 58.5182C86.6666 60.2985 86.6026 62.1993 87.0451 64.0134C87.4875 65.8275 88.4195 67.4854 89.7395 68.8062C91.0594 70.1271 92.7166 71.0602 94.5305 71.5039L94.253 68.8913C94.159 67.9807 94.4293 67.07 95.0047 66.358C95.5802 65.6461 96.414 65.1908 97.324 65.0918V65.0918C98.2346 64.9978 99.1454 65.268 99.8573 65.8434C100.569 66.4189 101.025 67.2527 101.124 68.1628L101.401 70.7754C103.29 69.8593 104.851 68.3828 105.87 66.547C106.89 64.7113 107.318 62.6058 107.097 60.5178V60.5178Z" fill="#16885F"/>
<path d="M97.2262 64.0943C99.3792 63.8661 100.94 61.9358 100.711 59.7828C100.483 57.6298 98.5528 56.0695 96.3999 56.2976C94.2469 56.5258 92.6865 58.4562 92.9147 60.6091C93.1429 62.7621 95.0732 64.3225 97.2262 64.0943Z" fill="white" stroke="white" stroke-miterlimit="10"/>
<path d="M97.3241 65.0919C96.4141 65.1909 95.5802 65.6462 95.0048 66.3581C94.4294 67.0701 94.1591 67.9809 94.2531 68.8914L94.5305 71.5041C96.8354 72.0661 99.2639 71.8103 101.401 70.7804L101.124 68.1677C101.026 67.2568 100.571 66.4217 99.8589 65.8453C99.1469 65.2689 98.2354 64.9979 97.3241 65.0919Z" fill="white" stroke="white" stroke-miterlimit="10"/>
<path d="M92.8563 60.3972C92.4793 59.8257 92.2634 59.1631 92.2315 58.4793C92.2041 57.7918 92.4465 57.1209 92.907 56.6097C93.4232 56.0645 94.1759 55.8112 94.9141 55.6736C95.6523 55.5361 96.4025 55.5024 97.1263 55.2611C97.7188 55.0744 98.2683 54.7718 98.7429 54.3709C99.2175 53.97 99.6077 53.4789 99.8909 52.9259C100.025 53.4881 100.081 54.0661 100.057 54.6435C100.044 54.9326 99.9713 55.2159 99.8444 55.476C99.7174 55.7361 99.5387 55.9675 99.3192 56.1561C99.8813 55.8184 99.8861 56.4673 99.8016 56.8678C100.132 57.1911 100.851 57.1742 100.938 57.6301C101.048 58.0803 101.048 58.5502 100.938 59.0004C100.803 59.4418 101.075 60.168 100.619 60.2476" fill="white"/>
<path d="M92.8563 60.3972C92.4793 59.8257 92.2634 59.1631 92.2315 58.4793C92.2041 57.7918 92.4465 57.1209 92.907 56.6097C93.4232 56.0645 94.1759 55.8112 94.9141 55.6736C95.6523 55.5361 96.4025 55.5024 97.1263 55.2611C97.7188 55.0744 98.2683 54.7718 98.7429 54.3709C99.2175 53.97 99.6077 53.4789 99.8909 52.9259C100.025 53.4881 100.081 54.0661 100.057 54.6435C100.044 54.9326 99.9713 55.2159 99.8444 55.476C99.7174 55.7361 99.5387 55.9675 99.3192 56.1561C99.8813 55.8184 99.8861 56.4673 99.8016 56.8678C100.132 57.1911 100.851 57.1742 100.938 57.6301C101.048 58.0803 101.048 58.5502 100.938 59.0004C100.803 59.4418 101.075 60.168 100.619 60.2476" stroke="white" stroke-miterlimit="10"/>
<path d="M99.5217 56.0476C99.5217 56.0476 102.267 55.997 100.759 60.2404Z" fill="white"/>
<path d="M131.609 0.0964355H53.1455V103.256H131.609V0.0964355Z" fill="url(#paint7_linear)"/>
<path d="M131.699 0H53.0539V39.32H131.699V0Z" fill="url(#paint8_linear)"/>
<path d="M130.606 0.89502H54.1491V101.654H130.606V0.89502Z" fill="#F5F5F5"/>
<path d="M130.695 0.801025H54.0622V39.2043H130.695V0.801025Z" fill="#8BDC65"/>
<path d="M90.9674 50.0383H70.1796V51.6233H90.9674V50.0383Z" fill="#BDBDBD"/>
<path d="M90.9674 56.3806H70.1796V57.9656H90.9674V56.3806Z" fill="#F5F5F5"/>
<path d="M124.44 53.2107H70.1796V54.7956H124.44V53.2107Z" fill="#8BDC65"/>
<path d="M104.885 15.1597H84.0968V16.7446H104.885V15.1597Z" fill="white"/>
<path d="M117.569 18.6818H84.0968V20.2667H117.569V18.6818Z" fill="white"/>
<path opacity="0.2" d="M110.481 23.2628H91.1844C90.7727 23.2628 90.439 23.5966 90.439 24.0083V24.2784C90.439 24.6901 90.7727 25.0239 91.1844 25.0239H110.481C110.893 25.0239 111.227 24.6901 111.227 24.2784V24.0083C111.227 23.5966 110.893 23.2628 110.481 23.2628Z" fill="black"/>
<path d="M61.285 55.5893C63.3288 55.5893 64.9857 53.9324 64.9857 51.8886C64.9857 49.8448 63.3288 48.188 61.285 48.188C59.2412 48.188 57.5844 49.8448 57.5844 51.8886C57.5844 53.9324 59.2412 55.5893 61.285 55.5893Z" fill="#8BDC65"/>
<path d="M90.9674 65.3644H70.1796V66.9493H90.9674V65.3644Z" fill="#BDBDBD"/>
<path d="M90.9674 71.7065H70.1796V73.2915H90.9674V71.7065Z" fill="#F5F5F5"/>
<path d="M124.44 68.5367H70.1796V70.1217H124.44V68.5367Z" fill="#E0E0E0"/>
<path d="M61.285 70.9155C63.3288 70.9155 64.9857 69.2586 64.9857 67.2148C64.9857 65.171 63.3288 63.5142 61.285 63.5142C59.2412 63.5142 57.5844 65.171 57.5844 67.2148C57.5844 69.2586 59.2412 70.9155 61.285 70.9155Z" fill="#E0E0E0"/>
<path d="M90.9674 80.6929H70.1796V82.2778H90.9674V80.6929Z" fill="#BDBDBD"/>
<path d="M90.9674 87.0327H70.1796V88.6177H90.9674V87.0327Z" fill="#F5F5F5"/>
<path d="M124.44 83.8629H70.1796V85.4479H124.44V83.8629Z" fill="#E0E0E0"/>
<path d="M61.285 86.2415C63.3288 86.2415 64.9857 84.5846 64.9857 82.5408C64.9857 80.497 63.3288 78.8402 61.285 78.8402C59.2412 78.8402 57.5844 80.497 57.5844 82.5408C57.5844 84.5846 59.2412 86.2415 61.285 86.2415Z" fill="#E0E0E0"/>
<path d="M57.5627 19.3306C57.5861 21.1977 58.1216 23.0225 59.1108 24.6062C60.1 26.1898 61.5049 27.4716 63.1725 28.3117C64.84 29.1518 66.7062 29.518 68.5675 29.3705C70.4289 29.2229 72.2141 28.5672 73.7284 27.4749C75.2428 26.3826 76.4283 24.8955 77.1556 23.1758C77.8829 21.4561 78.1243 19.5697 77.8532 17.7223C77.5822 15.8748 76.8093 14.1372 75.6187 12.6988C74.428 11.2605 72.8654 10.1765 71.1011 9.56519L71.1325 12.1923C71.1435 13.1107 70.7893 13.9958 70.1478 14.6531C69.5063 15.3104 68.6301 15.6861 67.7117 15.6975C66.7966 15.7059 65.9154 15.3519 65.2605 14.7128C64.6055 14.0737 64.2301 13.2014 64.2161 12.2864L64.1848 9.65927C62.2209 10.3954 60.5315 11.7188 59.3466 13.4493C58.1617 15.1799 57.5388 17.2335 57.5627 19.3306Z" fill="url(#paint9_linear)"/>
<path d="M77.9596 18.2572C77.9588 16.3899 77.4454 14.5587 76.4753 12.9631C75.5053 11.3676 74.1159 10.0689 72.4586 9.20873C70.8012 8.34854 68.9396 7.95982 67.0765 8.08494C65.2134 8.21005 63.4204 8.84421 61.893 9.91828C60.3655 10.9923 59.1622 12.4651 58.4143 14.176C57.6663 15.887 57.4023 17.7704 57.6512 19.621C57.9 21.4716 58.6521 23.2184 59.8255 24.671C60.9988 26.1235 62.5484 27.2261 64.3053 27.8586V25.229C64.3079 24.3136 64.6727 23.4364 65.32 22.7891C65.9673 22.1418 66.8445 21.777 67.7599 21.7745C68.6753 21.777 69.5525 22.1418 70.1999 22.7891C70.8472 23.4364 71.212 24.3136 71.2145 25.229V27.8562C73.1897 27.1444 74.8973 25.8407 76.1044 24.1229C77.3115 22.405 77.9593 20.3567 77.9596 18.2572Z" fill="#16885F"/>
<path d="M67.7648 20.7757C69.9298 20.7757 71.685 19.0205 71.685 16.8555C71.685 14.6904 69.9298 12.9353 67.7648 12.9353C65.5997 12.9353 63.8446 14.6904 63.8446 16.8555C63.8446 19.0205 65.5997 20.7757 67.7648 20.7757Z" fill="white" stroke="white" stroke-miterlimit="10"/>
<path d="M67.7575 21.7745C66.8421 21.7771 65.9649 22.1419 65.3176 22.7892C64.6702 23.4365 64.3055 24.3137 64.3029 25.2291V27.8562C66.5364 28.6568 68.9786 28.6568 71.2121 27.8562V25.2291C71.2095 24.3137 70.8447 23.4365 70.1974 22.7892C69.5501 22.1419 68.6729 21.7771 67.7575 21.7745Z" fill="white" stroke="white" stroke-miterlimit="10"/>
<path d="M63.8108 16.6359C63.4966 16.0277 63.3525 15.3459 63.3934 14.6626C63.4381 13.9754 63.7498 13.3329 64.2619 12.8726C64.8336 12.3901 65.608 12.214 66.3559 12.1489C67.1037 12.0837 67.8612 12.1247 68.5994 11.98C69.2081 11.8565 69.7862 11.6134 70.3001 11.2647C70.814 10.916 71.2536 10.4687 71.5932 9.94873C71.6666 10.5217 71.661 11.1021 71.5764 11.6736C71.5324 11.9595 71.4306 12.2334 71.2771 12.4785C71.1236 12.7237 70.9217 12.9349 70.6838 13.0993C71.2796 12.8243 71.2145 13.4684 71.0866 13.8568C71.3809 14.2139 72.0998 14.2718 72.136 14.735C72.196 15.1947 72.1447 15.6622 71.9865 16.098C71.8055 16.5226 71.9985 17.2728 71.5377 17.3042" fill="white"/>
<path d="M63.8108 16.6359C63.4966 16.0277 63.3525 15.3459 63.3934 14.6626C63.4381 13.9754 63.7498 13.3329 64.2619 12.8726C64.8336 12.3901 65.608 12.214 66.3559 12.1489C67.1037 12.0837 67.8612 12.1247 68.5994 11.98C69.2081 11.8565 69.7862 11.6134 70.3001 11.2647C70.814 10.916 71.2536 10.4687 71.5932 9.94873C71.6666 10.5217 71.661 11.1021 71.5764 11.6736C71.5324 11.9595 71.4306 12.2334 71.2771 12.4785C71.1236 12.7237 70.9217 12.9349 70.6838 13.0993C71.2796 12.8243 71.2145 13.4684 71.0866 13.8568C71.3809 14.2139 72.0998 14.2718 72.136 14.735C72.196 15.1947 72.1447 15.6622 71.9865 16.098C71.8055 16.5226 71.9985 17.2728 71.5377 17.3042" stroke="white" stroke-miterlimit="10"/>
<path d="M70.8961 13.0149C70.8961 13.0149 73.6318 13.2561 71.685 17.3138Z" fill="white"/>
<path d="M45.9783 73.5159L28.8091 61.4949H5.03717V73.5159V79.4046V180H153.608V73.5159H45.9783Z" fill="url(#paint10_linear)"/>
<path d="M6.3085 74.7319V80.4494V178.097H152.59V74.7319H46.62" fill="white"/>
<path d="M46.62 74.7317L29.7138 63.0629H6.3085V74.7317" fill="#BDBDBD"/>
<path d="M119.738 89.9856H39.1631V162.841H119.738V89.9856Z" fill="url(#paint11_linear)"/>
<path d="M119.005 90.5162H40.2584V161.516H119.005V90.5162Z" fill="white"/>
<path d="M95.6595 143.657H64.6986V146.192H95.6595V143.657Z" fill="#BDBDBD"/>
<path d="M113.458 148.73H45.8045V151.266H113.458V148.73Z" fill="#E0E0E0"/>
<path d="M113.458 153.804H45.8045V156.339H113.458V153.804Z" fill="#E0E0E0"/>
<path d="M60.3659 117.663C60.41 121.189 61.421 124.634 63.2886 127.625C65.1563 130.615 67.8089 133.036 70.9575 134.622C74.106 136.209 77.6296 136.901 81.1444 136.623C84.6591 136.345 88.0301 135.107 90.8899 133.045C93.7498 130.983 95.9887 128.176 97.3628 124.929C98.7369 121.682 99.1934 118.12 98.6826 114.631C98.1718 111.143 96.7132 107.861 94.4658 105.145C92.2184 102.428 89.2685 100.38 85.9375 99.225L85.9978 104.187C86.014 105.915 85.3456 107.579 84.1387 108.816C82.9318 110.053 81.2845 110.762 79.5567 110.788C77.8287 110.804 76.1646 110.135 74.9279 108.929C73.6912 107.722 72.9824 106.074 72.9563 104.347L72.896 99.3842C69.1801 100.771 65.9826 103.271 63.7401 106.542C61.4975 109.813 60.3192 113.697 60.3659 117.663Z" fill="url(#paint12_linear)"/>
<path d="M98.8921 115.639C98.8915 112.113 97.9227 108.654 96.0914 105.64C94.2601 102.627 91.6366 100.174 88.5069 98.5488C85.3772 96.9238 81.8614 96.1892 78.3429 96.4251C74.8244 96.661 71.4381 97.8584 68.5534 99.8867C65.6686 101.915 63.3961 104.696 61.9835 107.927C60.5709 111.159 60.0725 114.715 60.5426 118.21C61.0127 121.705 62.4333 125.004 64.6495 127.747C66.8657 130.49 69.7925 132.572 73.1107 133.766V128.804C73.1176 127.078 73.8061 125.426 75.0261 124.206C76.2462 122.986 77.8988 122.297 79.6242 122.29V122.29C81.3495 122.297 83.0022 122.986 84.2222 124.206C85.4422 125.426 86.1307 127.078 86.1377 128.804V133.766C89.8711 132.425 93.0995 129.964 95.3823 126.72C97.665 123.476 98.8908 119.606 98.8921 115.639Z" fill="#BDBDBD"/>
<path d="M80.2804 118.886C80.2804 118.247 79.762 117.728 79.1225 117.728C78.4829 117.728 77.9645 118.247 77.9645 118.886V124.736C77.9645 125.376 78.4829 125.894 79.1225 125.894C79.762 125.894 80.2804 125.376 80.2804 124.736V118.886Z" fill="white" stroke="white" stroke-miterlimit="10"/>
<path d="M79.1344 118.826C83.2234 118.826 86.5381 115.511 86.5381 111.422C86.5381 107.333 83.2234 104.018 79.1344 104.018C75.0455 104.018 71.7307 107.333 71.7307 111.422C71.7307 115.511 75.0455 118.826 79.1344 118.826Z" fill="white" stroke="white" stroke-miterlimit="10"/>
<path d="M79.1224 120.713C77.397 120.72 75.7444 121.408 74.5244 122.628C73.3043 123.848 72.6159 125.501 72.6089 127.226V132.188C76.8255 133.7 81.4361 133.7 85.6528 132.188V127.236C85.6483 125.506 84.9586 123.848 83.7347 122.625C82.5108 121.403 80.8523 120.715 79.1224 120.713Z" fill="white" stroke="white" stroke-miterlimit="10"/>
<path d="M71.668 111.012C71.0748 109.864 70.8023 108.577 70.8792 107.287C70.9643 105.991 71.553 104.779 72.5196 103.91C73.598 102.991 75.0599 102.665 76.4736 102.552C77.8873 102.438 79.3178 102.506 80.7074 102.233C81.8564 102.001 82.9478 101.542 83.9181 100.884C84.8884 100.226 85.7183 99.3815 86.3597 98.4C86.4489 99.4856 86.5382 100.588 86.3283 101.659C86.1184 102.73 85.5684 103.78 84.6396 104.351C85.7638 103.83 85.6408 105.051 85.3971 105.782C85.9544 106.455 87.3077 106.566 87.3777 107.437C87.4477 108.308 87.4356 109.208 87.0954 110.011C86.7553 110.814 87.1196 112.228 86.2511 112.291" fill="white"/>
<path d="M71.668 111.012C71.0748 109.864 70.8023 108.577 70.8792 107.287C70.9643 105.991 71.553 104.779 72.5196 103.91C73.598 102.991 75.0599 102.665 76.4736 102.552C77.8873 102.438 79.3178 102.506 80.7074 102.233C81.8564 102.001 82.9478 101.542 83.9181 100.884C84.8884 100.226 85.7183 99.3815 86.3597 98.4C86.4489 99.4856 86.5382 100.588 86.3283 101.659C86.1184 102.73 85.5684 103.78 84.6396 104.351C85.7638 103.83 85.6408 105.051 85.3971 105.782C85.9544 106.455 87.3077 106.566 87.3777 107.437C87.4477 108.308 87.4356 109.208 87.0954 110.011C86.7553 110.814 87.1196 112.228 86.2511 112.291" stroke="white" stroke-miterlimit="10"/>
<path d="M85.0497 104.173C85.0497 104.173 90.2146 104.624 86.5381 112.291Z" fill="white"/>
</g>
<defs>
<linearGradient id="paint0_linear" x1="65.5303" y1="121.274" x2="37.6772" y2="22.2404" gradientUnits="userSpaceOnUse">
<stop stop-color="#808080" stop-opacity="0.25"/>
<stop offset="0.54" stop-color="#808080" stop-opacity="0.12"/>
<stop offset="1" stop-color="#808080" stop-opacity="0.1"/>
</linearGradient>
<linearGradient id="paint1_linear" x1="48.335" y1="60.7623" x2="37.9132" y2="22.8487" gradientUnits="userSpaceOnUse">
<stop stop-color="#B3B3B3" stop-opacity="0.25"/>
<stop offset="0.54" stop-color="#B3B3B3" stop-opacity="0.1"/>
<stop offset="1" stop-color="#B3B3B3" stop-opacity="0.05"/>
</linearGradient>
<linearGradient id="paint2_linear" x1="22.3976" y1="58.3473" x2="16.0189" y2="39.4585" gradientUnits="userSpaceOnUse">
<stop stop-opacity="0.12"/>
<stop offset="0.55" stop-opacity="0.09"/>
<stop offset="1" stop-opacity="0.02"/>
</linearGradient>
<linearGradient id="paint3_linear" x1="30087.7" y1="73897.2" x2="30087.7" y2="29608.5" gradientUnits="userSpaceOnUse">
<stop stop-color="#808080" stop-opacity="0.25"/>
<stop offset="0.54" stop-color="#808080" stop-opacity="0.12"/>
<stop offset="1" stop-color="#808080" stop-opacity="0.1"/>
</linearGradient>
<linearGradient id="paint4_linear" x1="64935.3" y1="62955.6" x2="60285.9" y2="19088.2" gradientUnits="userSpaceOnUse">
<stop stop-color="#808080" stop-opacity="0.25"/>
<stop offset="0.54" stop-color="#808080" stop-opacity="0.12"/>
<stop offset="1" stop-color="#808080" stop-opacity="0.1"/>
</linearGradient>
<linearGradient id="paint5_linear" x1="59440" y1="9872.89" x2="58764.6" y2="3500.21" gradientUnits="userSpaceOnUse">
<stop stop-color="#B3B3B3" stop-opacity="0.25"/>
<stop offset="0.54" stop-color="#B3B3B3" stop-opacity="0.1"/>
<stop offset="1" stop-color="#B3B3B3" stop-opacity="0.05"/>
</linearGradient>
<linearGradient id="paint6_linear" x1="-13080.3" y1="-5033.24" x2="-13343.8" y2="-6676.37" gradientUnits="userSpaceOnUse">
<stop stop-opacity="0.12"/>
<stop offset="0.55" stop-opacity="0.09"/>
<stop offset="1" stop-opacity="0.02"/>
</linearGradient>
<linearGradient id="paint7_linear" x1="30098.5" y1="44155.6" x2="30098.5" y2="41.3624" gradientUnits="userSpaceOnUse">
<stop stop-color="#808080" stop-opacity="0.25"/>
<stop offset="0.54" stop-color="#808080" stop-opacity="0.12"/>
<stop offset="1" stop-color="#808080" stop-opacity="0.1"/>
</linearGradient>
<linearGradient id="paint8_linear" x1="30167.7" y1="6408.76" x2="30167.7" y2="0" gradientUnits="userSpaceOnUse">
<stop stop-color="#B3B3B3" stop-opacity="0.25"/>
<stop offset="0.54" stop-color="#B3B3B3" stop-opacity="0.1"/>
<stop offset="1" stop-color="#B3B3B3" stop-opacity="0.05"/>
</linearGradient>
<linearGradient id="paint9_linear" x1="-14848" y1="-9613.81" x2="-14930.9" y2="-11251.5" gradientUnits="userSpaceOnUse">
<stop stop-opacity="0.12"/>
<stop offset="0.55" stop-opacity="0.09"/>
<stop offset="1" stop-opacity="0.02"/>
</linearGradient>
<linearGradient id="paint10_linear" x1="48856.7" y1="88482.9" x2="48856.7" y2="30269.6" gradientUnits="userSpaceOnUse">
<stop stop-color="#808080" stop-opacity="0.25"/>
<stop offset="0.54" stop-color="#808080" stop-opacity="0.12"/>
<stop offset="1" stop-color="#808080" stop-opacity="0.1"/>
</linearGradient>
<linearGradient id="paint11_linear" x1="26575.6" y1="49267.8" x2="26575.6" y2="27265.6" gradientUnits="userSpaceOnUse">
<stop stop-color="#808080" stop-opacity="0.25"/>
<stop offset="0.54" stop-color="#808080" stop-opacity="0.12"/>
<stop offset="1" stop-color="#808080" stop-opacity="0.1"/>
</linearGradient>
<linearGradient id="paint12_linear" x1="-26225.6" y1="-1689.97" x2="-26521.5" y2="-7527.82" gradientUnits="userSpaceOnUse">
<stop stop-opacity="0.12"/>
<stop offset="0.55" stop-opacity="0.09"/>
<stop offset="1" stop-opacity="0.02"/>
</linearGradient>
<clipPath id="clip0">
<rect width="175.918" height="180" fill="white"/>
</clipPath>
</defs>
</svg>
