<svg width="155" height="180" viewBox="0 0 155 180" fill="none" xmlns="http://www.w3.org/2000/svg">
<path d="M102.133 0H3.46667C2.54756 0.00101781 1.66639 0.366582 1.01649 1.01649C0.366582 1.66639 0.00101781 2.54756 0 3.46667V136.8C0.00104035 137.719 0.366611 138.6 1.01651 139.25C1.66641 139.9 2.54757 140.266 3.46667 140.267H102.133C103.052 140.266 103.934 139.9 104.583 139.25C105.233 138.6 105.599 137.719 105.6 136.8V3.46667C105.599 2.54757 105.233 1.66641 104.583 1.01651C103.934 0.366611 103.052 0.00104035 102.133 0V0Z" fill="#F2F2F2"/>
<path d="M6.5146 4.26672C5.87336 4.2776 5.26259 4.5423 4.81621 5.0028C4.36983 5.4633 4.12427 6.08201 4.13336 6.72329V133.544C4.12427 134.185 4.36983 134.803 4.81621 135.264C5.26259 135.724 5.87336 135.989 6.5146 136H99.0855C99.7268 135.989 100.338 135.724 100.784 135.264C101.23 134.803 101.476 134.185 101.467 133.544V6.72329C101.476 6.08201 101.23 5.4633 100.784 5.0028C100.338 4.5423 99.7268 4.2776 99.0855 4.26672H6.5146Z" fill="white"/>
<path d="M11.3333 10.1333C10.451 10.1333 9.73334 10.9433 9.73334 11.939V29.3943C9.73334 30.39 10.451 31.2 11.3333 31.2H94.2667C95.149 31.2 95.8667 30.39 95.8667 29.3943V11.939C95.8667 10.9433 95.149 10.1333 94.2667 10.1333H11.3333Z" fill="#8BDC65"/>
<path d="M11.3333 39.6667C10.903 39.6734 10.493 39.8504 10.193 40.159C9.89308 40.4675 9.72775 40.8824 9.73329 41.3127V78.6208C9.72775 79.0511 9.89308 79.466 10.193 79.7745C10.493 80.0831 10.903 80.2601 11.3333 80.2667H94.2666C94.6969 80.2601 95.107 80.0831 95.4069 79.7745C95.7068 79.466 95.8722 79.0511 95.8666 78.6208V41.3127C95.8722 40.8824 95.7068 40.4675 95.4069 40.159C95.107 39.8504 94.6969 39.6734 94.2666 39.6667H11.3333Z" fill="#E6E6E6"/>
<path d="M85.6 12.6H20V16.3333H85.6V12.6Z" fill="white"/>
<path d="M85.7334 20.4667H20.1334V22.2H85.7334V20.4667Z" fill="white"/>
<path d="M85.7334 23.5333H20.1334V25.2667H85.7334V23.5333Z" fill="white"/>
<path d="M85.7334 26.6H20.1334V28.3333H85.7334V26.6Z" fill="white"/>
<path d="M58.9767 80.3333H89.1663C89.3585 80.3333 89.5464 80.2763 89.7062 80.1695C89.866 80.0627 89.9906 79.9109 90.0641 79.7334C90.1377 79.5558 90.157 79.3604 90.1195 79.1719C90.082 78.9834 89.9895 78.8102 89.8536 78.6743L70.5318 59.3526C70.3494 59.1706 70.1023 59.0684 69.8447 59.0684C69.587 59.0684 69.3399 59.1706 69.1575 59.3526L64.3527 64.1574C64.1634 64.3467 63.9387 64.4969 63.6914 64.5993C63.4441 64.7018 63.179 64.7545 62.9113 64.7545C62.6436 64.7545 62.3786 64.7018 62.1313 64.5993C61.8839 64.4969 61.6592 64.3467 61.47 64.1574L46.4206 49.108C46.2382 48.9261 45.991 48.8239 45.7334 48.8239C45.4757 48.8239 45.2286 48.9261 45.0461 49.108L15.6132 78.541C15.4773 78.6769 15.3848 78.8501 15.3473 79.0386C15.3098 79.2271 15.3291 79.4225 15.4026 79.6C15.4762 79.7776 15.6007 79.9294 15.7605 80.0361C15.9203 80.1429 16.1082 80.1999 16.3004 80.2H59.0154L58.9767 80.3333Z" fill="white"/>
<path d="M23.0666 52.2C25.1285 52.2 26.8 50.5285 26.8 48.4666C26.8 46.4048 25.1285 44.7333 23.0666 44.7333C21.0048 44.7333 19.3333 46.4048 19.3333 48.4666C19.3333 50.5285 21.0048 52.2 23.0666 52.2Z" fill="white"/>
<path d="M11.3333 89C10.903 89.0066 10.493 89.1837 10.193 89.4922C9.89308 89.8008 9.72775 90.2157 9.73329 90.6459V127.954C9.72775 128.384 9.89308 128.799 10.193 129.108C10.493 129.416 10.903 129.593 11.3333 129.6H94.2666C94.6969 129.593 95.107 129.416 95.4069 129.108C95.7068 128.799 95.8722 128.384 95.8666 127.954V90.6459C95.8722 90.2157 95.7068 89.8008 95.4069 89.4922C95.107 89.1837 94.6969 89.0066 94.2666 89H11.3333Z" fill="#E6E6E6"/>
<path d="M58.9768 129.667H89.1663C89.3586 129.667 89.5464 129.61 89.7062 129.503C89.866 129.396 89.9906 129.244 90.0641 129.067C90.1377 128.889 90.157 128.694 90.1195 128.505C90.082 128.317 89.9895 128.144 89.8536 128.008L70.5318 108.686C70.3494 108.504 70.1023 108.402 69.8447 108.402C69.5871 108.402 69.3399 108.504 69.1575 108.686L64.3527 113.491C64.1634 113.68 63.9387 113.83 63.6914 113.933C63.4441 114.035 63.179 114.088 62.9113 114.088C62.6435 114.088 62.3784 114.035 62.1311 113.933C61.8838 113.83 61.6591 113.68 61.4699 113.491L46.4206 98.4415C46.2382 98.2596 45.991 98.1575 45.7334 98.1575C45.4758 98.1575 45.2286 98.2596 45.0462 98.4415L15.6132 127.874C15.4773 128.01 15.3848 128.183 15.3473 128.372C15.3099 128.56 15.3291 128.756 15.4027 128.933C15.4762 129.111 15.6008 129.263 15.7606 129.37C15.9204 129.476 16.1083 129.533 16.3005 129.533H59.0154L58.9768 129.667Z" fill="white"/>
<path d="M23.0666 101.533C25.1285 101.533 26.8 99.8618 26.8 97.8C26.8 95.7381 25.1285 94.0667 23.0666 94.0667C21.0048 94.0667 19.3333 95.7381 19.3333 97.8C19.3333 99.8618 21.0048 101.533 23.0666 101.533Z" fill="white"/>
<path d="M38.1333 30.6666C37.497 30.6674 36.887 30.9205 36.4371 31.3704C35.9872 31.8203 35.7341 32.4303 35.7333 33.0666V166.4C35.7341 167.036 35.9871 167.646 36.4371 168.096C36.887 168.546 37.497 168.799 38.1333 168.8H136.8C137.436 168.799 138.046 168.546 138.496 168.096C138.946 167.646 139.199 167.036 139.2 166.4V33.0666C139.199 32.4303 138.946 31.8203 138.496 31.3704C138.046 30.9204 137.436 30.6673 136.8 30.6666H38.1333Z" fill="#E6E6E6"/>
<path d="M41.0479 34.4C40.4067 34.4109 39.7959 34.6756 39.3495 35.1361C38.9032 35.5966 38.6576 36.2153 38.6667 36.8566V163.677C38.6576 164.318 38.9032 164.937 39.3495 165.397C39.7959 165.858 40.4067 166.122 41.0479 166.133H133.619C134.26 166.122 134.871 165.858 135.317 165.397C135.764 164.937 136.009 164.318 136 163.677V36.8566C136.009 36.2153 135.764 35.5966 135.317 35.1361C134.871 34.6756 134.26 34.4109 133.619 34.4H41.0479Z" fill="white"/>
<path d="M55.5333 52.8488C55.2505 52.8491 54.9794 52.9616 54.7795 53.1615C54.5795 53.3615 54.467 53.6326 54.4667 53.9154V58.8111C54.467 59.0939 54.5795 59.365 54.7795 59.565C54.9794 59.765 55.2505 59.8775 55.5333 59.8778H118.467C118.75 59.8775 119.021 59.765 119.221 59.565C119.421 59.3651 119.533 59.0939 119.533 58.8111V53.9154C119.533 53.6326 119.421 53.3615 119.221 53.1615C119.021 52.9615 118.75 52.8491 118.467 52.8488H55.5333Z" fill="#16885F"/>
<path d="M55.1334 69.0504C55.0627 69.0505 54.9949 69.0786 54.9449 69.1286C54.8949 69.1786 54.8668 69.2464 54.8667 69.3171V71.2283C54.8668 71.299 54.8949 71.3667 54.9449 71.4167C54.9949 71.4667 55.0627 71.4948 55.1334 71.4949H119.133C119.204 71.4949 119.272 71.4667 119.322 71.4167C119.372 71.3668 119.4 71.299 119.4 71.2283V69.3171C119.4 69.2464 119.372 69.1786 119.322 69.1286C119.272 69.0786 119.204 69.0505 119.133 69.0504H55.1334Z" fill="#8BDC65"/>
<path d="M55.1334 75.2623C55.0627 75.2624 54.9949 75.2905 54.9449 75.3405C54.8949 75.3905 54.8668 75.4583 54.8667 75.529V77.4402C54.8668 77.5109 54.8949 77.5787 54.9449 77.6286C54.9949 77.6786 55.0627 77.7068 55.1334 77.7069H119.133C119.204 77.7068 119.272 77.6787 119.322 77.6287C119.372 77.5787 119.4 77.5109 119.4 77.4402V75.529C119.4 75.4583 119.372 75.3905 119.322 75.3405C119.272 75.2905 119.204 75.2624 119.133 75.2623H55.1334Z" fill="#CCCCCC"/>
<path d="M55.1334 81.4744C55.0627 81.4745 54.9949 81.5026 54.9449 81.5526C54.8949 81.6026 54.8668 81.6703 54.8667 81.741V83.6521C54.8668 83.7228 54.8949 83.7906 54.9449 83.8406C54.9949 83.8906 55.0627 83.9187 55.1334 83.9188H119.133C119.204 83.9187 119.272 83.8906 119.322 83.8406C119.372 83.7906 119.4 83.7228 119.4 83.6521V81.741C119.4 81.6703 119.372 81.6025 119.322 81.5525C119.272 81.5026 119.204 81.4744 119.133 81.4744H55.1334Z" fill="#CCCCCC"/>
<path d="M55 93.8829C54.9293 93.883 54.8615 93.9112 54.8115 93.9611C54.7616 94.0111 54.7334 94.0789 54.7333 94.1496V96.0606C54.7334 96.1313 54.7616 96.1991 54.8115 96.2491C54.8615 96.2991 54.9293 96.3272 55 96.3273H119C119.071 96.3272 119.139 96.2991 119.189 96.2491C119.239 96.1991 119.267 96.1313 119.267 96.0606V94.1496C119.267 94.0789 119.239 94.0111 119.189 93.9611C119.139 93.9111 119.071 93.883 119 93.8829H55Z" fill="#8BDC65"/>
<path d="M55 100.095C54.9293 100.095 54.8615 100.123 54.8115 100.173C54.7616 100.223 54.7334 100.291 54.7333 100.362V102.273C54.7334 102.343 54.7616 102.411 54.8115 102.461C54.8615 102.511 54.9293 102.539 55 102.539H119C119.071 102.539 119.139 102.511 119.189 102.461C119.239 102.411 119.267 102.343 119.267 102.273V100.362C119.267 100.291 119.239 100.223 119.189 100.173C119.139 100.123 119.071 100.095 119 100.095H55Z" fill="#8BDC65"/>
<path d="M55 106.307C54.9293 106.307 54.8615 106.335 54.8115 106.385C54.7615 106.435 54.7334 106.503 54.7333 106.573V108.485C54.7334 108.555 54.7615 108.623 54.8115 108.673C54.8615 108.723 54.9293 108.751 55 108.751H119C119.071 108.751 119.139 108.723 119.189 108.673C119.239 108.623 119.267 108.555 119.267 108.485V106.573C119.267 106.503 119.239 106.435 119.189 106.385C119.139 106.335 119.071 106.307 119 106.307H55Z" fill="#CCCCCC"/>
<path d="M55 112.549C54.9293 112.55 54.8615 112.578 54.8115 112.628C54.7615 112.678 54.7334 112.745 54.7333 112.816V114.727C54.7334 114.798 54.7615 114.866 54.8115 114.916C54.8615 114.966 54.9293 114.994 55 114.994H119C119.071 114.994 119.139 114.966 119.189 114.916C119.239 114.866 119.267 114.798 119.267 114.727V112.816C119.267 112.745 119.239 112.678 119.189 112.628C119.139 112.578 119.071 112.549 119 112.549H55Z" fill="#CCCCCC"/>
<path d="M55 118.761C54.9293 118.762 54.8615 118.79 54.8115 118.84C54.7615 118.89 54.7334 118.957 54.7333 119.028V120.939C54.7334 121.01 54.7615 121.078 54.8115 121.128C54.8615 121.178 54.9293 121.206 55 121.206H119C119.071 121.206 119.139 121.178 119.189 121.128C119.239 121.078 119.267 121.01 119.267 120.939V119.028C119.267 118.957 119.239 118.89 119.189 118.84C119.139 118.79 119.071 118.762 119 118.761H55Z" fill="#CCCCCC"/>
<path d="M55 124.973C54.9293 124.973 54.8615 125.002 54.8115 125.052C54.7615 125.102 54.7334 125.169 54.7333 125.24V127.151C54.7334 127.222 54.7615 127.29 54.8115 127.34C54.8615 127.39 54.9293 127.418 55 127.418H119C119.071 127.418 119.139 127.39 119.189 127.34C119.239 127.29 119.267 127.222 119.267 127.151V125.24C119.267 125.169 119.239 125.102 119.189 125.052C119.139 125.002 119.071 124.973 119 124.973H55Z" fill="#CCCCCC"/>
<path d="M55 131.216C54.9293 131.216 54.8615 131.244 54.8115 131.294C54.7615 131.344 54.7334 131.412 54.7333 131.483V133.394C54.7334 133.465 54.7615 133.533 54.8115 133.583C54.8615 133.633 54.9293 133.661 55 133.661H119C119.071 133.661 119.139 133.633 119.189 133.583C119.239 133.533 119.267 133.465 119.267 133.394V131.483C119.267 131.412 119.239 131.344 119.189 131.294C119.139 131.244 119.071 131.216 119 131.216H55Z" fill="#CCCCCC"/>
<path d="M55 137.428C54.9293 137.428 54.8615 137.456 54.8115 137.506C54.7615 137.556 54.7334 137.624 54.7333 137.695V139.606C54.7334 139.677 54.7615 139.745 54.8115 139.795C54.8615 139.845 54.9293 139.873 55 139.873H119C119.071 139.873 119.139 139.845 119.189 139.795C119.239 139.745 119.267 139.677 119.267 139.606V137.695C119.267 137.624 119.239 137.556 119.189 137.506C119.139 137.456 119.071 137.428 119 137.428H55Z" fill="#CCCCCC"/>
<path d="M55 143.64C54.9293 143.64 54.8615 143.668 54.8115 143.718C54.7615 143.768 54.7334 143.836 54.7333 143.907V145.818C54.7334 145.889 54.7615 145.956 54.8115 146.006C54.8615 146.056 54.9293 146.085 55 146.085H119C119.071 146.085 119.139 146.056 119.189 146.006C119.239 145.956 119.267 145.889 119.267 145.818V143.907C119.267 143.836 119.239 143.768 119.189 143.718C119.139 143.668 119.071 143.64 119 143.64H55Z" fill="#CCCCCC"/>
</svg>
