<?xml version="1.0" encoding="utf-8"?>
<!-- Generator: Adobe Illustrator 24.1.2, SVG Export Plug-In . SVG Version: 6.00 Build 0)  -->
<svg version="1.1" id="Layer_1" xmlns="http://www.w3.org/2000/svg" xmlns:xlink="http://www.w3.org/1999/xlink" x="0px" y="0px"
	 viewBox="0 0 200 200" style="enable-background:new 0 0 200 200;" xml:space="preserve">
<style type="text/css">
	.st0{display:none;fill:none;}
	.st1{display:none;}
	.st2{fill:none;}
	.st3{fill:url(#SVGID_1_);}
</style>
<g>
	<path class="st0" d="M62.9,65c6.1,0.2,9.8,4.7,9.9,12.2c0.1,12.5-0.1,24.9,0,37.4c0.1,15.1,11.2,25,27.6,25c2,0,3.9-0.2,5.7-0.4
		c-1.8,0.3-3.7,0.4-5.7,0.4c-16.4,0-27.5-9.9-27.6-25c-0.1-12.5,0-24.9,0-37.4C72.7,69.6,69,65.1,62.9,65c-3.7-0.1-7,1.9-9,5.2
		C55.9,66.9,59.2,64.9,62.9,65z"/>
	<path class="st0" d="M147.7,103L147.7,103c0,3.3,0,6.7,0,10c0,26.6-15.9,44-42.5,46.2c-1.5,0.1-3.1,0.2-4.6,0.2
		c1.5,0,3.1-0.1,4.6-0.2c26.6-2.3,42.5-19.7,42.5-46.2c0-5.2,0-10.4,0-15.6h0v-8.1c0-2.7,0-5.5,0-8.2c0,2.6,0,5.3,0,7.9V103z"/>
	<path class="st1" d="M147.7,113c0-3.3,0-6.7,0-10h-20.9v-1.3c0,4.4,0,8.9,0,13.3c-0.1,13.2-8,22.1-20.6,24.1
		c-1.8,0.3-3.7,0.4-5.7,0.4c-16.4,0-27.5-9.9-27.6-25c-0.1-12.5,0-24.9,0-37.4c0-7.6-3.8-12.1-9.9-12.2c-3.7-0.1-7,1.9-9,5.2
		c-1.2,2-1.9,4.4-1.9,7.1c-0.1,14-0.4,28,0.1,42c0.5,13.8,6.9,24.6,18.6,32.1c9.2,5.9,19.3,8.3,29.9,8.2c1.5,0,3-0.1,4.6-0.2
		C131.8,156.9,147.7,139.6,147.7,113z"/>
	<path class="st1" d="M147.7,81c0-3,0-6,0-9c0-1.3,0-2.5,0-3.8v20.7C147.7,86.3,147.7,83.7,147.7,81z"/>
	<path class="st1" d="M126.8,61.9c0,4.2,0,8.4,0,12.6V60.8C126.8,61.2,126.8,61.5,126.8,61.9z"/>
	<g>
		<path class="st2" d="M126.8,61.9c0,4.2,0,8.4,0,12.6V60.8C126.8,61.2,126.8,61.5,126.8,61.9z"/>
		<linearGradient id="SVGID_1_" gradientUnits="userSpaceOnUse" x1="41.0959" y1="40.8369" x2="159.875" y2="163.8363">
			<stop  offset="0" style="stop-color:#46AEF7"/>
			<stop  offset="1" style="stop-color:#1DD5E6"/>
		</linearGradient>
		<path class="st3" d="M147.7,31.1V68c0,1.3,0,2.7,0,4c0,3,0,6,0,9c0,2.7,0,5.5,0,8.2v8.1h0c0,5.2,0,10.4,0,15.6
			c0,26.6-15.9,44-42.5,46.2c-1.5,0.1-3.1,0.2-4.6,0.2c-10.6,0.2-20.7-2.3-29.9-8.2C59,143.8,52.6,133,52,119.2
			c-0.5-14-0.2-28-0.1-42c0-2.7,0.7-5.1,1.9-7.1c2-3.3,5.3-5.3,9-5.2c6.1,0.2,9.8,4.7,9.9,12.2c0.1,12.5-0.1,24.9,0,37.4
			c0.1,15.1,11.2,25,27.6,25c2,0,3.9-0.2,5.7-0.4c12.6-2,20.5-10.9,20.6-24.1c0-4.4,0-8.9,0-13.3V74.5c0-4.2,0-8.4,0-12.6
			c0-0.4,0-0.7,0-1.1V21c-8.3-2.7-17.1-4.2-26.3-4.2C53.3,16.8,15,55.1,15,102.3s38.3,85.5,85.5,85.5s85.5-38.3,85.5-85.5
			C186,72.6,170.8,46.4,147.7,31.1z"/>
		<polygon class="st1" points="126.8,74.5 126.8,101.7 126.8,103 147.7,103 147.7,103 147.7,88.9 147.7,68.2 147.7,-15.3 
			126.8,-15.3 126.8,21 126.8,60.8 		"/>
	</g>
</g>
</svg>
