<svg xmlns="http://www.w3.org/2000/svg" width="1440" height="1223" fill="none" stroke="#dfebef" stroke-miterlimit="10" stroke-linecap="square" stroke-dasharray="2 2"><path d="M1582.86 291.18c-300.67-.913-265.17-91.257-376.1-54.146-111.34 37.11-157.4 126.24-265.584 123.502C869.55 358.7 797.5 333.157 725.873 371.8c-68.457 36.807-111.77 120.156-175.157 170.347-83.882 66.314-198.19 56.276-242.56-20.99-24.298-42.587-32.538-104.034-77.33-120.46-48.174-17.643-110.715 30.42-147.69 84.26S21.862 601.454-20.607 650.733c-65.7 76.353-171.355 104.947-238.967 64.793-67.612-40.457-89.586-145.403-49.652-237.27 24.51-56.58 67.823-104.642 98.46-158.788 30.214-53.538 46.272-123.806 14.58-160.005" stroke-width=".687"/><path d="M1582.44 289.964c-170.94.304-233.27-29.202-276.37-47.758-31.27-13.69-52.2-20.99-99.1-5.475-84.3 27.377-131.42 84.565-196.7 109.204-20.286 7.605-42.472 12.168-68.038 11.56-71.626-1.826-143.675-26.16-215.09 12.472l-7.817 4.562c-63.81 38.937-106.278 117.418-166.918 165.785-50.92 40.457-113.25 53.233-164.17 39.545-32.96-8.822-60.85-29.203-77.965-59.926-14.368-25.856-23.03-58.1-37.398-83.653-9.508-17.035-21.55-31.027-39.3-37.72-48.173-18.25-110.503 29.203-147.7 81.828-17.748 25.248-32.538 52.017-47.75 78.177-16.48 28.898-33.383 56.884-55.146 81.524-13.945 15.817-29.792 29.202-46.906 40.76-61.907 41.674-137.76 55.667-190.793 26.465-11.198-6.084-20.918-13.993-29.58-23.423-43.737-47.15-53.88-135.06-22.608-209.588 23.24-55.363 65.922-100.383 95.502-152.4 29.37-51.712 44.37-120.155 12.043-156.05" stroke-width=".682"/><path d="M1582 288.443c-169.24.913-232.2-27.985-276.15-46.54-31.27-13.384-52.4-20.685-98.88-5.78-83.67 26.77-131 82.436-196.08 106.467-20.283 7.3-42.468 11.864-67.823 11.255-71.626-1.52-143.464-25.248-214.668 13.69l-7.818 4.563c-63.598 38.936-106.066 117.114-166.495 165.48-50.92 40.762-113.25 54.146-164.382 40.458-33.172-8.822-60.85-29.507-77.754-60.535-14.156-25.856-22.82-58.71-36.764-84.26-9.508-17.34-21.34-31.33-38.877-38.328-47.962-19.164-110.08 27.682-147.48 79.1-17.748 24.64-32.75 50.8-47.75 75.744-16.48 27.68-32.75 54.45-54.3 77.873-13.734 14.905-29.37 27.985-46.483 38.936-61.696 40.458-136.915 57.492-189.526 30.724-10.987-5.476-20.917-13.08-29.58-21.902-43.737-45.02-54.512-134.453-25.143-206.546 21.974-54.146 64.02-96.43 92.333-146.012 28.312-49.888 42.257-116.506 9.296-151.792" stroke-width=".678"/><path d="M1581.8 286.922c-167.76 1.52-231.15-26.77-275.73-45.63-31.27-13.08-52.4-20.685-98.67-6.083-83.25 25.856-130.58 80.306-195.44 103.73-20.286 7.3-42.472 11.56-67.826 10.95-71.416-1.52-143.465-24.03-214.458 15.21l-7.817 4.563c-63.387 39.24-105.856 117.114-166.073 165.48-50.92 41.066-113.25 55.06-164.593 41.675-33.383-8.822-60.64-29.81-77.33-61.143-13.945-26.16-22.397-59.013-36.342-84.87-9.297-17.34-21.34-31.332-38.666-38.633-47.962-20.076-109.87 26.16-147.48 76.657-17.96 24.03-32.96 49.583-47.962 73.614-16.48 26.465-32.116 52.017-53.245 74.527-13.31 14.297-28.946 26.465-46.06 37.415-61.274 38.937-135.86 59.014-188.47 34.982-10.987-5.17-20.918-11.863-29.58-20.38-43.948-42.587-54.934-134.15-27.678-203.81 20.706-52.93 62.118-92.17 89.163-139.624 27.256-48.062 40.356-112.55 6.762-147.532" stroke-width=".673"/><path d="M1581.6 285.402c-166.07 2.13-230.1-25.857-275.52-44.412-31.27-12.776-52.6-20.38-98.46-6.388-82.6 24.943-129.94 78.177-194.8 100.99-20.28 6.997-42.255 11.255-67.6 10.95-71.415-1.217-143.253-23.118-214.034 16.426l-7.818 4.563c-63.175 39.24-105.644 116.8-165.65 165.176-50.92 41.066-113.25 55.972-164.804 42.587-33.595-8.82-60.43-30.115-77.12-61.75-13.945-26.16-22.186-59.317-35.92-85.173-9.297-17.644-21.13-31.636-38.244-39.24-47.75-20.99-109.658 24.64-147.267 73.918-17.96 23.423-33.172 48.367-47.962 71.18-16.27 25.248-31.693 49.583-52.4 70.877-13.1 13.688-28.524 24.944-45.85 35.6-61.063 37.72-135.013 60.84-187.413 39.545-10.987-4.563-20.917-10.95-29.58-18.86-44.16-40.153-55.57-133.54-30.003-201.07 19.438-51.713 60.217-87.912 85.994-132.932 26.2-46.237 38.243-108.9 4.015-143.578" stroke-width=".669"/><path d="M1581.38 283.575c-164.38 2.738-229.04-24.64-275.1-43.195-31.27-12.776-52.6-20.38-98.04-6.692-81.98 24.335-129.52 76.048-194.17 98.254-20.283 6.996-42.257 10.95-67.4 10.647-71.416-.913-143.254-21.902-213.824 17.643l-7.817 4.562C661.853 404.34 619.596 481.3 559.8 529.97c-50.71 41.37-113.25 56.884-165.016 43.804-33.806-8.517-60.428-30.42-76.697-62.36-13.734-26.465-21.763-59.622-35.497-85.782-9.296-17.948-21.128-31.94-38.03-39.85-47.75-21.598-109.448 23.118-147.268 71.485-18.17 22.814-33.383 46.845-48.174 68.747-16.27 24.03-31.06 46.845-51.554 67.226-12.89 12.776-28.1 23.727-45.427 34.07-60.64 36.503-134.168 62.663-186.356 43.803-10.987-3.954-20.706-10.038-29.58-17.34-44.37-37.72-56.203-132.93-32.54-198.332 18.17-50.496 58.316-83.957 82.825-126.544 25.144-44.412 36.342-104.946 1.48-139.32" stroke-width=".664"/><path d="M1581.38 281.752c-162.7 3.346-227.98-23.423-274.9-41.98-31.27-12.472-52.82-20.076-97.82-6.996-81.35 23.423-129.1 73.614-193.54 95.516-20.287 6.692-42.26 10.95-67.193 10.342-71.204-.912-143.042-20.685-213.4 18.86l-7.606 4.563c-62.964 39.545-105.22 116.506-164.805 164.872-50.71 41.674-113.25 57.796-165.015 44.716-33.807-8.517-60.218-30.723-76.275-62.663-13.523-26.77-21.552-59.926-35.074-86.086-9.297-17.948-20.918-32.245-37.61-40.154-47.54-22.5-109.236 21.598-147.057 68.748C82.924 474 67.5 497.12 52.92 517.804c-16.27 22.815-30.637 44.412-50.498 63.576-12.677 12.168-27.68 22.206-45.004 32.245-60.428 34.982-133.11 64.184-185.3 48.062-10.987-3.346-20.706-8.822-29.58-15.818-44.37-35.286-56.836-132.323-35.073-195.595 16.903-48.975 56.413-79.698 79.655-120.156 24.298-42.587 34.44-101.296-1.268-135.06" stroke-width=".66"/><path d="M1581.38 279.62c-161.2 3.955-226.92-22.206-274.46-41.066-31.28-12.167-52.83-19.772-97.62-7.3-80.7 22.814-128.67 71.485-192.9 92.778-20.28 6.692-42.253 10.647-67.185 10.343-71.204-.61-143.042-19.773-213.19 20.076l-7.607 4.563c-62.752 39.545-105.22 116.2-164.382 164.872-50.71 41.978-113.25 58.71-165.227 45.933-34.018-8.517-60.006-31.028-76.064-63.272-13.31-27.073-21.13-60.23-34.65-86.694-9.297-18.252-20.706-32.55-37.398-40.762-47.54-23.423-108.813 20.38-147.056 66.01-18.17 21.902-33.595 44.412-48.385 63.88-16.058 21.597-30.003 41.978-49.653 59.925-12.466 11.56-27.256 20.685-44.793 30.724-60.006 33.765-132.266 66.01-184.243 52.32-10.987-3.042-20.706-7.91-29.58-14.297-44.58-32.853-57.47-131.715-37.61-192.554 15.636-47.758 54.724-75.44 76.486-113.767 23.242-40.458 32.327-97.646-3.803-131.107" stroke-width=".655"/><path d="M1581.38 277.492c-159.52 4.563-225.87-20.99-274.25-39.85-31.27-12.167-53.04-19.772-97.4-7.605-80.08 21.902-128.25 69.356-192.27 90.04-20.283 6.388-42.045 10.343-66.977 10.038-71.204-.608-142.83-18.555-212.767 21.294l-7.607 4.563c-62.54 39.85-105 115.897-163.96 164.87-50.71 41.98-113.25 59.622-165.44 46.846-34.228-8.213-60.005-31.332-75.64-63.88-13.1-27.073-20.917-60.534-34.017-87.303-9.085-18.252-20.706-32.853-36.975-41.37-47.33-24.336-108.602 18.86-146.846 63.576-18.382 21.293-33.806 43.195-48.385 61.75C42.78 520.845 29.47 540 10.03 557.044c-12.255 10.647-26.834 19.468-44.37 28.898-59.795 32.55-131.2 67.835-183.186 56.58-10.987-2.433-20.706-6.692-29.37-12.776C-291.69 599.327-305 498.64-287.04 439.93c14.156-46.542 52.822-71.18 73.528-107.076 22.397-38.632 30.426-93.69-6.55-126.848" stroke-width=".651"/><path d="M1581.38 275.363c-157.83 5.17-224.8-20.077-274.04-38.633-31.27-11.863-53.04-19.468-97.2-7.91-79.45 21-127.83 67.227-191.64 87.303-20.286 6.388-42.05 10.04-66.77 9.735-70.992-.305-142.83-17.644-212.555 22.814l-7.607 4.563c-62.33 39.85-104.798 115.593-163.537 164.567-50.71 42.283-113.25 60.535-165.65 48.063-34.44-8.214-59.795-31.636-75.22-64.49-12.888-27.377-20.495-60.838-33.595-87.607-9.085-18.556-20.495-33.157-36.764-41.674-47.328-25.248-108.4 17.34-146.845 60.838-18.382 20.99-34.017 41.978-48.596 59.317-15.847 19.164-28.946 37.112-47.75 52.93-12.043 10.038-26.41 17.947-43.948 27.073-59.372 31.027-130.365 69.66-182.13 60.838-10.776-1.825-20.495-5.78-29.37-11.255-45.005-27.986-58.738-130.194-42.68-187.078 12.89-45.02 50.92-67.226 70.36-100.687 21.34-36.807 28.313-90.04-9.085-122.59" stroke-width=".646"/><path d="M1581.6 272.93c-156.35 5.78-223.75-18.86-273.62-37.72-31.06-11.56-53.24-19.468-96.98-8.213-79.02 20.38-127.4 65.097-191.2 84.565-20.29 6.084-42.05 9.734-66.56 9.734-70.992-.304-142.62-16.426-212.133 24.03l-7.606 4.563c-62.12 40.154-104.587 115.29-163.114 164.568-50.71 42.587-113.25 61.447-165.86 48.975-34.652-8.213-59.583-31.94-75.008-65.097-12.677-27.682-20.283-61.143-33.172-88.216-9.085-18.86-20.495-33.46-36.34-42.282-47.118-26.16-107.968 15.818-146.634 58.404-18.593 20.38-34.23 40.458-48.596 56.884-15.847 17.947-28.313 34.678-46.906 49.28-11.832 9.126-25.988 16.73-43.737 25.552-58.95 29.81-129.308 71.18-180.862 65.097-10.776-1.217-20.495-4.867-29.37-9.734-45.216-25.552-59.584-129.585-45.216-184.34 11.41-43.5 49.02-62.968 67.2-94.3 20.283-34.982 26.41-86.086-11.833-118.33" stroke-width=".642"/><path d="M1581.8 270.495c-154.66 6.388-222.7-17.643-273.4-36.503-31.06-11.56-53.24-19.164-96.55-8.213-78.4 19.468-126.78 62.968-190.6 81.828-20.28 6.084-42.043 9.43-66.552 9.43-70.993 0-142.62-15.2-211.922 25.248l-7.606 4.562C673.05 387 630.794 461.832 572.478 511.11c-50.71 42.89-113.25 62.36-165.86 49.887-34.65-8.213-59.583-31.94-74.585-65.705-12.466-27.682-19.86-61.447-32.75-88.824-9.086-18.86-20.284-33.765-36.13-42.89-46.906-27.073-107.757 14.6-146.633 55.667-18.594 19.772-34.44 39.24-48.808 54.45-15.847 16.73-27.9 32.245-46.06 45.63-11.62 8.517-25.566 15.2-43.314 23.727-58.738 28.594-128.463 73.006-179.806 69.356-10.776-.913-20.495-3.65-29.37-8.214-45.427-23.118-60.217-128.673-47.75-181.298 10.142-42.282 47.117-58.71 64.02-87.607 19.227-33.157 24.298-82.436-14.367-114.376" stroke-width=".637"/><path d="M1581.38 270.8c-152.97 6.996-221.43-16.427-273-35.287-31.05-11.255-53.45-19.164-96.34-8.517-77.76 18.556-126.35 60.838-189.95 79.1-20.28 5.78-41.836 9.43-66.345 9.126-70.782 0-142.408-14.297-211.71 26.464l-7.606 4.563c-61.907 40.153-104.165 114.985-162.48 164.264-50.7 42.89-113.462 63.27-166.073 51.104-34.862-7.91-59.372-32.245-74.373-66.314-12.255-27.986-19.44-62.055-32.327-89.128-8.874-19.164-20.284-34.07-35.708-43.195-46.906-27.986-107.546 13.08-146.423 53.233-18.593 19.164-34.65 38.024-48.807 52.32-15.635 15.514-27.256 29.81-45.004 42.283-11.198 7.91-25.143 13.688-42.89 22.206-58.315 27.377-127.407 74.83-178.75 73.918-10.775-.304-20.494-2.737-29.37-6.692-45.638-20.685-61.062-127.76-50.075-178.56 8.663-40.762 45.216-54.45 60.85-81.22 18.382-31.332 22.397-78.786-17.114-110.118" stroke-width=".633"/><path d="M1581.8 271.406c-151.28 7.605-220.37-15.513-272.77-34.07-31.06-11.255-53.67-18.86-96.14-8.822-77.12 17.948-125.93 58.71-189.3 76.352-20.3 5.78-41.837 9.126-66.135 9.126-70.782.304-142.408-13.08-211.288 27.682-2.536 1.52-5.07 3.04-7.607 4.867C676.854 387 634.385 461.222 576.493 510.5c-50.7 43.195-113.462 64.184-166.284 52.017-35.074-7.91-59.16-32.55-73.95-66.923-12.043-27.985-19.227-62.36-31.904-89.736-8.874-19.468-20.073-34.374-35.497-43.804-46.694-28.898-107.334 11.56-146.422 50.496-18.805 18.556-34.652 36.807-48.808 49.888-15.635 14.297-26.622 27.377-44.16 38.632-10.987 6.996-24.72 12.472-42.68 20.38-57.893 26.16-126.562 76.352-177.693 78.177-10.776.304-20.495-1.52-29.37-5.17-45.85-18.252-61.697-126.848-52.61-175.823 7.184-39.24 43.314-50.496 57.682-74.83 17.325-29.507 20.283-74.83-19.65-105.86" stroke-width=".628"/><path d="M1583.28 271.712c-149.8 8.518-219.32-14.297-272.35-33.156-31.06-10.95-53.67-18.86-95.92-9.126-76.5 17.035-125.5 56.58-188.7 73.614-20.07 5.476-41.83 8.822-65.917 8.822-70.78.304-142.408-11.864-211.077 28.898-2.535 1.52-5.07 3.042-7.606 4.867-61.485 40.457-103.954 114.376-161.635 163.96-50.498 43.5-113.462 65.097-166.495 53.234-35.285-7.91-59.16-32.853-73.528-67.53-11.832-28.3-18.805-62.663-31.27-90.04-8.874-19.468-19.86-34.677-35.074-44.41-46.694-29.81-106.912 10.038-146.21 48.062-18.805 18.25-34.862 35.286-49.02 47.454-15.424 13.08-26.2 24.943-43.314 34.982-10.776 6.388-24.298 10.95-42.258 18.86-57.682 24.64-125.717 78.177-176.637 82.435-10.776.913-20.284-.608-29.37-3.65-46.06-15.818-62.542-125.935-55.146-173.085 5.916-37.72 41.412-46.237 54.512-68.443 16.27-27.377 18.382-71.18-22.397-101.904" stroke-width=".624"/><path d="M1584.76 272.017c-148.1 9.125-218.26-13.08-272.14-31.94-31.06-10.95-53.88-18.556-95.7-9.43-75.86 16.122-125.1 54.45-188.05 70.876-20.07 5.172-41.834 8.518-65.92 8.518-70.57.608-142.197-10.95-210.654 30.42-2.536 1.52-5.07 3.042-7.606 4.867-61.274 40.457-103.743 114.072-161.213 163.655-50.498 43.803-113.462 66.01-166.706 54.146-35.497-7.605-58.95-33.157-73.317-68.14-11.62-28.594-18.594-62.968-30.848-90.65-8.874-19.772-19.86-34.982-34.863-44.716-46.483-30.723-106.7 8.517-146.21 45.324-19.016 17.644-35.074 34.07-49.02 45.02-15.424 11.863-25.566 22.5-42.258 31.332-10.564 5.78-23.875 9.734-41.835 17.034-57.26 23.423-124.66 80.003-175.58 86.695-10.564 1.217-20.284.304-29.37-2.13-46.272-13.688-63.175-124.718-57.68-170.043 4.437-36.198 39.5-41.978 51.554-61.75 15.424-25.553 16.27-67.53-24.932-97.646" stroke-width=".619"/><path d="M1586.24 272.32c-146.42 9.734-217.2-12.168-271.72-30.723-30.85-10.647-53.88-18.556-95.5-9.734-75.43 15.513-124.66 52.016-187.4 68.14-20.08 5.17-41.627 8.213-65.714 8.517-70.57.608-142.196-9.734-210.442 31.636-2.536 1.52-5.07 3.042-7.607 4.867-61.062 40.762-103.53 114.072-160.8 163.655C536.56 552.48 473.595 575.6 420.35 564.04c-35.496-7.605-58.738-33.46-72.894-68.748-11.4-28.594-18.17-63.27-30.426-91.257-8.663-19.772-19.65-35.286-34.44-45.325-46.483-31.635-106.49 7.3-146 42.89-19.016 17.035-35.285 32.853-49.23 42.89-15.213 10.647-25.143 20.077-41.412 27.682-10.353 4.867-23.453 8.213-41.624 15.514C-52.512 509.894-119.5 569.515-170.2 578.64c-10.564 1.825-20.284 1.52-29.37-.608-46.484-11.256-57.682-125.632-60.217-167.306 8.03-34.982 37.82-38.024 48.385-55.363 14.367-23.727 14.367-63.576-27.68-93.386" stroke-width=".615"/><path d="M1587.72 272.32c-144.74 10.343-216.15-10.95-271.5-29.8-30.85-10.343-54.1-18.252-95.08-10.04-74.8 14.602-124.24 49.888-186.78 65.402-20.07 4.867-41.62 7.91-65.496 8.213-70.57.912-141.985-8.822-210.02 32.852-2.535 1.52-5.07 3.042-7.395 4.867-60.85 40.762-103.32 113.768-160.368 163.655-50.498 44.108-113.46 67.835-166.917 56.276-35.708-7.605-58.738-33.765-72.472-69.356-11.4-28.898-17.96-63.576-30.003-91.56-8.663-20.077-19.65-35.59-34.23-45.933-46.272-32.55-106.277 5.78-146 40.153-19.015 16.426-35.285 31.636-49.23 40.457-15.213 9.43-24.5 17.34-40.567 24.336-10.142 4.258-23.03 6.996-41.2 13.688-56.414 21-122.76 83.653-173.468 95.212-10.564 2.434-20.283 2.434-29.157.913-46.695-8.822-57.893-125.023-62.753-164.568 6.973-33.765 35.92-33.765 45.216-48.975 13.31-21.9 12.254-59.925-30.214-89.432" stroke-width=".611"/><path d="M1589.2 272.322c-143.26 10.95-215.1-9.734-271.1-28.594-30.84-10.342-54.1-17.947-94.86-10.342-74.17 13.688-123.6 47.758-186.15 62.663-20.07 4.867-41.623 7.91-65.287 7.91-70.36.913-141.986-7.605-209.81 34.07-2.536 1.52-5.07 3.042-7.395 4.867-60.85 41.066-103.11 113.464-159.945 163.35-50.498 44.412-113.462 68.748-167.13 57.492-35.92-7.604-58.527-34.07-72.26-69.964-11.2-29.202-17.537-63.88-29.58-92.17-8.663-20.38-19.438-35.894-33.806-46.237-46.06-33.46-105.855 4.26-145.79 37.72-19.227 16.122-35.496 30.42-49.44 38.024-15.002 8.517-24.087 14.905-39.51 20.685-9.93 3.65-22.608 5.475-40.78 11.864-56.203 20.076-121.913 85.173-172.2 99.47-10.565 3.042-20.284 3.65-29.158 2.434-47.117-6.388-58.104-124.415-65.288-161.83 5.916-32.245 34.018-29.507 42.046-42.587 12.466-20.077 10.354-55.97-32.75-85.174" stroke-width=".606"/><path d="M1591.52 268.974c-141.56 11.56-213.82-8.82-270.87-27.377-30.85-10.038-54.3-17.947-94.66-10.647-73.53 13.08-123.18 45.63-185.5 59.926-20.07 4.563-41.623 7.605-65.287 7.91-70.36 1.217-141.774-6.388-209.386 35.286-2.536 1.52-5.07 3.042-7.395 4.867-60.64 41.066-102.897 113.16-159.523 163.35-50.497 44.716-113.46 69.66-167.34 58.405-36.13-7.3-58.315-34.374-71.838-70.268-10.987-29.203-17.325-64.185-29.157-92.78-8.452-20.38-19.228-36.198-33.595-46.845-46.06-34.374-105.644 2.738-145.79 34.982-19.227 15.514-35.707 28.898-49.44 35.6-14.8 7.3-23.453 12.472-38.666 17.035-9.72 2.738-22.185 4.26-40.567 10.343-55.78 18.86-120.857 86.998-171.143 104.033-10.565 3.65-20.284 4.563-29.158 3.954-47.33-3.65-58.527-123.805-67.612-159.092 4.86-31.027 32.115-25.248 38.877-35.894 11.62-17.948 8.24-52.32-35.497-80.915" stroke-width=".602"/><path d="M1593.63 265.934c-139.87 12.168-212.76-7.605-270.66-26.465-30.84-10.038-54.3-17.643-94.44-10.95-72.9 12.168-122.76 43.5-185.1 57.188-20.07 4.563-41.4 7.3-65.077 7.605-70.36 1.217-141.774-5.475-209.175 36.503-2.536 1.52-5.07 3.042-7.395 4.867-60.43 41.066-102.898 113.16-159.1 163.047-50.498 44.716-113.462 70.572-167.34 59.62-36.342-7.3-58.316-34.678-71.627-70.876-10.775-29.507-16.903-64.49-28.524-93.083-8.45-20.685-19.227-36.503-33.172-47.454-45.85-35.286-105.433 1.217-145.577 32.245-19.44 14.905-35.708 27.68-49.653 33.46-14.8 6.083-23.03 10.038-37.61 13.384-9.508 2.13-21.763 2.738-40.145 8.517-55.357 17.644-120.012 88.824-170.087 108.293-10.564 3.954-20.072 4.867-29.157 5.475-48.385 2.738-58.74-123.198-70.148-156.05 3.803-29.507 30.214-20.99 35.708-29.507 10.564-16.122 6.338-48.67-38.032-76.96" stroke-width=".597"/><path d="M1595.75 262.588c-138.2 12.776-211.7-6.388-270.24-25.248-30.64-9.734-54.5-17.34-94.24-11.255-72.26 11.56-122.33 41.37-184.45 54.45-20.07 4.26-41.4 6.997-64.865 7.3-70.148 1.52-141.563-4.26-208.753 38.024-2.535 1.52-4.86 3.346-7.395 4.867C705.6 372.097 663.12 443.582 607.13 493.774c-50.498 45.02-113.462 71.485-167.55 60.534-36.553-7.3-58.105-34.982-71.205-71.485-10.564-29.81-16.69-65.097-28.1-93.69-8.45-20.99-19.016-36.807-32.96-47.758-45.638-36.2-105.22 0-145.577 29.81-19.44 14.297-35.92 26.464-49.653 31.027-14.58 4.867-22.396 7.605-36.764 9.734-9.297 1.52-21.34 1.52-39.722 6.997-54.935 16.426-118.955 90.65-169.03 112.55-10.564 4.562-20.072 5.78-29.157 6.996-48.596 5.17-58.95-122.59-72.683-153.313 2.747-28.29 28.312-17.034 32.75-23.118 9.72-13.993 4.437-44.716-40.778-72.702" stroke-width=".593"/><path d="M1598.07 259.545c-136.7 13.384-210.65-5.476-270.03-24.03-30.63-9.735-54.72-17.34-94.02-11.255-71.84 10.95-121.9 38.936-183.82 51.712-20.07 4.26-41.4 6.692-64.654 7.3-70.147 1.52-141.562-3.346-208.54 39.24-2.535 1.52-4.86 3.347-7.395 4.867-60.006 41.37-102.475 112.55-158.255 162.743-50.286 45.324-113.46 72.397-167.762 61.75-36.553-6.997-57.893-34.982-70.782-72.094-10.353-29.8-16.27-65.4-27.678-93.995-8.452-20.99-18.805-37.11-32.54-48.366-45.638-37.112-104.798-1.52-145.366 27.073-19.65 13.993-36.13 25.248-49.864 28.594-14.58 3.65-21.974 5.17-35.92 6.388-9.085.608-20.918 0-39.51 5.17-54.724 15.2-118.1 92.17-167.974 116.8-10.353 5.17-20.072 7.604-29.157 8.517-48.174 3.65-59.372-121.98-75.22-150.575 1.69-27.073 26.41-12.776 29.58-16.73 9.085-11.864 2.324-41.066-43.314-68.443" stroke-width=".588"/><path d="M1600.18 256.198c-135 13.993-209.6-4.258-269.6-22.814-30.64-9.43-54.72-17.035-93.6-11.56-71.2 10.038-121.5 36.807-183.2 48.974-20.07 3.955-41.2 6.388-64.652 6.997-70.147 1.825-141.35-2.13-208.118 40.457-2.536 1.52-4.86 3.346-7.395 4.867-59.795 41.675-102.264 112.55-157.832 162.743-50.287 45.63-113.462 73.3-167.974 62.663-36.764-6.996-57.893-35.286-70.57-72.7-10.142-30.115-15.847-65.706-27.256-94.604-8.24-21.293-18.805-37.416-32.328-48.975-45.427-38.328-104.587-3.042-145.366 24.64-19.65 13.384-36.13 24.03-49.864 26.16-14.367 2.434-21.762 3.955-34.862 2.738-8.663-.913-20.495-1.217-39.088 3.65-54.3 13.993-117.053 93.995-166.918 121.068-10.353 5.78-20.072 8.822-29.158 10.04-48.385 6.084-59.583-121.373-77.754-147.837.634-25.552 24.298-8.822 26.41-10.04 7.184-10.95.423-37.11-46.06-64.488" stroke-width=".584"/><path d="M1602.3 253.156c-133.33 14.6-208.33-3.042-269.4-21.902-30.63-9.43-54.93-17.034-93.4-11.863-70.57 9.126-121.06 34.678-182.55 46.237-20.07 3.65-41.2 6.388-64.44 6.692-69.936 1.825-141.352-.912-207.907 41.674-2.536 1.52-4.86 3.347-7.395 4.868-59.584 41.674-102.053 112.246-157.4 162.742-50.287 45.933-113.462 74.223-168.185 63.88-36.976-6.996-57.682-35.6-70.148-73.3-9.93-30.42-15.635-66.01-26.833-95.212-8.24-21.597-18.594-37.72-31.905-49.28-45.216-39.24-104.376-4.563-145.155 21.902-19.65 12.776-36.34 22.814-50.075 24.03-14.156 1.217-20.918.304-34.017-.912-8.663-.61-20.072-2.738-38.666 1.825-53.878 13.08-116.208 95.82-165.86 125.327-10.353 6.083-20.072 9.734-29.158 11.56-48.596 8.517-59.794-120.764-80.29-144.795-.423-24.336 22.396-4.867 23.24-3.65 6.128-9.125-1.7-33.46-48.596-60.23" stroke-width=".579"/><path d="M1604.62 249.8c-131.63 15.21-207.27-2.13-268.97-20.685-30.42-9.126-54.93-16.73-93.18-12.168-69.93 8.518-120.43 32.55-181.92 43.5-20.07 3.65-41.2 6.083-64.228 6.692-69.936 2.13-141.14 0-207.485 42.89-2.535 1.52-4.86 3.346-7.395 4.867C721.86 356.58 679.6 426.85 624.455 477.345c-50.286 45.933-113.46 75.135-168.185 64.793-37.187-6.997-57.682-35.895-69.725-73.92-9.72-30.42-15.213-66.313-26.41-95.516-8.24-21.597-18.593-38.024-31.693-49.887-45.216-40.153-104.165-6.084-145.155 19.468-19.86 12.168-36.13 20.077-50.075 21.598-14.368 1.52-20.495-2.434-33.173-4.563-8.45-1.52-19.65-3.955-38.454 0C8.128 371.182-53.78 456.66-103.22 488.904c-10.353 6.693-20.072 10.95-29.157 13.08-49.02 11.255-60.006-120.156-82.825-142.058-1.268-22.814 20.495-.608 20.072 2.738 5.07-7.3-3.592-29.81-51.343-55.97" stroke-width=".575"/><path d="M1606.73 246.77c-130.15 15.818-206.2-.912-268.76-19.468-30.42-9.126-55.14-16.73-92.96-12.472-69.3 7.605-120 30.42-181.3 41.066-20.07 3.346-41.2 5.78-64.017 6.388-69.937 2.13-141.14 1.217-207.274 44.412-2.536 1.52-4.86 3.346-7.395 4.867C725.662 353.54 683.404 423.2 628.47 474c-50.286 46.237-113.672 76.048-168.396 65.706-37.398-6.693-57.47-36.2-69.514-74.527-9.72-30.724-15-66.618-25.988-96.125-8.24-21.902-18.382-38.632-31.27-50.19-45.004-41.37-103.954-7.605-144.943 16.73-19.86 11.864-36.553 20.077-50.076 19.164-13.945-.912-19.86-4.867-32.115-8.213-8.24-2.13-19.228-5.475-38.032-1.52C15.1 355.67-46.173 444.19-95.403 478.867c-10.353 7.3-20.073 11.864-28.947 14.6-49.23 13.69-60.428-119.547-85.15-139.32-2.324-21.598 18.594 3.65 16.903 9.43 4.015-5.476-5.705-25.857-53.878-51.713" stroke-width=".57"/><path d="M1608.85 243.42c-128.47 16.73-205.16 0-268.34-18.556-30.43-8.82-55.15-16.426-92.76-12.776-68.66 6.693-119.58 27.986-180.65 38.328-20.07 3.347-41 5.476-64.02 6.084-69.722 2.434-140.926 2.13-206.848 45.63-2.535 1.52-4.86 3.346-7.395 4.867-59.16 41.98-101.418 111.638-156.142 162.134-50.286 46.542-113.673 76.96-168.608 66.922-37.397-6.692-57.26-36.503-69.09-75.135-9.508-30.723-14.58-66.922-25.354-96.733-8.03-21.902-18.17-38.936-31.06-50.8-44.793-42.282-103.53-8.82-144.943 14.297-20.072 11.255-36.764 18.86-50.287 16.73-13.945-2.13-19.438-7.3-31.27-11.56-8.03-3.04-18.805-6.692-37.82-3.346C21.44 339.24-39.2 430.5-88.22 467.914c-10.353 7.91-19.86 13.08-28.947 16.123-49.44 16.122-60.64-118.94-87.684-136.582-3.38-20.077 16.69 7.604 13.733 15.818 3.17-3.65-7.606-22.206-56.625-47.76" stroke-width=".566"/><path d="M1611.17 240.38c-126.77 17.34-204.1 1.217-268.12-17.34-30.43-8.82-55.36-16.426-92.55-13.08-68.03 6.084-119.16 25.857-180.02 35.59-20.07 3.042-41 5.17-63.8 6.083-69.73 2.434-140.934 3.347-206.644 46.846-2.536 1.52-4.86 3.346-7.184 4.867-58.95 42.283-101.418 111.334-155.72 162.134-50.287 46.846-113.673 77.873-168.82 67.835-37.6-6.692-57.26-36.807-68.88-75.744-9.297-31.027-14.368-67.53-24.932-97.037-8.03-22.206-18.17-39.24-30.637-51.408-44.582-43.195-103.32-10.343-144.732 11.56-20.073 10.647-36.764 17.643-50.287 14.297-13.733-3.346-18.804-9.734-30.425-15.2-7.818-3.65-18.382-8.213-37.398-4.867C28.623 323.425-31.382 417.42-80.4 457.573c-10.142 8.213-19.86 13.993-28.947 17.643-49.864 18.86-60.85-118.33-90.22-133.54-4.437-18.86 14.79 11.864 10.776 22.206 2.113-1.825-9.72-18.25-59.16-43.5" stroke-width=".561"/><path d="M1613.28 237.34c-125.3 17.947-202.83 2.13-267.7-16.122-30.2-8.518-55.36-16.123-92.12-13.385-67.6 5.17-118.74 23.727-179.38 32.853-19.87 3.042-41 4.867-63.6 5.78-69.727 2.737-140.72 4.562-206.22 48.062-2.535 1.52-4.86 3.346-7.183 5.17-58.74 42.283-101.207 111.03-155.297 161.83-50.075 47.15-113.673 78.786-169.03 69.05-37.82-6.388-57.047-37.11-68.457-76.352-9.085-31.33-13.945-67.834-24.51-97.645-8.03-22.5-17.96-39.545-30.426-51.713-44.37-44.412-103.108-11.863-144.732 9.126-20.072 10.038-36.975 16.426-50.498 12.168-13.733-4.563-18.382-12.472-29.37-18.86-7.606-4.563-17.96-9.43-36.975-6.692-51.977 7.604-111.56 104.337-160.367 146.924-10.142 8.822-19.86 15.2-28.946 18.86-50.075 21.293-61.274-117.722-92.756-130.802-5.493-17.34 13.1 16.122 7.607 28.594 1.056 0-11.62-14.602-61.908-39.24" stroke-width=".557"/><path d="M1615.4 233.992c-123.6 18.556-201.78 3.346-267.5-15.21-30.22-8.518-55.57-16.122-91.92-13.69-66.97 4.563-118.32 21.598-178.96 30.115-19.86 2.738-41 4.867-63.38 5.476-69.516 2.737-140.72 5.475-206.008 49.278-2.536 1.52-4.86 3.347-7.184 5.172-58.527 42.282-100.996 111.03-154.874 161.83-50.075 47.15-113.673 79.698-169.03 69.964-38.032-6.388-56.837-37.416-68.035-76.96-8.874-31.33-13.523-68.14-24.087-97.95-7.818-22.51-17.748-39.85-30.003-52.32-44.16-45.325-102.897-13.385-144.52 6.388-20.284 9.734-37.186 15.21-50.498 9.734-13.522-5.476-17.748-14.906-28.524-22.5-7.395-5.172-17.536-10.647-36.764-8.214C42.568 291.484-16.38 391.26-65.19 436.28c-10.142 9.43-19.86 16.122-28.946 20.38-50.287 24.03-61.485-117.114-95.29-128.065-6.55-16.122 11.198 20.38 4.437 35.286 0 1.825-13.734-10.95-64.443-35.286" stroke-width=".552"/><path d="M1617.72 230.95c-121.9 19.164-200.72 4.258-267.07-13.993-30.2-8.213-55.57-15.818-91.7-13.993-66.34 3.65-117.9 19.468-178.32 27.377-19.87 2.738-40.78 4.563-63.4 5.476-69.514 3.042-140.507 6.692-205.795 50.495-2.324 1.52-4.86 3.346-7.184 5.172-58.316 42.586-100.784 110.725-154.663 161.83-50.075 47.453-113.673 80.6-169.242 71.18-38.243-6.388-56.836-37.415-67.823-77.264-8.663-31.636-13.31-68.443-23.664-98.558-7.818-22.815-17.537-40.154-29.792-52.93-44.16-46.237-102.475-14.905-144.52 3.955-20.284 9.126-37.398 13.993-50.71 7.3-13.523-6.692-17.326-17.338-27.68-25.856-7.184-6.084-17.114-12.167-36.34-10.038C48.484 276.58-9.832 379.092-58.428 426.546c-10.142 10.038-19.86 17.34-28.946 21.9-50.7 26.465-61.697-116.505-97.827-125.326-7.606-14.602 7.607 23.727 1.268 41.674-1.268 3.65-15.635-6.997-67.2-31.028" stroke-width=".548"/><path d="M1619.83 227.604c-120.22 19.773-199.66 5.476-266.85-12.776-30.22-8.213-55.78-15.818-91.5-13.993-65.7 2.738-117.27 17.035-177.7 24.64-19.87 2.434-40.78 4.26-63.18 5.17-69.513 3.042-140.506 7.605-205.37 52.017-2.325 1.52-4.86 3.346-7.184 5.17-58.316 42.587-100.573 110.422-154.24 161.526-50.076 47.758-113.673 81.523-169.453 72.093-38.244-6.388-56.626-37.72-67.4-77.873-8.452-31.94-12.89-68.747-23.242-99.166-7.818-23.12-17.537-40.458-29.37-53.234-43.948-47.454-102.263-16.426-144.3 1.217-20.495 8.518-37.398 12.776-50.71 4.867s-16.692-20.076-26.622-29.506c-6.973-6.693-16.692-13.385-35.92-11.864-50.92 4.26-108.813 109.51-157.198 159.7-10.142 10.342-19.86 18.25-28.946 23.422-50.92 29.203-61.907-115.897-100.362-122.59-8.662-13.384 6.34 27.986-1.9 48.063-2.324 5.475-17.748-3.347-69.725-26.77" stroke-width=".543"/><path d="M1621.95 224.56c-118.75 20.38-198.4 6.388-266.65-11.56-30.2-8.213-56-15.514-91.28-14.297-65.07 2.13-116.84 14.905-177.06 21.902-19.86 2.13-40.77 3.954-62.96 4.867-69.302 3.346-140.294 8.82-205.16 53.233-2.324 1.52-4.86 3.346-7.184 5.17-58.104 42.587-100.36 110.118-153.817 161.526-50.076 48.062-113.673 82.436-169.665 73.3-38.454-6.084-56.625-38.024-66.978-78.48-8.24-31.94-12.677-69.052-22.608-99.47-7.606-23.118-17.325-40.76-29.157-53.842-43.737-48.366-102.052-17.643-144.3-1.52-20.495 7.91-37.61 11.56-50.92 2.738-13.312-9.126-16.27-22.5-25.778-33.157-6.76-7.605-16.27-14.6-35.707-13.384C62.218 244.94 4.96 352.93-43.426 405.554c-10.142 10.95-19.86 19.468-28.946 24.944-51.13 31.636-62.33-115.29-102.898-119.548-9.72-12.167 4.65 32.245-5.07 54.45-3.17 7.3-19.65.608-72.472-22.815" stroke-width=".539"/><path d="M1624.27 221.52c-117.05 20.99-197.34 7.604-266.22-10.647-30-7.91-56-15.2-91.07-14.6-64.44 1.217-116.42 12.776-176.42 19.164-19.86 2.13-40.78 3.65-62.76 4.867-69.3 3.346-140.29 10.038-204.734 54.45-2.324 1.52-4.86 3.346-7.184 5.172-57.893 42.89-100.15 110.117-153.395 161.22-50.075 48.366-113.673 83.348-169.875 74.223-38.666-6.084-56.414-38.328-66.768-79.1-8.028-32.244-12.254-69.356-22.185-100.08-7.606-23.423-17.114-41.37-28.735-54.45-43.525-49.584-101.84-19.164-144.098-3.955-20.706 7.3-37.82 10.343-50.92.304s-15.635-24.943-24.932-36.807c-6.55-8.213-15.424-18.25-35.285-15.21-51.13 8.213-106.91 112.855-154.874 168.218-10.142 11.56-19.65 20.38-28.946 26.464-51.554 34.374-62.542-114.68-105.222-116.81-10.775-10.647 2.958 36.503-8.03 61.142-4.225 9.126-21.762 4.26-75.007-18.556" stroke-width=".534"/><path d="M1626.38 218.48c-115.36 21.597-196.28 8.517-266-9.43-30-7.91-56.2-15.2-90.64-14.906-64.02.304-116 10.647-175.8 16.427-19.86 1.825-40.57 3.346-62.76 4.562-69.298 3.65-140.08 10.95-204.522 55.668-2.324 1.52-4.86 3.346-7.184 5.17-57.68 42.89-99.94 109.813-152.972 161.22-49.864 48.367-113.673 84.26-169.876 75.44-38.877-6.084-56.202-38.633-66.344-79.698-8.03-32.245-11.832-69.964-21.763-100.384-7.606-23.727-17.114-41.674-28.524-54.754-43.314-50.496-101.63-20.685-144.098-6.692-20.706 6.996-38.032 9.125-51.132-2.13s-15-27.68-23.875-40.457c-6.128-9.126-15.002-19.468-34.863-16.73-50.71 6.997-105.855 114.68-153.818 172.78-9.93 12.168-19.65 21.598-28.946 27.986-51.765 36.807-62.752-114.072-107.757-114.072-11.832-9.43 1.268 40.762-11.198 67.53-5.07 10.95-23.664 7.91-77.754-14.296" stroke-width=".53"/><path d="M1628.5 215.133c-113.68 22.206-195.23 9.734-265.6-8.213-30-7.605-56.2-14.906-90.43-15.2-63.4-.304-115.58 8.517-175.16 13.69-19.86 1.825-40.57 3.346-62.54 4.258-69.095 3.65-140.088 12.168-204.108 56.884-2.324 1.825-4.86 3.346-7.184 5.17-57.47 43.196-99.728 109.51-152.55 160.918-49.864 48.67-113.673 85.173-170.086 76.352-39.09-5.78-56.203-38.937-66.134-80.307-7.817-32.548-11.62-70.268-21.34-100.99-7.606-23.727-16.903-41.98-28.1-55.363-43.103-51.713-101.207-22.206-143.887-9.126-20.706 6.388-38.243 7.91-51.132-4.563s-14.58-30.115-23.03-43.803c-5.916-9.734-14.58-20.685-34.65-18.556-50.498 5.78-105 116.505-152.762 177.04-9.93 12.472-19.65 22.51-28.735 29.507-51.977 39.545-63.175-113.463-110.292-111.334-12.677-7.91-.634 45.02-14.368 73.918-6.127 12.776-25.777 11.864-80.29-10.342" stroke-width=".525"/><path d="M1629.76 216.35c-112.2 22.814-193.96 10.647-265.37-7.3-30-7.604-56.42-14.905-90.22-15.513-62.76-1.217-115.16 6.083-174.53 10.95l-62.33 3.954c-69.09 3.955-139.87 13.08-203.89 58.1-2.324 1.825-4.86 3.346-7.184 5.17-57.26 43.195-99.728 109.51-152.127 160.917-49.864 48.975-113.673 86.086-170.298 77.57-39.088-5.78-55.992-39.24-65.71-80.915-7.606-32.853-11.198-70.572-20.917-101.6-7.395-24.03-16.692-42.283-27.9-55.97-42.892-52.625-100.996-23.727-143.887-11.864-20.918 5.78-38.244 6.693-51.343-6.692-12.89-13.384-13.945-32.548-22.186-47.454-5.704-10.646-14.156-21.9-34.228-20.076C87.573 190.19 33.694 303.652-14.057 366.924c-9.93 13.08-19.65 23.727-28.735 31.027C-94.98 440.234-106.18 285.096-155.62 289.66c-13.734-6.692-2.324 49.28-17.537 80.61-7.184 14.905-27.68 15.514-82.825-6.084" stroke-width=".521"/><path d="M1630.6 219.393c-110.5 23.423-192.9 11.863-264.96-6.084-29.8-7.3-56.4-14.6-90-15.818-62.1-2.13-114.72 3.955-173.9 8.213l-62.1 3.955c-69.095 3.954-139.876 14.297-203.474 59.62-2.324 1.825-4.648 3.346-7.184 5.172-57.048 43.195-99.517 109.204-151.705 160.917-49.864 49.28-113.673 87-170.51 78.48-39.3-5.78-55.99-39.545-65.288-81.523-7.395-32.853-10.987-70.877-20.495-101.904-7.395-24.335-16.48-42.587-27.467-56.276-42.68-53.84-100.785-25.248-143.676-14.297-20.918 5.172-38.455 5.476-51.343-9.125-12.678-14.602-13.523-35.287-21.13-51.105-5.494-11.255-13.734-23.118-33.806-21.9C93.7 180.76 40.455 297.57-7.084 363.275c-9.93 13.69-19.65 24.944-28.735 32.55-52.4 44.716-74.373-78.48-115.363-105.554-13.31-8.822-4.226 53.537-20.706 86.998-8.24 16.73-29.58 19.164-85.572-1.825" stroke-width=".516"/><path d="M1631.45 222.433c-108.8 24.032-191.85 12.777-264.74-4.867-29.8-7.3-56.63-14.6-89.8-16.122-61.48-3.042-114.1 1.825-173.25 5.476l-62.12 3.65c-68.882 4.26-139.663 15.514-203.26 60.838-2.324 1.825-4.648 3.346-6.973 5.172-57.047 43.5-99.305 108.9-151.282 160.613-49.864 49.583-113.884 87.91-170.72 79.698-39.5-5.78-55.78-39.85-65.076-82.132-7.184-33.157-10.565-71.18-19.86-102.512-7.395-24.336-16.48-42.89-27.256-56.884-42.258-55.06-100.573-26.77-143.676-17.035-21.13 4.563-38.666 4.26-51.554-11.56-12.678-15.818-12.89-37.72-20.284-54.755-5.282-12.167-13.734-22.5-33.595-23.727C99.616 165.854 45.95 289.964-1.59 358.103c-9.93 14.297-19.65 25.856-28.735 34.07-52.61 47.454-72.472-80.6-117.9-102.816-14.58-7.3-6.127 57.492-23.875 93.386-9.086 18.556-31.693 23.12-88.107 2.13" stroke-width=".512"/><path d="M1632.3 225.78c-107.12 24.944-190.58 13.993-264.32-3.65-29.8-6.996-56.63-14.6-89.6-16.426-60.85-3.955-113.67-.304-172.62 2.737l-61.9 3.347c-68.878 4.258-139.66 16.426-202.834 62.055-2.324 1.825-4.65 3.346-6.973 5.17-56.836 43.5-99.094 108.9-150.86 160.613-49.864 49.887-113.885 88.824-170.72 80.61-39.722-5.476-55.57-39.85-64.654-82.74-6.973-33.46-10.142-71.485-19.44-103.12-7.183-24.64-16.27-43.5-26.833-57.492-42.047-55.972-100.15-27.986-143.465-19.47-21.128 4.26-38.877 3.042-51.554-13.993s-12.255-40.153-19.44-58.404c-5.07-12.776-13.31-23.727-33.172-25.248C105.744 156.12 52.7 283.272 5.382 353.844c-9.93 14.6-19.438 27.073-28.735 35.6-52.822 50.192-70.993-82.74-120.434-100.08-15.847-5.475-8.03 61.75-27.045 99.775-10.142 20.38-33.595 26.77-90.854 6.388" stroke-width=".507"/><path d="M1633.14 228.82c-105.64 25.552-189.52 14.906-264.1-2.737-29.8-6.997-56.83-14.297-89.16-16.73-60.22-4.563-113.25-2.738-172.2 0l-61.7 3.346c-68.875 4.563-139.445 17.643-202.62 63.272-2.325 1.825-4.65 3.346-6.973 5.17-56.625 43.804-98.883 108.597-150.437 160.31-49.864 49.888-113.884 89.737-170.932 81.524-39.933-5.476-55.57-40.154-64.232-83.35-6.76-33.46-9.93-72.093-19.015-103.425-7.184-24.944-16.058-43.804-26.623-57.796-41.835-57.188-99.94-29.507-143.253-22.206-21.13 3.65-39.088 1.825-51.554-16.123s-11.62-42.89-18.382-61.75c-4.65-13.69-12.89-25.248-32.75-27.074-47.75-4.562-100.362 125.023-147.48 198.333-9.93 15.2-19.438 27.986-28.735 37.112-53.033 52.625-69.725-85.174-122.758-97.037-17.115-3.955-9.93 66.01-30.003 106.467-11.198 22.206-35.708 30.723-93.4 10.646" stroke-width=".503"/><path d="M1634 232.166c-103.95 26.16-188.47 15.818-263.7-1.52-29.58-6.997-56.83-13.993-88.95-17.035-59.58-5.475-112.83-4.867-171.57-2.738-19.86.61-40.35 1.825-61.48 3.042-68.67 4.563-139.45 18.556-202.204 64.49-2.324 1.825-4.648 3.346-6.972 5.17-56.414 43.804-98.672 108.292-150.015 160.31-49.653 50.192-113.884 90.65-171.143 82.74-39.934-5.475-55.358-40.457-64.02-83.957-6.762-33.765-9.508-72.397-18.594-104.033-7.184-24.944-15.846-44.108-26.2-58.405-41.624-58.1-99.728-31.028-143.254-24.64-21.34 3.042-39.3.61-51.765-18.555s-11.2-45.325-17.537-65.4c-4.437-14.297-12.466-26.465-32.538-28.594-47.54-5.476-99.306 126.847-146.212 202.59-9.72 15.818-19.44 29.202-28.735 38.632-53.244 55.363-65.5-102.512-125.294-94.3-19.438 2.738-11.62 69.964-33.172 112.855-12.043 24.03-37.61 34.374-96.136 14.905" stroke-width=".498"/><path d="M1634.83 235.2c-102.26 26.77-187.4 17.035-263.47-.304-29.58-6.692-57.05-13.993-88.74-17.035-59.16-6.083-112.4-6.996-170.93-5.475l-61.5 2.738C981.532 220 910.962 234.906 848.21 280.84c-2.324 1.825-4.648 3.346-6.972 5.17-56.203 43.804-98.46 108.292-149.592 160.005-49.653 50.496-113.884 91.562-171.355 83.653-40.144-5.172-55.357-40.762-63.597-84.26-6.55-34.07-9.297-72.702-18.17-104.338-6.973-25.248-15.847-44.412-25.988-59.013-41.413-59.318-99.517-32.55-143.042-27.377-21.34 2.433-39.51-.61-51.766-21s-10.564-47.758-16.692-69.05c-4.225-14.905-12.043-27.682-32.115-30.42-47.118-6.388-98.46 128.673-145.155 207.154-9.72 16.426-19.438 30.115-28.735 40.153-53.456 58.1-65.5-102.816-127.83-91.56-20.283 3.65-13.522 74.222-36.34 119.243-13.1 25.856-39.722 38.024-98.672 18.86" stroke-width=".494"/><path d="M1635.68 238.555c-100.57 27.377-186.15 17.947-263.05.608-29.58-6.692-57.05-13.69-88.53-17.34-58.53-6.996-111.78-9.43-170.3-8.213-19.65.304-40.15 1.217-61.28 2.738-68.664 4.867-139.234 20.99-201.564 67.226-2.324 1.825-4.648 3.65-6.973 5.17-55.99 44.108-98.248 107.988-149.17 160.005-49.653 50.8-113.884 92.474-171.566 84.87-40.356-5.17-55.146-41.065-63.386-84.87-6.34-34.07-8.874-73.006-17.748-104.946-6.973-25.552-15.636-44.716-25.566-59.317-41-60.535-99.094-34.07-143.042-30.115-21.552 1.825-39.51-1.826-51.977-23.423-12.255-21.598-9.93-50.192-15.635-72.702-4.015-15.818-11.62-28.898-31.694-31.94-46.905-7.3-97.403 130.194-144.098 211.413-9.72 16.73-19.438 31.332-28.735 41.674-53.667 60.534-65.71-103.12-130.365-88.824-21.34 4.563-15.424 78.482-39.51 125.632-14.156 27.68-41.623 41.978-101.418 23.118" stroke-width=".489"/><path d="M1636.52 241.597c-99.1 27.986-185.08 18.86-262.84 1.825-29.58-6.388-57.26-13.69-88.32-17.643-57.9-7.91-111.34-11.56-169.66-10.95-19.65 0-40.15.913-61.06 2.434-68.46 5.17-139.03 21.9-201.36 68.443l-6.973 5.475c-55.99 44.108-98.037 107.988-148.746 160.005-49.653 51.104-113.885 93.387-171.566 85.782-40.567-5.17-55.146-41.37-62.964-85.478-6.127-34.374-8.452-73.3-17.114-105.554-6.973-25.553-15.424-45.02-25.355-59.926-40.778-61.75-98.883-35.59-142.83-32.55-21.55 1.52-39.722-3.042-51.976-25.856-12.255-22.5-9.508-52.93-14.79-76.048-3.803-16.426-11.198-30.115-31.48-33.765C133 109.578 82.924 249.8 36.44 333.463c-9.72 17.34-19.227 32.244-28.524 43.195-53.878 63.272-65.71-103.425-132.9-86.086-22.186 5.78-17.326 82.74-42.68 132.323-15.212 29.507-43.736 45.63-103.953 27.377" stroke-width=".485"/><path d="M1637.37 244.943c-97.4 28.594-184.03 20.076-262.63 3.04-29.37-6.388-57.26-13.384-88.1-17.947-57.26-8.517-110.92-13.688-169.03-13.688-19.65 0-40.14.608-60.85 2.13-68.457 5.17-139.027 23.118-200.934 69.66l-6.973 5.475c-55.78 44.108-97.826 107.684-148.324 159.7-49.653 51.408-113.884 93.995-171.777 86.998-40.78-5.17-54.935-41.674-62.54-86.086-5.917-34.373-8.24-73.614-16.692-105.858-6.762-25.857-15.213-45.63-24.932-60.534-40.568-62.664-98.672-37.112-142.83-35.287-21.55.913-39.933-4.258-52.188-27.985-12.043-23.727-8.874-55.363-13.734-79.698-3.592-17.34-10.987-31.636-31.06-35.59-46.272-9.126-95.502 133.844-141.986 219.93-9.72 17.947-19.227 33.46-28.524 44.716-54.1 65.705-65.922-103.73-135.435-83.045-23.242 6.997-19.227 86.695-45.85 138.712-16.058 31.636-45.638 49.583-106.7 31.332" stroke-width=".48"/><path d="M1638.22 247.986c-95.72 29.202-182.77 20.99-262.2 3.954-29.37-6.388-57.47-13.384-87.7-18.252-56.62-9.43-110.5-15.817-168.4-16.426-19.65-.304-39.94.304-60.86 2.13-68.453 5.475-138.81 24.03-200.72 70.876l-6.972 5.476c-55.57 44.41-97.615 107.38-147.902 159.7-49.44 51.713-113.884 94.908-171.988 87.91-40.78-4.867-54.935-41.674-62.33-86.694-5.705-34.678-7.818-74.223-16.27-106.467-6.762-26.16-15.213-45.933-24.72-60.838-40.145-63.88-98.46-38.633-142.62-37.72-21.763.304-40.145-5.476-52.19-30.42s-8.24-57.797-12.888-83.35c-3.17-17.947-10.565-32.852-30.637-37.11-46.06-10.038-94.657 135.365-140.93 224.19-9.72 18.556-19.227 34.374-28.524 46.237-54.3 68.443-66.133-103.73-137.97-80.306-24.298 7.908-21.13 90.953-49.02 145.1-17.114 33.46-47.75 53.233-109.236 35.6" stroke-width=".476"/><path d="M1639.06 251.333c-94.23 29.81-181.7 21.902-262 5.17l-87.47-18.556c-56-10.342-110.08-18.25-167.76-19.164-19.65-.304-39.94.305-60.64 1.826-68.25 5.475-138.82 25.247-200.304 72.093l-6.972 5.475C798.556 342.6 756.5 405.254 706.435 457.575c-49.44 51.712-113.884 95.82-172.2 89.128-41-4.867-54.723-41.98-61.907-87.303-5.705-34.982-7.395-74.527-15.847-107.076-6.76-26.16-15-46.237-24.298-61.446-39.933-65.097-98.038-40.153-142.62-40.458-21.763-.304-40.356-6.692-52.4-32.852s-7.817-60.23-12.043-87c-2.958-18.86-10.142-34.07-30.425-38.936-45.64-10.95-93.6 137.19-139.873 228.448-9.508 18.86-19.227 35.59-28.524 47.758-54.512 71.18-66.344-104.033-140.507-77.57-25.143 9.126-23.03 95.212-51.976 151.792-18.17 35.286-49.653 56.884-111.983 39.85" stroke-width=".471"/><path d="M1639.9 254.677c-92.55 30.42-180.44 22.815-261.58 6.388l-87.26-18.86c-55.36-10.95-109.66-20.38-167.13-21.902-19.65-.61-39.93 0-60.43 1.52-68.244 5.78-138.603 26.464-200.088 73.3l-6.973 5.475c-55.146 44.716-97.403 107.076-147.056 159.397-49.44 52.016-113.884 96.733-172.41 90.04-41.2-4.867-54.512-42.282-61.485-87.91-5.493-34.982-7.184-74.83-15.424-107.38-6.55-26.464-14.8-46.54-24.087-62.055-39.722-66.314-97.826-41.37-142.408-42.89-21.974-.608-40.567-7.91-52.4-35.286-11.832-27.073-7.184-62.968-10.987-90.65-2.747-19.468-9.72-35.286-30.003-40.457-45.427-11.863-92.755 139.015-138.816 232.707-9.508 19.468-19.016 36.503-28.524 49.28-54.512 73.614-66.556-104.033-142.83-74.83-26.2 10.038-24.72 99.47-55.146 158.18-19.016 37.11-51.765 60.838-114.518 43.803" stroke-width=".467"/><path d="M1640.75 257.718c-90.85 31.027-179.38 23.727-261.36 7.604-29.16-5.78-57.9-12.776-87.05-19.164-54.94-11.863-109.24-22.5-166.5-24.64-19.65-.61-39.93-.304-60.22 1.52-68.24 5.78-138.6 27.377-199.662 74.83-2.325 1.825-4.65 3.65-6.762 5.475-54.935 44.717-97.192 106.772-146.845 159.093-49.44 52.32-113.884 97.645-172.41 91.257-41.412-4.563-54.512-42.587-61.273-88.52-5.283-35.286-6.762-75.135-15.002-107.988-6.55-26.77-14.58-46.845-23.664-62.36-39.3-67.226-97.615-42.89-142.408-45.63-21.974-1.216-40.78-9.125-52.61-37.415s-6.55-65.4-10.142-93.995c-2.535-20.38-9.296-36.503-29.58-42.283-45.216-12.776-91.9 140.84-137.548 236.965-9.508 20.077-19.016 37.72-28.524 50.8-54.723 76.352-66.767-104.338-145.366-71.79-27.257 11.255-26.623 103.425-58.316 164.568-20.072 38.936-53.667 64.488-117.265 48.062" stroke-width=".462"/><path d="M1641.6 261.065c-89.17 31.635-178.33 24.943-260.95 8.517-83.88-16.73-165-42.587-252.7-46.54-87.68-3.955-185.93 16.73-266.43 82.74-54.723 44.716-96.98 106.467-146.422 159.092s-113.885 98.558-172.623 92.17c-73.528-8.213-56.836-121.677-75.43-197.42-49.02-201.375-177.27-47.758-218.26-150.88C228.713 158.552 259.35 82.2 210.12 66.99c-54.3-16.426-110.08 214.76-165.016 293.85-54.935 78.786-67.19-104.337-147.9-69.05-46.483 20.38-17.326 264.342-181.285 223.276" stroke-width=".458"/><path d="M1640.96 262.89c-88.74 31.636-177.48 24.944-259.88 8.518-27.9-5.476-55.57-12.168-83.25-18.86-54.93-13.08-110.08-25.552-168.18-28.3-62.12-3.042-129.52 6.388-192.277 35.6-25.143 11.864-49.653 26.77-72.683 45.63-54.512 44.108-96.77 105.25-146 156.963s-113.04 95.516-171.355 88.215c-28.1-3.346-43.102-22.206-52.188-47.758-14.156-41.066-13.31-99.775-25.143-144.795-14.156-54.146-34.017-81.523-56.203-95.516-58.104-36.2-132.055 20.99-161.635-53.842-19.86-50.19 9.93-125.935-39.088-141.145-54.724-17.035-110.504 213.24-165.65 292.632-14.156 20.38-25.355 23.423-35.92 17.34-30.003-17.034-52.822-108.596-112.828-83.348-46.906 19.772-19.65 258.563-182.34 217.193" stroke-width=".476"/><path d="M1640.12 265.02c-88.53 31.636-176.64 24.64-258.62 8.213-27.9-5.475-55.36-12.167-82.82-18.86-54.73-13.08-109.45-25.552-167.13-28.594-61.9-3.346-128.9 5.78-191.43 34.678-25.144 11.56-49.442 26.465-72.472 45.02-54.3 43.5-96.56 103.73-145.578 154.833-49.23 51.104-111.982 91.866-170.086 84.26-27.9-3.65-42.892-22.206-52.19-47.454-14.578-40.153-14.578-97.037-26.833-140.536-14.8-52.32-34.65-78.786-57.048-92.17-58.315-34.982-131.2 19.468-160.367-55.06-19.65-50.192 9.085-125.327-39.51-140.536-55.146-17.34-111.138 212.02-166.495 291.72-14.156 20.38-25.354 23.423-35.92 17.947-30.214-16.122-53.667-105.25-113.673-80.306-47.33 19.468-22.185 252.783-183.398 211.413" stroke-width=".494"/><path d="M1639.48 267.15c-88.1 31.33-175.8 24.64-257.35 8.213-27.68-5.476-55.14-12.168-82.4-18.86-54.3-13.08-108.8-25.856-166.28-29.202-61.5-3.346-128.04 5.17-190.373 33.765a371.84 371.84 0 0 0-72.26 44.108c-54.1 42.89-96.348 102.208-145.366 152.4-49.23 50.19-111.138 88.52-168.82 80.002-27.468-3.955-42.892-22.206-52.4-47.15-15-39.24-15.846-94.3-28.524-136.277-15.212-50.496-35.496-75.744-57.893-88.824-58.526-34.07-130.153 17.947-159.1-56.58-19.44-50.192 8.45-124.414-39.934-139.624-55.57-17.643-111.56 210.5-167.13 290.807-13.945 20.077-25.355 23.727-35.708 18.556-30.425-14.906-54.512-101.6-114.518-77.57-47.54 19.164-24.51 247.003-184.454 205.33" stroke-width=".512"/><path d="M1638.85 268.975c-87.7 31.332-174.95 24.64-256.3 7.91-27.68-5.476-54.73-12.168-81.98-18.86-54.1-13.08-108.4-25.856-165.44-29.507-61.28-3.65-127.4 4.867-189.316 32.853-24.932 11.255-49.02 25.552-71.838 43.5-53.878 42.587-96.136 100.688-144.943 150.27-49.02 49.583-110.08 85.174-167.552 76.048-27.256-4.26-42.68-22.5-52.4-46.846-15.424-38.328-17.114-91.56-30.214-132.02-15.847-48.67-36.13-73.006-58.74-85.478-58.738-32.852-129.096 16.427-157.832-58.1C242.87 158.858 269.914 84.94 221.95 69.73 165.96 51.782 109.97 278.71 53.978 359.32c-13.945 20.076-25.143 23.727-35.708 18.86-30.637-13.993-55.358-98.254-115.363-74.832-47.963 18.556-27.045 241.224-185.51 199.246" stroke-width=".53"/><path d="M1638 271.104c-87.26 31.33-174.1 24.335-255.02 7.91-27.47-5.476-54.5-12.472-81.56-18.86-53.88-13.08-107.75-26.16-164.38-29.81-60.85-3.955-126.56 4.26-188.258 31.94-24.72 10.95-48.807 25.248-71.626 42.89-53.667 41.978-95.925 99.47-144.733 148.14-49.018 48.67-109.024 81.828-166.072 72.094-27.045-4.563-42.47-22.5-52.61-46.542-15.635-37.415-18.382-88.52-31.904-127.76-16.48-46.846-36.976-69.964-59.583-82.132-59.16-31.636-128.04 14.906-156.776-59.62-19.227-49.888 6.972-122.894-40.78-138.407-56.414-18.25-112.616 207.458-168.607 288.677-13.945 20.077-25.143 23.727-35.708 19.47-30.848-12.776-56.203-94.604-116.208-72.094-48.174 18.252-29.37 235.14-186.568 193.466" stroke-width=".548"/><path d="M1637.37 272.928c-86.84 31.028-173.47 24.335-253.76 7.605-27.25-5.78-54.3-12.472-81.13-19.164-53.46-13.385-107.12-26.16-163.54-30.115-60.43-3.955-125.93 3.65-187.41 30.723-24.72 10.95-48.596 24.944-71.204 42.283-53.456 41.37-95.713 97.95-144.3 146.012-49.018 48.062-108.18 78.48-164.804 68.14-26.834-4.867-42.47-22.51-52.61-45.933-16.058-36.503-19.65-85.782-33.595-123.198-16.903-45.02-37.61-67.226-60.428-79.1-59.372-30.723-127.196 13.385-155.508-60.838-19.016-49.887 6.127-122.285-41.413-137.8-57.047-18.556-113.04 206.242-169.453 287.765C44.47 379.09 33.272 383.35 22.496 379.09c-31.27-11.864-57.048-91.258-117.054-69.052-48.596 17.948-31.904 229.36-187.623 187.382" stroke-width=".566"/><path d="M1636.74 275.056c-86.42 31.028-172.63 24.03-252.7 7.605-27.26-5.78-54.1-12.472-80.72-19.164-53.24-13.384-106.5-26.465-162.7-30.42-60.22-4.26-125.08 3.042-186.354 29.81-24.5 10.646-48.385 24.64-70.993 41.674-53.245 40.762-95.502 96.43-144.098 143.882-48.808 47.15-107.123 75.136-163.537 63.88-26.41-5.172-42.258-22.815-52.822-45.63-16.27-35.6-20.707-83.044-35.497-118.94-17.537-43.195-38.454-64.184-61.273-75.744-59.583-29.506-126.14 11.864-154.24-62.36-18.805-49.887 5.282-121.677-41.836-137.2C172.5 53.3 116.52 277.186 59.894 359.317c-13.734 19.773-24.932 24.03-35.496 20.38-31.482-10.647-57.682-87.607-117.9-66.314-49.02 17.34-34.23 223.58-188.68 181.3" stroke-width=".584"/><path d="M1635.9 276.884c-86 31.028-171.78 24.03-251.43 7.3-27.05-5.78-53.67-12.472-80.3-19.164-52.82-13.385-105.86-26.77-161.64-30.723-59.8-4.563-124.45 2.737-185.296 28.898-24.298 10.646-48.174 24.335-70.57 41.066-53.033 40.153-95.3 95.21-143.675 141.45-48.808 46.54-106.067 72.093-162.27 59.925-26.2-5.475-42.046-22.814-52.822-45.324-16.69-34.982-21.973-80.003-37.186-114.68-17.96-41.37-39.088-61.447-61.908-72.398-59.794-28.594-125.082 10.342-152.972-63.88-18.805-49.583 4.648-120.764-42.258-136.582-57.893-19.468-113.884 203.2-170.72 285.636-13.734 19.772-24.932 24.03-35.496 20.99-31.693-9.43-58.527-84.26-118.744-63.576-49.23 17.035-36.552 217.8-189.736 175.518" stroke-width=".602"/><path d="M1635.26 278.708c-85.57 30.724-170.94 24.032-250.17 7.3-26.83-5.78-53.45-12.472-79.86-19.164-52.62-13.385-105.23-26.77-160.8-31.028-59.58-4.562-123.6 2.13-184.45 27.986-24.298 10.343-47.962 23.727-70.358 40.458-52.822 39.544-95.08 93.7-143.465 139.32-48.808 45.63-105.22 68.748-161 55.97-25.99-5.78-41.835-22.814-53.034-45.02-17.114-34.07-23.24-77.264-38.877-110.42-18.593-39.545-39.933-58.71-62.752-69.052-60.006-27.377-124.238 8.822-151.916-65.4-18.594-49.583 3.803-120.156-42.68-135.974C177.58 53.91 121.378 275.362 64.33 358.407 50.808 378.18 39.6 382.742 28.834 379.7c-31.904-8.517-59.372-80.915-119.8-60.838-49.653 16.426-39.088 212.02-190.793 169.434" stroke-width=".619"/><path d="M1634.62 280.533c-85.15 30.723-170.08 23.727-249.1 6.997-26.83-5.78-53.24-12.472-79.44-19.165-52.2-13.384-104.8-27.073-159.94-31.635-59.17-4.868-122.76 1.52-183.403 27.073-24.086 10.342-47.75 23.422-69.936 39.85-52.61 38.936-94.868 92.17-143.042 137.2-48.596 45.02-104.165 65.4-159.734 52.017-25.777-6.084-41.623-23.12-53.033-44.412-17.325-33.157-24.51-74.527-40.567-106.163-19.016-37.416-40.568-55.667-63.598-65.705-60.217-26.16-123.18 7.3-150.648-66.618-18.382-49.583 3.17-119.548-43.103-135.365-58.738-20.077-114.94 200.462-172.2 283.81-13.522 19.468-24.72 24.336-35.496 21.902-32.116-7.3-60.217-77.265-120.645-57.796-49.864 16.122-41.413 206.24-191.85 163.35" stroke-width=".637"/><path d="M1634 282.357c-84.73 30.723-169.24 23.727-247.84 6.997-26.62-5.78-52.82-12.472-79.02-19.47-51.98-13.688-104.17-27.073-158.9-31.94-58.74-5.17-122.13.913-182.344 26.16-24.086 10.038-47.54 23.118-69.725 39.24-52.188 38.328-94.657 90.954-142.62 135.06-48.596 44.108-103.32 62.055-158.255 47.758-25.354-6.388-41.623-23.118-53.033-44.107-17.748-32.245-25.777-71.485-42.258-101.6-19.65-35.59-41.412-52.93-64.442-62.664-60.43-25.248-122.125 5.78-149.38-68.14C267.8 160.072 288.507 91.02 242.446 74.9 183.286 54.518 127.083 273.84 69.4 357.492c-13.522 19.47-24.51 24.336-35.285 22.51-32.327-6.388-61.062-73.92-121.49-55.06-50.287 15.514-43.948 200.462-192.906 157.57" stroke-width=".655"/><path d="M1633.36 283.576c-84.3 30.42-168.4 23.727-246.58 6.693-26.4-5.78-52.6-12.472-78.6-19.47-51.76-13.688-103.53-27.377-158.04-32.244-58.53-5.17-121.28.608-181.285 24.944-23.876 9.734-47.118 22.814-69.303 38.632-51.977 37.72-94.446 89.432-142.408 132.628-48.385 43.5-102.263 58.71-156.987 43.803-25.143-6.692-41.412-23.118-53.245-43.803-18.17-31.332-27.044-68.748-43.947-97.342-20.073-33.765-42.047-49.887-65.288-59.317-60.64-24.03-121.068 4.26-148.113-69.66-18.17-49.28 1.7-118.026-44.16-134.148-59.584-20.99-115.998 197.42-173.68 281.68-13.31 19.468-24.51 24.64-35.285 22.814-32.75-5.17-61.907-70.572-122.336-52.32-50.71 15.2-46.272 194.683-193.962 151.488" stroke-width=".673"/><path d="M1632.93 283.88c-83.88 30.42-167.76 23.422-245.3 6.692-26.4-5.78-52.4-12.472-78.18-19.468-51.34-13.69-102.9-27.378-157.2-32.55-58.1-5.475-120.64 0-180.437 24.03-23.875 9.734-46.906 22.206-69.09 38.024-51.766 37.112-94.235 88.216-141.986 130.498-48.385 42.89-101.207 55.363-155.72 39.85-24.932-6.996-41.2-23.422-53.244-43.5-18.382-30.42-28.102-66-45.85-93.083-20.706-31.94-42.89-47.15-66.133-55.97-60.85-22.814-120.223 2.738-147.056-71.18-17.96-49.28.845-117.418-44.582-133.54-60.006-21.293-116.42 195.9-174.524 280.77-13.31 19.468-24.51 24.64-35.285 23.423-32.96-3.955-62.753-66.922-123.18-49.583-50.92 14.905-48.808 188.903-195.02 145.403" stroke-width=".691"/><path d="M1632.72 284.184c-83.67 30.42-166.92 23.423-244.25 6.388-26.2-5.78-52.2-12.776-77.75-19.468-51.13-13.688-102.27-27.68-156.14-32.852-57.7-5.78-119.8-.61-179.387 23.118-23.664 9.43-46.695 21.902-68.88 37.416C854.76 335.29 812.3 385.48 764.54 427.154c-48.174 41.98-100.362 52.017-154.452 35.895-24.51-7.3-40.99-23.423-53.455-42.89-18.805-29.506-29.37-62.968-47.54-88.824-21.13-30.115-43.526-44.108-66.98-52.625-61.062-21.902-119.166 1.217-145.788-72.398-17.748-49.28.21-116.505-45.005-132.93-60.64-21.598-116.842 194.378-175.157 279.856-13.31 19.164-24.298 24.944-35.285 23.727-33.172-3.042-63.597-63.576-124.026-46.54-51.343 14.297-51.132 182.82-196.287 139.624" stroke-width=".709"/><path d="M1632.3 284.488c-83.25 30.115-166.07 23.12-242.98 6.084-26.2-5.78-51.77-12.776-77.33-19.468-50.7-13.69-101.84-27.682-155.3-33.157-57.47-5.78-119.17-1.217-178.327 22.206-23.453 9.43-46.484 21.598-68.458 36.807-51.342 35.895-93.81 85.174-141.35 126.24-48.174 41.37-99.305 48.67-153.184 31.636-24.298-7.605-40.778-23.423-53.456-42.587-19.016-28.594-30.636-60.23-49.23-84.565-21.762-28.3-44.37-41.37-67.612-49.28-61.485-20.685-118.1-.305-144.52-73.92-17.748-49.28-.634-115.897-45.427-132.323-61.062-21.902-117.476 193.16-176.003 278.64-13.1 19.164-24.298 24.944-35.074 24.335-33.383-1.825-64.23-60.23-124.87-43.803-51.765 13.993-53.456 177.04-197.343 133.54" stroke-width=".727"/><path d="M1632.1 284.794c-82.83 30.115-165.23 23.118-241.72 6.084-25.98-5.78-51.55-12.776-76.9-19.773-50.5-13.993-101.2-27.986-154.46-33.765-57.04-6.084-118.32-1.52-177.267 21.293-23.453 9.126-46.272 21.294-68.246 36.2-51.13 35.286-93.6 83.957-141.14 124.1-48.174 40.762-98.25 45.325-151.916 27.682-24.087-7.91-40.78-23.727-53.667-42.283-19.44-27.986-31.693-57.188-50.92-80.307-22.185-26.464-45.004-38.632-68.457-45.933-61.696-19.772-117.054-1.825-143.253-75.44-17.537-48.975-1.268-115.288-46.06-131.41-61.485-22.5-117.9 191.64-176.637 277.727-13.1 19.164-24.087 24.03-35.074 24.944-34.44 2.738-65.077-56.58-125.716-41.066-51.977 13.384-55.99 171.26-198.4 127.456" stroke-width=".745"/><path d="M1631.67 285.096c-82.4 30.115-164.4 23.118-240.66 5.78-25.78-5.78-51.34-12.776-76.5-19.772-50.28-13.993-100.57-27.986-153.4-34.07-56.84-6.388-117.7-2.13-176.428 20.38-23.242 9.126-46.06 21-67.824 35.59-50.92 34.678-93.39 82.436-140.718 121.676-47.962 39.85-97.403 41.98-150.648 23.727-23.876-8.213-40.567-23.727-53.667-41.978-19.65-27.073-32.96-54.45-52.61-75.744-22.608-24.64-45.85-35.6-69.302-42.89-61.908-18.555-116.21-3.346-142.197-76.96-17.326-48.975-2.113-114.68-46.483-130.803C199.344 47.218 142.93 260.456 83.98 346.847c-13.1 19.164-23.875 24.03-35.074 25.248-34.65 3.954-65.922-53.234-126.56-38.33-52.4 13.08-58.316 165.48-199.456 121.677" stroke-width=".763"/><path d="M1631.24 285.4c-81.98 29.8-163.53 22.814-239.4 5.78-25.77-5.78-50.92-12.776-76.06-19.772-49.86-13.993-99.94-28.3-152.55-34.374-56.4-6.388-116.84-2.738-175.37 19.468-23.242 8.822-45.85 20.38-67.613 34.982-50.71 34.07-93.178 80.915-140.506 119.548-47.962 39.24-96.347 38.936-149.17 19.468-23.453-8.517-40.356-23.727-53.88-41.37-20.072-26.16-34.017-51.713-54.3-71.485-23.03-22.814-46.483-32.853-70.147-39.545-62.12-17.34-115.152-4.867-140.93-78.177-17.115-48.975-2.747-113.768-46.906-130.194C202.09 46.6 145.677 258.632 86.305 345.63c-12.89 19.164-23.876 24.03-35.074 25.856C16.37 376.962-15.536 321.6-76.175 336.2c-52.822 12.472-60.85 159.7-200.512 115.592" stroke-width=".781"/><path d="M1631.03 285.4c-81.56 29.81-162.7 22.815-238.12 5.476-25.57-5.78-50.7-12.776-75.64-19.773-49.65-13.992-99.3-28.3-151.7-34.678-56-6.692-116-3.346-174.31 18.252-23.03 8.517-45.638 20.077-67.2 34.374-50.497 33.46-92.966 79.698-140.084 117.418-47.962 38.328-95.502 35.6-147.9 15.513-23.242-8.82-40.145-24.03-53.88-41.066-20.283-25.247-35.285-48.67-56.202-67.226-23.453-20.685-47.33-29.81-70.993-36.2-62.33-16.426-114.096-6.388-139.66-79.698-17.115-48.975-3.592-113.16-47.33-129.585C205.26 44.48 148.846 255.6 89.263 342.892c-12.89 18.86-24.087 25.553-34.863 26.465-34.65 2.738-67.612-46.54-128.252-32.548-53.033 12.167-63.175 153.92-201.57 109.51" stroke-width=".799"/><path d="M1630.6 285.704c-81.14 29.81-161.85 22.814-237.07 5.476-25.35-5.78-50.5-12.776-75.2-19.773-49.24-13.993-98.9-28.594-150.65-34.982-55.78-6.996-115.37-3.65-173.26 17.34-23.03 8.517-45.427 19.773-66.98 33.765-50.286 32.55-92.755 78.177-139.872 115.29-47.75 37.72-94.446 32.244-146.634 11.56-23.03-9.126-39.934-24.03-54.1-40.762-20.706-24.335-36.342-45.932-57.893-62.967-23.875-18.86-47.962-27.073-71.838-32.853-62.54-15.21-113.25-7.91-138.393-81.22C301.82 147.6 314.496 84.025 270.97 67.6c-63.176-24.03-119.8 185.86-179.595 273.772-12.888 18.86-23.875 25.552-34.862 26.77-34.862 3.955-68.457-42.89-129.097-29.81-53.456 11.56-65.7 148.14-202.625 103.73" stroke-width=".817"/><path d="M1630.4 286.01c-80.7 29.507-161.22 22.5-235.8 5.17-25.35-5.78-50.3-12.776-74.8-20.076-49-14.297-98.24-28.594-149.8-35.287-55.36-6.996-114.52-4.258-172.4 16.427-22.82 8.213-45.216 19.468-66.556 33.157-50.075 31.94-92.544 76.656-139.45 113.16-47.75 36.807-93.39 28.898-145.366 7.605-22.82-9.43-39.722-24.032-54.1-40.458-20.917-23.727-37.398-42.89-59.583-58.71-24.298-17.034-48.807-24.03-72.683-29.506-62.753-13.993-112.194-9.43-137.337-82.74-16.692-48.67-5.07-111.943-48.174-128.37-63.598-24.335-120.223 184.34-180.23 272.86-12.677 18.86-23.876 25.856-34.862 27.377-35.285 4.867-69.302-39.545-129.942-27.073-53.667 11.255-68.035 142.36-203.682 97.645" stroke-width=".835"/><path d="M1629.97 286.314c-80.28 29.507-160.36 22.5-234.53 5.17-25.14-5.78-49.86-12.776-74.37-20.077-48.8-14.297-97.6-28.898-148.96-35.6-54.93-7.3-113.88-4.867-171.35 15.514-22.61 8.213-45.005 18.86-66.345 32.548-49.864 31.332-92.333 75.44-139.028 110.726-47.75 36.2-92.544 25.552-144.098 3.346-22.608-9.734-39.51-24.335-54.3-40.153-21.13-22.814-38.666-40.153-61.274-54.146-24.72-15.2-49.44-21.294-73.528-26.465-62.964-13.08-111.138-10.95-136.07-83.957-16.69-48.67-5.704-111.03-48.807-127.76-64.02-24.64-120.645 183.123-181.074 271.643-12.677 18.86-23.875 25.856-34.65 27.68-35.496 6.084-70.148-36.198-130.787-24.335-54.1 10.647-70.36 136.582-204.738 91.562" stroke-width=".853"/><path d="M1629.55 286.315c-79.86 29.506-159.52 22.206-233.47 4.867-25.14-5.78-49.65-12.776-73.95-20.077-48.4-14.297-96.98-29.202-147.9-36.2-54.73-7.605-113.04-5.475-170.3 14.602-22.61 7.908-44.794 18.555-66.134 31.94-49.653 30.723-92.122 73.918-138.817 108.596-47.54 35.286-91.487 22.5-142.83-.608-22.186-10.04-39.3-24.336-54.3-39.545-21.552-21.902-39.723-37.416-62.964-49.888-25.143-13.688-50.287-18.25-74.162-23.118-63.175-11.864-110.08-12.472-134.802-85.478-16.48-48.67-6.55-110.422-49.23-127.152-64.654-25.248-121.28 181.602-181.708 270.73-12.677 18.556-23.875 26.16-34.65 28.3-35.708 7.3-70.78-32.853-131.844-21.293-54.512 10.342-72.894 130.498-205.794 85.782" stroke-width=".871"/><path d="M1629.34 286.618c-79.44 29.202-158.68 22.206-232.2 4.867-24.94-5.78-49.45-13.08-73.53-20.077-48.18-14.297-96.35-29.202-147.06-36.503-54.3-7.604-112.4-5.78-169.45 13.69-22.4 7.91-44.584 18.252-65.713 31.332-49.44 30.42-91.9 72.397-138.394 106.467-47.54 34.678-90.642 19.164-141.35-4.563-21.974-10.343-39.3-24.64-54.513-39.24-21.762-20.99-40.778-34.678-64.654-45.63-25.354-11.863-50.92-15.513-75.007-19.772-63.386-10.95-109.236-13.993-133.534-87-16.27-48.67-7.184-109.813-49.653-126.543-65.076-25.552-121.702 180.08-182.34 269.817-12.677 18.556-23.665 26.16-34.65 28.9-36.13 8.517-71.627-29.507-132.69-18.556-54.724 9.734-75.22 124.718-206.85 79.698" stroke-width=".889"/><path d="M1628.92 286.618c-79.23 29.203-157.83 22.206-230.94 4.563-24.72-5.78-49.02-13.08-73.1-20.076-47.76-14.297-95.93-29.507-146.22-36.808-54.1-7.91-111.56-6.388-168.4 12.776-22.4 7.605-44.162 17.948-65.502 30.724-49.02 29.8-91.7 71.18-138.182 104.337-47.54 33.766-89.586 15.818-140.084-8.517-21.763-10.647-39.09-24.64-54.513-38.936-22.185-20.077-41.835-31.636-66.555-41.37-25.777-10.038-51.766-12.776-75.853-16.426-63.597-9.734-108.18-15.514-132.477-88.52-16.058-48.366-8.03-109.204-50.076-125.935C221.53 36.573 164.904 241 103.842 331.334 91.376 349.9 80.178 357.8 69.19 360.537 32.85 370.27-3.28 334.68-64.343 344.72c-55.147 9.126-77.754 118.94-207.908 73.918" stroke-width=".907"/><path d="M1628.7 286.923c-78.8 29.202-157 21.902-229.88 4.563-24.72-5.78-48.8-13.08-72.7-20.38-47.54-14.6-95.3-29.507-145.15-37.11-53.67-8.214-110.93-6.997-167.34 11.56-22.187 7.3-43.95 17.34-65.08 30.115-48.807 29.202-91.487 69.66-137.76 102.208-47.33 33.157-88.74 12.472-138.817-12.776-21.55-10.647-38.877-24.64-54.723-38.632-22.397-19.47-42.892-28.898-68.246-37.112-26.2-8.213-52.4-9.734-76.698-13.08-64.02-8.517-107.123-17.035-131.2-89.736-16.057-48.367-8.662-108.597-50.497-125.327C224.7 34.748 167.862 238.556 106.8 328.9c-12.466 18.556-23.664 26.465-34.44 29.81-36.764 10.95-73.317-22.5-134.38-13.08-55.57 8.82-80.078 113.16-208.964 67.835" stroke-width=".925"/><path d="M1628.28 286.92c-78.38 28.9-156.14 21.902-228.6 4.26-24.5-6.084-48.6-13.08-72.26-20.38-47.33-14.6-94.66-29.81-144.3-37.415-53.24-8.214-110.08-7.605-166.28 10.646-22.188 7.3-43.74 17.035-64.868 29.507-48.597 28.594-91.277 68.14-137.55 99.775-47.328 32.244-87.684 9.43-137.548-16.73-21.13-10.95-38.666-24.944-54.724-38.024-22.608-18.555-43.948-26.16-69.936-32.548-26.41-6.692-53.245-6.997-77.543-9.734-64.23-7.605-106.066-18.556-129.942-91.258-15.847-48.366-9.508-107.684-51.132-124.718-66.344-26.77-123.18 175.822-184.665 266.776-12.466 18.25-23.453 26.77-34.44 30.42C37.497 369.66.31 338.33-60.752 347.455c-55.78 8.214-82.402 107.38-210.02 61.75" stroke-width=".943"/><path d="M1628.07 287.225c-77.96 28.9-155.3 21.902-227.34 4.26-24.3-6.084-48.4-13.08-71.84-20.38-46.9-14.6-94.02-29.81-143.47-37.72-53.03-8.518-109.23-7.91-165.43 9.734-21.978 6.996-43.53 16.73-64.447 28.898C907.16 300 864.478 338.938 818.418 369.66c-47.118 31.636-86.84 6.084-136.28-20.685-20.918-11.255-38.455-24.943-54.935-37.72-23.03-17.644-45.004-23.423-71.627-28.3-26.833-4.867-53.878-3.955-78.387-6.692-64.443-6.388-105.222-20.077-128.675-92.78-15.635-48.366-10.142-107.075-51.554-124.1-66.767-27.377-123.604 174.302-185.3 265.863-12.254 18.252-23.453 26.77-34.44 30.724-37.398 13.384-75.007-15.818-136.07-7.3-56.203 7.91-84.938 101.6-211.077 55.97" stroke-width=".961"/><path d="M1627.65 287.225c-77.54 28.898-154.66 21.598-226.3 3.954-24.3-6.083-47.96-13.08-71.4-20.38-46.7-14.602-93.4-30.115-142.62-38.328-52.6-8.822-108.6-8.518-164.4 8.82-21.76 6.996-43.3 16.426-64.227 28.3-48.174 27.377-90.854 65.4-136.915 95.516-47.117 31.028-85.783 2.738-135.013-24.64-20.706-11.56-38.243-25.247-54.935-37.415-23.24-17.035-48.173-14.297-73.317-24.03-24.932-9.734-54.723-1.217-79.233-3.346-64.654-5.476-104.165-21.598-127.406-94.3C336.47 133.304 340.907 74.9 299.917 58.17c-67.2-27.68-124.026 172.78-186.145 264.646-12.255 18.252-23.453 27.073-34.44 31.332-37.61 14.6-75.852-12.472-136.915-4.563-56.626 7.3-87.262 95.82-212.134 49.888" stroke-width=".979"/><path d="M1627.44 287.226c-77.12 28.594-153.82 21.598-225.02 3.955-24.1-6.084-47.75-13.08-71-20.38-46.27-14.6-92.96-30.115-141.56-38.632-52.4-8.822-107.75-9.126-163.32 7.91-21.77 6.692-43.106 16.122-63.813 27.377-47.962 26.77-90.642 63.88-136.492 93.387-47.117 30.115-84.937-.305-133.745-28.9-20.495-11.863-38.032-25.247-55.146-37.11-23.453-16.122-49.02-11.56-75.007-19.772-25.566-7.91-55.358 1.825-80.078 0-64.866-4.26-103.11-23.12-126.35-95.516-15.424-48.063-11.62-105.86-52.4-122.6-67.612-27.986-124.66 171.564-186.78 263.734-12.254 17.948-23.453 27.073-34.228 31.636-37.82 15.818-76.698-9.126-137.76-1.825-56.837 6.692-89.797 90.04-213.2 43.804" stroke-width=".997"/><path d="M1627.02 287.226c-76.7 28.594-152.98 21.294-223.76 3.65-23.87-6.084-47.54-13.08-70.57-20.686-46.06-14.905-92.33-30.42-140.72-38.936-51.97-9.126-107.12-9.734-162.26 6.996-21.56 6.693-42.896 15.514-63.602 26.77-47.75 26.16-90.43 62.664-136.07 91.258-46.906 29.506-83.88-3.65-132.266-32.853-20.284-12.168-37.82-25.552-55.146-36.503-23.664-15.2-49.864-9.126-76.698-15.514-25.988-6.084-56.202 4.563-80.712 3.346-65.076-3.042-102.263-24.64-125.082-97.037-15.213-48.062-12.466-105.25-52.822-121.98C239.277 27.143 182.23 225.78 119.9 318.558c-12.043 17.947-23.24 27.377-34.228 32.244-38.243 17.035-77.33-5.78-138.605 1.217-57.26 6.388-92.122 83.957-214.246 38.024" stroke-width="1.014"/><path d="M1626.8 287.226c-76.28 28.594-152.13 21.294-222.7 3.65-23.88-6.083-47.12-13.08-70.15-20.685-45.64-14.905-91.7-30.42-139.87-39.24-51.56-9.43-106.28-10.04-161.43 6.084-21.55 6.388-42.677 15.21-63.172 26.16-47.54 25.552-90.22 61.142-135.858 88.824-46.906 28.594-82.825-6.996-131-36.807-19.86-12.472-37.61-25.552-55.357-36.2-24.087-14.6-50.71-6.388-78.6-10.95-26.622-4.26-56.837 7.3-81.557 6.692-65.288-2.13-101.207-26.16-123.815-98.558-15.002-48.062-13.1-104.337-53.456-121.372C241.4 25.926 184.342 223.346 121.59 316.733c-12.043 17.947-23.24 27.68-34.228 32.852-38.454 18.252-78.177-2.13-139.45 3.955-57.47 5.78-94.657 78.177-215.303 31.94" stroke-width="1.032"/><path d="M1626.6 287.226c-75.85 28.3-151.28 21.293-221.43 3.346-23.66-6.084-46.9-13.385-69.72-20.685-45.43-14.906-91.07-30.723-138.82-39.545-51.34-9.43-105.64-10.647-160.36 4.867-21.34 6.084-42.473 14.905-62.968 25.552-47.33 24.944-90.01 59.622-135.436 86.695-46.906 27.985-81.98-10.04-129.73-40.762-19.65-12.776-37.398-25.856-55.357-35.894-24.298-13.69-50.287-10.343-80.29-6.693-28.313 3.346-57.682 10.343-82.403 9.734-65.5-.912-100.15-27.68-122.547-100.08-15-47.758-13.945-103.73-53.878-120.764C244.77 23.492 187.512 220 124.76 313.69c-12.043 17.947-23.24 27.68-34.228 33.156-38.877 19.773-79.022 1.217-140.295 6.693-57.892 5.17-96.982 72.397-216.358 25.856" stroke-width="1.05"/><path d="M1626.38 287.228c-75.43 28.29-150.43 20.99-220.16 3.346-23.66-6.084-46.7-13.385-69.3-20.685-45.22-14.906-90.43-30.724-137.97-39.85-50.92-9.734-104.8-11.255-159.3 3.954-21.13 6.084-42.26 14.6-62.756 24.944-47.117 24.335-89.798 58.405-135.224 84.565-46.695 27.073-81.135-13.384-128.464-45.02-19.438-12.776-37.186-25.857-55.568-35.59-24.5-12.776-51.343-7.604-81.98-2.433-28.735 4.867-58.316 13.08-83.248 13.08-65.7.304-99.094-29.202-121.5-101.296-14.8-47.758-14.58-103.12-54.3-120.155-69.303-29.81-126.562 165.48-189.737 259.78-11.832 17.643-23.03 27.986-34.017 33.766-39.088 20.99-79.867 4.562-141.14 9.43C-106.6 359.93-147.59 421.68-265.7 375.14" stroke-width="1.068"/><path d="M1625.96 286.922c-75 27.986-149.6 20.99-219.1 3.042-23.45-6.084-46.48-13.384-68.88-20.99-44.8-14.906-90-31.028-137.12-40.458-50.5-10.038-104.17-11.863-158.47 3.042-21.13 5.78-42.04 13.993-62.327 24.336-46.906 23.726-89.586 56.883-134.802 82.435-46.694 26.465-80.078-16.73-127.195-48.974-19.227-13.08-36.975-26.16-55.57-35.287-24.932-12.167-52.4-5.17-83.67 1.826-28.946 6.388-59.16 16.122-84.092 16.426-65.922 1.217-98.25-30.723-120.223-102.817-14.58-47.758-15.213-102.512-54.724-119.547-69.725-30.115-127.195 163.96-190.37 258.867-11.832 17.643-23.03 27.985-34.018 34.373-39.3 22.206-80.712 7.91-141.985 12.472-58.527 4.26-101.84 60.84-218.472 13.993" stroke-width="1.086"/><path d="M1625.75 286.62c-74.6 27.985-148.96 20.99-217.84 3.042-23.24-6.084-46.06-13.385-68.46-21-44.58-15.21-89.37-31.33-136.07-40.76-50.28-10.04-103.32-12.168-157.4 2.13-20.9 5.78-41.83 13.69-62.114 23.727-46.695 23.12-89.375 55.363-134.6 80.307-46.695 25.552-79.233-19.773-125.928-52.93-19.016-13.384-36.764-26.16-55.78-34.678-25.143-11.255-53.456-2.433-85.36 6.084-29.37 7.91-59.795 18.86-84.938 19.773-66.345 2.433-97.193-32.245-118.955-104.338-14.368-47.758-16.058-101.904-55.146-118.94C253.01 18.322 195.54 211.483 131.943 307c-11.832 17.644-23.03 28.3-34.018 34.678-39.722 23.423-81.557 11.255-142.83 15.2-58.95 3.65-104.165 55.06-219.528 7.91" stroke-width="1.104"/><path d="M1625.54 286.314c-74.38 27.985-148.12 20.685-216.57 2.737-23.24-6.083-45.85-13.384-68.04-20.99-44.16-15.21-88.74-31.33-135.22-41.066-49.87-10.342-102.48-12.776-156.35 1.217-20.92 5.476-41.42 13.385-61.7 23.12-46.272 22.5-89.163 53.842-134.168 77.873-46.483 24.943-78.176-23.12-124.448-56.884-18.594-13.69-36.553-26.465-55.78-34.374-25.355-10.646-54.513 0-87.05 10.647-29.792 9.43-60.64 21.902-85.783 23.12-66.556 3.346-96.136-33.766-117.687-105.86-14.368-47.758-16.692-100.992-55.57-118.33-70.57-31.027-128.252 161.222-191.85 256.738-11.833 17.643-22.82 28.3-34.018 35.286-39.933 24.64-82.19 14.6-143.676 17.948-59.16 3.346-106.7 49.28-220.584 2.13" stroke-width="1.122"/><path d="M1625.33 286.01c-73.95 27.682-147.27 20.685-215.52 2.738-23.03-6.084-45.64-13.384-67.6-20.99-43.95-15.2-88.1-31.636-134.38-41.37-49.65-10.647-101.84-13.385-155.3.304-20.7 5.475-41.2 13.08-61.48 22.5-46.06 21.902-88.952 52.625-133.957 75.744-46.483 24.03-77.33-26.16-123.18-61.143-18.382-13.992-36.34-26.464-55.99-34.07-25.566-9.734-55.57 2.738-88.952 14.905-30.003 10.95-61.274 24.64-86.417 26.465-66.767 4.563-95.08-35.286-116.63-107.075-14.156-47.454-17.537-100.384-56.202-117.723-70.993-31.636-128.675 159.7-192.484 255.826-11.62 17.338-22.82 28.594-33.806 35.6-40.145 26.16-83.036 17.947-144.732 20.685-59.583 2.738-109.025 43.5-221.64-3.954" stroke-width="1.14"/><path d="M1625.12 285.402c-73.53 27.68-146.43 20.38-214.25 2.433-22.82-6.083-45.22-13.384-67.2-20.99-43.74-15.2-87.47-31.636-133.32-41.674-49.23-10.647-101-13.993-154.45-.61-20.7 5.172-41 12.777-61.067 21.902-45.85 21.294-88.74 51.104-133.534 73.615-46.483 23.422-76.275-29.507-121.913-65.097-18.17-14.297-36.13-26.77-55.99-33.766-25.99-8.82-56.625 5.172-90.643 19.164-30.425 12.472-62.12 27.682-87.262 29.507-66.978 5.78-94.234-36.807-115.363-108.596-13.945-47.454-18.17-99.775-56.625-117.114-71.416-31.94-129.097 158.18-193.33 254.912-11.62 17.34-22.82 28.9-33.806 36.2-40.356 27.377-83.88 21.294-145.577 23.727-60.006 2.13-111.56 37.72-222.698-10.038" stroke-width="1.158"/><path d="M1625.12 284.793c-73.1 27.682-145.58 20.38-212.98 2.13-22.82-6.084-45-13.385-66.77-21.294-43.3-15.21-87.05-31.94-132.48-41.978-48.8-10.95-100.36-14.297-153.4-1.825-20.5 4.867-40.78 12.472-60.854 21.293-45.638 20.685-88.53 49.583-133.11 71.485-46.272 22.5-75.43-32.853-120.645-69.05-17.96-14.297-35.92-27.073-55.992-33.157-26.2-8.213-57.68 7.605-92.333 23.423-30.848 13.992-62.752 30.42-88.107 32.852-67.19 6.692-93.178-38.328-114.095-110.117-13.945-47.454-19.016-99.166-57.048-116.505-71.838-32.55-129.52 156.658-193.962 253.695-11.62 17.34-22.608 28.898-33.807 36.807-40.778 28.594-84.726 24.64-146.422 26.465-60.217 1.825-113.884 31.636-223.754-15.818" stroke-width="1.176"/><path d="M1624.9 284.182c-72.68 27.377-144.73 20.38-211.92 2.13-22.6-6.083-44.8-13.384-66.34-21.293-43.1-15.2-86.42-31.94-131.63-42.283-48.6-11.255-99.52-14.905-152.34-2.737-20.3 4.867-40.57 11.863-60.43 20.685-45.43 20.076-88.32 48.366-132.902 69.355-46.272 21.902-74.585-35.894-119.378-73.006-17.748-14.6-35.707-27.073-56.202-32.852-26.41-7.3-58.95 10.342-94.023 27.68-31.27 15.514-63.598 33.157-88.953 36.2-67.4 7.91-92.12-39.85-112.827-111.638-13.734-47.454-19.65-98.558-57.47-115.897-72.26-32.853-130.153 155.442-194.807 252.783-11.4 17.34-22.608 29.202-33.806 37.11-41 29.81-85.572 27.986-147.268 29.203-60.64 1.216-116.21 25.856-224.81-21.902" stroke-width="1.194"/><path d="M1624.9 282.967c-72.26 27.377-143.88 20.077-210.65 1.825-22.4-6.084-44.58-13.688-65.92-21.293-42.68-15.514-85.8-32.244-130.58-42.89-48.17-11.56-98.88-15.514-151.28-3.65-20.28 4.562-40.36 11.56-60.22 20.076-45.213 19.468-88.104 46.846-132.475 66.922-46.272 21-73.528-39.24-118.1-77.264-17.537-14.906-35.496-27.378-56.202-32.55-26.623-6.692-60.006 12.776-95.714 31.94-31.693 17.035-64.23 36.2-89.797 39.545-67.612 8.822-91.277-41.37-111.772-112.855-13.522-47.15-20.494-97.95-57.892-114.984-72.683-33.46-130.576 153.92-195.442 251.87-11.41 17.035-22.608 29.203-33.595 37.72-41.2 31.332-86.416 31.332-148.112 31.94-60.85.61-118.744 20.077-225.867-27.985" stroke-width="1.212"/><path d="M1624.7 281.752c-71.84 27.378-143.04 20.077-209.38 1.825-22.4-6.083-44.16-13.688-65.5-21.293-42.47-15.514-85.15-32.244-129.73-43.195-47.97-11.56-98.04-16.122-150.44-4.563-20.07 4.563-40.15 11.255-60 19.468-45 18.86-87.892 45.325-132.263 64.793-46.06 20.38-72.683-42.283-116.63-81.22-17.114-15.2-35.285-27.377-56.414-32.244-27.045-5.78-61.062 15.21-97.404 36.503-32.115 18.555-65.076 38.936-90.642 42.89-67.824 10.038-90.22-42.89-110.504-114.376-13.31-47.15-21.13-97.342-58.527-114.376C274.14 2.2 216.247 188.365 150.96 286.924c-11.4 17.034-22.397 29.506-33.595 38.328-41.412 32.548-87.262 35.6-148.958 34.982-61.062-.913-121.068 14.297-227.134-33.766" stroke-width="1.23"/><path d="M1624.9 279.926c-71.4 27.073-142.4 20.076-208.33 1.52-22.18-6.084-43.94-13.69-65.07-21.294-42.26-15.513-84.52-32.548-128.9-43.5-47.54-11.864-97.4-16.426-149.38-5.476-20.07 4.26-39.93 10.95-59.58 18.86-44.795 18.252-87.687 43.804-131.846 62.664-46.06 19.468-71.838-45.63-115.363-85.174-16.903-15.514-35.074-27.68-56.414-31.636-27.256-5.17-62.33 17.643-99.305 40.762-32.54 20.077-65.71 41.978-91.488 45.933C451.2 273.842 430.07 218.175 409.998 146.7c-13.31-47.15-21.762-96.43-58.95-113.768C277.52-1.45 219.416 183.8 154.128 282.663c-11.198 17.035-22.396 29.507-33.594 38.633C78.7 355.06 32.427 360.232-29.27 359.016c-61.274-1.217-123.603 8.517-228.2-39.85" stroke-width="1.248"/><path d="M1625.12 277.49c-71 27.073-141.57 19.772-207.07 1.52-22.18-6.084-43.73-13.69-64.65-21.598-41.84-15.514-84.1-32.548-127.83-43.803-47.12-12.168-96.56-17.035-148.32-6.388-19.87 3.954-39.73 10.342-59.38 18.25-44.578 17.643-87.47 42.283-131.63 60.534-45.85 18.556-70.78-48.67-114.095-89.128-16.692-15.514-34.863-27.986-56.625-31.332-27.468-4.563-63.387 20.38-100.996 45.02-32.96 21.597-66.556 44.716-92.333 49.28-68.246 12.167-88.107-45.933-107.968-117.418-13.1-47.15-22.608-95.82-59.372-113.16C280.9-5.407 222.797 178.63 157.298 278.1c-11.2 17.035-22.397 29.81-33.595 39.24-42.047 35.286-88.74 41.37-150.648 40.457s-125.927 2.738-229.247-45.933" stroke-width="1.266"/><path d="M1625.33 274.754c-70.57 27.073-140.72 19.772-205.8 1.216-21.97-6.083-43.3-13.688-64.23-21.597-41.62-15.514-83.46-32.853-126.98-44.108-46.9-12.167-95.72-17.643-147.27-7.3-19.86 3.954-39.5 10.038-58.95 17.643-44.37 17.034-87.263 41.066-131.21 58.1-45.85 17.948-69.936-52.017-112.827-93.387-16.48-15.818-34.652-27.985-56.626-31.027-27.9-3.65-64.654 22.814-102.686 49.28-33.383 23.118-67.19 47.758-92.966 52.625-68.67 13.384-87.262-47.454-106.912-118.635-12.888-46.845-23.242-95.21-59.794-112.55-74.374-35.286-132.478 148.14-198.4 247.916-11.198 16.73-22.185 30.114-33.383 39.544C85.037 348.976 37.71 357.2-24.2 355.67c-62.12-1.52-128.463-3.042-230.304-51.713" stroke-width="1.284"/><path d="M1625.54 272.32c-70.15 26.77-139.88 19.772-204.74 1.217-21.76-6.084-43.1-13.69-63.8-21.598-41.2-15.818-82.82-32.853-126.14-44.412-46.48-12.472-95.08-18.25-146.42-8.517-19.65 3.65-39.3 9.734-58.74 17.035-44.158 16.426-87.05 39.545-130.997 55.97-45.85 17.035-69.092-55.06-111.56-97.34-16.27-16.123-34.44-28.3-56.836-30.724-28.1-3.042-65.71 25.248-104.376 53.538-33.806 24.944-68.035 50.496-93.812 55.97-68.88 14.6-86.206-48.975-105.644-120.156-12.677-46.845-24.087-94.603-60.217-111.942-74.796-35.6-133.112 146.62-199.033 246.7-10.987 16.73-22.186 30.115-33.384 40.154-42.47 37.72-90.43 48.062-152.34 46.237-62.54-2.13-130.787-8.822-231.36-57.797" stroke-width="1.302"/><path d="M1625.96 269.584c-69.94 26.77-139.03 19.468-203.47.912-21.76-6.388-42.9-13.688-63.4-21.597-41-15.818-82.2-33.157-125.08-45.02-46.06-12.776-94.23-18.555-145.36-9.43-19.44 3.65-39.1 9.43-58.32 16.427-43.737 15.818-86.84 38.024-130.576 53.842-45.638 16.426-68.035-58.405-110.293-101.296-16.058-16.427-34.228-28.594-56.836-30.115-28.313-2.13-66.978 27.985-106.067 58.1-34.228 26.465-68.668 53.234-94.657 59.318-69.09 15.514-85.15-50.496-104.376-121.677-12.677-46.845-24.72-93.995-60.85-111.334C291.677-18.8 233.15 162.812 166.806 263.5c-10.987 16.73-21.974 30.42-33.384 40.762-42.68 38.936-91.065 51.408-153.183 48.974-62.964-2.433-133.11-14.6-232.416-63.88" stroke-width="1.32"/><path d="M1626.17 267.15c-69.5 26.77-138.18 19.47-202.2.913-21.55-6.388-42.68-13.69-62.97-21.598-40.77-15.818-81.55-33.157-124.23-45.324-45.85-12.776-93.6-19.164-144.3-10.343-19.44 3.346-38.67 9.126-58.1 15.818-43.522 15.2-86.624 36.807-130.36 51.713-45.638 15.514-67.19-61.447-109.024-105.25-15.847-16.73-34.018-28.594-57.048-29.8-28.524-1.52-68.035 30.42-107.757 62.36-34.65 27.986-69.514 56.275-95.502 62.663-69.303 16.123-84.093-52.625-103.11-123.806-12.466-46.845-25.354-93.386-61.273-110.725-75.43-36.807-133.957 143.578-200.513 244.874-10.987 16.73-21.974 30.42-33.383 41.066-42.892 40.457-91.9 54.754-154.03 51.712-63.175-3.346-135.647-20.685-233.473-69.66" stroke-width="1.338"/><path d="M1626.38 264.412c-69.1 26.465-137.33 19.164-201.14.608-21.34-6.388-42.26-13.688-62.54-21.9-40.36-15.818-81.14-33.46-123.4-45.63-45.42-13.08-92.75-19.773-143.46-11.255-19.23 3.346-38.46 8.517-57.68 15.21-43.317 14.602-86.42 35.287-129.945 49.584-45.638 14.905-66.344-64.49-107.545-109.51-15.636-16.73-33.806-28.898-57.048-29.507-28.947-.608-69.303 32.853-109.66 66.618-35.285 29.507-70.147 59.013-96.347 65.705-69.514 17.643-83.247-53.233-101.84-124.414-12.254-46.54-26.2-92.778-61.696-110.117-75.852-37.11-134.6 142.36-201.357 243.96-10.776 16.427-21.974 30.724-33.172 41.675-43.103 41.674-92.756 58.1-154.874 54.45-63.598-3.65-137.97-26.465-234.53-75.744" stroke-width="1.356"/><path d="M1626.6 261.977c-91.7 35.286-182.34 10.343-262-21.293-83.25-33.157-167.77-73.615-264.75-58.1-62.33 10.04-124.445 42.283-186.987 61.75s-76.697-142.666-163.536-142.666c-54.724 0-152.34 124.72-208.542 139.928-115.363 31.332-73.95-191.64-162.903-235.444C289.14-37.65 224.487 209.96 142.72 291.18c-87.896 86.998-203.47 73.614-391.306-24.336" stroke-width="1.374"/></svg>