<svg xmlns="http://www.w3.org/2000/svg" xmlns:xlink="http://www.w3.org/1999/xlink" viewBox="0 0 496 496.0221"><defs><style>.a{fill:url(#a);}.b{fill:url(#b);}.c{fill:url(#c);}.d{fill:url(#d);}.e{fill:url(#e);}.f{fill:url(#f);}.g{fill:url(#g);}.h{fill:url(#h);}.i{fill:url(#i);}.j{fill:url(#j);}.k{fill:url(#k);}.l{fill:url(#l);}.m{fill:url(#m);}.n{fill:url(#n);}.o{fill:url(#o);}.p{fill:url(#p);}.q{fill:url(#q);}.r{fill:url(#r);}.s{fill:url(#s);}.t{fill:url(#t);}.u{fill:url(#u);}.v{fill:url(#v);}.w{fill:url(#w);}.x{fill:url(#x);}.y{fill:url(#y);}.z{fill:url(#z);}.aa{fill:url(#aa);}.ab{fill:url(#ab);}.ac{fill:url(#ac);}.ad{fill:url(#ad);}.ae{fill:url(#ae);}.af{fill:url(#af);}.ag{fill:url(#ag);}.ah{fill:url(#ah);}.ai{fill:url(#ai);}.aj{fill:url(#aj);}.ak{fill:url(#ak);}.al{fill:url(#al);}.am{fill:url(#am);}.an{fill:url(#an);}.ao{fill:url(#ao);}.ap{fill:url(#ap);}</style><linearGradient id="a" x1="465.9411" y1="97.9632" x2="398.0589" y2="30.0809" gradientUnits="userSpaceOnUse"><stop offset="0" stop-color="#46aef7"/><stop offset="1" stop-color="#1dd5e6"/></linearGradient><linearGradient id="b" x1="97.9411" y1="97.9632" x2="30.0589" y2="30.0809" xlink:href="#a"/><linearGradient id="c" x1="465.9411" y1="465.9632" x2="398.0589" y2="398.0809" xlink:href="#a"/><linearGradient id="d" x1="97.9411" y1="465.9632" x2="30.0589" y2="398.0809" xlink:href="#a"/><linearGradient id="e" x1="31.446" y1="202.778" x2="15.974" y2="187.306" xlink:href="#a"/><linearGradient id="f" x1="25.62" y1="234.332" x2="9.744" y2="218.456" xlink:href="#a"/><linearGradient id="g" x1="26.204" y1="298.02" x2="10.372" y2="282.188" xlink:href="#a"/><linearGradient id="h" x1="32.588" y1="329.028" x2="17.2" y2="313.64" xlink:href="#a"/><linearGradient id="i" x1="42.988" y1="358.74" x2="28.316" y2="344.068" xlink:href="#a"/><linearGradient id="j" x1="57.172" y1="386.596" x2="43.484" y2="372.908" xlink:href="#a"/><linearGradient id="k" x1="41.288" y1="172.168" x2="26.5" y2="157.38" xlink:href="#a"/><linearGradient id="l" x1="54.964" y1="143.052" x2="41.12" y2="129.208" xlink:href="#a"/><linearGradient id="m" x1="23.878" y1="266.274" x2="7.878" y2="250.274" xlink:href="#a"/><linearGradient id="n" x1="266.272" y1="504.112" x2="250.284" y2="488.124" xlink:href="#a"/><linearGradient id="o" x1="234.334" y1="502.258" x2="218.454" y2="486.378" xlink:href="#a"/><linearGradient id="p" x1="329.024" y1="494.792" x2="313.636" y2="479.404" xlink:href="#a"/><linearGradient id="q" x1="298.032" y1="501.632" x2="282.208" y2="485.808" xlink:href="#a"/><linearGradient id="r" x1="172.166" y1="485.522" x2="157.37" y2="470.726" xlink:href="#a"/><linearGradient id="s" x1="386.606" y1="468.506" x2="372.918" y2="454.818" xlink:href="#a"/><linearGradient id="t" x1="143.058" y1="470.886" x2="129.21" y2="457.038" xlink:href="#a"/><linearGradient id="u" x1="358.718" y1="483.674" x2="344.054" y2="469.01" xlink:href="#a"/><linearGradient id="v" x1="202.776" y1="496.024" x2="187.312" y2="480.56" xlink:href="#a"/><linearGradient id="w" x1="470.884" y1="382.788" x2="457.04" y2="368.944" xlink:href="#a"/><linearGradient id="x" x1="501.63" y1="229.818" x2="485.794" y2="213.982" xlink:href="#a"/><linearGradient id="y" x1="468.508" y1="139.092" x2="454.824" y2="125.408" xlink:href="#a"/><linearGradient id="z" x1="483.68" y1="167.936" x2="469.012" y2="153.268" xlink:href="#a"/><linearGradient id="aa" x1="502.254" y1="293.546" x2="486.378" y2="277.67" xlink:href="#a"/><linearGradient id="ab" x1="496.028" y1="324.692" x2="480.556" y2="309.22" xlink:href="#a"/><linearGradient id="ac" x1="494.804" y1="198.364" x2="479.412" y2="182.972" xlink:href="#a"/><linearGradient id="ad" x1="485.498" y1="354.622" x2="470.71" y2="339.834" xlink:href="#a"/><linearGradient id="ae" x1="504.124" y1="261.724" x2="488.12" y2="245.72" xlink:href="#a"/><linearGradient id="af" x1="324.69" y1="31.438" x2="309.226" y2="15.974" xlink:href="#a"/><linearGradient id="ag" x1="139.086" y1="57.178" x2="125.398" y2="43.49" xlink:href="#a"/><linearGradient id="ah" x1="354.626" y1="41.286" x2="339.83" y2="26.49" xlink:href="#a"/><linearGradient id="ai" x1="167.94" y1="42.988" x2="153.276" y2="28.324" xlink:href="#a"/><linearGradient id="aj" x1="382.788" y1="54.956" x2="368.94" y2="41.108" xlink:href="#a"/><linearGradient id="ak" x1="229.8" y1="26.2" x2="213.972" y2="10.372" xlink:href="#a"/><linearGradient id="al" x1="261.722" y1="23.886" x2="245.718" y2="7.882" xlink:href="#a"/><linearGradient id="am" x1="198.354" y1="32.598" x2="182.966" y2="17.21" xlink:href="#a"/><linearGradient id="an" x1="293.544" y1="25.624" x2="277.668" y2="9.748" xlink:href="#a"/><linearGradient id="ao" x1="256" y1="267.4217" x2="256" y2="111.3982" gradientUnits="userSpaceOnUse"><stop offset="0" stop-color="#f28e26"/><stop offset="1" stop-color="#fd644f"/></linearGradient><linearGradient id="ap" x1="256" y1="390.6018" x2="256" y2="202.3335" xlink:href="#ao"/></defs><circle class="a" cx="432" cy="64.0221" r="48"/><circle class="b" cx="64" cy="64.0221" r="48"/><circle class="c" cx="432" cy="432.0221" r="48"/><circle class="d" cx="64" cy="432.0221" r="48"/><path class="e" d="M33.656,189.52l-15.328-4.568c-1.56,5.224-2.968,10.6-4.192,15.984l15.608,3.544Q31.46,196.908,33.656,189.52Z" transform="translate(-8 -7.9779)"/><path class="f" d="M26.832,219.664l-15.816-2.48c-.848,5.464-1.528,10.984-2.016,16.408l15.936,1.424Q25.632,227.252,26.832,219.664Z" transform="translate(-8 -7.9779)"/><path class="g" d="M25.384,281.376,9.48,283.08c.576,5.384,1.36,10.888,2.328,16.368l15.752-2.784c-.904-5.12-1.64-10.264-2.176-15.288Z" transform="translate(-8 -7.9779)"/><path class="h" d="M30.76,311.808l-15.544,3.816c1.296,5.288,2.816,10.648,4.496,15.92l15.232-4.872C33.376,321.744,31.96,316.744,30.76,311.808Z" transform="translate(-8 -7.9779)"/><path class="i" d="M25.272,347.112c2.024,5.12,4.24,10.216,6.584,15.16l14.456-6.856q-3.3-6.972-6.168-14.184Z" transform="translate(-8 -7.9779)"/><path class="j" d="M61.4,382.368c-2.8-4.288-5.488-8.744-7.992-13.224L39.44,376.952c2.688,4.8,5.56,9.552,8.552,14.152Z" transform="translate(-8 -7.9779)"/><path class="k" d="M44.48,160.576l-14.576-6.6c-2.232,4.928-4.36,10.072-6.304,15.288l14.984,5.608c1.824-4.872,3.8-9.688,5.896-14.296Z" transform="translate(-8 -7.9779)"/><path class="l" d="M45.488,124.84c-2.888,4.632-5.672,9.44-8.28,14.304l14.112,7.552q3.66-6.828,7.752-13.384Z" transform="translate(-8 -7.9779)"/><path class="m" d="M24,256q0-2.772.072-5.528l-16-.392C8.024,252.048,8,254.016,8,256q0,5.328.216,10.608l15.984-.656Q24.008,261.008,24,256Z" transform="translate(-8 -7.9779)"/><path class="n" d="M250.48,487.928l-.392,16q2.94.072,5.928.072,5.316-.012,10.592-.224l-.656-15.984c-5.16.208-10.352.272-15.472.136Z" transform="translate(-8 -7.9779)"/><path class="o" d="M217.184,500.984c5.464.848,10.984,1.528,16.408,2.016l1.424-15.936q-7.752-.696-15.36-1.888Z" transform="translate(-8 -7.9779)"/><path class="p" d="M311.792,481.248l3.832,15.528c5.32-1.312,10.672-2.824,15.912-4.496l-4.872-15.232c-4.896,1.56-9.904,2.976-14.872,4.2Z" transform="translate(-8 -7.9779)"/><path class="q" d="M281.392,486.624l1.704,15.904c5.384-.576,10.888-1.36,16.368-2.328l-2.784-15.752c-5.12.904-10.264,1.64-15.288,2.176Z" transform="translate(-8 -7.9779)"/><path class="r" d="M153.976,482.12c5.04,2.272,10.176,4.392,15.296,6.296l5.576-15c-4.776-1.776-9.584-3.76-14.296-5.872Z" transform="translate(-8 -7.9779)"/><path class="s" d="M369.136,458.6l7.832,13.952c4.832-2.704,9.576-5.584,14.144-8.552l-8.736-13.408q-6.48,4.224-13.24,8.008Z" transform="translate(-8 -7.9779)"/><path class="t" d="M124.848,466.52c4.624,2.888,9.44,5.672,14.296,8.28l7.56-14.112q-6.828-3.66-13.392-7.752Z" transform="translate(-8 -7.9779)"/><path class="u" d="M341.232,471.832l5.856,14.888c5.096-2.008,10.192-4.216,15.168-6.584L355.4,465.68C350.752,467.896,345.984,469.968,341.232,471.832Z" transform="translate(-8 -7.9779)"/><path class="v" d="M184.952,493.672c5.2,1.552,10.576,2.96,15.984,4.192l3.544-15.608q-7.584-1.716-14.952-3.912Z" transform="translate(-8 -7.9779)"/><path class="w" d="M474.8,372.856l-14.112-7.56q-3.66,6.828-7.752,13.392l13.576,8.472c2.896-4.632,5.672-9.44,8.288-14.304Z" transform="translate(-8 -7.9779)"/><path class="x" d="M486.616,230.632l15.904-1.704c-.568-5.376-1.36-10.88-2.328-16.376l-15.752,2.784c.912,5.128,1.64,10.28,2.176,15.296Z" transform="translate(-8 -7.9779)"/><path class="y" d="M464.008,120.904,450.6,129.632q4.212,6.48,8,13.24l13.952-7.824C469.864,130.24,466.984,125.48,464.008,120.904Z" transform="translate(-8 -7.9779)"/><path class="z" d="M486.728,164.888c-2.024-5.12-4.24-10.216-6.584-15.152l-14.456,6.856q3.3,6.972,6.168,14.184Z" transform="translate(-8 -7.9779)"/><path class="aa" d="M485.168,292.344l15.816,2.472c.848-5.464,1.528-10.984,2.016-16.408l-15.936-1.424q-.696,7.752-1.896,15.36Z" transform="translate(-8 -7.9779)"/><path class="ab" d="M478.344,322.472l15.328,4.576c1.552-5.2,2.96-10.576,4.192-15.984l-15.608-3.544q-1.704,7.572-3.912,14.952Z" transform="translate(-8 -7.9779)"/><path class="ac" d="M481.24,200.192l15.544-3.808c-1.296-5.296-2.816-10.656-4.496-15.928l-15.232,4.872C478.624,190.256,480.04,195.256,481.24,200.192Z" transform="translate(-8 -7.9779)"/><path class="ad" d="M467.52,351.432l14.576,6.592c2.248-4.968,4.368-10.12,6.304-15.288l-14.984-5.608c-1.8081,4.84-3.792,9.656-5.896,14.304Z" transform="translate(-8 -7.9779)"/><path class="ae" d="M503.784,245.384l-15.984.656q.192,4.956.2,9.96,0,2.772-.072,5.528l16,.392c.048-1.968.072-3.936.072-5.92Q504,250.672,503.784,245.384Z" transform="translate(-8 -7.9779)"/><path class="af" d="M327.056,18.336c-5.24-1.568-10.624-2.984-16-4.192l-3.528,15.6c5.024,1.144,10.048,2.456,14.936,3.92Z" transform="translate(-8 -7.9779)"/><path class="ag" d="M142.848,53.416l-7.8-13.968c-4.76,2.656-9.52,5.536-14.16,8.552l8.736,13.408c4.336-2.824,8.792-5.512,13.224-7.992Z" transform="translate(-8 -7.9779)"/><path class="ah" d="M358.016,29.888c-5.056-2.28-10.192-4.392-15.288-6.296l-5.592,14.992q7.272,2.712,14.304,5.888Z" transform="translate(-8 -7.9779)"/><path class="ai" d="M170.776,40.152l-5.872-14.88c-5.072,2-10.168,4.216-15.168,6.592l6.856,14.456c4.672-2.224,9.448-4.296,14.184-6.168Z" transform="translate(-8 -7.9779)"/><path class="aj" d="M387.152,45.48c-4.64-2.904-9.456-5.688-14.304-8.28l-7.544,14.112c4.536,2.424,9.04,5.032,13.384,7.744Z" transform="translate(-8 -7.9779)"/><path class="ak" d="M230.632,25.368,228.896,9.464c-5.48.6-10.976,1.384-16.352,2.336l2.784,15.76C220.376,26.664,225.488,25.936,230.632,25.368Z" transform="translate(-8 -7.9779)"/><path class="al" d="M255.752,24c1.984.024,3.864.024,5.792.064l.36-15.992C259.936,8.024,257.976,8,256.008,8c-3.704-.08-7.12.072-10.632.224l.672,15.984q4.824-.204,9.704-.208Z" transform="translate(-8 -7.9779)"/><path class="am" d="M200.2,30.752l-3.832-15.528c-5.32,1.312-10.672,2.824-15.912,4.496l4.872,15.24c4.896-1.568,9.904-2.984,14.872-4.208Z" transform="translate(-8 -7.9779)"/><path class="an" d="M294.824,11.024C289.392,10.168,283.88,9.488,278.416,9l-1.44,15.936q7.752.696,15.36,1.896Z" transform="translate(-8 -7.9779)"/><path class="ao" d="M162.3859,236.2169a23.2853,23.2853,0,0,0,16.2-6.58l23.0927,11.5454a22.919,22.919,0,0,0-.2864,2.8361,23.4035,23.4035,0,0,0,46.807,0,23.1205,23.1205,0,0,0-2.3464-10.0258l31.3266-31.3266a23.1184,23.1184,0,0,0,10.0257,2.3464,23.43,23.43,0,0,0,23.4035-23.4035,23.053,23.053,0,0,0-1.1681-6.9316l27.2187-20.409a24.3753,24.3753,0,1,0-9.28-12.5347L300.16,162.1424a23.3021,23.3021,0,0,0-34.0123,29.4921L234.821,222.961a22.9977,22.9977,0,0,0-26.2254,4.2338L185.503,215.65a22.9209,22.9209,0,0,0,.2864-2.8361,23.4035,23.4035,0,1,0-23.4035,23.4035Z" transform="translate(-8 -7.9779)"/><path class="ap" d="M381.3388,375h-8.3212V210.1347a7.798,7.798,0,0,0-7.8012-7.8012H334.0117a7.798,7.798,0,0,0-7.8012,7.8012V375H310.6082V256.9417a7.798,7.798,0,0,0-7.8012-7.8012H271.6024a7.7981,7.7981,0,0,0-7.8013,7.8012V375H248.1988V319.3511a7.798,7.798,0,0,0-7.8012-7.8012H209.1929a7.798,7.798,0,0,0-7.8011,7.8012V375H185.7894V288.1464a7.798,7.798,0,0,0-7.8011-7.8012H146.7836a7.798,7.798,0,0,0-7.8012,7.8012V375h-8.3213a7.8012,7.8012,0,0,0,0,15.6023H381.3388a7.8012,7.8012,0,1,0,0-15.6023Z" transform="translate(-8 -7.9779)"/></svg>