<svg xmlns="http://www.w3.org/2000/svg" xmlns:xlink="http://www.w3.org/1999/xlink" viewBox="0 0 469.4 469.4408"><defs><style>.a{fill:url(#a);}.b{fill:url(#b);}.c{fill:url(#c);}.d{fill:url(#d);}</style><linearGradient id="a" x1="417.2001" y1="-3.2625" x2="47.4688" y2="366.4688" gradientTransform="matrix(1, 0, 0, -1, 0, 472)" gradientUnits="userSpaceOnUse"><stop offset="0" stop-color="#46aef7"/><stop offset="1" stop-color="#1dd5e6"/></linearGradient><linearGradient id="b" x1="377.7375" y1="158.3625" x2="347.6438" y2="188.4563" xlink:href="#a"/><linearGradient id="c" x1="128.0821" y1="247.1505" x2="227.6454" y2="350.2513" gradientTransform="matrix(1, 0, 0, 1, 0, 0)" xlink:href="#a"/><linearGradient id="d" x1="37.4366" y1="247.1504" x2="136.9999" y2="350.2513" gradientTransform="matrix(1, 0, 0, 1, 0, 0)" xlink:href="#a"/></defs><path class="a" d="M448,236.6v-66a42.5275,42.5275,0,0,0-39.3-42.3l-61.3-107A42.2006,42.2006,0,0,0,289.5,5.7L79.6,128H42.7A42.6777,42.6777,0,0,0,0,170.7v256a42.7417,42.7417,0,0,0,42.7,42.7H405.4a42.7417,42.7417,0,0,0,42.7-42.7v-66a31.8293,31.8293,0,0,0,21.3-30v-64A32.2849,32.2849,0,0,0,448,236.6ZM383.9,128h-93l69.7-40.6ZM350.1,68.9,248.6,128H206.5L339.6,50.5ZM300.3,24.2a20.376,20.376,0,0,1,15.8-2.1A21.1952,21.1952,0,0,1,328.9,32h0L164,128H122ZM426.7,426.7A21.3175,21.3175,0,0,1,405.4,448H42.7a21.3175,21.3175,0,0,1-21.3-21.3v-256a21.3175,21.3175,0,0,1,21.3-21.3H405.4a21.3175,21.3175,0,0,1,21.3,21.3v64h-64a64,64,0,0,0,0,128h64v64Zm21.3-96a10.7121,10.7121,0,0,1-10.7,10.7H362.6a42.7,42.7,0,0,1,0-85.4h74.7A10.7121,10.7121,0,0,1,448,266.7Z" transform="translate(0 0.0408)"/><path class="b" d="M362.7,277.3A21.3,21.3,0,1,0,384,298.6,21.3175,21.3175,0,0,0,362.7,277.3Z" transform="translate(0 0.0408)"/><path class="c" d="M266.7231,294.0422l-62.7546-69.7273A6.9779,6.9779,0,0,0,198.7808,222H156.9445a6.9676,6.9676,0,0,0-5.1877,11.6305L210.3137,298.7l-58.557,65.0556A6.9793,6.9793,0,0,0,156.9445,375.4h41.8363a7.0665,7.0665,0,0,0,5.1877-2.301l62.7546-69.7272A6.9776,6.9776,0,0,0,266.7231,294.0422Z" transform="translate(0 0.0408)"/><path class="d" d="M176.0776,294.0422l-62.7545-69.7273A6.9782,6.9782,0,0,0,108.1354,222H66.299a6.9676,6.9676,0,0,0-5.1877,11.6305L119.6682,298.7,61.1113,363.7556A6.9793,6.9793,0,0,0,66.299,375.4h41.8364a7.0668,7.0668,0,0,0,5.1877-2.301l62.7545-69.7272A6.9776,6.9776,0,0,0,176.0776,294.0422Z" transform="translate(0 0.0408)"/></svg>