<?xml version="1.0" encoding="utf-8"?>
<!-- Generator: Adobe Illustrator 24.1.3, SVG Export Plug-In . SVG Version: 6.00 Build 0)  -->
<svg version="1.1" id="Layer_1" xmlns="http://www.w3.org/2000/svg" xmlns:xlink="http://www.w3.org/1999/xlink" x="0px" y="0px"
	 viewBox="0 0 512 512" style="enable-background:new 0 0 512 512;" xml:space="preserve">
<style type="text/css">
	.st0{fill:url(#SVGID_1_);}
</style>
<linearGradient id="SVGID_1_" gradientUnits="userSpaceOnUse" x1="450.7615" y1="538.0777" x2="61.226" y2="148.5422">
	<stop  offset="0" style="stop-color:#46AEF7"/>
	<stop  offset="1" style="stop-color:#1DD5E6"/>
</linearGradient>
<path class="st0" d="M82.9,311.1c3.4,2.3,7.3,3.4,11.1,3.4c6.4,0,12.8-3.1,16.6-8.9c32.3-48.3,86.3-77.1,144.5-77.1
	c58,0,111.9,28.7,144.3,76.8c6.2,9.2,18.6,11.6,27.8,5.4c9.2-6.2,11.6-18.6,5.4-27.8c-25.8-38.4-62.9-66.7-105.2-81.9
	c25.4-20.7,41.6-52.3,41.6-87.5c0-62.3-50.7-113-113-113s-113,50.7-113,113c0,35,16,66.3,41.1,87.1c-43,15.1-80.6,43.8-106.7,82.8
	C71.2,292.6,73.7,305,82.9,311.1z M256,40.5c40.3,0,73,32.7,73,73s-32.7,73-73,73s-73-32.7-73-73S215.7,40.5,256,40.5z M335.8,354.6
	l-29.8,21.5c-4.4,3.2-6.3,8.9-4.6,14.1l12,34.8c0.5,1.5,0.7,3.1,0.6,4.5c-0.4,9.3-12.1,15.7-20.7,9.5l-29.8-21.5
	c-2.2-1.6-4.8-2.4-7.4-2.4s-5.2,0.8-7.4,2.4L218.7,439c-8.6,6.2-20.4-0.2-20.7-9.5c-0.1-1.4,0.1-3,0.6-4.5l12-34.8
	c1.7-5.2-0.2-10.9-4.6-14.1l-29.8-21.5c-9.9-7.2-4.8-24.1,7.4-24.1h36.9c5.5,0,10.3-2.1,12-7.3l11.4-35c1.9-5.8,7-8.7,12-8.7
	c5.1,0,10.1,2.9,12,8.7l11.4,35c1.7,5.2,6.6,7.3,12,7.3h36.9C340.6,330.5,345.7,347.5,335.8,354.6z M506.8,424.6l-29.8,21.5
	c-4.4,3.2-6.3,8.9-4.6,14.1l12,34.8c0.5,1.5,0.7,3.1,0.6,4.5c-0.4,9.3-12.1,15.7-20.7,9.5l-29.8-21.5c-2.2-1.6-4.8-2.4-7.4-2.4
	s-5.2,0.8-7.4,2.4L389.7,509c-8.6,6.2-20.4-0.2-20.7-9.5c-0.1-1.4,0.1-3,0.6-4.5l12-34.8c1.7-5.2-0.2-10.9-4.6-14.1l-29.8-21.5
	c-9.9-7.2-4.8-24.1,7.4-24.1h36.9c5.5,0,10.3-2.1,12-7.3l11.4-35c1.9-5.8,7-8.7,12-8.7s10.1,2.9,12,8.7l11.4,35
	c1.7,5.2,6.6,7.3,12,7.3h36.9C511.6,400.5,516.7,417.5,506.8,424.6z M164.8,424.6l-29.8,21.5c-4.4,3.2-6.3,8.9-4.6,14.1l12,34.8
	c0.5,1.5,0.7,3.1,0.6,4.5c-0.4,9.3-12.1,15.7-20.7,9.5l-29.8-21.5c-2.2-1.6-4.8-2.4-7.4-2.4s-5.2,0.8-7.4,2.4L47.7,509
	c-8.6,6.2-20.4-0.2-20.7-9.5c-0.1-1.4,0.1-3,0.6-4.5l12-34.8c1.7-5.2-0.2-10.9-4.6-14.1L5.2,424.6c-9.9-7.2-4.8-24.1,7.4-24.1h36.9
	c5.5,0,10.3-2.1,12-7.3l11.4-35c1.9-5.8,7-8.7,12-8.7s10.1,2.9,12,8.7l11.4,35c1.7,5.2,6.6,7.3,12,7.3h36.9
	C169.6,400.5,174.7,417.5,164.8,424.6z"/>
</svg>
