<svg xmlns="http://www.w3.org/2000/svg" xmlns:xlink="http://www.w3.org/1999/xlink" viewBox="0 0 512.0001 383.4675"><defs><style>.a{fill:url(#a);}.b{fill:url(#b);}.c{fill:url(#c);}.d{fill:url(#d);}.e{fill:url(#e);}.f{fill:url(#f);}</style><linearGradient id="a" x1="127.467" y1="16.068" x2="127.467" y2="79.8945" gradientUnits="userSpaceOnUse"><stop offset="0" stop-color="#d3fbfb"/><stop offset="1" stop-color="#f8c650"/></linearGradient><linearGradient id="b" x1="384.5335" y1="16.067" x2="384.5335" y2="79.8935" xlink:href="#a"/><linearGradient id="c" x1="256" y1="0" x2="256" y2="289.2005" xlink:href="#a"/><linearGradient id="d" x1="255.9342" y1="261.1393" x2="255.9342" y2="347.2321" xlink:href="#a"/><linearGradient id="e" x1="128" y1="319.2005" x2="128" y2="383.4675" xlink:href="#a"/><linearGradient id="f" x1="384" y1="319.2005" x2="384" y2="383.4675" xlink:href="#a"/></defs><path class="a" d="M162.487,44.8745l-24.413-24.413a15,15,0,0,0-21.213,0L92.447,44.8755l35.02,35.019Z"/><path class="b" d="M419.553,44.8745,395.14,20.4605a15,15,0,0,0-21.213,0l-24.413,24.413,35.02,35.02Z"/><path class="c" d="M502.74,17.2085a15.0024,15.0024,0,0,0-16.347,3.252L384.533,122.32,266.606,4.3935a15,15,0,0,0-21.213,0L127.467,122.3205,25.606,20.4605A14.9992,14.9992,0,0,0,0,31.0675v258.133H185.521l59.873-59.873a15,15,0,0,1,21.213,0l59.873,59.873H512V31.0675a15,15,0,0,0-9.26-13.859Z"/><path class="d" d="M212.8878,304.1857l43.0464-43.0464,43.0464,43.0464-43.0464,43.0464Z"/><path class="e" d="M185.52,319.2005H0v49.267a15,15,0,0,0,15,15H256a14.946,14.946,0,0,1-10.606-4.394Z"/><path class="f" d="M266.606,379.0735A14.9536,14.9536,0,0,1,256,383.4675H497a15,15,0,0,0,15-15v-49.267H326.48Z"/></svg>