<svg xmlns="http://www.w3.org/2000/svg" xmlns:xlink="http://www.w3.org/1999/xlink" width="20" height="19" viewBox="0 0 20 19">
  <defs>
    <linearGradient id="linear-gradient" x1="0.144" y1="0.303" x2="0.843" y2="1.071" gradientUnits="objectBoundingBox">
      <stop offset="0" stop-color="#08b1f9"/>
      <stop offset="1" stop-color="#04a0f9"/>
    </linearGradient>
  </defs>
  <g id="Vector_Smart_Object" data-name="Vector Smart Object" transform="translate(0 -0.581)">
    <g id="Group_40" data-name="Group 40">
      <g id="Group_39" data-name="Group 39">
        <path id="Path_57" data-name="Path 57" d="M19.584,15.12,12.519,2.027a2.918,2.918,0,0,0-5.039,0L.416,15.12a2.952,2.952,0,0,0,2.519,4.461h14.13A2.953,2.953,0,0,0,19.584,15.12ZM10,17.218a1.181,1.181,0,1,1,1.172-1.181A1.178,1.178,0,0,1,10,17.218Zm1.172-4.726a1.172,1.172,0,1,1-2.344,0V6.586a1.172,1.172,0,1,1,2.344,0Z" fill="url(#linear-gradient)"/>
      </g>
    </g>
  </g>
</svg>
