<?xml version="1.0" standalone="no"?>
<!DOCTYPE svg PUBLIC "-//W3C//DTD SVG 20010904//EN"
 "http://www.w3.org/TR/2001/REC-SVG-20010904/DTD/svg10.dtd">
<svg version="1.0" xmlns="http://www.w3.org/2000/svg"
 width="1157.000000pt" height="2134.000000pt" viewBox="0 0 1157.000000 2134.000000"
 preserveAspectRatio="xMidYMid meet">
<metadata>
Created by potrace 1.16, written by Peter Selinger 2001-2019
</metadata>
<g transform="translate(0.000000,2134.000000) scale(0.100000,-0.100000)"
fill="#fff" stroke="none">
<path d="M10501 21329 c-60 -11 -167 -47 -216 -72 -140 -69 -66 5 -5108 -5036
-2711 -2709 -4951 -4954 -4978 -4987 -73 -92 -126 -188 -161 -294 -27 -84 -31
-112 -36 -240 -3 -124 -1 -158 17 -235 26 -109 92 -247 159 -335 28 -36 2272
-2286 4989 -5001 5355 -5353 4993 -4999 5178 -5070 130 -51 201 -61 365 -56
155 5 250 27 365 85 240 121 417 343 476 598 18 81 21 114 17 237 -5 119 -10
156 -33 227 -34 105 -69 174 -133 265 -34 49 -1502 1521 -4646 4660 l-4595
4590 4608 4610 c3777 3777 4618 4623 4656 4683 53 83 94 178 121 278 26 98 26
311 0 414 -85 332 -332 584 -654 666 -77 20 -118 24 -221 23 -69 -1 -146 -5
-170 -10z"/>
</g>
</svg>
