<svg xmlns="http://www.w3.org/2000/svg" xmlns:xlink="http://www.w3.org/1999/xlink" viewBox="0 0 160.6008 174.3286"><defs><style>.a{isolation:isolate;}.b{fill:none;}.c{fill:url(#a);}.d{fill:url(#b);}.e{fill:url(#c);}.f{fill:url(#d);}.g{fill:url(#e);}.ab,.ac,.ae,.ag,.ai,.h,.i,.j,.k,.m,.s,.v,.y{opacity:0.4;mix-blend-mode:multiply;}.h{fill:url(#f);}.i{fill:url(#g);}.j{fill:url(#h);}.k{fill:url(#i);}.l{fill:url(#j);}.m{fill:url(#k);}.n{fill:url(#l);}.o{fill:url(#m);}.p{fill:url(#n);}.q{fill:url(#o);}.r{fill:url(#p);}.s{fill:url(#q);}.t{fill:url(#r);}.u{fill:url(#s);}.v{fill:url(#t);}.w{fill:url(#u);}.x{fill:url(#v);}.y{fill:url(#w);}.z{fill:url(#x);}.aa{fill:url(#y);}.ab{fill:url(#z);}.ac{fill:url(#aa);}.ad{fill:url(#ab);}.ae{fill:url(#ac);}.af{fill:url(#ad);}.ag{fill:url(#ae);}.ah{fill:url(#af);}.ai{fill:url(#ag);}.aj{fill:url(#ah);}.ak{fill:url(#ai);}</style><linearGradient id="a" x1="48.9604" y1="146.6685" x2="96.8469" y2="196.2565" gradientUnits="userSpaceOnUse"><stop offset="0" stop-color="#fad126"/><stop offset="1" stop-color="#ff544f"/></linearGradient><linearGradient id="b" x1="114.8981" y1="82.9931" x2="162.7847" y2="132.5811" xlink:href="#a"/><linearGradient id="c" x1="113.2096" y1="84.6237" x2="161.0962" y2="134.2117" xlink:href="#a"/><linearGradient id="d" x1="100.6239" y1="96.7775" x2="148.5105" y2="146.3656" xlink:href="#a"/><linearGradient id="e" x1="111.4533" y1="86.3198" x2="159.3399" y2="135.9078" xlink:href="#a"/><linearGradient id="f" x1="112.2747" y1="85.5265" x2="147.3434" y2="121.8412" xlink:href="#a"/><linearGradient id="g" x1="110.5968" y1="87.1468" x2="145.6655" y2="123.4615" xlink:href="#a"/><linearGradient id="h" x1="111.6502" y1="73.7727" x2="146.7189" y2="110.0874" xlink:href="#a"/><linearGradient id="i" x1="91.0775" y1="105.9964" x2="126.1461" y2="142.3111" xlink:href="#a"/><linearGradient id="j" x1="98.1544" y1="99.1624" x2="146.041" y2="148.7504" xlink:href="#a"/><linearGradient id="k" x1="98.1544" y1="99.1624" x2="133.2228" y2="135.4768" xlink:href="#a"/><linearGradient id="l" x1="8.1981" y1="81.2065" x2="106.4724" y2="182.9725" xlink:href="#a"/><linearGradient id="m" x1="7.7798" y1="81.6105" x2="106.0541" y2="183.3764" xlink:href="#a"/><linearGradient id="n" x1="-15.3734" y1="103.9693" x2="82.9008" y2="205.7352" xlink:href="#a"/><linearGradient id="o" x1="51.9063" y1="143.8236" x2="99.7929" y2="193.4117" xlink:href="#a"/><linearGradient id="p" x1="-0.4746" y1="89.5817" x2="97.7996" y2="191.3476" xlink:href="#a"/><linearGradient id="q" x1="65.8255" y1="130.382" x2="100.8941" y2="166.6967" gradientTransform="translate(175.9333 9.6694) rotate(64.1085)" xlink:href="#a"/><linearGradient id="r" x1="13.4446" y1="76.1401" x2="111.7189" y2="177.906" gradientTransform="translate(175.9333 9.6694) rotate(64.1085)" xlink:href="#a"/><linearGradient id="s" x1="64.4838" y1="131.6776" x2="112.3704" y2="181.2657" xlink:href="#a"/><linearGradient id="t" x1="64.4838" y1="131.6776" x2="99.5525" y2="167.9923" xlink:href="#a"/><linearGradient id="u" x1="12.103" y1="77.4357" x2="110.3772" y2="179.2016" xlink:href="#a"/><linearGradient id="v" x1="0.5724" y1="88.5706" x2="98.8467" y2="190.3365" xlink:href="#a"/><linearGradient id="w" x1="14.1758" y1="102.6573" x2="90.1078" y2="181.2871" xlink:href="#a"/><linearGradient id="x" x1="47.1853" y1="148.3827" x2="95.0719" y2="197.9707" xlink:href="#a"/><linearGradient id="y" x1="-5.1956" y1="94.1407" x2="93.0787" y2="195.9066" xlink:href="#a"/><linearGradient id="z" x1="8.4078" y1="108.2274" x2="84.3398" y2="186.8572" xlink:href="#a"/><linearGradient id="aa" x1="54.7857" y1="141.043" x2="89.8544" y2="177.3576" gradientTransform="translate(185.1402 24.3723) rotate(64.1086)" xlink:href="#a"/><linearGradient id="ab" x1="2.4049" y1="86.801" x2="100.6791" y2="188.567" gradientTransform="translate(185.1402 24.3723) rotate(64.1086)" xlink:href="#a"/><linearGradient id="ac" x1="16.0083" y1="100.8878" x2="91.9402" y2="179.5176" gradientTransform="translate(185.1402 24.3723) rotate(64.1086)" xlink:href="#a"/><linearGradient id="ad" x1="50.2578" y1="133.0587" x2="98.1444" y2="182.6467" xlink:href="#a"/><linearGradient id="ae" x1="50.2578" y1="133.0587" x2="85.3264" y2="169.3734" xlink:href="#a"/><linearGradient id="af" x1="-2.1231" y1="78.8168" x2="96.1512" y2="180.5827" xlink:href="#a"/><linearGradient id="ag" x1="11.4804" y1="92.9035" x2="87.4123" y2="171.5333" xlink:href="#a"/><linearGradient id="ah" x1="57.0154" y1="19.45" x2="112.6906" y2="77.1034" xlink:href="#a"/><linearGradient id="ai" x1="66.3849" y1="56.7879" x2="103.2539" y2="94.9668" xlink:href="#a"/></defs><g class="a"><polygon class="b" points="62.168 37.171 56.751 31.753 51.333 37.171 56.751 47.779 62.168 37.171"/><polygon class="b" points="109.172 37.171 103.754 31.753 98.336 37.171 103.754 47.779 109.172 37.171"/><polygon class="b" points="87.596 33.783 80.252 26.439 72.909 33.783 80.252 46.317 87.596 33.783"/><path class="c" d="M62.4126,182.0545l-.1039.2141,42.1.0416h.0009l-39.3537-.039A16.9634,16.9634,0,0,1,62.4126,182.0545Z" transform="translate(-4.528 -7.9843)"/><path class="d" d="M119.1107,84.864a15.1675,15.1675,0,0,0-4.2348.5977,15.1687,15.1687,0,0,1,4.2349-.5977Z" transform="translate(-4.528 -7.9843)"/><path class="e" d="M113.59,85.9052c.4219-.1644.8489-.3171,1.286-.4435C114.4388,85.5881,114.0118,85.7408,113.59,85.9052Z" transform="translate(-4.528 -7.9843)"/><path class="f" d="M119.2466,84.8641l28.0912.0279-36.8841,71.3316A16.9875,16.9875,0,0,1,98.82,165.0524l8.2324,17.0462a16.9825,16.9825,0,0,0,12.462-8.9728L165.1288,84.91Z" transform="translate(-4.528 -7.9843)"/><path class="g" d="M111.4269,86.9532q.411-.2406.8359-.4559Q111.8373,86.712,111.4269,86.9532Z" transform="translate(-4.528 -7.9843)"/><path class="h" d="M112.2628,86.4973q.6483-.327,1.3271-.5921Q112.9113,86.17,112.2628,86.4973Z" transform="translate(-4.528 -7.9843)"/><path class="i" d="M110.1737,87.7619c.4027-.2924.824-.5572,1.2532-.8087C110.9977,87.2047,110.5764,87.47,110.1737,87.7619Z" transform="translate(-4.528 -7.9843)"/><polygon class="j" points="114.583 76.88 114.583 76.88 114.719 76.88 114.583 76.88"/><path class="k" d="M105.4363,93.4174a15.1664,15.1664,0,0,1,3.9089-5.0091,15.166,15.166,0,0,0-3.9089,5.009L84.7778,135.9778h0Z" transform="translate(-4.528 -7.9843)"/><path class="l" d="M105.4363,93.4174,84.7778,135.9779,98.82,165.0524a16.9875,16.9875,0,0,0,11.6342-8.8288L147.3378,84.892l-28.0912-.0279h-.1358a15.1687,15.1687,0,0,0-4.2349.5977c-.4371.1264-.8641.2791-1.286.4435q-.6786.2643-1.3271.5921-.4255.2147-.8359.4559c-.4292.2515-.85.5163-1.2532.8087q-.4249.3086-.8285.6464A15.1664,15.1664,0,0,0,105.4363,93.4174Z" transform="translate(-4.528 -7.9843)"/><path class="m" d="M105.4363,93.4174,84.7778,135.9779,98.82,165.0524a16.9875,16.9875,0,0,0,11.6342-8.8288L147.3378,84.892l-28.0912-.0279h-.1358a15.1687,15.1687,0,0,0-4.2349.5977c-.4371.1264-.8641.2791-1.286.4435q-.6786.2643-1.3271.5921-.4255.2147-.8359.4559c-.4292.2515-.85.5163-1.2532.8087q-.4249.3086-.8285.6464A15.1664,15.1664,0,0,0,105.4363,93.4174Z" transform="translate(-4.528 -7.9843)"/><path class="n" d="M107.1554,182.3129l-.1035-.2143a16.9675,16.9675,0,0,1-2.6425.2116Z" transform="translate(-4.528 -7.9843)"/><path class="o" d="M41.2377,102.9641a15.1833,15.1833,0,0,1,13.6574,8.58l20.8186,43.1071,9.0641-18.6737L64.2035,93.3766a15.1834,15.1834,0,0,0-13.6575-8.58L4.528,84.7508l45.44,88.3062-36.0822-70.12Z" transform="translate(-4.528 -7.9843)"/><path class="p" d="M51.8961,176.0058a16.9885,16.9885,0,0,0,10.5165,6.0487h0A16.9882,16.9882,0,0,1,51.8961,176.0058Z" transform="translate(-4.528 -7.9843)"/><path class="q" d="M95.3483,165.408l-14.4466-.0143,8.1625,16.9012-24.0085-.0237a16.9744,16.9744,0,0,1-2.643-.2168h0a16.9634,16.9634,0,0,0,2.6431.2167l39.3537.039a16.9675,16.9675,0,0,0,2.6425-.2116L98.82,165.0524A16.988,16.988,0,0,1,95.3483,165.408Z" transform="translate(-4.528 -7.9843)"/><path class="r" d="M95.3483,165.408l-14.4466-.0143,8.1625,16.9012-24.0085-.0237a16.9744,16.9744,0,0,1-2.643-.2168h0a16.9634,16.9634,0,0,0,2.6431.2167l39.3537.039a16.9675,16.9675,0,0,0,2.6425-.2116L98.82,165.0524A16.988,16.988,0,0,1,95.3483,165.408Z" transform="translate(-4.528 -7.9843)"/><rect class="s" x="69.8672" y="145.3147" width="20.7572" height="0.0001" transform="translate(-90.0513 146.067) rotate(-64.1085)"/><rect class="t" x="69.8672" y="145.3147" width="20.7572" height="0.0001" transform="translate(-90.0513 146.067) rotate(-64.1085)"/><path class="u" d="M75.7138,154.6516l5.1879,10.7421,14.4466.0143a16.988,16.988,0,0,0,3.4712-.3556L84.7778,135.9779Z" transform="translate(-4.528 -7.9843)"/><path class="v" d="M75.7138,154.6516l5.1879,10.7421,14.4466.0143a16.988,16.988,0,0,0,3.4712-.3556L84.7778,135.9779Z" transform="translate(-4.528 -7.9843)"/><path class="w" d="M75.7138,154.6516l5.1879,10.7421,14.4466.0143a16.988,16.988,0,0,0,3.4712-.3556L84.7778,135.9779Z" transform="translate(-4.528 -7.9843)"/><path class="x" d="M62.4127,182.0544l8.0919-16.671h0l5.2091-10.7319L54.8951,111.5444a15.1833,15.1833,0,0,0-13.6574-8.58l-27.3515-.0271,36.0822,70.12a16.9583,16.9583,0,0,0,12.4443,8.9974Z" transform="translate(-4.528 -7.9843)"/><path class="y" d="M62.4127,182.0544l8.0919-16.671h0l5.2091-10.7319L54.8951,111.5444a15.1833,15.1833,0,0,0-13.6574-8.58l-27.3515-.0271,36.0822,70.12a16.9583,16.9583,0,0,0,12.4443,8.9974Z" transform="translate(-4.528 -7.9843)"/><path class="z" d="M62.4127,182.0544a16.9744,16.9744,0,0,0,2.643.2168l24.0085.0237-8.1625-16.9012-10.3971-.01Z" transform="translate(-4.528 -7.9843)"/><path class="aa" d="M62.4127,182.0544a16.9744,16.9744,0,0,0,2.643.2168l24.0085.0237-8.1625-16.9012-10.3971-.01Z" transform="translate(-4.528 -7.9843)"/><path class="ab" d="M62.4127,182.0544a16.9744,16.9744,0,0,0,2.643.2168l24.0085.0237-8.1625-16.9012-10.3971-.01Z" transform="translate(-4.528 -7.9843)"/><rect class="ac" x="67.1445" y="160.0174" width="11.9293" height="0.0001" transform="translate(-107.2986 147.9295) rotate(-64.1086)"/><rect class="ad" x="67.1445" y="160.0174" width="11.9293" height="0.0001" transform="translate(-107.2986 147.9295) rotate(-64.1086)"/><rect class="ae" x="67.1445" y="160.0174" width="11.9293" height="0.0001" transform="translate(-107.2986 147.9295) rotate(-64.1086)"/><polygon class="af" points="65.977 157.399 76.374 157.409 71.186 146.667 65.977 157.399"/><polygon class="ag" points="65.977 157.399 76.374 157.409 71.186 146.667 65.977 157.399"/><polygon class="ah" points="65.977 157.399 76.374 157.409 71.186 146.667 65.977 157.399"/><polygon class="ai" points="65.977 157.399 76.374 157.409 71.186 146.667 65.977 157.399"/><path class="aj" d="M84.78,65.4625c22.95,0,35.7,4.1185,35.7,4.1185C122.7985,66,136.7077,44.2737,136.7077,44.2737c-12.5182,0-12.0546-13.1311-12.0546-13.1311-16.2274.8357-19.0092-13.37-19.0092-13.37C91.8506,19.9215,84.78,7.9843,84.78,7.9843s-7.07,11.9372-20.8638,9.7885c0,0-2.7818,14.2055-19.0091,13.37,0,0,.4636,13.1311-12.0546,13.1311,0,0,13.9092,21.7261,16.2273,25.3073C49.08,69.581,61.83,65.4625,84.78,65.4625Zm23.5016-25.725L113.7,45.1552l-5.4177,10.6083-5.4176-10.6083ZM84.78,34.4232l7.3436,7.3437L84.78,54.3012,77.4365,41.7669ZM61.2785,39.7375l5.4177,5.4177L61.2785,55.7635,55.8609,45.1552Z" transform="translate(-4.528 -7.9843)"/><path class="ak" d="M49.7379,72.8637l2.247,8.2729c3.6816-1.0027,15.05-3.6338,32.7953-3.7262,17.7448.0924,29.1136,2.7235,32.7952,3.7262l2.247-8.2729S107.3073,68.7453,84.78,68.7453,49.7379,72.8637,49.7379,72.8637Z" transform="translate(-4.528 -7.9843)"/></g></svg>